<svg xmlns="http://www.w3.org/2000/svg" xmlns:xlink="http://www.w3.org/1999/xlink" viewBox="0 0 76 51"><defs><style>.cls-1{fill:none;clip-rule:evenodd;}.cls-2{fill-rule:evenodd;}.cls-3{clip-path:url(#clip-path);}.cls-4{fill:url(#linear-gradient);}</style><clipPath id="clip-path"><path class="cls-1" d="M60.1,13.12h1.26c0-.39-.18-.59-.54-.59a.72.72,0,0,0-.72.59M49.78,24l.24.24v-.42Zm-.3.42q0,.54.24.6a1.71,1.71,0,0,0,.66.06l-.12-.54L50,24.46a1.19,1.19,0,0,0-.54-.12ZM72.15,27.2l-2.2.12,2.44.48.18-.66h-.42ZM38.21,33v.2h.12l.05-.47ZM45.36,13.3H43.8l-.43,2.15Zm26.2-7.1-2,.06A3.44,3.44,0,0,1,71,5.55a14.48,14.48,0,0,0-6-3.46q-1.86-.54-10.15-.54H46.15L43.89,12.88l1.75.12,1.15-1.24-.29,1.3L50,13.3v-.47a55.49,55.49,0,0,1,9.07.35l1.37-1,2.27,1.37.42.54h-.3l-.6-.12.78.6.24.77-.3.24a6.4,6.4,0,0,1,.36,4.3,5.42,5.42,0,0,1-4.12,4.41,30.84,30.84,0,0,1-7.94.6l-.47.65-1.26-.36-.53-1v-.42h1V13.3H46.45l-7.75,35,.82.93H50V35.32q9.54,0,13.9-1.26A14,14,0,0,0,72.21,28l-1.13-.06Q63.81,28,60.22,28H51.93l20.88-1.13A21.73,21.73,0,0,0,75.2,16.76,15.26,15.26,0,0,0,71.56,6.2Z"/></clipPath><linearGradient id="linear-gradient" x1="62.08" y1="25.08" x2="46.38" y2="25.97" gradientUnits="userSpaceOnUse"><stop offset="0" stop-color="#8cbb49"/><stop offset="1" stop-color="#ccd73e"/></linearGradient></defs><title>Icono - Nutripower</title><g id="Logo"><path class="cls-2" d="M35.59,48.26a9.54,9.54,0,0,0-1.4.15,9.49,9.49,0,0,1-1.34.15l.06.06H27.3v.12q.24.42,8.71.42Zm1.07-.13-.29.07v.18l.06.06L36,48.5l.06.18c0,.16.21.28.48.37ZM33,48.38l.06-.18,3.61-.45.07-.61L36.19,47l.62-.24,1.57-14L35,37.93l1.75-12L31.11,34l2.57-19.74L30.94,14h2.77l1-7.79c-.77,0-1.66,0-2.65,0l2.68-.21.56-4.32H28.67q0,2.63-.06,9.31-.06,4.41.06,9.18.12,5.67.42,9A79.87,79.87,0,0,0,25,19.63L19.76,8.77q-4.43.06-15.43.12l15.21-.42-3.34-7H1.29V4.35L1.65,6H1.29V17.6l1.25,3-.89,1.13L1.29,20.1l.12,2.09H1.29V43.67a17.08,17.08,0,0,0,.65,1.79l.6-.36c0,1.33-.42,2.18-1.25,2.55v1.57h10l.94-1.14q0-3.94-.1-11.47l-1-3.53,1.07-.54c0-1.92-.07-4.76-.11-8.55a42.75,42.75,0,0,1-2.69-5.26l1.61-.3-.36-1h.6L6.06,11.81l5,3.88-.59-1,.23.12q1.26,0,1.91,5.19l.48-2.26L15,18.85a3.83,3.83,0,0,1-.21,1,4,4,0,0,0-.21,1c0,.56.46.83,1.37.83l-.35,1.79H14.23q.72,1.32,2.51,4.74l5.61,11.25,4,.06h-4L26.58,48l.48-.17.24.53Zm-20.77-27v-.25l-.41-.29Zm1.62-.54h-1l.6,1.43.83-.3Zm-1.2-.72L12.62,20V20Z"/><g class="cls-3"><rect class="cls-4" x="38.21" y="1.55" width="36.99" height="47.67"/></g></g></svg>