<?xml version="1.0" encoding="utf-8"?>
<!-- Generator: Adobe Illustrator 22.0.0, SVG Export Plug-In . SVG Version: 6.00 Build 0)  -->
<svg version="1.1" id="Layer_1" xmlns="http://www.w3.org/2000/svg" xmlns:xlink="http://www.w3.org/1999/xlink" x="0px" y="0px"
	 viewBox="0 0 91 80.2" style="enable-background:new 0 0 91 80.2;" xml:space="preserve">
<style type="text/css">
	.st0{opacity:0.75;fill:#FFFFFF;}
	.st1{fill:#333333;}
	.st2{fill:#F5F7F9;}
	.st3{fill:#FFFFFF;}
	.st4{fill:#BBD792;}
	.st5{opacity:0.6;}
	.st6{fill:#3BACE2;}
	.st7{fill:#DADADA;}
	.st8{fill:#2E65AD;}
	.st9{opacity:0.8;}
	.st10{fill:#2B2B2A;}
	.st11{fill:#ADAAAA;}
	.st12{fill:#262626;}
	.st13{fill:none;}
	.st14{fill:#FFFFFF;stroke:#3BACE2;stroke-width:2;stroke-miterlimit:10;}
	.st15{clip-path:url(#SVGID_2_);}
	.st16{fill:url(#SVGID_3_);}
	.st17{fill:url(#SVGID_4_);}
	.st18{fill:url(#SVGID_5_);}
	.st19{fill:url(#SVGID_6_);}
	.st20{fill:url(#SVGID_7_);}
	.st21{fill:url(#SVGID_8_);}
	.st22{fill:#383838;}
	.st23{opacity:0.85;}
	.st24{clip-path:url(#SVGID_10_);}
	.st25{clip-path:url(#SVGID_14_);}
	.st26{clip-path:url(#SVGID_18_);}
	.st27{clip-path:url(#SVGID_22_);}
	.st28{clip-path:url(#SVGID_26_);}
	.st29{clip-path:url(#SVGID_30_);}
	.st30{clip-path:url(#SVGID_34_);}
	.st31{clip-path:url(#SVGID_38_);}
	.st32{clip-path:url(#SVGID_42_);}
	.st33{fill:none;stroke:#3BACE2;stroke-miterlimit:10;}
	.st34{enable-background:new    ;}
	.st35{fill:#0075FB;}
	.st36{fill:#F4F4F4;}
	.st37{fill:none;stroke:#1E1E1E;stroke-width:0.5798;stroke-miterlimit:10;}
	.st38{fill:none;stroke:#1E1E1E;stroke-width:0.2854;stroke-miterlimit:10;}
	.st39{fill:#8DBC4A;}
	.st40{opacity:0.88;fill:#EDE72E;}
	.st41{opacity:0.9;fill:#0BDB91;}
	.st42{fill:#F2F2F1;stroke:#0BDB91;stroke-width:1.909;stroke-miterlimit:10;}
	.st43{fill:none;stroke:#1E1E1E;stroke-width:0.7952;stroke-miterlimit:10;}
	.st44{fill:none;stroke:#5B5A5A;stroke-width:0.8764;stroke-miterlimit:10;}
	.st45{opacity:0.65;fill:#FFFFFF;stroke:#FFFFFF;stroke-miterlimit:10;}
	.st46{opacity:0.8;fill:#262626;}
	.st47{fill:none;stroke:#1E1E1E;stroke-width:0.8574;stroke-miterlimit:10;}
	.st48{fill:#DB9FF4;}
	.st49{clip-path:url(#SVGID_46_);}
	.st50{clip-path:url(#SVGID_48_);}
	.st51{clip-path:url(#SVGID_50_);}
	.st52{clip-path:url(#SVGID_52_);}
	.st53{clip-path:url(#SVGID_54_);}
	.st54{clip-path:url(#SVGID_56_);}
	.st55{opacity:0.8;fill:#FFFFFF;}
	.st56{clip-path:url(#SVGID_58_);}
	.st57{clip-path:url(#SVGID_60_);}
	.st58{opacity:0.7;fill:#FFFFFF;}
	.st59{fill:url(#SVGID_61_);}
	.st60{fill:url(#SVGID_62_);}
	.st61{fill:url(#SVGID_63_);}
	.st62{fill:url(#SVGID_64_);}
	.st63{fill:url(#SVGID_65_);}
	.st64{fill:url(#SVGID_66_);}
	.st65{fill:url(#SVGID_67_);}
	.st66{fill:url(#SVGID_68_);}
	.st67{fill:url(#SVGID_69_);}
	.st68{fill:url(#SVGID_70_);}
	.st69{fill:url(#SVGID_71_);}
	.st70{fill:url(#SVGID_72_);}
	.st71{fill:url(#SVGID_73_);}
	.st72{fill:url(#SVGID_74_);}
	.st73{fill:url(#SVGID_75_);}
	.st74{fill:url(#SVGID_76_);}
	.st75{fill:url(#SVGID_77_);}
	.st76{fill:url(#SVGID_78_);}
	.st77{fill:#124490;}
</style>
<linearGradient id="SVGID_2_" gradientUnits="userSpaceOnUse" x1="-0.5369" y1="34.8552" x2="39.3687" y2="4.5188">
	<stop  offset="4.207921e-02" style="stop-color:#E95B3E"/>
	<stop  offset="0.1733" style="stop-color:#ED6F41"/>
	<stop  offset="0.1778" style="stop-color:#ED7041"/>
	<stop  offset="0.3712" style="stop-color:#F18A3B"/>
	<stop  offset="0.5694" style="stop-color:#F39C36"/>
	<stop  offset="0.7755" style="stop-color:#F5A734"/>
	<stop  offset="1" style="stop-color:#F5AB33"/>
</linearGradient>
<path style="fill:url(#SVGID_2_);" d="M20.2,19.2c0-0.1,0-0.2,0-0.2C20.2,19,20.2,19.1,20.2,19.2z"/>
<linearGradient id="SVGID_3_" gradientUnits="userSpaceOnUse" x1="-1.4781" y1="33.2919" x2="38.1388" y2="3.175">
	<stop  offset="4.207921e-02" style="stop-color:#E95B3E"/>
	<stop  offset="0.1733" style="stop-color:#ED6F41"/>
	<stop  offset="0.1778" style="stop-color:#ED7041"/>
	<stop  offset="0.3712" style="stop-color:#F18A3B"/>
	<stop  offset="0.5694" style="stop-color:#F39C36"/>
	<stop  offset="0.7755" style="stop-color:#F5A734"/>
	<stop  offset="1" style="stop-color:#F5AB33"/>
</linearGradient>
<path class="st16" d="M21.2,16.1c0-0.1,0.1-0.1,0.1-0.2C21.3,16,21.2,16,21.2,16.1z"/>
<linearGradient id="SVGID_4_" gradientUnits="userSpaceOnUse" x1="-1.7613" y1="32.8039" x2="37.7603" y2="2.7594">
	<stop  offset="4.207921e-02" style="stop-color:#E95B3E"/>
	<stop  offset="0.1733" style="stop-color:#ED6F41"/>
	<stop  offset="0.1778" style="stop-color:#ED7041"/>
	<stop  offset="0.3712" style="stop-color:#F18A3B"/>
	<stop  offset="0.5694" style="stop-color:#F39C36"/>
	<stop  offset="0.7755" style="stop-color:#F5A734"/>
	<stop  offset="1" style="stop-color:#F5AB33"/>
</linearGradient>
<path class="st17" d="M22.1,14.6C22.1,14.6,22.1,14.7,22.1,14.6C22.1,14.7,22.1,14.6,22.1,14.6C22.1,14.6,22.1,14.6,22.1,14.6z"/>
<linearGradient id="SVGID_5_" gradientUnits="userSpaceOnUse" x1="-1.0795" y1="33.9323" x2="38.6373" y2="3.7395">
	<stop  offset="4.207921e-02" style="stop-color:#E95B3E"/>
	<stop  offset="0.1733" style="stop-color:#ED6F41"/>
	<stop  offset="0.1778" style="stop-color:#ED7041"/>
	<stop  offset="0.3712" style="stop-color:#F18A3B"/>
	<stop  offset="0.5694" style="stop-color:#F39C36"/>
	<stop  offset="0.7755" style="stop-color:#F5A734"/>
	<stop  offset="1" style="stop-color:#F5AB33"/>
</linearGradient>
<path class="st18" d="M20.6,17.5c0-0.1,0-0.1,0.1-0.2C20.7,17.4,20.6,17.4,20.6,17.5z"/>
<linearGradient id="SVGID_6_" gradientUnits="userSpaceOnUse" x1="-1.2932" y1="33.5916" x2="38.3718" y2="3.4381">
	<stop  offset="4.207921e-02" style="stop-color:#E95B3E"/>
	<stop  offset="0.1733" style="stop-color:#ED6F41"/>
	<stop  offset="0.1778" style="stop-color:#ED7041"/>
	<stop  offset="0.3712" style="stop-color:#F18A3B"/>
	<stop  offset="0.5694" style="stop-color:#F39C36"/>
	<stop  offset="0.7755" style="stop-color:#F5A734"/>
	<stop  offset="1" style="stop-color:#F5AB33"/>
</linearGradient>
<path class="st19" d="M20.9,16.8c0-0.1,0.1-0.1,0.1-0.2C20.9,16.7,20.9,16.7,20.9,16.8z"/>
<linearGradient id="SVGID_7_" gradientUnits="userSpaceOnUse" x1="-0.8215" y1="34.4047" x2="39.0141" y2="4.1214">
	<stop  offset="4.207921e-02" style="stop-color:#E95B3E"/>
	<stop  offset="0.1733" style="stop-color:#ED6F41"/>
	<stop  offset="0.1778" style="stop-color:#ED7041"/>
	<stop  offset="0.3712" style="stop-color:#F18A3B"/>
	<stop  offset="0.5694" style="stop-color:#F39C36"/>
	<stop  offset="0.7755" style="stop-color:#F5A734"/>
	<stop  offset="1" style="stop-color:#F5AB33"/>
</linearGradient>
<path class="st20" d="M20.4,18.3c0,0,0-0.1,0-0.1C20.4,18.3,20.4,18.3,20.4,18.3z"/>
<linearGradient id="SVGID_8_" gradientUnits="userSpaceOnUse" x1="-0.2456" y1="35.3239" x2="39.74" y2="4.9267">
	<stop  offset="4.207921e-02" style="stop-color:#E95B3E"/>
	<stop  offset="0.1733" style="stop-color:#ED6F41"/>
	<stop  offset="0.1778" style="stop-color:#ED7041"/>
	<stop  offset="0.3712" style="stop-color:#F18A3B"/>
	<stop  offset="0.5694" style="stop-color:#F39C36"/>
	<stop  offset="0.7755" style="stop-color:#F5A734"/>
	<stop  offset="1" style="stop-color:#F5AB33"/>
</linearGradient>
<path class="st21" d="M20.1,20c0-0.1,0-0.2,0-0.3C20.1,19.8,20.1,19.9,20.1,20z"/>
<linearGradient id="SVGID_10_" gradientUnits="userSpaceOnUse" x1="11.4915" y1="20.6954" x2="72.3789" y2="1.5421">
	<stop  offset="4.207921e-02" style="stop-color:#E95B3E"/>
	<stop  offset="0.1733" style="stop-color:#ED6F41"/>
	<stop  offset="0.1778" style="stop-color:#ED7041"/>
	<stop  offset="0.3712" style="stop-color:#F18A3B"/>
	<stop  offset="0.5694" style="stop-color:#F39C36"/>
	<stop  offset="0.7755" style="stop-color:#F5A734"/>
	<stop  offset="1" style="stop-color:#F5AB33"/>
</linearGradient>
<path style="fill:url(#SVGID_10_);" d="M20.4,18.2c0.1-0.2,0.1-0.5,0.2-0.7C20.5,17.7,20.5,18,20.4,18.2z"/>
<linearGradient id="SVGID_12_" gradientUnits="userSpaceOnUse" x1="11.8613" y1="22.0599" x2="73.1313" y2="2.7862">
	<stop  offset="4.207921e-02" style="stop-color:#E95B3E"/>
	<stop  offset="0.1733" style="stop-color:#ED6F41"/>
	<stop  offset="0.1778" style="stop-color:#ED7041"/>
	<stop  offset="0.3712" style="stop-color:#F18A3B"/>
	<stop  offset="0.5694" style="stop-color:#F39C36"/>
	<stop  offset="0.7755" style="stop-color:#F5A734"/>
	<stop  offset="1" style="stop-color:#F5AB33"/>
</linearGradient>
<path style="fill:url(#SVGID_12_);" d="M20.2,19.7c0-0.2,0-0.3,0.1-0.5C20.2,19.4,20.2,19.5,20.2,19.7z"/>
<linearGradient id="SVGID_14_" gradientUnits="userSpaceOnUse" x1="11.3073" y1="20.0428" x2="72.0685" y2="0.9292">
	<stop  offset="4.207921e-02" style="stop-color:#E95B3E"/>
	<stop  offset="0.1733" style="stop-color:#ED6F41"/>
	<stop  offset="0.1778" style="stop-color:#ED7041"/>
	<stop  offset="0.3712" style="stop-color:#F18A3B"/>
	<stop  offset="0.5694" style="stop-color:#F39C36"/>
	<stop  offset="0.7755" style="stop-color:#F5A734"/>
	<stop  offset="1" style="stop-color:#F5AB33"/>
</linearGradient>
<path style="fill:url(#SVGID_14_);" d="M20.7,17.3c0.1-0.2,0.1-0.3,0.2-0.5C20.8,17,20.7,17.1,20.7,17.3z"/>
<linearGradient id="SVGID_16_" gradientUnits="userSpaceOnUse" x1="12.0445" y1="22.7919" x2="73.6365" y2="3.417">
	<stop  offset="4.207921e-02" style="stop-color:#E95B3E"/>
	<stop  offset="0.1733" style="stop-color:#ED6F41"/>
	<stop  offset="0.1778" style="stop-color:#ED7041"/>
	<stop  offset="0.3712" style="stop-color:#F18A3B"/>
	<stop  offset="0.5694" style="stop-color:#F39C36"/>
	<stop  offset="0.7755" style="stop-color:#F5A734"/>
	<stop  offset="1" style="stop-color:#F5AB33"/>
</linearGradient>
<path style="fill:url(#SVGID_16_);" d="M20.1,20.6c0-0.2,0-0.4,0-0.6C20.1,20.2,20.1,20.4,20.1,20.6z"/>
<linearGradient id="SVGID_18_" gradientUnits="userSpaceOnUse" x1="11.6739" y1="21.3575" x2="72.7237" y2="2.1531">
	<stop  offset="4.207921e-02" style="stop-color:#E95B3E"/>
	<stop  offset="0.1733" style="stop-color:#ED6F41"/>
	<stop  offset="0.1778" style="stop-color:#ED7041"/>
	<stop  offset="0.3712" style="stop-color:#F18A3B"/>
	<stop  offset="0.5694" style="stop-color:#F39C36"/>
	<stop  offset="0.7755" style="stop-color:#F5A734"/>
	<stop  offset="1" style="stop-color:#F5AB33"/>
</linearGradient>
<path style="fill:url(#SVGID_18_);" d="M20.3,18.9c0-0.2,0.1-0.4,0.1-0.6C20.3,18.5,20.3,18.7,20.3,18.9z"/>
<linearGradient id="SVGID_20_" gradientUnits="userSpaceOnUse" x1="10.9236" y1="18.6933" x2="71.4587" y2="-0.3492">
	<stop  offset="4.207921e-02" style="stop-color:#E95B3E"/>
	<stop  offset="0.1733" style="stop-color:#ED6F41"/>
	<stop  offset="0.1778" style="stop-color:#ED7041"/>
	<stop  offset="0.3712" style="stop-color:#F18A3B"/>
	<stop  offset="0.5694" style="stop-color:#F39C36"/>
	<stop  offset="0.7755" style="stop-color:#F5A734"/>
	<stop  offset="1" style="stop-color:#F5AB33"/>
</linearGradient>
<path style="fill:url(#SVGID_20_);" d="M21.3,15.9c0.2-0.4,0.5-0.9,0.8-1.2C21.8,15.1,21.5,15.5,21.3,15.9z"/>
<linearGradient id="SVGID_22_" gradientUnits="userSpaceOnUse" x1="11.1454" y1="19.4713" x2="71.8044" y2="0.3899">
	<stop  offset="4.207921e-02" style="stop-color:#E95B3E"/>
	<stop  offset="0.1733" style="stop-color:#ED6F41"/>
	<stop  offset="0.1778" style="stop-color:#ED7041"/>
	<stop  offset="0.3712" style="stop-color:#F18A3B"/>
	<stop  offset="0.5694" style="stop-color:#F39C36"/>
	<stop  offset="0.7755" style="stop-color:#F5A734"/>
	<stop  offset="1" style="stop-color:#F5AB33"/>
</linearGradient>
<path style="fill:url(#SVGID_22_);" d="M21,16.6c0.1-0.2,0.2-0.3,0.2-0.5C21.1,16.3,21,16.4,21,16.6z"/>
<linearGradient id="SVGID_24_" gradientUnits="userSpaceOnUse" x1="13.8246" y1="53.372" x2="52.5174" y2="23.9576">
	<stop  offset="0" style="stop-color:#14438F"/>
	<stop  offset="8.157349e-02" style="stop-color:#1A4A95"/>
	<stop  offset="0.3711" style="stop-color:#295CA5"/>
	<stop  offset="0.6721" style="stop-color:#3367AF"/>
	<stop  offset="1" style="stop-color:#366BB2"/>
</linearGradient>
<path style="fill:url(#SVGID_24_);" d="M48.4,54.2c0,0,0.6-1.2,1.6-3.3c-10.1-6.7-21-20.9-25.1-26.6c-1.9,1.1-3.4,2.3-4.7,3.6l0-7.3
	c0-0.1,0-0.1,0-0.1v19c0,3.5,1.8,6.7,4.8,8.5l16,9.5c0.5,0.3,1.1,0.6,1.7,0.8C44.9,57.9,47,56.4,48.4,54.2z"/>
<linearGradient id="SVGID_26_" gradientUnits="userSpaceOnUse" x1="20.1059" y1="8.8413" x2="48.0291" y2="20.6549">
	<stop  offset="4.207921e-02" style="stop-color:#26326D"/>
	<stop  offset="0.1733" style="stop-color:#14438F"/>
	<stop  offset="0.2407" style="stop-color:#1A4A95"/>
	<stop  offset="0.4801" style="stop-color:#295CA5"/>
	<stop  offset="0.7289" style="stop-color:#3367AF"/>
	<stop  offset="1" style="stop-color:#366BB2"/>
</linearGradient>
<path style="fill:url(#SVGID_26_);" d="M60.7,8.7L50.2,2.5c-3-1.7-6.6-1.7-9.5,0.1l-15.9,9.6c-1,0.6-1.9,1.5-2.7,2.4c0,0,0,0,0,0
	c-0.3,0.4-0.6,0.8-0.8,1.2c0,0.1-0.1,0.1-0.1,0.2c-0.1,0.2-0.2,0.3-0.2,0.5c0,0.1-0.1,0.1-0.1,0.2c-0.1,0.2-0.1,0.3-0.2,0.5
	c0,0.1,0,0.1-0.1,0.2c-0.1,0.2-0.1,0.5-0.2,0.7c0,0,0,0.1,0,0.1c0,0.2-0.1,0.4-0.1,0.6c0,0.1,0,0.2,0,0.2c0,0.2,0,0.3-0.1,0.5
	c0,0.1,0,0.2,0,0.3c0,0.2,0,8,0,8c1.2-1.3,2.8-2.5,4.7-3.6c10.6-6.3,29.5-9.2,36.3-10.1C61.2,12.3,61.1,10.4,60.7,8.7z"/>
<linearGradient id="SVGID_28_" gradientUnits="userSpaceOnUse" x1="55.9501" y1="62.2079" x2="59.2745" y2="11.2335">
	<stop  offset="0" style="stop-color:#14438F"/>
	<stop  offset="7.067010e-02" style="stop-color:#1A4A95"/>
	<stop  offset="0.3215" style="stop-color:#295CA5"/>
	<stop  offset="0.5822" style="stop-color:#3367AF"/>
	<stop  offset="0.8663" style="stop-color:#366BB2"/>
	<stop  offset="0.9678" style="stop-color:#43ABE1"/>
</linearGradient>
<path style="fill:url(#SVGID_28_);" d="M67.3,12.7c-0.1-0.1-0.2-0.1-0.3-0.2l-6.3-3.7c0.4,1.7,0.5,3.6,0.4,5.6
	C60.7,26.4,53.2,43.8,49.9,51c-1,2.1-1.6,3.3-1.6,3.3c-1.4,2.2-3.5,3.7-5.9,4.3c0,0,0,0,0,0c2,0.7,5.1,0.9,7-0.2l15.4-9.3
	c3.6-2.1,6-5.1,6.2-8.6l0-19.1C71.2,18,70,14.6,67.3,12.7z"/>
<linearGradient id="SVGID_30_" gradientUnits="userSpaceOnUse" x1="34.9753" y1="30.7094" x2="53.2443" y2="30.7094">
	<stop  offset="0" style="stop-color:#14438F"/>
	<stop  offset="8.157349e-02" style="stop-color:#1A4A95"/>
	<stop  offset="0.3711" style="stop-color:#295CA5"/>
	<stop  offset="0.6721" style="stop-color:#3367AF"/>
	<stop  offset="1" style="stop-color:#366BB2"/>
</linearGradient>
<path style="fill:url(#SVGID_30_);" d="M35,26.6c5.3-3.2,14.8-4.6,18.3-5.1c-0.2,6.1-4,14.9-5.6,18.4C42.5,36.6,37.1,29.4,35,26.6z"
	/>
<g>
	<path class="st77" d="M44.5,68.2h-3.7v-1.9h9.4v1.9h-3.7v10.4h-2.1V68.2z"/>
	<path class="st77" d="M53,66.3h2.1v5h5.6v-5h2.1v12.3h-2.1v-5.5h-5.6v5.5H53V66.3z"/>
	<path class="st77" d="M72.6,66c3.7,0,6.4,2.5,6.4,6.4c0,3.8-2.7,6.5-6.4,6.5c-3.7,0-6.4-2.7-6.4-6.5C66.2,68.5,68.9,66,72.6,66z
		 M72.6,76.9c2.4,0,4.1-1.9,4.1-4.5c0-2.5-1.6-4.5-4.1-4.5c-2.5,0-4.1,2-4.1,4.5C68.5,75,70.2,76.9,72.6,76.9z"/>
	<path class="st77" d="M88.5,68.9c-0.5-0.6-1.3-1.1-2.2-1.1c-1,0-2.1,0.5-2.1,1.7c0,1.1,0.9,1.5,2.3,1.9C88,71.9,90,72.6,90,75
		c0,2.6-2,3.9-4.3,3.9c-1.6,0-3.2-0.6-4.1-1.8l1.5-1.5c0.6,0.8,1.7,1.4,2.6,1.4c1,0,2.2-0.5,2.2-1.8c0-1.3-1.2-1.7-2.7-2.1
		c-1.4-0.5-3-1.2-3-3.5c0-2.5,2.2-3.6,4.4-3.6c1.2,0,2.6,0.4,3.5,1.3L88.5,68.9z"/>
	<polygon class="st77" points="8.1,66.3 6.3,66.3 1.1,78.6 3.5,78.6 7.1,68.9 10.8,78.6 13.2,78.6 	"/>
	<polygon class="st77" points="35.4,66.3 33.6,66.3 28.4,78.6 30.8,78.6 34.4,68.9 38.1,78.6 40.6,78.6 	"/>
	<path class="st77" d="M23.9,71.6v1.8v1v2.1c-0.7,0.3-1.5,0.4-2.4,0.4c-2.6,0-4.2-1.9-4.2-4.5c0-2.5,1.6-4.5,4.1-4.5
		c1.3,0,2.4,0.6,3.1,1.3l1.5-1.6c-1-0.9-2.6-1.5-4.5-1.5c-3.7,0-6.5,2.5-6.5,6.4c0,3.8,2.7,6.5,6.5,6.5c1.9,0,3.3-0.4,4.5-1v-6.4
		H23.9z"/>
</g>
</svg>
