<?xml version="1.0" encoding="utf-8"?>
<!-- Generator: Adobe Illustrator 22.0.0, SVG Export Plug-In . SVG Version: 6.00 Build 0)  -->
<svg version="1.1" xmlns="http://www.w3.org/2000/svg" xmlns:xlink="http://www.w3.org/1999/xlink" x="0px" y="0px"
	 viewBox="0 0 48.2 53" style="enable-background:new 0 0 48.2 53;" xml:space="preserve">
<style type="text/css">
	.st0{opacity:0.75;fill:#FFFFFF;}
	.st1{fill:#F5F7F9;}
	.st2{fill:#FFFFFF;}
	.st3{fill:#BBD792;}
	.st4{opacity:0.75;}
	.st5{opacity:0.8;}
	.st6{fill:#262626;}
	.st7{fill:#383838;}
	.st8{opacity:0.85;}
	.st9{fill:#3BACE2;}
	.st10{clip-path:url(#SVGID_2_);}
	.st11{clip-path:url(#SVGID_6_);}
	.st12{clip-path:url(#SVGID_10_);}
	.st13{clip-path:url(#SVGID_14_);}
	.st14{clip-path:url(#SVGID_18_);}
	.st15{clip-path:url(#SVGID_22_);}
	.st16{clip-path:url(#SVGID_26_);}
	.st17{clip-path:url(#SVGID_30_);}
	.st18{clip-path:url(#SVGID_34_);}
	.st19{fill:none;stroke:#3BACE2;stroke-miterlimit:10;}
	.st20{enable-background:new    ;}
	.st21{fill:#0075FB;}
	.st22{fill:#F4F4F4;}
	.st23{fill:none;stroke:#1E1E1E;stroke-width:0.5798;stroke-miterlimit:10;}
	.st24{fill:none;stroke:#1E1E1E;stroke-width:0.2854;stroke-miterlimit:10;}
	.st25{fill:#8DBC4A;}
	.st26{opacity:0.75;fill:#FFFFFF;stroke:#FFFFFF;stroke-miterlimit:10;}
	.st27{opacity:0.8;fill:#262626;}
	.st28{fill:none;stroke:#1E1E1E;stroke-width:0.8574;stroke-miterlimit:10;}
	.st29{fill:#DB9FF4;}
	.st30{fill:#06B295;}
	.st31{opacity:0.6;fill:url(#SVGID_37_);}
	.st32{fill:none;stroke:#3BACE2;stroke-width:2;stroke-miterlimit:10;}
	.st33{fill:#FFFFFF;stroke:#3BACE2;stroke-miterlimit:10;}
	.st34{fill:none;stroke:#3BACE2;stroke-width:1.7755;stroke-miterlimit:10;}
	.st35{fill:#FFFFFF;stroke:#3BACE2;stroke-width:1.7755;stroke-miterlimit:10;}
	.st36{opacity:0.97;fill:#383838;}
	.st37{fill:none;stroke:#386BB2;stroke-linecap:round;stroke-linejoin:round;stroke-miterlimit:10;}
	.st38{fill:#273270;}
	.st39{fill:#7C797C;}
	.st40{fill:#4B51BC;}
	.st41{fill:#FFFFFF;stroke:#3BACE2;stroke-width:1.7959;stroke-miterlimit:10;}
	.st42{clip-path:url(#SVGID_39_);}
	.st43{clip-path:url(#SVGID_41_);}
	.st44{fill:#FFFFFF;stroke:#3BACE2;stroke-width:2;stroke-miterlimit:10;}
	.st45{clip-path:url(#SVGID_43_);}
	.st46{opacity:0.6;fill:#2B2B2A;}
	.st47{opacity:0.6;}
	.st48{opacity:0.99;fill:#FFFFFF;stroke:#FFFFFF;stroke-miterlimit:10;}
	.st49{fill:url(#SVGID_44_);}
	.st50{fill:url(#SVGID_45_);}
	.st51{fill:url(#SVGID_46_);}
	.st52{fill:url(#SVGID_47_);}
	.st53{fill:url(#SVGID_48_);}
	.st54{fill:url(#SVGID_49_);}
	.st55{fill:url(#SVGID_50_);}
	.st56{fill:url(#SVGID_51_);}
	.st57{display:none;}
</style>
<g id="Layer_1">
	<g id="Layer_2">
	</g>
	<linearGradient id="SVGID_2_" gradientUnits="userSpaceOnUse" x1="-5.2992" y1="47.9782" x2="30.2773" y2="20.9328">
		<stop  offset="0" style="stop-color:#14438F"/>
		<stop  offset="8.157349e-02" style="stop-color:#1A4A95"/>
		<stop  offset="0.3711" style="stop-color:#295CA5"/>
		<stop  offset="0.6721" style="stop-color:#3367AF"/>
		<stop  offset="1" style="stop-color:#366BB2"/>
	</linearGradient>
	<path style="fill:url(#SVGID_2_);" d="M26.4,48.6c0,0,0.6-1.1,1.4-3c-9.2-6-19.2-18.9-23-24c-1.7,1-3.2,2.1-4.3,3.3l0-6.6
		c0-0.1,0-0.1,0-0.1v17.2c0,3.2,1.7,6.1,4.4,7.7l14.7,8.6c0.5,0.3,1,0.5,1.5,0.7C23.2,51.9,25.1,50.6,26.4,48.6z"/>
	<linearGradient id="SVGID_4_" gradientUnits="userSpaceOnUse" x1="0.4311" y1="7.4303" x2="26.0576" y2="18.2723">
		<stop  offset="4.207921e-02" style="stop-color:#26326D"/>
		<stop  offset="0.1733" style="stop-color:#14438F"/>
		<stop  offset="0.2407" style="stop-color:#1A4A95"/>
		<stop  offset="0.4801" style="stop-color:#295CA5"/>
		<stop  offset="0.7289" style="stop-color:#3367AF"/>
		<stop  offset="1" style="stop-color:#366BB2"/>
	</linearGradient>
	<path style="fill:url(#SVGID_4_);" d="M37.7,7.4l-9.6-5.6c-2.7-1.6-6-1.5-8.7,0.1L4.7,10.6c-1,0.6-1.8,1.3-2.4,2.2c0,0,0,0,0,0
		c-0.3,0.4-0.5,0.7-0.7,1.1c0,0,0,0.1-0.1,0.1c-0.1,0.2-0.2,0.3-0.2,0.5c0,0.1-0.1,0.1-0.1,0.2C1.1,14.9,1,15,1,15.2
		c0,0.1,0,0.1-0.1,0.2c-0.1,0.2-0.1,0.4-0.2,0.6c0,0,0,0.1,0,0.1c0,0.2-0.1,0.4-0.1,0.5c0,0.1,0,0.2,0,0.2c0,0.2,0,0.3-0.1,0.5
		c0,0.1,0,0.2,0,0.2c0,0.2,0,7.3,0,7.3c1.1-1.2,2.6-2.3,4.3-3.3c9.7-5.7,27-8.3,33.3-9.1C38.2,10.6,38.1,8.9,37.7,7.4z"/>
	<linearGradient id="SVGID_6_" gradientUnits="userSpaceOnUse" x1="33.3339" y1="55.8238" x2="36.3438" y2="9.6724">
		<stop  offset="0" style="stop-color:#14438F"/>
		<stop  offset="7.067010e-02" style="stop-color:#1A4A95"/>
		<stop  offset="0.3215" style="stop-color:#295CA5"/>
		<stop  offset="0.5822" style="stop-color:#3367AF"/>
		<stop  offset="0.8663" style="stop-color:#366BB2"/>
		<stop  offset="0.9678" style="stop-color:#43ABE1"/>
	</linearGradient>
	<path style="fill:url(#SVGID_6_);" d="M43.7,11c-0.1-0.1-0.2-0.1-0.2-0.2l-5.8-3.4c0.3,1.5,0.4,3.2,0.4,5.1
		c-0.4,11-7.3,26.7-10.3,33.2c-0.9,1.9-1.4,3-1.4,3c-1.2,2-3.2,3.4-5.4,3.9c0,0,0,0,0,0c1.8,0.7,4.7,0.8,6.4-0.2l14.2-8.4
		c3.3-1.9,5.5-4.6,5.7-7.8l0-17.3C47.4,15.8,46.2,12.7,43.7,11z"/>
	<linearGradient id="SVGID_8_" gradientUnits="userSpaceOnUse" x1="14.0817" y1="27.3034" x2="30.8421" y2="27.3034">
		<stop  offset="0" style="stop-color:#14438F"/>
		<stop  offset="8.157349e-02" style="stop-color:#1A4A95"/>
		<stop  offset="0.3711" style="stop-color:#295CA5"/>
		<stop  offset="0.6721" style="stop-color:#3367AF"/>
		<stop  offset="1" style="stop-color:#366BB2"/>
	</linearGradient>
	<path style="fill:url(#SVGID_8_);" d="M14.1,23.6c4.9-2.9,13.6-4.2,16.8-4.6c-0.2,5.6-3.7,13.5-5.2,16.7C21,32.6,16,26.1,14.1,23.6
		z"/>
</g>
<g id="Layer_3" class="st57">
</g>
</svg>
