<svg id="Layer_1" data-name="Layer 1" xmlns="http://www.w3.org/2000/svg" xmlns:xlink="http://www.w3.org/1999/xlink" viewBox="0 0 845.17 503.88"><defs><style>.cls-1,.cls-2{fill:none;}.cls-1{clip-rule:evenodd;}.cls-11,.cls-3{fill-rule:evenodd;}.cls-4{clip-path:url(#clip-path);}.cls-5{fill:url(#linear-gradient);}.cls-6{clip-path:url(#clip-path-2);}.cls-7{fill:url(#linear-gradient-2);}.cls-8,.cls-9{font-size:146.74px;}.cls-8{font-family:TeXGyreAdventor-Bold, TeX Gyre Adventor;font-weight:700;}.cls-11,.cls-12,.cls-9{fill:#373435;}.cls-10,.cls-9{font-family:Noah-Regular, Noah;}.cls-10{font-size:24.78px;}.cls-12{font-size:33.36px;font-family:ArialMT, Arial;}</style><clipPath id="clip-path" transform="translate(-6.63 -8.58)"><path class="cls-1" d="M581.89,95.13h8.43c0-2.68-1.2-4-3.61-4s-4,1.33-4.82,4m-69.5,73.51,1.61,1.61v-2.82Zm-2,2.81c0,2.41.53,3.75,1.6,4,.27.27,1.74.4,4.42.4l-.8-3.62-1.61-.8a8,8,0,0,0-3.61-.8ZM663,189.93l-14.87.8,16.47,3.21,1.21-4.41H663ZM434.47,228.75v1.35h.81l.35-3.17ZM482.63,96.34H472.12l-2.89,14.49ZM659,48.54l-13.66.4q2.82-2.82,9.64-4.82a97.7,97.7,0,0,0-40.57-23.3Q602,17.2,546.14,17.21h-58.2L472.69,93.49l11.82.81,7.75-8.38-1.94,8.78L514,96.34V93.12q48.21-.41,61.06,2.41l9.24-6.83,15.26,9.24,2.81,3.62h-2l-4-.8,5.22,4,1.6,5.22-2,1.61q6,11.25,2.41,28.92-4.43,22.9-27.72,29.73-14.86,4.41-53.42,4l-3.22,4.42-8.43-2.41-3.62-6.83v-2.81H514V96.34H490L437.8,331.9l5.51,6.25H514V244.56q64.28,0,93.59-8.44,37-10.85,55.84-41l-7.64-.4q-49,.8-73.1.8H526.86l140.58-7.63q16.08-30.93,16.07-68.29Q683.51,75.86,659,48.54Z"/></clipPath><linearGradient id="linear-gradient" x1="588.54" y1="167.05" x2="482.87" y2="173.05" gradientUnits="userSpaceOnUse"><stop offset="0" stop-color="#8cbb4b"/><stop offset="1" stop-color="#cedc39"/></linearGradient><clipPath id="clip-path-2" transform="translate(-6.63 -8.58)"><path class="cls-2" d="M103.18,363.52h10.27v66a78.13,78.13,0,0,0,.61,11.45,24.16,24.16,0,0,0,2,6.75,21.4,21.4,0,0,0,8.22,9.29,22.61,22.61,0,0,0,12.23,3.38q11.81,0,17.49-8.07t5.65-24.95V363.52H169.8v66.32q0,20.3-8.07,30.26t-24.48,9.95q-17.58,0-25.83-9.73t-8.24-30.48ZM210,467.85H199.73V373.79H178.9V363.52h51.94v10.27H210Zm40.08-94.06v94.06H240V363.52h28a64,64,0,0,1,14.87,1.39,30,30,0,0,1,10.22,4.63A30.41,30.41,0,0,1,303,381.2a34.31,34.31,0,0,1,3.62,15.48,31.62,31.62,0,0,1-7.21,20.84,24.91,24.91,0,0,1-18,9.54l25.24,40.79H294.4l-31-50.33h9.9q9.87,0,16.07-5.8a19.47,19.47,0,0,0,6.19-14.89,25.39,25.39,0,0,0-1.91-10,21.81,21.81,0,0,0-5.6-7.88,17.86,17.86,0,0,0-7.41-4q-4.37-1.17-15.43-1.17Zm83.08,94.06H322.9V363.52h10.27Zm-257-12.47L75,363.52H85.13V467.85H72.81l-57.23-92,1.17,92H6.63V363.52H19Z"/></clipPath><linearGradient id="linear-gradient-2" x1="208.58" y1="398.04" x2="76.25" y2="427.75" xlink:href="#linear-gradient"/></defs><title>LOGO</title><path class="cls-3" d="M416.86,331.72a64.6,64.6,0,0,0-9.44,1,64,64,0,0,1-9,1l.4.4H361v.8q1.61,2.82,58.65,2.82Zm7.15-.87-1.93.47v1.2l.4.41-2.81.4.4,1.2c.35,1.07,1.44,1.9,3.25,2.49Zm-24.43,1.67.4-1.2,24.32-3,.46-4.14-3.89-1.26,4.22-1.62,10.54-94.32L413,262.12l11.78-80.76-38.13,54.45L404,102.89l-18.43-1.73h18.66L411,48.72q-7.85.22-17.84.22l18-1.45L415,18.41H370.26q0,17.67-.4,62.66-.41,29.73.4,61.86.81,38.16,2.81,60.66-4.41-15.68-27.78-64.68l-35-73.1q-29.83.41-103.91.8L308.8,63.8l-22.49-47H185.89V36.08l2.41,11.25h-2.41v77.93l8.43,20.08-6,7.63-2.41-10.84.8,14.06h-.8v144.6a103.29,103.29,0,0,0,4.42,12l4-2.41c0,9-2.81,14.66-8.43,17.14v10.58h67.55l6.36-7.63q0-26.61-.74-77.26l-6.49-23.77,7.23-3.61c-.27-12.92-.54-32.07-.81-57.58-12.05-22-18.07-33.8-18.07-35.41l10.84-2-2.41-6.83h4L218,86.29l33.74,26.11-4-6.82,1.6.8q8.44,0,12.86,34.94l3.21-15.26,12.86,7.63a26.43,26.43,0,0,1-1.41,7,26.37,26.37,0,0,0-1.41,6.63q0,5.63,9.24,5.62L282.29,165h-9.24q4.83,8.85,16.87,31.87l37.76,75.78,27.32.41H327.68l28.52,57,3.22-1.2,1.6,3.61Zm-139.78-182v-1.67L257,147ZM270.64,147h-6.42l4,9.64,5.63-2Zm-8-4.82-.4-.81v.41Z" transform="translate(-6.63 -8.58)"/><g class="cls-4"><rect class="cls-5" x="427.84" y="8.63" width="249.04" height="320.94"/></g><g class="cls-6"><rect class="cls-7" y="354.94" width="326.54" height="106.53"/></g><text class="cls-8" transform="translate(336.25 459.27)">P</text><text class="cls-8" transform="translate(411.7 459.27)">O</text><text class="cls-8" transform="translate(527.2 459.27)">W</text><text class="cls-8" transform="translate(650.88 459.27)">E</text><path d="M789.43,467.85,761,419.32v48.53H740.85V359.41h31.26c14.82,0,22.6,2,29.64,8.07,7.49,6.31,11.45,15.7,11.45,26.7,0,16.88-8.81,28.77-28.32,33.61l29.35,40.06Zm-19.52-89.22H761v32.58h9.83c15.55,0,22.16-5,22.16-16.44C793,385.09,789,378.63,769.91,378.63Z" transform="translate(-6.63 -8.58)"/><text class="cls-9" transform="translate(811.72 459.27)"> </text><text class="cls-10" transform="translate(837.8 463.02) rotate(-90)">C</text><path d="M842.94,437.35h1.49v11.28H827.57V438.57h1.49V447h6v-5.41h1.46V447h6.42Z" transform="translate(-6.63 -8.58)"/><text class="cls-10" transform="translate(837.8 423.49) rotate(-90)">N</text><text class="cls-10" transform="translate(837.8 402.79) rotate(-90)">T</text><path d="M842.94,381.75h1.49V393H827.57V383h1.49v8.43h6V386h1.46v5.41h6.42Z" transform="translate(-6.63 -8.58)"/><text class="cls-10" transform="translate(837.8 367.89) rotate(-90)">R </text><rect x="813.86" y="352.01" width="1.25" height="112"/><path class="cls-11" d="M704.4,9.88a18.88,18.88,0,1,1-18.87,18.87A18.87,18.87,0,0,1,704.4,9.88m0-1.3a20.18,20.18,0,1,1-20.17,20.17A20.17,20.17,0,0,1,704.4,8.58Z" transform="translate(-6.63 -8.58)"/><text class="cls-12" transform="translate(686.64 32.12)">R</text><path class="cls-3" d="M451.6,421a12.72,12.72,0,0,0-2.75-3.19c-6-4.39-13.13.4-13.4,1.15,0,12.67-6.44,23.89,8.28,38.05a9.17,9.17,0,0,0,3.76-8.92c1.62.64,4.15,3.46,12.07,5.66,6.36,1.76,9,1.26,14.93-.6,3.88-1.22,21.92-7.54,25.21-10.05a19.88,19.88,0,0,0,4-4.69c2.9-4.59-1-4.38-2.17-13.4a26.55,26.55,0,0,0-1.64-7.18c-6.1-12.86-10.52-15.67-17.41-25.75-1.31-1.92.36-2.88-1.25-4.29-1-.87-2.41-1.31-3.48-2.37s-1.86-2-2.83-3a6.13,6.13,0,0,0-3.81-2c-2.31-.48-2.69-.81-4.72.11a5.89,5.89,0,0,0-2.33-1.12c-1.48-.35-1.87-.18-2.28,1-2.82-.59-3-.83-3.66,2-2.4.33-2.39,0-3.2,4.85-1.11,6.55-.13,4.74.87,6.58-1.2.32-2.26.61-2.4,1.88a3.84,3.84,0,0,0,4.28,4.48c1.09-.13,2-1.44,2.3-2.16a16,16,0,0,0,3.59-.38c1.44-.28,2.32.28,3.75.36,2.88.16,3.44-2.46,5.24-2.93,8,12.87,2.47,20.77,3,27.2.32,4.07,1.9,5.46,3.37,7.73-2.39-.53-4.18-2.67-5.24-4.28-2.55-3.88-5.78-8.17-12.76-7.12-4.22.64-4.85,2.23-9.31,2.4m16.12-28.7,1.85,1.38a4.37,4.37,0,0,1-2.48-.91c-.83-.55-1-.64-1.2-2-.22-1.89-.54-3.78-.76-5.55C466.83,387.8,465.75,390.61,467.72,392.26Zm-5.81,4a6.1,6.1,0,0,1-3-1.21c-.89-.64-1.56-1-1.63-2.53a22.37,22.37,0,0,1,1.12-7.26c0,2.32-.49,4.85-.31,7.26C458.23,394.25,460.47,395.43,461.91,396.25Zm1.95-1.39c-.81-.43-1.74-.92-1.89-1.75a66.09,66.09,0,0,1-.36-7c.59,1,1,5.26,1.1,6.28a3.08,3.08,0,0,0,1.54,2.07,8.68,8.68,0,0,0,2.21,1.29A7.5,7.5,0,0,1,463.86,394.86Zm20.58,17.76c2.66,4,6.82,11.82,4.81,17.29-.89,2.42-2.33,2.57-4.92,2.35,2.53-.28,3.61-.79,4.35-2.9C490.29,424.75,486.75,416.16,484.44,412.62ZM440.92,429a7.67,7.67,0,0,1,3.2,2.5c1.07,1.55,1.18,2.33,1.37,4.46.49.43.86.57,1.36,1,2.82,2.6,5.1,5.81,11,5.8a42.74,42.74,0,0,0,19.77-5.62c-.78,1.13-5.43,3.12-7.34,3.8-4.95,1.76-14.09,3.86-18.88,1.29-2.84-1.53-3.86-3.54-5.89-5.35-.11.12-.07,0-.2.29l-.41,1.15a8.31,8.31,0,0,1-.7,1.36,7.23,7.23,0,0,1-2,2.12c-.81.6-1.63,1-2.48,1.63s-1.56,1.32-2.28,1.83c1.55-2.91,5-3.37,6.63-7a6.4,6.4,0,0,0-1.31-7.66C442.2,430.08,441.47,429.59,440.92,429Z" transform="translate(-6.63 -8.58)"/></svg>