<svg id="Layer_1" data-name="Layer 1" xmlns="http://www.w3.org/2000/svg" viewBox="0 0 14.53 23.83"><defs><style>.cls-1{fill:#8dbc49;}</style></defs><title>Icono</title><path class="cls-1" d="M13.08.25H1.42A1.17,1.17,0,0,0,.25,1.42v21a1.17,1.17,0,0,0,1.17,1.17H13.08a1.17,1.17,0,0,0,1.17-1.17v-21A1.17,1.17,0,0,0,13.08.25Zm.39,3.11H4.53a.39.39,0,0,0-.39.39.38.38,0,0,0,.39.39h8.94V19.31H12.31a.38.38,0,0,0-.39.39.39.39,0,0,0,.39.39h1.16v2.33a.39.39,0,0,1-.39.39H1.42A.39.39,0,0,1,1,22.42V20.09H10a.39.39,0,0,0,.39-.39.38.38,0,0,0-.39-.39H1V4.14H2.19a.38.38,0,0,0,.39-.39.39.39,0,0,0-.39-.39H1V1.42A.38.38,0,0,1,1.42,1H13.08a.38.38,0,0,1,.39.39Z"/><path class="cls-1" d="M7.64,21.25H6.86a.4.4,0,0,0-.39.39.39.39,0,0,0,.39.39h.78A.39.39,0,0,0,8,21.64.4.4,0,0,0,7.64,21.25Z"/></svg>