<svg id="Layer_1" data-name="Layer 1" xmlns="http://www.w3.org/2000/svg" viewBox="0 0 22.72 18.41"><defs><style>.cls-1{fill:#232323;}</style></defs><title>Icono</title><path class="cls-1" d="M22.65,2.22A9.14,9.14,0,0,1,20,3,4.68,4.68,0,0,0,22,.4a9.43,9.43,0,0,1-2.94,1.12,4.62,4.62,0,0,0-7.87,4.21A13.09,13.09,0,0,1,1.7.9,4.61,4.61,0,0,0,3.13,7.07,4.6,4.6,0,0,1,1,6.49v.06a4.63,4.63,0,0,0,3.7,4.53,4.85,4.85,0,0,1-1.22.16,4.12,4.12,0,0,1-.86-.09A4.61,4.61,0,0,0,7,14.36a9.26,9.26,0,0,1-5.74,2,10,10,0,0,1-1.1-.07,13.09,13.09,0,0,0,7.08,2.08A13,13,0,0,0,20.35,5.21v-.6A9.21,9.21,0,0,0,22.65,2.22Z"/></svg>