<svg id="Layer_1" data-name="Layer 1" xmlns="http://www.w3.org/2000/svg" viewBox="0 0 29.39 29.88"><defs><style>.cls-1{opacity:0.3;}.cls-2{fill:#232323;}</style></defs><title>Icono</title><g id="Zoom" class="cls-1"><path id="zoom-in" class="cls-2" d="M28.77,29.28a1.8,1.8,0,0,1-2.57,0h0l-5.71-5.82A12.56,12.56,0,0,1,2.68,20.88,13.12,13.12,0,0,1,5.21,2.74,12.57,12.57,0,0,1,23,5.32a13.14,13.14,0,0,1,0,15.52l5.71,5.82A1.88,1.88,0,0,1,28.77,29.28ZM19.34,6.62a8.94,8.94,0,0,0-12.82,0,9.36,9.36,0,0,0,0,13.06,9,9,0,0,0,12.82,0h0C25.65,13.17,19.34,6.62,19.34,6.62ZM16.59,15H14.77v1.85a1.81,1.81,0,1,1-3.62,0V15H9.34a1.85,1.85,0,0,1,0-3.69h1.81V9.48a1.81,1.81,0,1,1,3.62,0v1.85h1.82a1.85,1.85,0,0,1,0,3.69Z"/></g></svg>