<?xml version="1.0" standalone="no"?>
<!DOCTYPE svg PUBLIC "-//W3C//DTD SVG 1.1//EN" "http://www.w3.org/Graphics/SVG/1.1/DTD/svg11.dtd" >
<svg xmlns="http://www.w3.org/2000/svg" xmlns:xlink="http://www.w3.org/1999/xlink" version="1.1">
<metadata>
Created by FontForge 20170731 at Wed Feb 13 15:57:51 2019
 By Aleksey,,,
Copyright (c) 2019 by Svet Simov. All rights reserved.
</metadata>
<defs>
<font id="Noah-Bold" horiz-adv-x="0" >
  <font-face 
    font-family="Noah"
    font-weight="700"
    font-stretch="normal"
    units-per-em="1000"
    panose-1="0 0 8 0 0 0 0 0 0 0"
    ascent="800"
    descent="-200"
    x-height="446"
    cap-height="680"
    bbox="-377 -294 1234 967"
    underline-thickness="50"
    underline-position="-200"
    unicode-range="U+0020-FB02"
  />
<missing-glyph horiz-adv-x="467" 
d="M383 713v-933h-296v933h296zM311 650h-154v-30h60v-35h-61v-31h155v31h-62v35h62v30zM249 530h-93v-97h155v32h-62v65zM217 498v-33h-30v33h30zM311 408h-155v-31h61v-34h-61v-31h93v65h62v31zM311 352h-31v-62h-124v-31h155v93zM311 238h-94v-52h32v21h31v-44h-93v75
h-31v-105h155v105zM311 77h-155v-106h155v106zM280 46v-44h-93v44h93zM311 -50h-155v-31h65l-65 -44v-31h155v31h-95l65 44h30v31z" />
    <glyph glyph-name="fi" unicode="fi" horiz-adv-x="591" 
d="M527 446v-446h-109v353h-212v-353h-109v353h-82v93h82v96q0 93 50 142.5t143 49.5q112 0 205 -70l-42 -75q-67 47 -142 47q-105 0 -105 -101v-89h321z" />
    <glyph glyph-name="fl" unicode="fl" horiz-adv-x="583" 
d="M432 720h87v-720h-109v600q-50 36 -111 36q-44 0 -68.5 -23.5t-24.5 -70.5v-96h122v-93h-122v-353h-109v353h-82v93h82v104q0 85 48 134.5t133 49.5q82 0 145 -49z" />
    <glyph glyph-name="f_f" unicode="ff" horiz-adv-x="684" 
d="M619 636q-32 0 -51 -20.5t-19 -57.5v-112h122v-93h-121v-353h-109v353h-235v-353h-109v353h-82v93h82v118q0 77 42 123.5t117 46.5q60 0 116 -26l-31 -84q-30 12 -63 12t-52.5 -20.5t-19.5 -57.5v-112h235v118q0 77 41.5 123.5t115.5 46.5q67 0 126 -39l-39 -78
q-33 19 -66 19z" />
    <glyph glyph-name="f_f_i" unicode="ffi" horiz-adv-x="937" 
d="M873 446v-446h-109v353h-214v-353h-109v353h-235v-353h-109v353h-82v93h82v118q0 77 42 123.5t117 46.5q59 0 116 -26l-31 -84q-30 12 -62 12q-34 0 -53.5 -20t-19.5 -58v-112h235v96q0 93 50 142.5t144 49.5q107 0 192 -70l-42 -73q-63 45 -129 45q-107 0 -107 -100v-90
h324z" />
    <glyph glyph-name="f_f_l" unicode="ffl" horiz-adv-x="937" 
d="M786 720h87v-720h-109v597q-53 39 -122 39q-93 0 -93 -97v-93h118v-93h-117v-353h-109v353h-235v-353h-109v353h-82v93h82v118q0 77 42 123.5t117 46.5q60 0 116 -26l-31 -84q-25 12 -63 12q-33 0 -52.5 -20.5t-19.5 -57.5v-112h235v103q0 86 47.5 135.5t133.5 49.5
q90 0 155 -53z" />
    <glyph glyph-name=".notdef" horiz-adv-x="467" 
d="M383 713v-933h-296v933h296zM311 650h-154v-30h60v-35h-61v-31h155v31h-62v35h62v30zM249 530h-93v-97h155v32h-62v65zM217 498v-33h-30v33h30zM311 408h-155v-31h61v-34h-61v-31h93v65h62v31zM311 352h-31v-62h-124v-31h155v93zM311 238h-94v-52h32v21h31v-44h-93v75
h-31v-105h155v105zM311 77h-155v-106h155v106zM280 46v-44h-93v44h93zM311 -50h-155v-31h65l-65 -44v-31h155v31h-95l65 44h30v31z" />
    <glyph glyph-name=".null" 
 />
    <glyph glyph-name="nonmarkingreturn" horiz-adv-x="333" 
 />
    <glyph glyph-name="space" unicode=" " horiz-adv-x="225" 
 />
    <glyph glyph-name="exclam" unicode="!" horiz-adv-x="275" 
d="M88 188l-13 492h125l-13 -492h-99zM138 -12q-29 0 -50 18t-21 51q0 34 21 52t50 18t49.5 -18t20.5 -52q0 -33 -20.5 -51t-49.5 -18z" />
    <glyph glyph-name="quotedbl" unicode="&#x22;" horiz-adv-x="358" 
d="M43 454v226h106l-20 -226h-86zM210 454v226h105l-20 -226h-85z" />
    <glyph glyph-name="numbersign" unicode="#" horiz-adv-x="554" 
d="M83 0l27 180h-81v86h93l19 126h-84v86h97l30 202h94l-30 -202h108l32 202h93l-31 -202h76v-86h-88l-19 -126h78v-86h-91l-26 -180h-94l26 180h-109l-26 -180h-94zM216 266h109l19 126h-109z" />
    <glyph glyph-name="dollar" unicode="$" horiz-adv-x="538" 
d="M236 -101v92q-116 10 -206 81l58 85q85 -67 190 -67q51 0 82.5 23t31.5 58q0 20 -9 37t-20 28t-35.5 24t-39 19.5t-47.5 19.5q-88 36 -137 80t-49 114q0 77 50 124t131 57v91h84v-91q89 -11 166 -64l-48 -89q-75 54 -159 54q-44 0 -75.5 -18.5t-31.5 -58.5
q0 -37 35 -60.5t107 -51.5q45 -18 74 -33.5t60 -40t46 -57.5t15 -75q0 -78 -51.5 -129t-137.5 -60v-92h-84z" />
    <glyph glyph-name="percent" unicode="%" horiz-adv-x="771" 
d="M187 385q-73 0 -114.5 45.5t-41.5 108.5q0 62 41.5 107.5t114.5 45.5t114.5 -45.5t41.5 -107.5q0 -63 -41.5 -108.5t-114.5 -45.5zM145 0l392 680h94l-391 -680h-95zM187 461q36 0 53 23.5t17 54.5t-17 54.5t-53 23.5t-53 -23.5t-17 -54.5t17 -54.5t53 -23.5zM584 -12
q-73 0 -114 45.5t-41 107.5q0 63 41 108.5t114 45.5t114.5 -45.5t41.5 -108.5q0 -62 -41.5 -107.5t-114.5 -45.5zM584 63q36 0 53 23.5t17 54.5t-17 54.5t-53 23.5t-53 -23.5t-17 -54.5t17 -54.5t53 -23.5z" />
    <glyph glyph-name="ampersand" unicode="&#x26;" horiz-adv-x="637" 
d="M253 -12q-99 0 -155 49t-56 121q0 123 135 205q-73 84 -73 156q0 73 53.5 123t141.5 50q77 0 124.5 -44.5t47.5 -110.5q0 -58 -40 -103t-112 -88l131 -134q37 73 39 144h101q-2 -116 -70 -219l118 -126l-102 -23l-77 82q-89 -82 -206 -82zM259 416q54 30 81.5 55.5
t27.5 61.5q0 26 -20.5 45t-54.5 19q-39 0 -61.5 -22.5t-22.5 -55.5q0 -46 50 -103zM258 85q73 0 133 58l-148 150q-44 -24 -66 -57t-22 -67q0 -35 28 -59.5t75 -24.5z" />
    <glyph glyph-name="quotesingle" unicode="'" horiz-adv-x="191" 
d="M43 454v226h106l-20 -226h-86z" />
    <glyph glyph-name="parenleft" unicode="(" horiz-adv-x="318" 
d="M226 -193q-73 84 -116 211t-43 268t43 268t116 211l66 -56q-59 -75 -92.5 -186.5t-33.5 -236.5t33.5 -236.5t92.5 -186.5z" />
    <glyph glyph-name="parenright" unicode=")" horiz-adv-x="318" 
d="M92 765q73 -85 116.5 -211.5t43.5 -267.5t-43.5 -267.5t-116.5 -211.5l-65 56q59 75 92 186.5t33 236.5t-33 236.5t-92 186.5z" />
    <glyph glyph-name="asterisk" unicode="*" horiz-adv-x="354" 
d="M107 377l-57 43l77 93l-108 28l22 68l105 -40l-5 111h72l-5 -111l105 40l22 -68l-108 -28l77 -93l-57 -43l-70 101z" />
    <glyph glyph-name="plus" unicode="+" horiz-adv-x="532" 
d="M219 135v159h-157v90h157v159h94v-159h157v-90h-157v-159h-94z" />
    <glyph glyph-name="comma" unicode="," horiz-adv-x="269" 
d="M133 127q32 0 52 -22t20 -64q0 -112 -103 -188l-28 29q57 52 67 106h-8q-29 0 -49.5 18.5t-20.5 50.5q0 34 21 52t49 18z" />
    <glyph glyph-name="hyphen" unicode="-" horiz-adv-x="389" 
d="M54 180v94h281v-94h-281z" />
    <glyph glyph-name="period" unicode="." horiz-adv-x="268" 
d="M134 -12q-29 0 -50 18t-21 51q0 34 21 52t50 18t50 -18t21 -52q0 -33 -21 -51t-50 -18z" />
    <glyph glyph-name="slash" unicode="/" horiz-adv-x="403" 
d="M113 -12h-86l264 704h85z" />
    <glyph glyph-name="zero" unicode="0" horiz-adv-x="584" 
d="M292 -12q-114 0 -179 92t-65 251t65 250.5t179 91.5t179 -91.5t65 -250.5t-65 -251t-179 -92zM292 91q61 0 93.5 64.5t32.5 175.5t-32.5 175.5t-93.5 64.5t-93.5 -64.5t-32.5 -175.5t32.5 -175.5t93.5 -64.5z" />
    <glyph glyph-name="one" unicode="1" horiz-adv-x="372" 
d="M225 668h64v-668h-116v469q0 14 2 46q-8 -5 -23 -14l-90 -52l-47 86z" />
    <glyph glyph-name="two" unicode="2" horiz-adv-x="485" 
d="M269 101h184v-101h-422v44l234 314q56 77 56 122q0 38 -23 62t-62 24q-67 0 -121 -74l-78 60q80 121 208 121q88 0 141.5 -52t53.5 -129q0 -47 -19 -89t-70 -109l-108 -145q-21 -29 -40 -49q23 1 66 1z" />
    <glyph glyph-name="three" unicode="3" horiz-adv-x="534" 
d="M245 -12q-130 0 -219 100l67 70q64 -67 146 -67q61 0 98 29.5t37 75.5q0 53 -39 76.5t-95 23.5h-85v96h72q58 0 88.5 27.5t30.5 66.5q0 37 -28.5 61.5t-74.5 24.5q-74 0 -136 -62l-65 64q89 99 213 99q91 0 148.5 -49.5t57.5 -123.5q0 -45 -24.5 -85t-68.5 -63
q61 -21 92 -66t31 -101q0 -86 -68 -141.5t-178 -55.5z" />
    <glyph glyph-name="four" unicode="4" horiz-adv-x="533" 
d="M437 220h75v-95h-75v-125h-108v125h-313v61l356 482h65v-448zM332 220v166q0 53 3 83q-22 -36 -42 -61l-102 -140q-29 -38 -38 -49q23 1 68 1h111z" />
    <glyph glyph-name="five" unicode="5" horiz-adv-x="490" 
d="M231 417q102 0 165 -56t63 -153q0 -98 -67 -159.5t-174 -61.5q-122 0 -201 85l59 81q52 -60 137 -60q58 0 93 32t35 86q0 60 -41.5 89t-107.5 29q-59 0 -108 -18l-18 12l39 338h331v-101h-237l-19 -146q27 3 51 3z" />
    <glyph glyph-name="six" unicode="6" horiz-adv-x="534" 
d="M296 412q87 0 145 -54t58 -150q0 -98 -61.5 -159t-160.5 -61q-113 0 -171.5 72.5t-58.5 187.5v11q0 181 91 290t277 124l13 -97q-114 -9 -181 -64.5t-83 -147.5q47 48 132 48zM275 91q47 0 78.5 31.5t31.5 82.5q0 54 -31 83t-79 29q-51 0 -82 -30t-31 -84q0 -50 31.5 -81
t81.5 -31z" />
    <glyph glyph-name="seven" unicode="7" horiz-adv-x="453" 
d="M18 661h418v-43l-233 -618h-120l187 497q4 11 8.5 22.5t9.5 23.5t7 18q-24 -1 -73 -1h-204v101z" />
    <glyph glyph-name="eight" unicode="8" horiz-adv-x="559" 
d="M280 -11q-109 0 -173 52.5t-64 142.5q0 59 33 104t89 62q-45 16 -73 53t-28 91q0 80 60 129.5t157 49.5q96 0 155 -49.5t59 -129.5q0 -51 -27.5 -88.5t-70.5 -55.5q52 -18 85.5 -63.5t33.5 -103.5q0 -90 -64 -142t-172 -52zM281 397q47 0 75 25.5t28 66.5q0 40 -28.5 64
t-74.5 24q-47 0 -76 -24t-29 -64q0 -42 28 -67t77 -25zM280 90q52 0 85.5 27t33.5 76t-32.5 78.5t-88.5 29.5q-53 0 -85.5 -30t-32.5 -78t34 -75.5t86 -27.5z" />
    <glyph glyph-name="nine" unicode="9" horiz-adv-x="536" 
d="M258 673q115 0 173.5 -75t58.5 -192q0 -182 -91 -293t-278 -125l-14 98q114 8 181 63t84 147q-48 -47 -134 -47q-85 0 -142.5 54t-57.5 151t60.5 158t159.5 61zM261 344q51 0 82 30t31 84q0 50 -31.5 81t-81.5 31q-47 0 -78.5 -31t-31.5 -83q0 -54 31 -83t79 -29z" />
    <glyph glyph-name="colon" unicode=":" horiz-adv-x="265" 
d="M132 311q-28 0 -48.5 17.5t-20.5 50.5q0 32 20.5 49.5t48.5 17.5q29 0 49.5 -17.5t20.5 -49.5q0 -33 -20.5 -50.5t-49.5 -17.5zM132 -12q-28 0 -48.5 17.5t-20.5 50.5q0 32 20.5 50t48.5 18q29 0 49.5 -18t20.5 -50q0 -33 -20.5 -50.5t-49.5 -17.5z" />
    <glyph glyph-name="semicolon" unicode=";" horiz-adv-x="269" 
d="M133 312q-29 0 -49 17.5t-20 49.5q0 33 20 50.5t49 17.5q28 0 48.5 -17.5t20.5 -50.5q0 -32 -20.5 -49.5t-48.5 -17.5zM133 125q32 0 52 -21.5t20 -62.5q0 -112 -103 -188l-28 29q57 52 67 106h-8q-29 0 -49.5 18.5t-20.5 50.5t21 50t49 18z" />
    <glyph glyph-name="less" unicode="&#x3c;" horiz-adv-x="429" 
d="M377 154l-340 150v92l340 150v-104l-223 -92l223 -92v-104z" />
    <glyph glyph-name="equal" unicode="=" horiz-adv-x="499" 
d="M62 390v91h375v-91h-375zM62 199v91h375v-91h-375z" />
    <glyph glyph-name="greater" unicode="&#x3e;" horiz-adv-x="429" 
d="M52 154v104l224 92l-224 92v104l340 -150v-92z" />
    <glyph glyph-name="question" unicode="?" horiz-adv-x="486" 
d="M159 188q-2 26 -2 37q0 46 14.5 84t28.5 56t42 46q25 25 36.5 37.5t22.5 32.5t11 40q0 28 -23 49t-64 21q-69 0 -117 -57l-66 73q82 85 196 85q86 0 139 -47t53 -112q0 -27 -7 -49.5t-26 -47.5t-29 -35.5t-41 -41.5q-33 -32 -49.5 -63t-16.5 -79q0 -9 2 -29h-104z
M212 -12q-29 0 -49.5 18t-20.5 51q0 34 20.5 52t49.5 18t50 -18t21 -52q0 -33 -21 -51t-50 -18z" />
    <glyph glyph-name="at" unicode="@" horiz-adv-x="829" 
d="M380 -144q-146 0 -240 95t-94 246q0 187 118 311.5t297 124.5q134 0 228 -81.5t94 -233.5q0 -108 -46 -182t-131 -74q-68 0 -87 62q-17 -29 -53.5 -49t-81.5 -20q-65 0 -102.5 42.5t-37.5 107.5q0 97 59.5 162t157.5 65q70 0 133 -39l-19 -203q0 -3 -0.5 -7.5t-0.5 -6.5
q0 -48 36 -48q48 0 72.5 55t24.5 127q0 124 -69 187t-177 63q-146 0 -242 -104t-96 -255q0 -123 73 -198.5t187 -75.5q75 0 146 31l27 -64q-87 -38 -176 -38zM395 119q43 0 74.5 33t37.5 91l10 108q-29 13 -64 13q-58 0 -96 -44.5t-38 -109.5q0 -39 20.5 -65t55.5 -26z" />
    <glyph glyph-name="A" unicode="A" horiz-adv-x="687" 
d="M362 684l320 -681v-3h-123l-56 123h-318l-56 -123h-124v2l321 682h36zM344 494q-22 -61 -46 -116l-74 -162h240l-74 162q-21 47 -46 116z" />
    <glyph glyph-name="B" unicode="B" horiz-adv-x="629" 
d="M478 356q50 -22 79 -66.5t29 -101.5q0 -84 -59.5 -136t-153.5 -52h-290v680h271q90 0 147.5 -49.5t57.5 -128.5q0 -95 -81 -146zM200 583v-185h136q50 0 77 25t27 70q0 42 -29 66t-77 24h-134zM354 97q51 0 82 28t31 75q0 46 -30 74t-79 28h-158v-205h154z" />
    <glyph glyph-name="C" unicode="C" horiz-adv-x="692" 
d="M396 -13q-155 0 -252.5 102t-97.5 252q0 153 99.5 252.5t253.5 99.5q146 0 256 -100l-61 -80q-79 73 -192 73q-104 0 -169.5 -68.5t-65.5 -176.5q0 -106 64.5 -176.5t166.5 -70.5q125 0 198 96l74 -76q-103 -127 -274 -127z" />
    <glyph glyph-name="D" unicode="D" horiz-adv-x="719" 
d="M83 0v680h243q154 0 250.5 -96t96.5 -245t-95.5 -244t-250.5 -95h-244zM201 102h121q106 0 168.5 66t62.5 171t-63 172t-169 67h-120v-476z" />
    <glyph glyph-name="E" unicode="E" horiz-adv-x="561" 
d="M201 104h319v-104h-437v680h428v-104h-310v-180h271v-101h-271v-191z" />
    <glyph glyph-name="F" unicode="F" horiz-adv-x="542" 
d="M83 0v680h425v-109h-307v-196h275v-106h-275v-269h-118z" />
    <glyph glyph-name="G" unicode="G" horiz-adv-x="732" 
d="M394 381h287v-269q-103 -125 -282 -125q-155 0 -254 100.5t-99 253.5q0 151 97.5 251.5t257.5 100.5q157 0 263 -109l-65 -78q-83 81 -194 81q-108 0 -173.5 -69t-65.5 -178q0 -111 67.5 -179.5t175.5 -68.5q104 0 167 65v126h-182v98z" />
    <glyph glyph-name="H" unicode="H" horiz-adv-x="733" 
d="M83 0v680h118v-283h331v283h118v-680h-118v288h-331v-288h-118z" />
    <glyph glyph-name="I" unicode="I" horiz-adv-x="284" 
d="M83 0v680h118v-680h-118z" />
    <glyph glyph-name="J" unicode="J" horiz-adv-x="498" 
d="M201 -13q-111 0 -194 63l55 90q61 -48 131 -48q114 0 114 128v460h118v-460q0 -115 -57.5 -174t-166.5 -59z" />
    <glyph glyph-name="K" unicode="K" horiz-adv-x="606" 
d="M311 343l289 -339v-4h-139l-260 304v-304h-118v680h118v-305l244 305h134v-3z" />
    <glyph glyph-name="L" unicode="L" horiz-adv-x="521" 
d="M83 0v680h118v-571h295v-109h-413z" />
    <glyph glyph-name="M" unicode="M" horiz-adv-x="854" 
d="M712 685l100 -685h-116l-54 368q-7 53 -8 69q-12 -22 -40 -64l-155 -236h-24l-154 236q-23 31 -42 66q0 -12 -8 -72l-52 -367h-116l100 685h35l205 -314q24 -38 44 -71q20 33 44 71l206 314h35z" />
    <glyph glyph-name="N" unicode="N" horiz-adv-x="749" 
d="M549 680h117v-684h-46l-367 401q-40 43 -57 62q4 -50 4 -74v-385h-117v684h45l356 -391q46 -48 68 -73q-3 50 -3 91v369z" />
    <glyph glyph-name="O" unicode="O" horiz-adv-x="800" 
d="M400 -13q-154 0 -254 101.5t-100 252.5q0 153 99 252.5t255 99.5q157 0 255.5 -99t98.5 -253q0 -151 -99 -252.5t-255 -101.5zM400 94q105 0 169.5 71t64.5 176q0 107 -64 176t-170 69q-105 0 -169 -69t-64 -176q0 -105 64.5 -176t168.5 -71z" />
    <glyph glyph-name="P" unicode="P" horiz-adv-x="598" 
d="M83 0v680h261q105 0 166.5 -65t61.5 -154q0 -88 -61.5 -150.5t-168.5 -62.5h-141v-248h-118zM201 349h128q61 0 92.5 33t31.5 80q0 49 -33 82t-88 33h-131v-228z" />
    <glyph glyph-name="Q" unicode="Q" horiz-adv-x="800" 
d="M755 -22l-72 -81l-146 114q-66 -24 -137 -24q-154 0 -254 101.5t-100 252.5q0 153 99 252.5t255 99.5q157 0 255.5 -99t98.5 -253q0 -168 -117 -269zM167 341q0 -105 64.5 -176t168.5 -71q105 0 169.5 71t64.5 176q0 107 -64 176t-170 69q-105 0 -169 -69t-64 -176z" />
    <glyph glyph-name="R" unicode="R" horiz-adv-x="625" 
d="M424 271l174 -268v-3h-134l-160 258h-103v-258h-118v680h267q101 0 166 -60.5t65 -151.5q0 -71 -42 -123.5t-115 -73.5zM201 356h137q58 0 91 29.5t33 80.5q0 49 -34 80.5t-88 31.5h-139v-222z" />
    <glyph glyph-name="S" unicode="S" horiz-adv-x="572" 
d="M292 -13q-144 0 -249 83l55 92q81 -70 190 -70q54 0 90.5 24t36.5 67t-37.5 68t-109.5 48q-203 66 -203 207q0 87 65.5 137t161.5 50q118 0 221 -69l-51 -88q-83 53 -164 53q-48 0 -80.5 -20t-32.5 -57q0 -22 11 -39.5t33.5 -31t42 -22t52.5 -19.5q99 -32 154.5 -81
t55.5 -130q0 -93 -69 -147.5t-173 -54.5z" />
    <glyph glyph-name="T" unicode="T" horiz-adv-x="542" 
d="M522 680v-109h-192v-571h-118v571h-193v109h503z" />
    <glyph glyph-name="U" unicode="U" horiz-adv-x="691" 
d="M346 -13q-122 0 -197.5 67.5t-75.5 186.5v439h118v-431q0 -76 41.5 -115.5t113.5 -39.5q71 0 112.5 39.5t41.5 115.5v431h118v-439q0 -119 -75.5 -186.5t-196.5 -67.5z" />
    <glyph glyph-name="V" unicode="V" horiz-adv-x="694" 
d="M557 680h130v-2l-322 -682h-36l-322 682v2h129l173 -378q26 -57 38 -93q21 57 39 95z" />
    <glyph glyph-name="W" unicode="W" horiz-adv-x="965" 
d="M827 680h123v-3l-239 -681h-35l-165 361q-16 34 -29 75q-18 -51 -29 -75l-165 -361h-35l-238 681v3h124l119 -354q23 -71 30 -101q19 56 39 100l140 314h29l135 -300q25 -54 46 -113q7 26 34 108z" />
    <glyph glyph-name="X" unicode="X" horiz-adv-x="643" 
d="M11 0v2l240 350l-220 326v2h136l95 -144q35 -53 61 -98q27 48 61 100l93 142h135v-2l-219 -326l239 -350v-2h-137l-113 170q-36 54 -60 96q-32 -56 -60 -96l-114 -170h-137z" />
    <glyph glyph-name="Y" unicode="Y" horiz-adv-x="644" 
d="M495 680h134v-3l-248 -382v-295h-118v295l-248 382v3h134l122 -192q31 -50 52 -94q15 36 51 94z" />
    <glyph glyph-name="Z" unicode="Z" horiz-adv-x="577" 
d="M36 0v35l287 466q7 10 21.5 34t23.5 37q-25 -1 -74 -1h-241v109h485v-35l-293 -475q-21 -35 -39 -62q23 1 65 1h270v-109h-505z" />
    <glyph glyph-name="bracketleft" unicode="[" horiz-adv-x="275" 
d="M64 -187v946h180v-90h-81v-766h81v-90h-180z" />
    <glyph glyph-name="backslash" unicode="\" horiz-adv-x="403" 
d="M290 -12l-263 704h85l264 -704h-86z" />
    <glyph glyph-name="bracketright" unicode="]" horiz-adv-x="275" 
d="M211 -187h-180v90h81v766h-81v90h180v-946z" />
    <glyph glyph-name="asciicircum" unicode="^" horiz-adv-x="480" 
d="M29 336l169 344h79l174 -344h-111l-102 212l-99 -212h-110z" />
    <glyph glyph-name="underscore" unicode="_" horiz-adv-x="492" 
d="M42 -109v84h407v-84h-407z" />
    <glyph glyph-name="grave" unicode="`" horiz-adv-x="296" 
d="M208 521l-160 101l62 72l143 -122z" />
    <glyph glyph-name="a" unicode="a" horiz-adv-x="484" 
d="M242 454q87 0 135.5 -43t48.5 -123v-288h-73l-20 67q-53 -76 -159 -76q-63 0 -101.5 33.5t-38.5 91.5q0 75 61 116.5t165 41.5q24 0 56 -2v20q0 69 -91 69q-64 0 -139 -36l-31 83q101 46 187 46zM206 73q49 0 80.5 34t32.5 94q-27 3 -52 3q-59 0 -92 -20t-33 -57
q0 -54 64 -54z" />
    <glyph glyph-name="b" unicode="b" horiz-adv-x="572" 
d="M319 457q94 0 154.5 -65t60.5 -166q0 -106 -59.5 -171.5t-155.5 -65.5q-102 0 -161 76l-18 -65h-76v720h109v-199q0 -66 -3 -129q58 65 149 65zM298 84q57 0 91.5 38.5t34.5 100.5t-35 100t-91 38q-58 0 -93.5 -38t-35.5 -100q0 -63 35 -101t94 -38z" />
    <glyph glyph-name="c" unicode="c" horiz-adv-x="461" 
d="M266 -13q-92 0 -161 63t-69 173q0 106 68 170.5t167 64.5q97 0 166 -60l-53 -73q-45 38 -105 38q-57 0 -95 -38.5t-38 -101.5q0 -64 37.5 -102t93.5 -38q65 0 114 46l55 -73q-75 -69 -180 -69z" />
    <glyph glyph-name="d" unicode="d" horiz-adv-x="572" 
d="M399 720h109v-720h-75l-19 67q-57 -78 -161 -78q-96 0 -155.5 65.5t-59.5 171.5q0 101 60.5 166t154.5 65q93 0 149 -64q-3 62 -3 128v199zM275 84q58 0 93 38t35 101q0 62 -35 100t-93 38q-57 0 -92 -38t-35 -100t35 -100.5t92 -38.5z" />
    <glyph glyph-name="e" unicode="e" horiz-adv-x="502" 
d="M266 458q94 0 148.5 -59t54.5 -160q0 -16 -4 -52h-320q10 -53 48.5 -81.5t93.5 -28.5q70 0 118 42l46 -70q-77 -62 -174 -62q-107 0 -174 66t-67 171q0 99 65 166.5t165 67.5zM264 369q-45 0 -77 -28.5t-41 -79.5h220q-2 52 -30 80t-72 28z" />
    <glyph glyph-name="f" unicode="f" horiz-adv-x="341" 
d="M98 0v353h-83v93h83v118q0 77 42 123.5t116 46.5q66 0 125 -39l-39 -78q-33 19 -65 19t-51.5 -20.5t-19.5 -57.5v-112h123v-93h-122v-353h-109z" />
    <glyph glyph-name="g" unicode="g" horiz-adv-x="572" 
d="M436 446h72v-464q0 -104 -64 -159t-170 -55q-119 0 -202 68l42 82q65 -52 151 -52q62 0 97.5 29t35.5 85q0 23 2 73q-58 -61 -148 -61q-95 0 -154.5 65t-59.5 167t59 167.5t153 65.5q107 0 164 -76zM274 86q61 0 95 38.5t34 99.5t-33.5 99.5t-94.5 38.5q-58 0 -92 -38
t-34 -100q0 -61 34 -99.5t91 -38.5z" />
    <glyph glyph-name="h" unicode="h" horiz-adv-x="526" 
d="M309 458q77 0 117.5 -47t40.5 -131v-280h-109v271q0 89 -77 89q-51 0 -79.5 -37t-28.5 -93v-230h-109v720h109v-266q0 -41 -1 -68q46 72 137 72z" />
    <glyph glyph-name="i" unicode="i" horiz-adv-x="237" 
d="M119 539q-31 0 -49.5 18.5t-18.5 46.5t18.5 46.5t49.5 18.5t49.5 -19t18.5 -47q0 -27 -19 -45.5t-49 -18.5zM64 0v446h109v-446h-109z" />
    <glyph glyph-name="j" unicode="j" horiz-adv-x="241" 
d="M122 539q-30 0 -48.5 18.5t-18.5 45.5q0 28 18.5 47t48.5 19q32 0 50.5 -18.5t18.5 -47.5q0 -28 -19 -46t-50 -18zM-32 -232l-14 93q67 5 90.5 35.5t23.5 98.5v451h109v-451q0 -113 -46.5 -167t-162.5 -60z" />
    <glyph glyph-name="k" unicode="k" horiz-adv-x="465" 
d="M267 230l192 -224v-6h-126l-160 190v-190h-109v720h109v-451l148 177h123v-5z" />
    <glyph glyph-name="l" unicode="l" horiz-adv-x="238" 
d="M64 0v720h109l1 -720h-110z" />
    <glyph glyph-name="m" unicode="m" horiz-adv-x="792" 
d="M581 458q73 0 113 -45.5t40 -125.5v-287h-109v275q0 40 -19.5 62.5t-52.5 22.5q-49 0 -74.5 -36t-25.5 -85v-239h-108v276q0 36 -19 60t-54 24q-48 0 -73.5 -36t-25.5 -85v-239h-109v446h74l22 -71q47 83 142 83q97 0 134 -79q48 79 145 79z" />
    <glyph glyph-name="n" unicode="n" horiz-adv-x="526" 
d="M310 458q76 0 116.5 -46.5t40.5 -132.5v-279h-109v269q0 91 -76 91q-50 0 -79.5 -32t-29.5 -83v-245h-109v446h74l22 -70q53 82 150 82z" />
    <glyph glyph-name="o" unicode="o" horiz-adv-x="551" 
d="M275 -13q-105 0 -172 66t-67 170q0 103 67 169t172 66t172.5 -66t67.5 -169t-67.5 -169.5t-172.5 -66.5zM275 84q58 0 93.5 38.5t35.5 100.5t-35.5 100.5t-93.5 38.5q-57 0 -93 -39t-36 -100t36 -100t93 -39z" />
    <glyph glyph-name="p" unicode="p" horiz-adv-x="572" 
d="M321 457q92 0 152.5 -66t60.5 -166q0 -104 -60 -170t-153 -66q-91 0 -150 62q2 -31 2 -106v-165h-109v666h74l21 -68q60 79 162 79zM298 84q56 0 90.5 38.5t34.5 99.5q0 62 -34.5 100.5t-90.5 38.5q-58 0 -93.5 -38t-35.5 -99q0 -63 36 -101.5t93 -38.5z" />
    <glyph glyph-name="q" unicode="q" horiz-adv-x="572" 
d="M434 446h74v-666h-110v165q0 60 3 108q-57 -64 -150 -64q-94 0 -153.5 66t-59.5 170q0 100 60.5 166t152.5 66q102 0 161 -80zM273 84q58 0 94 38.5t36 101.5q0 62 -36 99.5t-94 37.5q-56 0 -90.5 -38.5t-34.5 -100.5q0 -61 35 -99.5t90 -38.5z" />
    <glyph glyph-name="r" unicode="r" horiz-adv-x="371" 
d="M288 456q44 0 77 -19l-28 -92q-28 10 -58 10q-48 0 -77 -30t-29 -82v-243h-109v446h74l21 -66q40 76 129 76z" />
    <glyph glyph-name="s" unicode="s" horiz-adv-x="398" 
d="M203 -10q-96 0 -173 49l43 77q59 -37 122 -37q30 0 48 12.5t18 33.5q0 15 -14 28.5t-28.5 20t-43.5 17.5q-60 23 -93 54.5t-33 82.5q0 59 45.5 92t112.5 33q77 0 146 -40l-38 -73q-50 26 -99 26q-63 0 -63 -38q0 -20 20.5 -34.5t60.5 -28.5q65 -24 99.5 -56t34.5 -84
q0 -62 -45.5 -98.5t-119.5 -36.5z" />
    <glyph glyph-name="t" unicode="t" horiz-adv-x="373" 
d="M230 -10q-62 0 -97.5 36.5t-35.5 109.5v217l-79 6v87h79l3 143h106v-143h138v-93h-138v-206q0 -57 49 -57q39 0 75 23l35 -82q-65 -41 -135 -41z" />
    <glyph glyph-name="u" unicode="u" horiz-adv-x="523" 
d="M350 446h109v-446h-76l-22 69q-49 -78 -142 -78q-79 0 -120 47.5t-41 131.5v276h110v-266q0 -91 78 -91q49 0 76.5 36t27.5 90v231z" />
    <glyph glyph-name="v" unicode="v" horiz-adv-x="485" 
d="M358 446h120v-3l-212 -447h-47l-211 447v3h120l87 -200q18 -41 28 -84q13 50 28 84z" />
    <glyph glyph-name="w" unicode="w" horiz-adv-x="675" 
d="M548 446h115v-3l-167 -447h-34l-124 249l-125 -249h-33l-167 447v3h116l69 -198q8 -26 16 -54q10 25 25 55l87 175h23l87 -175q13 -23 26 -56q6 23 17 55z" />
    <glyph glyph-name="x" unicode="x" horiz-adv-x="473" 
d="M17 0v2l150 230l-137 211v3h122l56 -92q12 -19 28 -53l30 54l57 91h119v-3l-136 -211l150 -230v-2h-123l-65 104q-11 18 -32 60q-14 -31 -32 -60l-66 -104h-121z" />
    <glyph glyph-name="y" unicode="y" horiz-adv-x="489" 
d="M366 446h114v-3l-263 -663h-116v2l99 229l-191 432v3h118l95 -228q19 -47 30 -87q9 33 27 87z" />
    <glyph glyph-name="z" unicode="z" horiz-adv-x="418" 
d="M257 94h129v-94h-353v31l166 273q4 8 9 15.5t11 17.5t10 16q-25 -1 -55 -1h-132v94h341v-31l-155 -256q-22 -37 -42 -66q28 1 71 1z" />
    <glyph glyph-name="braceleft" unicode="{" horiz-adv-x="328" 
d="M300 -190q-10 -1 -29 -1q-73 0 -108 34t-35 107v200q0 48 -18 69.5t-64 20.5v91q46 0 64 21.5t18 68.5v200q0 74 35 108t108 34q19 0 29 -1v-91q-42 2 -58 -11.5t-16 -52.5v-202q0 -95 -75 -119q75 -24 75 -119v-202q0 -39 16 -53t58 -11v-91z" />
    <glyph glyph-name="bar" unicode="|" horiz-adv-x="230" 
d="M66 -166v905h99v-905h-99z" />
    <glyph glyph-name="braceright" unicode="}" horiz-adv-x="328" 
d="M27 -190v91q43 -3 59 11t16 53v202q0 95 74 119q-74 24 -74 119v202q0 39 -16 52.5t-59 11.5v91q10 1 29 1q73 0 108.5 -34t35.5 -108v-200q0 -48 18 -69t64 -21v-91q-46 1 -64 -20.5t-18 -69.5v-200q0 -73 -35.5 -107t-108.5 -34q-19 0 -29 1z" />
    <glyph glyph-name="asciitilde" unicode="~" horiz-adv-x="562" 
d="M133 270l-77 41q36 114 135 114q40 0 96 -32q56 -35 80 -35q41 0 60 61l79 -39q-34 -120 -131 -120q-39 0 -93 31q-2 1 -13.5 8t-15 9t-13 6.5t-15 6.5t-13 3.5t-14.5 1.5q-26 0 -40 -14t-25 -42z" />
    <glyph glyph-name="uni00A0" unicode="&#xa0;" horiz-adv-x="225" 
 />
    <glyph glyph-name="exclamdown" unicode="&#xa1;" horiz-adv-x="274" 
d="M137 412q29 0 49.5 -18t20.5 -51q0 -34 -20.5 -52t-49.5 -18t-50 18t-21 52q0 33 21 51t50 18zM87 212h99l13 -492h-125z" />
    <glyph glyph-name="cent" unicode="&#xa2;" horiz-adv-x="451" 
d="M425 135q-52 -51 -127 -60v-83h-75v84q-79 13 -129.5 73t-50.5 152q0 91 50.5 152.5t129.5 74.5v83h75v-82q71 -10 121 -60l-49 -74q-39 41 -94 41q-52 0 -87 -37t-35 -98q0 -60 34.5 -96t87.5 -36q59 0 102 43z" />
    <glyph glyph-name="sterling" unicode="&#xa3;" horiz-adv-x="490" 
d="M195 102h271v-102h-410l-26 64q58 45 90 100t32 108v6h-98v77h77q-3 6 -16.5 32t-18.5 38t-11 34.5t-6 44.5q0 72 54.5 120t137.5 48q104 0 177 -72l-64 -67q-40 37 -96 37q-41 0 -66 -21.5t-25 -56.5q0 -22 7.5 -43t23 -50.5t21.5 -43.5h145v-77h-127v-5q0 -89 -72 -171
z" />
    <glyph glyph-name="currency" unicode="&#xa4;" horiz-adv-x="531" 
d="M98 127l-55 56l63 63q-27 46 -27 104t27 104l-63 63l55 56l62 -61q45 32 106 32q60 0 105 -32l62 61l55 -56l-62 -63q27 -46 27 -104t-27 -104l62 -63l-55 -56l-62 61q-46 -33 -105 -33q-60 0 -106 33zM266 246q41 0 66.5 28.5t25.5 75.5t-25.5 75.5t-66.5 28.5
q-42 0 -67.5 -28.5t-25.5 -75.5t25.5 -75.5t67.5 -28.5z" />
    <glyph glyph-name="yen" unicode="&#xa5;" horiz-adv-x="598" 
d="M239 0v153h-153v74h153v55h-153v74h123l-199 305h132l156 -261l157 261h132l-199 -305h123v-74h-153v-55h153v-74h-153v-153h-119z" />
    <glyph glyph-name="brokenbar" unicode="&#xa6;" horiz-adv-x="230" 
d="M66 353v386h99v-386h-99zM66 -166v404h99v-404h-99z" />
    <glyph glyph-name="section" unicode="&#xa7;" horiz-adv-x="534" 
d="M259 -58q-109 0 -191 65l52 84q59 -54 141 -54q86 0 86 62q0 28 -26.5 46t-83.5 39q-40 15 -67.5 28t-56 32.5t-43 45t-14.5 56.5q0 73 63 108q-38 36 -38 90q0 71 53 109.5t132 38.5q94 0 171 -51l-46 -81q-55 39 -123 39q-36 0 -58 -13.5t-22 -39.5q0 -25 24 -41
t71 -34q41 -16 71 -30.5t60.5 -35.5t46.5 -48.5t16 -58.5q0 -65 -59 -106q37 -37 37 -90q0 -77 -54.5 -118.5t-141.5 -41.5zM343 242q29 20 29 48q0 8 -2 15.5t-7.5 14t-10 11.5t-13.5 10.5t-14.5 9t-17 8.5t-16.5 7.5t-16.5 7t-14.5 5.5q-46 18 -69 29q-34 -25 -34 -51
q0 -9 3.5 -17t12.5 -16t15.5 -13t20.5 -12t19.5 -9.5t22 -9t17.5 -7.5q44 -17 75 -31z" />
    <glyph glyph-name="dieresis" unicode="&#xa8;" horiz-adv-x="419" 
d="M124 543q-26 0 -42.5 17t-16.5 41t16 41.5t43 17.5q25 0 42 -17.5t17 -40.5q0 -24 -16.5 -41.5t-42.5 -17.5zM296 543q-26 0 -43 17.5t-17 40.5t17 41t43 18t42.5 -17.5t16.5 -41.5q0 -23 -17 -40.5t-42 -17.5z" />
    <glyph glyph-name="copyright" unicode="&#xa9;" horiz-adv-x="776" 
d="M388 -3q-151 0 -246.5 98.5t-95.5 244.5t95.5 244t246.5 98q150 0 245.5 -98t95.5 -244t-95.5 -244.5t-245.5 -98.5zM388 58q124 0 200.5 80t76.5 202q0 121 -76.5 200.5t-200.5 79.5q-123 0 -200.5 -79.5t-77.5 -200.5t77.5 -201.5t200.5 -80.5zM399 155
q-73 0 -128 48.5t-55 137.5q0 84 53 134.5t129 50.5q74 0 127 -50l-41 -59q-34 31 -81 31q-44 0 -72 -30t-28 -78t29 -77t74 -29q49 0 87 37l42 -60q-56 -56 -136 -56z" />
    <glyph glyph-name="ordfeminine" unicode="&#xaa;" horiz-adv-x="307" 
d="M115 448q-34 0 -55 19.5t-21 52.5q0 42 37.5 63.5t89.5 22.5q9 0 23 -2v15q0 33 -44 33q-36 0 -73 -20l-23 52q54 28 108 28q45 0 73 -24t28 -73v-160h-51l-10 33q-24 -40 -82 -40zM139 499q22 0 36.5 16.5t14.5 43.5q-7 2 -23 2q-60 0 -60 -36q0 -26 32 -26zM46 343v61
h212v-61h-212z" />
    <glyph glyph-name="guillemotleft" unicode="&#xab;" horiz-adv-x="455" 
d="M152 44l-126 201l124 197l82 -45l-86 -152l87 -156zM331 44l-126 201l125 197l81 -45l-86 -152l88 -156z" />
    <glyph glyph-name="logicalnot" unicode="&#xac;" horiz-adv-x="533" 
d="M383 192v131h-327v94h418v-225h-91z" />
    <glyph glyph-name="registered" unicode="&#xae;" horiz-adv-x="540" 
d="M270 237q-96 0 -160 64.5t-64 161.5q0 96 64 160t160 64t160 -64t64 -160q0 -97 -64 -161.5t-160 -64.5zM270 286q74 0 123 50.5t49 126.5q0 74 -49.5 124t-122.5 50t-122.5 -50t-49.5 -124q0 -76 49 -126.5t123 -50.5zM189 356v217h101q31 0 52 -19.5t21 -48.5
q0 -23 -14 -40t-36 -22l57 -87h-56l-52 83h-25v-83h-48zM237 477h45q15 0 24 8t9 20t-9 20t-24 8h-45v-56z" />
    <glyph glyph-name="macron" unicode="&#xaf;" horiz-adv-x="394" 
d="M64 547v79h268v-79h-268z" />
    <glyph glyph-name="degree" unicode="&#xb0;" horiz-adv-x="353" 
d="M177 416q-62 0 -103.5 37t-41.5 101t41.5 100.5t103.5 36.5t103 -36.5t41 -100.5t-41 -101t-103 -37zM177 487q27 0 45 18.5t18 48.5t-17.5 48t-45.5 18t-46 -18t-18 -48t18 -48.5t46 -18.5z" />
    <glyph glyph-name="plusminus" unicode="&#xb1;" horiz-adv-x="488" 
d="M197 243v138h-138v89h138v137h93v-137h139v-89h-139v-138h-93zM59 91v88h370v-88h-370z" />
    <glyph glyph-name="acute" unicode="&#xb4;" horiz-adv-x="307" 
d="M98 521l-45 51l142 122l61 -71z" />
    <glyph glyph-name="uni00B5" unicode="&#xb5;" horiz-adv-x="529" 
d="M356 446h109v-446h-88l-9 69q-44 -75 -125 -75q-47 0 -78 27q6 -76 6 -161v-74h-107v660h109v-243q0 -113 82 -113q49 0 75 37.5t26 90.5v228z" />
    <glyph glyph-name="paragraph" unicode="&#xb6;" horiz-adv-x="626" 
d="M233 -98v381q-93 1 -147 57t-54 141q0 87 54 143t147 56h311v-778h-98v683h-115v-683h-98z" />
    <glyph glyph-name="periodcentered" unicode="&#xb7;" horiz-adv-x="268" 
d="M134 281q-29 0 -50 17.5t-21 51.5t21 51.5t50 17.5t50 -17.5t21 -51.5t-21 -51.5t-50 -17.5z" />
    <glyph glyph-name="cedilla" unicode="&#xb8;" horiz-adv-x="323" 
d="M156 -216q-60 0 -103 26l25 57q32 -20 67 -20q46 0 46 30q0 41 -89 39l35 86h71l-22 -53q37 -6 60.5 -26t23.5 -54q0 -40 -32 -62.5t-82 -22.5z" />
    <glyph glyph-name="ordmasculine" unicode="&#xba;" horiz-adv-x="318" 
d="M159 449q-56 0 -86.5 38t-30.5 94q0 55 30.5 93t86.5 38t86.5 -38t30.5 -93q0 -56 -30.5 -94t-86.5 -38zM159 513q24 0 36.5 20.5t12.5 47.5t-12.5 47.5t-36.5 20.5q-25 0 -36.5 -20.5t-11.5 -47.5q0 -28 11.5 -48t36.5 -20zM54 343v61h214v-61h-214z" />
    <glyph glyph-name="guillemotright" unicode="&#xbb;" horiz-adv-x="455" 
d="M124 44l-82 45l88 156l-86 152l81 45l125 -197zM303 44l-81 45l87 156l-86 152l82 45l124 -197z" />
    <glyph glyph-name="onequarter" unicode="&#xbc;" horiz-adv-x="623" 
d="M101 397v179l-38 -33l-38 41l104 99h36v-286h-64zM82 0l353 680h75l-352 -680h-76zM485 0v46h-132v29l160 211h31v-189h34v-51h-34v-46h-59zM434 97h51v69z" />
    <glyph glyph-name="onehalf" unicode="&#xbd;" horiz-adv-x="644" 
d="M101 397v179l-38 -33l-38 41l104 99h36v-286h-64zM435 680h75l-352 -680h-76zM511 58h96v-58h-203v27l106 129q21 28 21 47q0 31 -32 31q-25 0 -43 -37l-50 25q24 72 97 72q42 0 68 -25.5t26 -61.5q0 -40 -34 -84z" />
    <glyph glyph-name="threequarters" unicode="&#xbe;" horiz-adv-x="684" 
d="M141 386q-61 0 -100 36l34 45q23 -21 59 -21q45 0 45 37q0 35 -46 35h-32v51h26q39 0 39 32q0 14 -10 21.5t-24 7.5q-25 0 -46 -16l-36 43q38 33 92 33q37 0 63 -22t26 -56q0 -48 -39 -64q22 -6 38 -26t16 -46q0 -40 -29 -65t-76 -25zM143 0l353 680h75l-352 -680h-76z
M546 0v46h-132v29l160 211h31v-189h34v-51h-34v-46h-59zM495 97h51v69z" />
    <glyph glyph-name="questiondown" unicode="&#xbf;" horiz-adv-x="443" 
d="M261 412q29 0 49.5 -18t20.5 -51q0 -34 -20.5 -52t-49.5 -18t-50 18t-21 52q0 33 21 51t50 18zM314 212q2 -26 2 -37q0 -46 -14.5 -84t-29 -56t-42.5 -46q-25 -25 -36 -37.5t-22 -32.5t-11 -40q0 -28 23 -49t64 -21q68 0 117 57l65 -73q-81 -85 -195 -85q-86 0 -139 47
t-53 112q0 27 7 50t25 46.5t30 36.5t41 41q33 33 49 63.5t16 78.5q0 19 -1 29h104z" />
    <glyph glyph-name="Agrave" unicode="&#xc0;" horiz-adv-x="687" 
d="M387 746l-167 105l66 76l148 -127zM362 684l320 -681v-3h-123l-56 123h-318l-56 -123h-124v2l321 682h36zM344 494q-22 -61 -46 -116l-74 -162h240l-74 162q-21 47 -46 116z" />
    <glyph glyph-name="Aacute" unicode="&#xc1;" horiz-adv-x="687" 
d="M456 852l-166 -106l-47 54l148 127zM362 684l320 -681v-3h-123l-56 123h-319l-55 -123h-124v2l321 682h36zM344 494q-22 -61 -46 -116l-74 -162h240l-74 162q-28 62 -46 116z" />
    <glyph glyph-name="Acircumflex" unicode="&#xc2;" horiz-adv-x="687" 
d="M235 738l-42 52l141 110h18l140 -111l-41 -51l-108 69zM362 684l320 -681v-3h-123l-56 123h-318l-56 -123h-124v2l321 682h36zM344 494q-22 -61 -46 -116l-74 -162h240l-74 162q-21 47 -46 116z" />
    <glyph glyph-name="Atilde" unicode="&#xc3;" horiz-adv-x="687" 
d="M252 760l-64 37q34 90 96 90q28 0 68 -20q30 -14 44 -14q22 0 38 34l65 -35q-34 -89 -96 -89q-27 0 -59 16q-38 18 -51 18q-24 0 -41 -37zM362 684l320 -681v-3h-123l-56 123h-318l-56 -123h-124v2l321 682h36zM344 494q-22 -61 -46 -116l-74 -162h240l-74 162
q-21 47 -46 116z" />
    <glyph glyph-name="Adieresis" unicode="&#xc4;" horiz-adv-x="687" 
d="M245 764q-28 0 -45.5 18t-17.5 44t17.5 45t45.5 19q27 0 45 -19t18 -44t-17.5 -44t-45.5 -19zM442 764q-28 0 -45.5 18.5t-17.5 44.5q0 25 18 44t45 19t45 -19t18 -44q0 -26 -17.5 -44.5t-45.5 -18.5zM362 684l320 -681v-3h-123l-56 123h-318l-56 -123h-124v2l321 682h36
zM344 494q-22 -61 -46 -116l-74 -162h240l-74 162q-21 47 -46 116z" />
    <glyph glyph-name="Aring" unicode="&#xc5;" horiz-adv-x="687" 
d="M344 722q-50 0 -84 29.5t-34 78.5q0 50 33.5 79.5t82.5 29.5q50 0 84 -29.5t34 -79.5t-33 -79t-83 -29zM343 783q21 0 34.5 12.5t13.5 35.5q0 22 -14 35t-34 13t-34 -13t-14 -35t14 -35t34 -13zM362 684l320 -681v-3h-123l-56 123h-318l-56 -123h-124v2l321 682h36z
M344 494q-22 -61 -46 -116l-74 -162h240l-74 162q-21 47 -46 116z" />
    <glyph glyph-name="AE" unicode="&#xc6;" horiz-adv-x="886" 
d="M552 104h292v-104h-404v125h-234l-81 -125h-132v3l447 677h395v-104h-283v-179h249v-100h-249v-193zM261 216h179v185v103q-9 -20 -42 -76z" />
    <glyph glyph-name="Ccedilla" unicode="&#xc7;" horiz-adv-x="692" 
d="M670 114q-88 -108 -226 -124l-17 -41q38 -6 63.5 -27t25.5 -57q0 -44 -34.5 -68.5t-89.5 -24.5q-66 0 -112 28l28 63q31 -22 72 -22q47 0 48 29q2 25 -26 35.5t-68 9.5l30 73q-142 11 -230 111t-88 242q0 153 99.5 252.5t253.5 99.5q146 0 256 -100l-61 -80
q-79 73 -192 73q-104 0 -169.5 -68.5t-65.5 -176.5q0 -106 64.5 -176.5t166.5 -70.5q125 0 198 96z" />
    <glyph glyph-name="Egrave" unicode="&#xc8;" horiz-adv-x="561" 
d="M342 746l-167 105l66 76l148 -127zM201 104h319v-104h-437v680h428v-104h-310v-180h271v-101h-271v-191z" />
    <glyph glyph-name="Eacute" unicode="&#xc9;" horiz-adv-x="561" 
d="M412 852l-166 -106l-47 54l148 127zM201 104h319v-104h-437v680h428v-104h-310v-180h271v-101h-271v-191z" />
    <glyph glyph-name="Ecircumflex" unicode="&#xca;" horiz-adv-x="561" 
d="M191 738l-42 52l141 110h18l140 -111l-41 -51l-108 69zM201 104h319v-104h-437v680h428v-104h-310v-180h271v-101h-271v-191z" />
    <glyph glyph-name="Edieresis" unicode="&#xcb;" horiz-adv-x="561" 
d="M201 764q-28 0 -45.5 18t-17.5 44t17.5 45t45.5 19q27 0 45 -19t18 -44t-17.5 -44t-45.5 -19zM398 764q-28 0 -45.5 18.5t-17.5 44.5q0 25 18 44t45 19t45 -19t18 -44q0 -26 -17.5 -44.5t-45.5 -18.5zM201 104h319v-104h-437v680h428v-104h-310v-180h271v-101h-271v-191z
" />
    <glyph glyph-name="Igrave" unicode="&#xcc;" horiz-adv-x="284" 
d="M185 746l-167 105l66 76l148 -127zM83 0v680h118v-680h-118z" />
    <glyph glyph-name="Iacute" unicode="&#xcd;" horiz-adv-x="284" 
d="M88 746l-47 54l148 127l65 -75zM83 0v680h118v-680h-118z" />
    <glyph glyph-name="Icircumflex" unicode="&#xce;" horiz-adv-x="284" 
d="M33 738l-42 52l141 110h18l140 -111l-41 -51l-108 69zM83 0v680h118v-680h-118z" />
    <glyph glyph-name="Idieresis" unicode="&#xcf;" horiz-adv-x="284" 
d="M43 764q-28 0 -45.5 18t-17.5 44t17.5 45t45.5 19q27 0 45 -19t18 -44t-17.5 -44t-45.5 -19zM240 764q-28 0 -45.5 18.5t-17.5 44.5q0 25 18 44t45 19t45 -19t18 -44q0 -26 -17.5 -44.5t-45.5 -18.5zM83 0v680h118v-680h-118z" />
    <glyph glyph-name="Eth" unicode="&#xd0;" horiz-adv-x="727" 
d="M334 680q154 0 250.5 -96t96.5 -245t-95.5 -244t-250.5 -95h-244v305h-70v84h70v291h243zM330 102q106 0 169 66t63 171t-63.5 172t-169.5 67h-120v-189h164v-84h-164v-203h121z" />
    <glyph glyph-name="Ntilde" unicode="&#xd1;" horiz-adv-x="749" 
d="M318 797q-24 0 -41 -37l-64 37q34 90 96 90q28 0 68 -20q30 -14 44 -14q22 0 38 34l65 -35q-34 -89 -96 -89q-27 0 -59 16q-38 18 -51 18zM549 680h117v-684h-46l-367 401q-40 43 -57 62q4 -50 4 -74v-385h-117v684h45l356 -391q46 -48 68 -73q-3 50 -3 91v369z" />
    <glyph glyph-name="Ograve" unicode="&#xd2;" horiz-adv-x="800" 
d="M443 746l-167 105l66 76l148 -127zM400 -13q-154 0 -254 101.5t-100 252.5q0 153 99 252.5t255 99.5q157 0 255.5 -99t98.5 -253q0 -151 -99 -252.5t-255 -101.5zM400 94q105 0 169.5 71t64.5 176q0 107 -64 176t-170 69q-105 0 -169 -69t-64 -176q0 -105 64.5 -176
t168.5 -71z" />
    <glyph glyph-name="Oacute" unicode="&#xd3;" horiz-adv-x="800" 
d="M347 746l-47 54l148 127l65 -75zM400 -13q-154 0 -254 101.5t-100 252.5q0 153 99 252.5t255 99.5q157 0 255.5 -99t98.5 -253q0 -151 -99 -252.5t-255 -101.5zM400 94q105 0 169.5 71t64.5 176q0 107 -64 176t-170 69q-105 0 -169 -69t-64 -176q0 -105 64.5 -176
t168.5 -71z" />
    <glyph glyph-name="Ocircumflex" unicode="&#xd4;" horiz-adv-x="800" 
d="M292 738l-42 52l141 110h18l140 -111l-41 -51l-108 69zM400 -13q-154 0 -254 101.5t-100 252.5q0 153 99 252.5t255 99.5q157 0 255.5 -99t98.5 -253q0 -151 -99 -252.5t-255 -101.5zM400 94q105 0 169.5 71t64.5 176q0 107 -64 176t-170 69q-105 0 -169 -69t-64 -176
q0 -105 64.5 -176t168.5 -71z" />
    <glyph glyph-name="Otilde" unicode="&#xd5;" horiz-adv-x="800" 
d="M308 760l-64 37q34 90 96 90q28 0 68 -20q30 -14 44 -14q22 0 38 34l65 -35q-34 -89 -96 -89q-27 0 -59 16q-38 18 -51 18q-24 0 -41 -37zM400 -13q-154 0 -254 101.5t-100 252.5q0 153 99 252.5t255 99.5q157 0 255.5 -99t98.5 -253q0 -151 -99 -252.5t-255 -101.5z
M400 94q105 0 169.5 71t64.5 176q0 107 -64 176t-170 69q-105 0 -169 -69t-64 -176q0 -105 64.5 -176t168.5 -71z" />
    <glyph glyph-name="Odieresis" unicode="&#xd6;" horiz-adv-x="800" 
d="M302 764q-28 0 -45.5 18t-17.5 44t17.5 45t45.5 19q27 0 45 -19t18 -44t-17.5 -44t-45.5 -19zM499 764q-28 0 -45.5 18.5t-17.5 44.5q0 25 18 44t45 19t45 -19t18 -44q0 -26 -17.5 -44.5t-45.5 -18.5zM400 -13q-154 0 -254 101.5t-100 252.5q0 153 99 252.5t255 99.5
q157 0 255.5 -99t98.5 -253q0 -151 -99 -252.5t-255 -101.5zM400 94q105 0 169.5 71t64.5 176q0 107 -64 176t-170 69q-105 0 -169 -69t-64 -176q0 -105 64.5 -176t168.5 -71z" />
    <glyph glyph-name="multiply" unicode="&#xd7;" horiz-adv-x="487" 
d="M131 165l-63 62l113 113l-113 113l63 62l113 -113l113 113l62 -62l-114 -113l114 -113l-62 -62l-113 113z" />
    <glyph glyph-name="Oslash" unicode="&#xd8;" horiz-adv-x="800" 
d="M635 613q119 -100 119 -272q0 -151 -99 -252.5t-255 -101.5q-93 0 -172 41l-55 -79l-61 43l55 77q-58 49 -89.5 119.5t-31.5 152.5q0 153 99 252.5t255 99.5q97 0 174 -40l67 98l61 -42zM400 588q-105 0 -169 -69t-64 -178q0 -110 67 -180l280 401q-50 26 -114 26z
M400 93q105 0 169.5 71t64.5 177q0 112 -67 181l-279 -402q51 -27 112 -27z" />
    <glyph glyph-name="Ugrave" unicode="&#xd9;" horiz-adv-x="691" 
d="M389 746l-167 105l66 76l148 -127zM346 -13q-122 0 -197.5 67.5t-75.5 186.5v439h118v-431q0 -76 41.5 -115.5t113.5 -39.5q71 0 112.5 39.5t41.5 115.5v431h118v-439q0 -119 -75.5 -186.5t-196.5 -67.5z" />
    <glyph glyph-name="Uacute" unicode="&#xda;" horiz-adv-x="691" 
d="M293 746l-47 54l148 127l65 -75zM346 -13q-122 0 -197.5 67.5t-75.5 186.5v439h118v-431q0 -76 41.5 -115.5t113.5 -39.5q71 0 112.5 39.5t41.5 115.5v431h118v-439q0 -119 -75.5 -186.5t-196.5 -67.5z" />
    <glyph glyph-name="Ucircumflex" unicode="&#xdb;" horiz-adv-x="691" 
d="M238 738l-42 52l141 110h18l140 -111l-41 -51l-108 69zM346 -13q-122 0 -197.5 67.5t-75.5 186.5v439h118v-431q0 -76 41.5 -115.5t113.5 -39.5q71 0 112.5 39.5t41.5 115.5v431h118v-439q0 -119 -75.5 -186.5t-196.5 -67.5z" />
    <glyph glyph-name="Udieresis" unicode="&#xdc;" horiz-adv-x="691" 
d="M248 764q-28 0 -45.5 18t-17.5 44t17.5 45t45.5 19q27 0 45 -19t18 -44t-17.5 -44t-45.5 -19zM445 764q-28 0 -45.5 18.5t-17.5 44.5q0 25 18 44t45 19t45 -19t18 -44q0 -26 -17.5 -44.5t-45.5 -18.5zM346 -13q-122 0 -197.5 67.5t-75.5 186.5v439h118v-431
q0 -76 41.5 -115.5t113.5 -39.5q71 0 112.5 39.5t41.5 115.5v431h118v-439q0 -119 -75.5 -186.5t-196.5 -67.5z" />
    <glyph glyph-name="Yacute" unicode="&#xdd;" horiz-adv-x="644" 
d="M435 852l-166 -106l-47 54l148 127zM495 680h134v-3l-248 -382v-295h-118v295l-248 382v3h134l122 -192q25 -40 52 -94q17 39 51 94z" />
    <glyph glyph-name="Thorn" unicode="&#xde;" horiz-adv-x="592" 
d="M83 0v680h119v-114h138q105 0 165.5 -67.5t60.5 -152.5q0 -86 -60 -151t-169 -65h-135v-130h-119zM202 232h122q60 0 91.5 33t31.5 82q0 50 -33 83.5t-88 33.5h-124v-232z" />
    <glyph glyph-name="germandbls" unicode="&#xdf;" horiz-adv-x="529" 
d="M330 -7q-57 0 -105 18l21 93q25 -14 59 -14q40 0 66 17.5t26 47.5q0 21 -12.5 39t-30.5 33t-36 31.5t-30.5 41.5t-12.5 55q0 33 12 58.5t26 39.5t26 39t12 56q0 39 -21.5 61t-61.5 22q-95 0 -95 -130v-501h-109v501q0 112 52.5 171t153.5 59q85 0 137 -48t52 -122
q0 -40 -12.5 -71t-28 -46t-28 -36.5t-12.5 -46.5q0 -22 13.5 -41t32 -35t37.5 -34.5t32.5 -46.5t13.5 -63q0 -69 -51.5 -108.5t-125.5 -39.5z" />
    <glyph glyph-name="agrave" unicode="&#xe0;" horiz-adv-x="484" 
d="M334 572l-45 -51l-160 101l62 72zM242 454q87 0 135.5 -43t48.5 -123v-288h-73l-20 67q-53 -76 -159 -76q-63 0 -101.5 33.5t-38.5 91.5q0 75 61 116.5t165 41.5q24 0 56 -2v20q0 69 -91 69q-64 0 -139 -36l-31 83q101 46 187 46zM206 73q49 0 80.5 34t32.5 94
q-27 3 -52 3q-59 0 -92 -20t-33 -57q0 -54 64 -54z" />
    <glyph glyph-name="aacute" unicode="&#xe1;" horiz-adv-x="484" 
d="M346 623l-158 -102l-45 51l142 122zM242 454q87 0 135.5 -43t48.5 -123v-288h-73l-20 67q-53 -76 -159 -76q-63 0 -101.5 33.5t-38.5 91.5q0 75 61 116.5t165 41.5q24 0 56 -2v20q0 69 -91 69q-64 0 -139 -36l-31 83q101 46 187 46zM206 73q49 0 80.5 34t32.5 94
q-27 3 -52 3q-59 0 -92 -20t-33 -57q0 -54 64 -54z" />
    <glyph glyph-name="acircumflex" unicode="&#xe2;" horiz-adv-x="484" 
d="M238 580l-95 -67l-40 50l127 106h17l125 -107l-39 -49zM242 454q87 0 135.5 -43t48.5 -123v-288h-73l-20 67q-53 -76 -159 -76q-63 0 -101.5 33.5t-38.5 91.5q0 75 61 116.5t165 41.5q24 0 56 -2v20q0 69 -91 69q-64 0 -139 -36l-31 83q101 46 187 46zM206 73
q49 0 80.5 34t32.5 94q-27 3 -52 3q-59 0 -92 -20t-33 -57q0 -54 64 -54z" />
    <glyph glyph-name="atilde" unicode="&#xe3;" horiz-adv-x="484" 
d="M193 572q-23 0 -36 -32l-61 34q33 81 88 81q30 0 59 -16q32 -16 44 -16q19 0 33 31l61 -33q-31 -80 -87 -80q-27 0 -55 14q-32 17 -46 17zM242 454q87 0 135.5 -43t48.5 -123v-288h-73l-20 67q-53 -76 -159 -76q-63 0 -101.5 33.5t-38.5 91.5q0 75 61 116.5t165 41.5
q24 0 56 -2v20q0 69 -91 69q-64 0 -139 -36l-31 83q101 46 187 46zM206 73q49 0 80.5 34t32.5 94q-27 3 -52 3q-59 0 -92 -20t-33 -57q0 -54 64 -54z" />
    <glyph glyph-name="adieresis" unicode="&#xe4;" horiz-adv-x="484" 
d="M152 543q-26 0 -42.5 17t-16.5 41t16 41.5t43 17.5q25 0 42 -17.5t17 -40.5q0 -24 -16.5 -41.5t-42.5 -17.5zM324 543q-26 0 -43 17.5t-17 40.5t17 41t43 18t42.5 -17.5t16.5 -41.5q0 -23 -17 -40.5t-42 -17.5zM242 454q87 0 135.5 -43t48.5 -123v-288h-73l-20 67
q-53 -76 -159 -76q-63 0 -101.5 33.5t-38.5 91.5q0 75 61 116.5t165 41.5q24 0 56 -2v20q0 69 -91 69q-64 0 -139 -36l-31 83q101 46 187 46zM206 73q49 0 80.5 34t32.5 94q-27 3 -52 3q-59 0 -92 -20t-33 -57q0 -54 64 -54z" />
    <glyph glyph-name="aring" unicode="&#xe5;" horiz-adv-x="484" 
d="M239 501q-47 0 -79.5 27.5t-32.5 74.5q0 48 32 76t79 28t79 -28t32 -76q0 -47 -31.5 -74.5t-78.5 -27.5zM238 650q-19 0 -32 -12.5t-13 -33.5q0 -22 13 -34t32 -12q20 0 32.5 12t12.5 34q0 21 -13 33.5t-32 12.5zM242 454q87 0 135.5 -43t48.5 -123v-288h-73l-20 67
q-53 -76 -159 -76q-63 0 -101.5 33.5t-38.5 91.5q0 75 61 116.5t165 41.5q24 0 56 -2v20q0 69 -91 69q-64 0 -139 -36l-31 83q101 46 187 46zM206 73q49 0 80.5 34t32.5 94q-27 3 -52 3q-59 0 -92 -20t-33 -57q0 -54 64 -54z" />
    <glyph glyph-name="ae" unicode="&#xe6;" horiz-adv-x="746" 
d="M524 454q89 0 138.5 -59.5t49.5 -156.5q0 -23 -3 -47h-301q7 -55 42 -85t89 -30q63 0 111 41l45 -68q-73 -61 -166 -61q-119 0 -172 96q-58 -94 -178 -94q-64 0 -104.5 34t-40.5 95q0 77 64.5 114t161.5 37q30 0 47 -2v24q0 69 -84 69q-67 0 -137 -36l-31 83
q94 46 178 46q102 0 136 -70q50 70 155 70zM409 265h200q-1 47 -24.5 74t-66.5 27q-93 0 -109 -101zM203 74q45 0 75 32t31 91q-17 3 -47 3q-120 0 -120 -73q0 -25 16.5 -39t44.5 -14z" />
    <glyph glyph-name="ccedilla" unicode="&#xe7;" horiz-adv-x="461" 
d="M276 -51q37 -6 60.5 -26t23.5 -54q0 -40 -32 -62.5t-82 -22.5q-60 0 -103 26l25 57q32 -20 67 -20q46 0 46 30q0 41 -89 39l31 75q-79 15 -133 75t-54 157q0 106 68 170.5t167 64.5q97 0 166 -60l-53 -73q-45 38 -105 38q-57 0 -95 -38.5t-38 -101.5q0 -64 37.5 -102
t93.5 -38q65 0 114 46l55 -73q-66 -61 -154 -68z" />
    <glyph glyph-name="egrave" unicode="&#xe8;" horiz-adv-x="502" 
d="M309 521l-160 101l62 72l143 -122zM266 458q94 0 148.5 -59t54.5 -160q0 -16 -4 -52h-320q10 -53 48.5 -81.5t93.5 -28.5q70 0 118 42l46 -70q-77 -62 -174 -62q-107 0 -174 66t-67 171q0 99 65 166.5t165 67.5zM264 369q-45 0 -77 -28.5t-41 -79.5h220q-2 52 -30 80
t-72 28z" />
    <glyph glyph-name="eacute" unicode="&#xe9;" horiz-adv-x="502" 
d="M366 623l-158 -102l-45 51l142 122zM266 458q94 0 148.5 -59t54.5 -160q0 -16 -4 -52h-320q10 -53 48.5 -81.5t93.5 -28.5q70 0 118 42l46 -70q-77 -62 -174 -62q-107 0 -174 66t-67 171q0 99 65 166.5t165 67.5zM264 369q-45 0 -77 -28.5t-42 -79.5h221q-2 52 -30 80
t-72 28z" />
    <glyph glyph-name="ecircumflex" unicode="&#xea;" horiz-adv-x="502" 
d="M258 580l-95 -67l-40 50l127 106h17l125 -107l-39 -49zM266 458q94 0 148.5 -59t54.5 -160q0 -16 -4 -52h-320q10 -53 48.5 -81.5t93.5 -28.5q70 0 118 42l46 -70q-77 -62 -174 -62q-107 0 -174 66t-67 171q0 99 65 166.5t165 67.5zM264 369q-45 0 -77 -28.5t-42 -79.5
h221q-2 52 -30 80t-72 28z" />
    <glyph glyph-name="edieresis" unicode="&#xeb;" horiz-adv-x="502" 
d="M172 543q-26 0 -42.5 17t-16.5 41t16 41.5t43 17.5q25 0 42 -17.5t17 -40.5q0 -24 -16.5 -41.5t-42.5 -17.5zM344 543q-26 0 -43 17.5t-17 40.5t17 41t43 18t42.5 -17.5t16.5 -41.5q0 -23 -17 -40.5t-42 -17.5zM266 458q94 0 148.5 -59t54.5 -160q0 -16 -4 -52h-320
q10 -53 48.5 -81.5t93.5 -28.5q70 0 118 42l46 -70q-77 -62 -174 -62q-107 0 -174 66t-67 171q0 99 65 166.5t165 67.5zM264 369q-45 0 -77 -28.5t-41 -79.5h220q-2 52 -30 80t-72 28z" />
    <glyph glyph-name="igrave" unicode="&#xec;" horiz-adv-x="237" 
d="M169 521l-160 101l62 72l143 -122zM64 0v446h109v-446h-109z" />
    <glyph glyph-name="iacute" unicode="&#xed;" horiz-adv-x="237" 
d="M68 529l-45 51l142 122l62 -71zM64 0v446h109v-446h-109z" />
    <glyph glyph-name="icircumflex" unicode="&#xee;" horiz-adv-x="237" 
d="M24 522l-40 49l126 107h17l125 -108l-38 -48l-95 67zM64 0v446h109v-446h-109z" />
    <glyph glyph-name="idieresis" unicode="&#xef;" horiz-adv-x="237" 
d="M38 540q-26 0 -42.5 17t-16.5 43t16.5 43.5t42.5 17.5t42 -17.5t16 -43.5t-16 -43t-42 -17zM198 540q-26 0 -42.5 17t-16.5 43t16.5 43.5t42.5 17.5t42.5 -17.5t16.5 -43.5t-16.5 -43t-42.5 -17zM64 0v446h109v-446h-109z" />
    <glyph glyph-name="eth" unicode="&#xf0;" horiz-adv-x="517" 
d="M355 589q123 -136 123 -339q0 -118 -58 -190.5t-163 -72.5q-93 0 -156 57.5t-63 160.5q0 96 57 155.5t140 59.5q77 0 130 -50q-23 93 -89 162l-92 -65l-47 62l78 56q-50 34 -110 57l42 84q83 -31 150 -83l67 48l47 -62zM256 82q58 0 85.5 39t27.5 95q0 51 -32.5 82.5
t-81.5 31.5q-48 0 -79 -34.5t-31 -88.5q0 -55 30 -90t81 -35z" />
    <glyph glyph-name="ntilde" unicode="&#xf1;" horiz-adv-x="526" 
d="M216 572q-23 0 -36 -32l-61 34q33 81 88 81q30 0 59 -16q32 -16 44 -16q19 0 33 31l61 -33q-31 -80 -87 -80q-27 0 -55 14q-32 17 -46 17zM310 458q76 0 116.5 -46.5t40.5 -132.5v-279h-109v269q0 91 -76 91q-50 0 -79.5 -32t-29.5 -83v-245h-109v446h74l22 -70
q53 82 150 82z" />
    <glyph glyph-name="ograve" unicode="&#xf2;" horiz-adv-x="551" 
d="M326 521l-160 101l62 72l143 -122zM275 -13q-105 0 -172 66t-67 170q0 103 67 169t172 66t172.5 -66t67.5 -169t-67.5 -169.5t-172.5 -66.5zM275 84q58 0 93.5 38.5t35.5 100.5t-35.5 100.5t-93.5 38.5q-57 0 -93 -39t-36 -100t36 -100t93 -39z" />
    <glyph glyph-name="oacute" unicode="&#xf3;" horiz-adv-x="551" 
d="M224 521l-45 51l142 122l61 -71zM275 -13q-105 0 -172 66t-67 170q0 103 67 169t172 66t172.5 -66t67.5 -169t-67.5 -169.5t-172.5 -66.5zM275 84q58 0 93.5 38.5t35.5 100.5t-35.5 100.5t-93.5 38.5q-57 0 -93 -39t-36 -100t36 -100t93 -39z" />
    <glyph glyph-name="ocircumflex" unicode="&#xf4;" horiz-adv-x="551" 
d="M179 513l-40 50l127 106h17l125 -107l-39 -49l-95 67zM275 -13q-105 0 -172 66t-67 170q0 103 67 169t172 66t172.5 -66t67.5 -169t-67.5 -169.5t-172.5 -66.5zM275 84q58 0 93.5 38.5t35.5 100.5t-35.5 100.5t-93.5 38.5q-57 0 -93 -39t-36 -100t36 -100t93 -39z" />
    <glyph glyph-name="otilde" unicode="&#xf5;" horiz-adv-x="551" 
d="M193 540l-61 34q33 81 88 81q30 0 59 -16q32 -16 44 -16q19 0 33 31l61 -33q-31 -80 -87 -80q-27 0 -55 14q-32 17 -46 17q-23 0 -36 -32zM275 -13q-105 0 -172 66t-67 170q0 103 67 169t172 66t172.5 -66t67.5 -169t-67.5 -169.5t-172.5 -66.5zM275 84q58 0 93.5 38.5
t35.5 100.5t-35.5 100.5t-93.5 38.5q-57 0 -93 -39t-36 -100t36 -100t93 -39z" />
    <glyph glyph-name="odieresis" unicode="&#xf6;" horiz-adv-x="551" 
d="M189 543q-26 0 -42.5 17t-16.5 41t16 41.5t43 17.5q25 0 42 -17.5t17 -40.5q0 -24 -16.5 -41.5t-42.5 -17.5zM361 543q-26 0 -43 17.5t-17 40.5t17 41t43 18t42.5 -17.5t16.5 -41.5q0 -23 -17 -40.5t-42 -17.5zM275 -13q-105 0 -172 66t-67 170q0 103 67 169t172 66
t172.5 -66t67.5 -169t-67.5 -169.5t-172.5 -66.5zM275 84q58 0 93.5 38.5t35.5 100.5t-35.5 100.5t-93.5 38.5q-57 0 -93 -39t-36 -100t36 -100t93 -39z" />
    <glyph glyph-name="divide" unicode="&#xf7;" horiz-adv-x="535" 
d="M268 445q-32 0 -51.5 19t-19.5 50t19.5 50t51.5 19t51 -19t19 -50t-19 -50t-51 -19zM59 294v90h417v-90h-417zM268 94q-32 0 -51.5 19t-19.5 50q0 32 19.5 51t51.5 19t51 -19t19 -51q0 -31 -19 -50t-51 -19z" />
    <glyph glyph-name="oslash" unicode="&#xf8;" horiz-adv-x="551" 
d="M430 407q85 -66 85 -184q0 -103 -67.5 -169.5t-172.5 -66.5q-65 0 -115 26l-37 -53l-40 27l36 52q-83 67 -83 184q0 103 67 169t172 66q62 0 114 -25l38 55l40 -27zM275 363q-58 0 -94 -39t-36 -101q0 -60 35 -100l153 228q-25 12 -58 12zM275 83q58 0 94 39t36 101
q0 60 -34 100l-155 -227q28 -13 59 -13z" />
    <glyph glyph-name="ugrave" unicode="&#xf9;" horiz-adv-x="523" 
d="M310 521l-160 101l62 72l143 -122zM350 446h109v-446h-76l-22 69q-49 -78 -142 -78q-79 0 -120 47.5t-41 131.5v276h110v-266q0 -91 78 -91q49 0 76.5 36t27.5 90v231z" />
    <glyph glyph-name="uacute" unicode="&#xfa;" horiz-adv-x="523" 
d="M367 623l-158 -102l-45 51l142 122zM350 446h109v-446h-76l-22 68q-49 -77 -142 -77q-79 0 -120 47.5t-41 131.5v276h110v-266q0 -91 78 -91q49 0 76.5 36t27.5 90v231z" />
    <glyph glyph-name="ucircumflex" unicode="&#xfb;" horiz-adv-x="523" 
d="M259 580l-95 -67l-40 50l127 106h17l125 -107l-39 -49zM350 446h109v-446h-76l-22 68q-49 -77 -142 -77q-79 0 -120 47.5t-41 131.5v276h110v-266q0 -91 78 -91q49 0 76.5 36t27.5 90v231z" />
    <glyph glyph-name="udieresis" unicode="&#xfc;" horiz-adv-x="523" 
d="M174 543q-26 0 -42.5 17t-16.5 41t16 41.5t43 17.5q25 0 42 -17.5t17 -40.5q0 -24 -16.5 -41.5t-42.5 -17.5zM346 543q-26 0 -43 17.5t-17 40.5t17 41t43 18t42.5 -17.5t16.5 -41.5q0 -23 -17 -40.5t-42 -17.5zM350 446h109v-446h-76l-22 69q-49 -78 -142 -78
q-79 0 -120 47.5t-41 131.5v276h110v-266q0 -91 78 -91q49 0 76.5 36t27.5 90v231z" />
    <glyph glyph-name="yacute" unicode="&#xfd;" horiz-adv-x="489" 
d="M352 623l-158 -102l-45 51l142 122zM366 446h114v-3l-263 -663h-116v2l99 229l-191 432v3h118l95 -228q18 -44 30 -86q10 38 27 86z" />
    <glyph glyph-name="thorn" unicode="&#xfe;" horiz-adv-x="571" 
d="M320 457q93 0 153.5 -66.5t60.5 -167.5q0 -102 -60 -168t-153 -66q-95 0 -150 63q2 -62 2 -102v-170h-109v940h109v-199q0 -62 -3 -130q55 66 150 66zM298 84q56 0 90.5 38.5t34.5 100.5t-34.5 100.5t-91.5 38.5q-58 0 -93.5 -38.5t-35.5 -100.5q0 -63 35.5 -101
t94.5 -38z" />
    <glyph glyph-name="ydieresis" unicode="&#xff;" horiz-adv-x="489" 
d="M159 543q-26 0 -42.5 17t-16.5 41t16 41.5t43 17.5q25 0 42 -17.5t17 -40.5q0 -24 -16.5 -41.5t-42.5 -17.5zM331 543q-26 0 -43 17.5t-17 40.5t17 41t43 18t42.5 -17.5t16.5 -41.5q0 -23 -17 -40.5t-42 -17.5zM366 446h114v-3l-263 -663h-116v2l99 229l-191 432v3h118
l95 -228q19 -47 30 -87q9 33 27 87z" />
    <glyph glyph-name="Amacron" unicode="&#x100;" horiz-adv-x="687" 
d="M200 771v85h284v-85h-284zM362 684l320 -681v-3h-123l-56 123h-318l-56 -123h-124v2l321 682h36zM344 494q-22 -61 -46 -116l-74 -162h240l-74 162q-21 47 -46 116z" />
    <glyph glyph-name="amacron" unicode="&#x101;" horiz-adv-x="484" 
d="M372 626v-79h-268v79h268zM242 454q87 0 135.5 -43t48.5 -123v-288h-73l-20 67q-53 -76 -159 -76q-63 0 -101.5 33.5t-38.5 91.5q0 75 61 116.5t165 41.5q24 0 56 -2v20q0 69 -91 69q-64 0 -139 -36l-31 83q101 46 187 46zM206 73q49 0 80.5 34t32.5 94q-27 3 -52 3
q-59 0 -92 -20t-33 -57q0 -54 64 -54z" />
    <glyph glyph-name="Abreve" unicode="&#x102;" horiz-adv-x="687" 
d="M344 742q-53 0 -92.5 29.5t-54.5 87.5l68 24q7 -27 29 -43t50 -16t50 16t29 43l68 -24q-15 -57 -54.5 -87t-92.5 -30zM362 684l320 -681v-3h-123l-56 123h-318l-56 -123h-124v2l321 682h36zM344 494q-22 -61 -46 -116l-74 -162h240l-74 162q-21 47 -46 116z" />
    <glyph glyph-name="abreve" unicode="&#x103;" horiz-adv-x="484" 
d="M238 520q-48 0 -84 27.5t-50 81.5l62 27q7 -27 27 -42.5t45 -15.5t45 15.5t27 42.5l62 -27q-14 -54 -49.5 -81.5t-84.5 -27.5zM242 454q87 0 135.5 -43t48.5 -123v-288h-73l-20 67q-53 -76 -159 -76q-63 0 -101.5 33.5t-38.5 91.5q0 75 61 116.5t165 41.5q24 0 56 -2v20
q0 69 -91 69q-64 0 -139 -36l-31 83q101 46 187 46zM206 73q49 0 80.5 34t32.5 94q-27 3 -52 3q-59 0 -92 -20t-33 -57q0 -54 64 -54z" />
    <glyph glyph-name="Aogonek" unicode="&#x104;" horiz-adv-x="687" 
d="M664 -124l24 -76q-42 -28 -96 -28q-52 0 -80 25t-28 67q0 67 75 137l-56 122h-318l-56 -123h-124v2l321 682h36l320 -681v-3h-14q-80 -58 -80 -108q0 -30 34 -30q22 0 42 14zM224 216h240l-74 162q-21 47 -46 116q-22 -61 -46 -116z" />
    <glyph glyph-name="aogonek" unicode="&#x105;" horiz-adv-x="484" 
d="M422 -124l24 -67q-37 -26 -90 -26q-50 0 -76 25t-26 63q0 69 94 146l-15 50q-53 -76 -159 -76q-63 0 -101.5 33.5t-38.5 91.5q0 75 61 116.5t165 41.5q24 0 56 -2v20q0 69 -91 69q-64 0 -139 -36l-31 83q101 46 187 46q87 0 135.5 -43t48.5 -123v-288q-78 -62 -78 -109
q0 -29 32 -29q22 0 42 14zM206 73q49 0 80.5 34t32.5 94q-27 3 -52 3q-59 0 -92 -20t-33 -57q0 -54 64 -54z" />
    <glyph glyph-name="Cacute" unicode="&#x106;" horiz-adv-x="692" 
d="M345 746l-47 54l148 127l65 -75zM396 -13q-155 0 -252.5 102t-97.5 252q0 153 99.5 252.5t253.5 99.5q146 0 256 -100l-61 -80q-79 73 -192 73q-104 0 -169.5 -68.5t-65.5 -176.5q0 -106 64.5 -176.5t166.5 -70.5q125 0 198 96l74 -76q-103 -127 -274 -127z" />
    <glyph glyph-name="cacute" unicode="&#x107;" horiz-adv-x="461" 
d="M218 521l-45 51l142 122l61 -71zM266 -13q-92 0 -161 63t-69 173q0 106 68 170.5t167 64.5q97 0 166 -60l-53 -73q-45 38 -105 38q-57 0 -95 -38.5t-38 -101.5q0 -64 37.5 -102t93.5 -38q65 0 114 46l55 -73q-75 -69 -180 -69z" />
    <glyph glyph-name="Ccircumflex" unicode="&#x108;" horiz-adv-x="692" 
d="M290 738l-42 52l141 110h18l140 -111l-41 -51l-108 69zM396 -13q-155 0 -252.5 102t-97.5 252q0 153 99.5 252.5t253.5 99.5q146 0 256 -100l-61 -80q-79 73 -192 73q-104 0 -169.5 -68.5t-65.5 -176.5q0 -106 64.5 -176.5t166.5 -70.5q125 0 198 96l74 -76
q-103 -127 -274 -127z" />
    <glyph glyph-name="ccircumflex" unicode="&#x109;" horiz-adv-x="461" 
d="M173 513l-40 50l127 106h17l125 -107l-39 -49l-95 67zM266 -13q-92 0 -161 63t-69 173q0 106 68 170.5t167 64.5q97 0 166 -60l-53 -73q-45 38 -105 38q-57 0 -95 -38.5t-38 -101.5q0 -64 37.5 -102t93.5 -38q65 0 114 46l55 -73q-75 -69 -180 -69z" />
    <glyph glyph-name="Cdotaccent" unicode="&#x10a;" horiz-adv-x="692" 
d="M399 761q-29 0 -47.5 19t-18.5 46t18 47t48 20t48.5 -20t18.5 -48q0 -26 -19 -45t-48 -19zM396 -13q-155 0 -252.5 102t-97.5 252q0 153 99.5 252.5t253.5 99.5q146 0 256 -100l-61 -80q-79 73 -192 73q-104 0 -169.5 -68.5t-65.5 -176.5q0 -106 64.5 -176.5t166.5 -70.5
q125 0 198 96l74 -76q-103 -127 -274 -127z" />
    <glyph glyph-name="cdotaccent" unicode="&#x10b;" horiz-adv-x="461" 
d="M268 536q-28 0 -46 18t-18 45q0 28 18 46.5t46 18.5t46 -18.5t18 -46.5q0 -27 -18 -45t-46 -18zM266 -13q-92 0 -161 63t-69 173q0 106 68 170.5t167 64.5q97 0 166 -60l-53 -73q-45 38 -105 38q-57 0 -95 -38.5t-38 -101.5q0 -64 37.5 -102t93.5 -38q65 0 114 46l55 -73
q-75 -69 -180 -69z" />
    <glyph glyph-name="Ccaron" unicode="&#x10c;" horiz-adv-x="692" 
d="M389 741l-139 111l41 51l107 -69l108 69l42 -52l-141 -110h-18zM396 -13q-155 0 -252.5 102t-97.5 252q0 153 99.5 252.5t253.5 99.5q146 0 256 -100l-61 -80q-79 73 -192 73q-104 0 -169.5 -68.5t-65.5 -176.5q0 -106 64.5 -176.5t166.5 -70.5q125 0 198 96l74 -76
q-103 -127 -274 -127z" />
    <glyph glyph-name="ccaron" unicode="&#x10d;" horiz-adv-x="461" 
d="M260 518l-125 108l38 48l95 -67l96 67l40 -49l-127 -107h-17zM266 -13q-92 0 -161 63t-69 173q0 106 68 170.5t167 64.5q97 0 166 -60l-53 -73q-45 38 -105 38q-57 0 -95 -38.5t-38 -101.5q0 -64 37.5 -102t93.5 -38q65 0 114 46l55 -73q-75 -69 -180 -69z" />
    <glyph glyph-name="Dcaron" unicode="&#x10e;" horiz-adv-x="719" 
d="M316 741l-139 111l41 51l107 -69l108 69l42 -52l-141 -110h-18zM83 0v680h243q154 0 250.5 -96t96.5 -245t-95.5 -244t-250.5 -95h-244zM201 102h121q106 0 168.5 66t62.5 171t-63 172t-169 67h-120v-476z" />
    <glyph glyph-name="dcaron" unicode="&#x10f;" horiz-adv-x="590" 
d="M399 521v199h109v-720h-76l-19 67q-57 -78 -160 -78q-96 0 -155.5 65.5t-59.5 171.5q0 101 60.5 166t154.5 65q92 0 149 -65q-3 63 -3 129zM575 720h104q-10 -108 -51 -184h-75q21 95 22 184zM275 84q58 0 93 38t35 101q0 62 -35 100t-93 38q-57 0 -92 -38t-35 -100
t35 -100.5t92 -38.5z" />
    <glyph glyph-name="Dcroat" unicode="&#x110;" horiz-adv-x="727" 
d="M334 680q154 0 250.5 -96t96.5 -245t-95.5 -244t-250.5 -95h-244v305h-70v84h70v291h243zM330 102q106 0 169 66t63 171t-63.5 172t-169.5 67h-120v-189h164v-84h-164v-203h121z" />
    <glyph glyph-name="dcroat" unicode="&#x111;" horiz-adv-x="572" 
d="M565 605v-67h-57v-538h-76l-18 65q-59 -76 -162 -76q-96 0 -155.5 65t-59.5 169q0 100 60.5 164.5t154.5 64.5q93 0 149 -64q-3 62 -3 127v23h-136v67h136v115h110v-115h57zM274 84q58 0 93.5 38t35.5 99q0 60 -35.5 97.5t-93.5 37.5q-57 0 -92 -37.5t-35 -97.5
q0 -61 35 -99t92 -38z" />
    <glyph glyph-name="Emacron" unicode="&#x112;" horiz-adv-x="561" 
d="M155 771v85h284v-85h-284zM201 104h319v-104h-437v680h428v-104h-310v-180h271v-101h-271v-191z" />
    <glyph glyph-name="emacron" unicode="&#x113;" horiz-adv-x="502" 
d="M124 547v79h268v-79h-268zM266 458q94 0 148.5 -59t54.5 -160q0 -16 -4 -52h-320q10 -53 48.5 -81.5t93.5 -28.5q70 0 118 42l46 -70q-77 -62 -174 -62q-107 0 -174 66t-67 171q0 99 65 166.5t165 67.5zM264 369q-45 0 -77 -28.5t-41 -79.5h220q-2 52 -30 80t-72 28z" />
    <glyph glyph-name="Ebreve" unicode="&#x114;" horiz-adv-x="561" 
d="M299 742q-53 0 -92.5 29.5t-54.5 87.5l68 24q7 -27 29 -43t50 -16t50 16t29 43l68 -24q-15 -57 -54.5 -87t-92.5 -30zM201 104h319v-104h-437v680h428v-104h-310v-180h271v-101h-271v-191z" />
    <glyph glyph-name="ebreve" unicode="&#x115;" horiz-adv-x="502" 
d="M258 520q-48 0 -84 27.5t-50 81.5l62 27q7 -27 27 -42.5t45 -15.5t45 15.5t27 42.5l62 -27q-14 -54 -49.5 -81.5t-84.5 -27.5zM266 458q94 0 148.5 -59t54.5 -160q0 -16 -4 -52h-320q10 -53 48.5 -81.5t93.5 -28.5q70 0 118 42l46 -70q-77 -62 -174 -62q-107 0 -174 66
t-67 171q0 99 65 166.5t165 67.5zM264 369q-45 0 -77 -28.5t-42 -79.5h221q-2 52 -30 80t-72 28z" />
    <glyph glyph-name="Edotaccent" unicode="&#x116;" horiz-adv-x="561" 
d="M299 761q-29 0 -47.5 19t-18.5 46t18 47t48 20t48.5 -20t18.5 -48q0 -26 -19 -45t-48 -19zM201 104h319v-104h-437v680h428v-104h-310v-180h271v-101h-271v-191z" />
    <glyph glyph-name="edotaccent" unicode="&#x117;" horiz-adv-x="502" 
d="M258 536q-28 0 -46 18t-18 45q0 28 18 46.5t46 18.5t46 -18.5t18 -46.5q0 -27 -18 -45t-46 -18zM266 458q94 0 148.5 -59t54.5 -160q0 -16 -4 -52h-320q10 -53 48.5 -81.5t93.5 -28.5q70 0 118 42l46 -70q-77 -62 -174 -62q-107 0 -174 66t-67 171q0 99 65 166.5
t165 67.5zM264 369q-45 0 -77 -28.5t-41 -79.5h220q-2 52 -30 80t-72 28z" />
    <glyph glyph-name="Eogonek" unicode="&#x118;" horiz-adv-x="561" 
d="M509 -124l24 -76q-42 -28 -96 -28q-52 0 -80 25t-28 67q0 63 81 136h-327v680h428v-104h-310v-180h271v-101h-271v-191h319v-104q-85 -65 -85 -109q0 -29 32 -29q22 0 42 14z" />
    <glyph glyph-name="eogonek" unicode="&#x119;" horiz-adv-x="502" 
d="M261 458q98 0 152.5 -58.5t54.5 -159.5q0 -17 -4 -53h-319q10 -53 48 -81.5t94 -28.5q69 0 118 41l45 -69l-11 -9q-109 -95 -109 -148q0 -30 33 -30q22 0 42 14l24 -67q-38 -26 -90 -26q-50 0 -76.5 24.5t-26.5 62.5q0 59 68 119q-9 -1 -28 -1q-109 0 -174.5 65
t-65.5 171q0 99 63.5 166.5t161.5 67.5zM261 368q-45 0 -75.5 -28t-40.5 -79h219q0 53 -27.5 80t-75.5 27z" />
    <glyph glyph-name="Ecaron" unicode="&#x11a;" horiz-adv-x="561" 
d="M289 741l-139 111l41 51l107 -69l108 69l42 -52l-141 -110h-18zM201 104h319v-104h-437v680h428v-104h-310v-180h271v-101h-271v-191z" />
    <glyph glyph-name="ecaron" unicode="&#x11b;" horiz-adv-x="502" 
d="M267 518h-17l-125 108l38 48l95 -67l96 67l40 -49zM266 458q94 0 148.5 -59t54.5 -160q0 -16 -4 -52h-320q10 -53 48.5 -81.5t93.5 -28.5q70 0 118 42l46 -70q-77 -62 -174 -62q-107 0 -174 66t-67 171q0 99 65 166.5t165 67.5zM264 369q-45 0 -77 -28.5t-42 -79.5h221
q-2 52 -30 80t-72 28z" />
    <glyph glyph-name="Gcircumflex" unicode="&#x11c;" horiz-adv-x="732" 
d="M290 738l-42 52l141 110h18l140 -111l-41 -51l-108 69zM394 381h287v-269q-103 -125 -282 -125q-155 0 -254 100.5t-99 253.5q0 151 97.5 251.5t257.5 100.5q157 0 263 -109l-65 -78q-83 81 -194 81q-108 0 -173.5 -69t-65.5 -178q0 -111 67.5 -179.5t175.5 -68.5
q104 0 167 65v126h-182v98z" />
    <glyph glyph-name="gcircumflex" unicode="&#x11d;" horiz-adv-x="572" 
d="M274 580l-95 -67l-40 50l127 106h17l125 -107l-39 -49zM436 446h72v-464q0 -104 -64 -159t-170 -55q-119 0 -202 68l42 82q65 -52 151 -52q62 0 97.5 29t35.5 85q0 47 2 72q-57 -60 -148 -60q-95 0 -154.5 65t-59.5 167t59 167.5t153 65.5q107 0 164 -76zM274 86
q61 0 95 38.5t34 99.5t-33.5 99.5t-94.5 38.5q-58 0 -92 -38t-34 -100q0 -61 34 -99.5t91 -38.5z" />
    <glyph glyph-name="Gbreve" unicode="&#x11e;" horiz-adv-x="732" 
d="M398 742q-53 0 -92.5 29.5t-54.5 87.5l68 24q7 -27 29 -43t50 -16t50 16t29 43l68 -24q-15 -57 -54.5 -87t-92.5 -30zM394 381h287v-269q-103 -125 -282 -125q-155 0 -254 100.5t-99 253.5q0 151 97.5 251.5t257.5 100.5q157 0 263 -109l-65 -78q-83 81 -194 81
q-108 0 -173.5 -69t-65.5 -178q0 -111 67.5 -179.5t175.5 -68.5q104 0 167 65v126h-182v98z" />
    <glyph glyph-name="gbreve" unicode="&#x11f;" horiz-adv-x="572" 
d="M274 520q-48 0 -84 27.5t-50 81.5l62 27q7 -27 27 -42.5t45 -15.5t45 15.5t27 42.5l62 -27q-14 -54 -49.5 -81.5t-84.5 -27.5zM436 446h72v-464q0 -104 -64 -159t-170 -55q-119 0 -202 68l42 82q65 -52 151 -52q62 0 97.5 29t35.5 85q0 47 2 72q-57 -60 -148 -60
q-95 0 -154.5 65t-59.5 167t59 167.5t153 65.5q107 0 164 -76zM274 86q61 0 95 38.5t34 99.5t-33.5 99.5t-94.5 38.5q-58 0 -92 -38t-34 -100q0 -61 34 -99.5t91 -38.5z" />
    <glyph glyph-name="Gdotaccent" unicode="&#x120;" horiz-adv-x="732" 
d="M398 761q-29 0 -47.5 19t-18.5 46t18 47t48 20t48.5 -20t18.5 -48q0 -26 -19 -45t-48 -19zM394 381h287v-269q-103 -125 -282 -125q-155 0 -254 100.5t-99 253.5q0 151 97.5 251.5t257.5 100.5q157 0 263 -109l-65 -78q-83 81 -194 81q-108 0 -173.5 -69t-65.5 -178
q0 -111 67.5 -179.5t175.5 -68.5q104 0 167 65v126h-182v98z" />
    <glyph glyph-name="gdotaccent" unicode="&#x121;" horiz-adv-x="572" 
d="M274 536q-28 0 -46 18t-18 45q0 28 18 46.5t46 18.5t46 -18.5t18 -46.5q0 -27 -18 -45t-46 -18zM436 446h72v-464q0 -104 -64 -159t-170 -55q-119 0 -202 68l42 82q65 -52 151 -52q62 0 97.5 29t35.5 85q0 23 2 73q-58 -61 -148 -61q-95 0 -154.5 65t-59.5 167t59 167.5
t153 65.5q107 0 164 -76zM274 86q61 0 95 38.5t34 99.5t-33.5 99.5t-94.5 38.5q-58 0 -92 -38t-34 -100q0 -61 34 -99.5t91 -38.5z" />
    <glyph glyph-name="uni0122" unicode="&#x122;" horiz-adv-x="732" 
d="M394 381h287v-269q-103 -125 -282 -125q-155 0 -254 100.5t-99 253.5q0 151 97.5 251.5t257.5 100.5q157 0 263 -109l-65 -78q-83 81 -194 81q-108 0 -173.5 -69t-65.5 -178q0 -111 67.5 -179.5t175.5 -68.5q104 0 167 65v126h-182v98zM337 -287q27 91 27 192h103
q-9 -112 -57 -192h-73z" />
    <glyph glyph-name="uni0123" unicode="&#x123;" horiz-adv-x="572" 
d="M349 718q-26 -86 -26 -188h-101q9 111 56 188h71zM436 446h72v-464q0 -104 -64 -159t-170 -55q-119 0 -202 68l42 82q65 -52 151 -52q62 0 97.5 29t35.5 85q0 47 2 72q-57 -60 -148 -60q-95 0 -154.5 65t-59.5 167t59 167.5t153 65.5q107 0 164 -76zM274 86q61 0 95 38.5
t34 99.5t-33.5 99.5t-94.5 38.5q-58 0 -92 -38t-34 -100q0 -61 34 -99.5t91 -38.5z" />
    <glyph glyph-name="Hcircumflex" unicode="&#x124;" horiz-adv-x="733" 
d="M257 738l-42 52l141 110h18l140 -111l-41 -51l-108 69zM83 0v680h118v-283h331v283h118v-680h-118v288h-331v-288h-118z" />
    <glyph glyph-name="hcircumflex" unicode="&#x125;" horiz-adv-x="526" 
d="M226 778l-108 69l-108 -69l-42 52l141 110h18l140 -111zM309 458q77 0 117.5 -47t40.5 -131v-280h-109v271q0 89 -77 89q-51 0 -79.5 -37t-28.5 -93v-230h-109v720h109v-266q0 -41 -1 -68q46 72 137 72z" />
    <glyph glyph-name="Hbar" unicode="&#x126;" horiz-adv-x="745" 
d="M718 577v-64h-62v-513h-118v288h-331v-288h-118v513h-62v64h62v103h118v-103h331v103h118v-103h62zM538 395v118h-331v-118h331z" />
    <glyph glyph-name="hbar" unicode="&#x127;" horiz-adv-x="526" 
d="M310 450q77 0 117 -47t40 -127v-276h-109v267q0 85 -78 85q-50 0 -78.5 -37t-28.5 -92v-223h-109v538h-60v67h60v115h109v-115h160v-67h-160v-90q0 -41 -2 -66q48 68 139 68z" />
    <glyph glyph-name="Itilde" unicode="&#x128;" horiz-adv-x="284" 
d="M50 760l-64 37q34 90 96 90q28 0 68 -20q30 -14 44 -14q22 0 38 34l65 -35q-34 -89 -96 -89q-27 0 -59 16q-38 18 -51 18q-24 0 -41 -37zM83 0v680h118v-680h-118z" />
    <glyph glyph-name="itilde" unicode="&#x129;" horiz-adv-x="237" 
d="M38 549l-61 33q32 82 88 82q28 0 59 -17q30 -15 43 -15q20 0 34 30l61 -33q-33 -80 -88 -80q-24 0 -54 15q-32 16 -46 16q-24 0 -36 -31zM64 0v446h109v-446h-109z" />
    <glyph glyph-name="Imacron" unicode="&#x12a;" horiz-adv-x="284" 
d="M-2 771v85h284v-85h-284zM83 0v680h118v-680h-118z" />
    <glyph glyph-name="imacron" unicode="&#x12b;" horiz-adv-x="237" 
d="M8 546v81h220v-81h-220zM64 0v446h109v-446h-109z" />
    <glyph glyph-name="Ibreve" unicode="&#x12c;" horiz-adv-x="284" 
d="M142 742q-53 0 -92.5 29.5t-54.5 87.5l68 24q7 -27 29 -43t50 -16t50 16t29 43l68 -24q-15 -57 -54.5 -87t-92.5 -30zM83 0v680h118v-680h-118z" />
    <glyph glyph-name="ibreve" unicode="&#x12d;" horiz-adv-x="237" 
d="M119 520q-48 0 -84 27.5t-50 81.5l62 27q7 -27 27 -42.5t45 -15.5t45 15.5t27 42.5l62 -27q-14 -54 -49.5 -81.5t-84.5 -27.5zM64 0v446h109v-446h-109z" />
    <glyph glyph-name="Iogonek" unicode="&#x12e;" horiz-adv-x="284" 
d="M217 -124l24 -76q-42 -28 -96 -28q-53 0 -81 25.5t-28 67.5q0 62 57 135h-10v680h118v-680q-58 -66 -58 -109q0 -29 33 -29q21 0 41 14z" />
    <glyph glyph-name="iogonek" unicode="&#x12f;" horiz-adv-x="237" 
d="M119 538q-29 0 -48 19t-19 47t19 47.5t48 19.5t48 -19.5t19 -48.5q0 -28 -19 -46.5t-48 -18.5zM189 -124l24 -67q-37 -26 -90 -26q-51 0 -77 23.5t-26 62.5q0 60 58 131h-14v446h109v-446q-58 -63 -58 -108q0 -30 32 -30q22 0 42 14z" />
    <glyph glyph-name="Idotaccent" unicode="&#x130;" horiz-adv-x="284" 
d="M142 761q-29 0 -47.5 19t-18.5 46t18 47t48 20t48.5 -20t18.5 -48q0 -26 -19 -45t-48 -19zM83 0v680h118v-680h-118z" />
    <glyph glyph-name="dotlessi" unicode="&#x131;" horiz-adv-x="237" 
d="M64 0v446h109v-446h-109z" />
    <glyph glyph-name="IJ" unicode="&#x132;" horiz-adv-x="783" 
d="M83 0v680h118v-680h-118zM485 -13q-111 0 -194 63l55 90q62 -48 131 -48q114 0 114 128v460h118v-460q0 -115 -57.5 -174t-166.5 -59z" />
    <glyph glyph-name="ij" unicode="&#x133;" horiz-adv-x="479" 
d="M119 539q-31 0 -49.5 18.5t-18.5 46.5t18.5 46.5t49.5 18.5t49.5 -19t18.5 -47q0 -27 -19 -45.5t-49 -18.5zM359 539q-30 0 -48.5 18.5t-18.5 45.5q0 28 18.5 47t48.5 19q31 0 50 -18.5t19 -47.5q0 -28 -19 -46t-50 -18zM64 0v446h109v-446h-109zM205 -232l-14 93
q67 5 90.5 35.5t23.5 98.5v451h109v-451q0 -113 -46.5 -167t-162.5 -60z" />
    <glyph glyph-name="Jcircumflex" unicode="&#x134;" horiz-adv-x="499" 
d="M257 738l-42 52l141 110h18l140 -111l-41 -51l-107 69zM201 -13q-111 0 -194 63l55 90q61 -48 131 -48q114 0 114 128v460h118v-460q0 -115 -57.5 -174t-166.5 -59z" />
    <glyph glyph-name="jcircumflex" unicode="&#x135;" horiz-adv-x="241" 
d="M27 513l-40 50l127 106h17l125 -107l-39 -49l-95 67zM-32 -232l-14 93q67 5 90.5 35.5t23.5 98.5v451h109v-451q0 -113 -46.5 -167t-162.5 -60z" />
    <glyph glyph-name="uni0136" unicode="&#x136;" horiz-adv-x="606" 
d="M311 343l289 -339v-4h-139l-260 304v-304h-118v680h118v-305l244 305h134v-3zM247 -287q27 91 27 192h103q-9 -112 -57 -192h-73z" />
    <glyph glyph-name="uni0137" unicode="&#x137;" horiz-adv-x="465" 
d="M267 230l192 -224v-6h-126l-160 190v-190h-109v720h109v-451l148 177h123v-5zM180 -279q27 88 27 188h100q-9 -112 -55 -188h-72z" />
    <glyph glyph-name="kgreenlandic" unicode="&#x138;" horiz-adv-x="465" 
d="M267 230l192 -225v-5h-125l-161 190v-190h-109v446h109v-177l147 177h124v-4z" />
    <glyph glyph-name="Lacute" unicode="&#x139;" horiz-adv-x="521" 
d="M90 746l-47 54l148 127l65 -75zM83 0v680h118v-571h295v-109h-413z" />
    <glyph glyph-name="lacute" unicode="&#x13a;" horiz-adv-x="238" 
d="M66 786l-47 54l148 127l65 -75zM64 0v720h109l1 -720h-110z" />
    <glyph glyph-name="uni013B" unicode="&#x13b;" horiz-adv-x="521" 
d="M83 0v680h118v-571h295v-109h-413zM210 -287q27 91 27 192h103q-9 -112 -57 -192h-73z" />
    <glyph glyph-name="uni013C" unicode="&#x13c;" horiz-adv-x="238" 
d="M64 0v720h109l1 -720h-110zM46 -279q27 88 27 188h100q-9 -112 -55 -188h-72z" />
    <glyph glyph-name="Lcaron" unicode="&#x13d;" horiz-adv-x="521" 
d="M83 0v680h118v-571h295v-109h-413zM313 501q27 81 27 179h103q-8 -108 -56 -179h-74z" />
    <glyph glyph-name="lcaron" unicode="&#x13e;" horiz-adv-x="254" 
d="M64 0v720h109v-720h-109zM218 536q21 97 21 184h105q-10 -108 -51 -184h-75z" />
    <glyph glyph-name="Ldot" unicode="&#x13f;" horiz-adv-x="521" 
d="M83 0v680h118v-571h295v-109h-413zM391 302q-28 0 -48 17.5t-20 49.5t20 49.5t48 17.5t48 -17.5t20 -49.5t-20 -49.5t-48 -17.5z" />
    <glyph glyph-name="ldot" unicode="&#x140;" horiz-adv-x="382" 
d="M64 0v720h109v-720h-109zM301 284q-27 0 -47 17t-20 49t20 49t47 17q28 0 47.5 -17t19.5 -49t-19.5 -49t-47.5 -17z" />
    <glyph glyph-name="Lslash" unicode="&#x141;" horiz-adv-x="526" 
d="M206 109h296v-109h-414v264l-57 -20l-29 79l86 29v328h118v-287l130 44l28 -79l-158 -54v-195z" />
    <glyph glyph-name="lslash" unicode="&#x142;" horiz-adv-x="298" 
d="M290 362l-86 -31v-331h-110v290l-61 -22l-26 75l87 32v345h110v-305l61 22z" />
    <glyph glyph-name="Nacute" unicode="&#x143;" horiz-adv-x="749" 
d="M482 852l-166 -106l-47 54l148 127zM549 680h117v-684h-46l-367 401q-40 43 -57 62q4 -50 4 -74v-385h-117v684h45l356 -391q46 -48 68 -73q-3 50 -3 91v369z" />
    <glyph glyph-name="nacute" unicode="&#x144;" horiz-adv-x="526" 
d="M369 623l-158 -102l-45 51l142 122zM310 458q76 0 116.5 -46.5t40.5 -132.5v-279h-109v269q0 91 -76 91q-50 0 -79.5 -32t-29.5 -83v-245h-109v446h74l22 -70q53 82 150 82z" />
    <glyph glyph-name="uni0145" unicode="&#x145;" horiz-adv-x="749" 
d="M549 680h117v-684h-46l-367 401q-40 43 -57 62q4 -50 4 -74v-385h-117v684h45l356 -391q46 -48 68 -73q-3 50 -3 91v369zM310 -287q27 91 27 192h103q-9 -112 -57 -192h-73z" />
    <glyph glyph-name="uni0146" unicode="&#x146;" horiz-adv-x="526" 
d="M310 458q76 0 116.5 -46.5t40.5 -132.5v-279h-109v269q0 91 -76 91q-50 0 -79.5 -32t-29.5 -83v-245h-109v446h74l22 -70q53 82 150 82zM193 -279q27 88 27 188h100q-9 -112 -55 -188h-72z" />
    <glyph glyph-name="Ncaron" unicode="&#x147;" horiz-adv-x="749" 
d="M377 741h-18l-139 111l41 51l107 -69l108 69l42 -52zM549 680h117v-684h-46l-367 401q-40 43 -57 62q4 -50 4 -74v-385h-117v684h45l356 -391q46 -48 68 -73q-3 50 -3 91v369z" />
    <glyph glyph-name="ncaron" unicode="&#x148;" horiz-adv-x="526" 
d="M270 518h-17l-125 108l38 48l95 -67l96 67l40 -49zM310 458q76 0 116.5 -46.5t40.5 -132.5v-279h-109v269q0 91 -76 91q-50 0 -79.5 -32t-29.5 -83v-245h-109v446h74l22 -70q53 82 150 82z" />
    <glyph glyph-name="napostrophe" unicode="&#x149;" horiz-adv-x="551" 
d="M-29 458q27 86 27 192h103q-9 -111 -56 -192h-74zM89 0v446h84l15 -71q46 83 146 83q77 0 117.5 -46.5t40.5 -131.5v-280h-109v270q0 90 -76 90q-52 0 -80.5 -37t-28.5 -92v-231h-109z" />
    <glyph glyph-name="Eng" unicode="&#x14a;" horiz-adv-x="750" 
d="M550 680h117v-671q0 -113 -57.5 -174t-164.5 -61l-14 105q57 0 88 32.5t31 95.5v62l-305 335q-31 33 -47 53q2 -26 2 -66v-391h-117v684h45l366 -401q47 -52 59 -67q-3 42 -3 72v392z" />
    <glyph glyph-name="eng" unicode="&#x14b;" horiz-adv-x="526" 
d="M281 -223l-13 92q50 1 70 24t20 75v301q0 91 -76 91q-50 0 -79.5 -32t-29.5 -83v-245h-109v446h74l21 -71q52 83 151 83q76 0 116.5 -46.5t40.5 -132.5v-308q0 -95 -47.5 -144.5t-138.5 -49.5z" />
    <glyph glyph-name="Omacron" unicode="&#x14c;" horiz-adv-x="800" 
d="M256 771v85h284v-85h-284zM400 -13q-154 0 -254 101.5t-100 252.5q0 153 99 252.5t255 99.5q157 0 255.5 -99t98.5 -253q0 -151 -99 -252.5t-255 -101.5zM400 94q105 0 169.5 71t64.5 176q0 107 -64 176t-170 69q-105 0 -169 -69t-64 -176q0 -105 64.5 -176t168.5 -71z
" />
    <glyph glyph-name="omacron" unicode="&#x14d;" horiz-adv-x="551" 
d="M141 547v79h268v-79h-268zM275 -13q-105 0 -172 66t-67 170q0 103 67 169t172 66t172.5 -66t67.5 -169t-67.5 -169.5t-172.5 -66.5zM275 84q58 0 93.5 38.5t35.5 100.5t-35.5 100.5t-93.5 38.5q-57 0 -93 -39t-36 -100t36 -100t93 -39z" />
    <glyph glyph-name="Obreve" unicode="&#x14e;" horiz-adv-x="800" 
d="M400 742q-53 0 -92.5 29.5t-54.5 87.5l68 24q7 -27 29 -43t50 -16t50 16t29 43l68 -24q-15 -57 -54.5 -87t-92.5 -30zM400 -13q-154 0 -254 101.5t-100 252.5q0 153 99 252.5t255 99.5q157 0 255.5 -99t98.5 -253q0 -151 -99 -252.5t-255 -101.5zM400 94q105 0 169.5 71
t64.5 176q0 107 -64 176t-170 69q-105 0 -169 -69t-64 -176q0 -105 64.5 -176t168.5 -71z" />
    <glyph glyph-name="obreve" unicode="&#x14f;" horiz-adv-x="551" 
d="M275 520q-48 0 -84 27.5t-50 81.5l62 27q7 -27 27 -42.5t45 -15.5t45 15.5t27 42.5l62 -27q-14 -54 -49.5 -81.5t-84.5 -27.5zM275 -13q-105 0 -172 66t-67 170q0 103 67 169t172 66t172.5 -66t67.5 -169t-67.5 -169.5t-172.5 -66.5zM275 84q58 0 93.5 38.5t35.5 100.5
t-35.5 100.5t-93.5 38.5q-57 0 -93 -39t-36 -100t36 -100t93 -39z" />
    <glyph glyph-name="Ohungarumlaut" unicode="&#x150;" horiz-adv-x="800" 
d="M308 737l-61 38l94 151l78 -48zM473 737l-61 41l102 148l76 -52zM400 -13q-154 0 -254 101.5t-100 252.5q0 153 99 252.5t255 99.5q157 0 255.5 -99t98.5 -253q0 -151 -99 -252.5t-255 -101.5zM400 94q105 0 169.5 71t64.5 176q0 107 -64 176t-170 69q-105 0 -169 -69
t-64 -176q0 -105 64.5 -176t168.5 -71z" />
    <glyph glyph-name="ohungarumlaut" unicode="&#x151;" horiz-adv-x="551" 
d="M187 512l-60 37l93 148l75 -47zM349 512l-59 40l100 145l75 -50zM275 -13q-105 0 -172 66t-67 170q0 103 67 169t172 66t172.5 -66t67.5 -169t-67.5 -169.5t-172.5 -66.5zM275 84q58 0 93.5 38.5t35.5 100.5t-35.5 100.5t-93.5 38.5q-57 0 -93 -39t-36 -100t36 -100
t93 -39z" />
    <glyph glyph-name="OE" unicode="&#x152;" horiz-adv-x="922" 
d="M598 104h282v-104h-387q-49 -13 -100 -13q-152 0 -249.5 101.5t-97.5 251.5q0 151 97 252t250 101q55 0 100 -13h378v-104h-273v-181h241v-99h-241v-192zM486 108v464q-40 15 -86 15q-104 0 -168.5 -70t-64.5 -177q0 -106 65.5 -176.5t167.5 -70.5q42 -1 86 15z" />
    <glyph glyph-name="oe" unicode="&#x153;" horiz-adv-x="847" 
d="M605 458q94 0 151 -58t57 -164q0 -24 -3 -49h-317q9 -53 44.5 -81.5t89.5 -28.5q67 0 123 41l45 -69q-76 -61 -172 -61q-128 0 -182 92q-54 -92 -178 -92q-101 0 -164 66.5t-63 170.5q0 102 63.5 167.5t165.5 65.5q122 0 176 -91q23 41 66 66t98 25zM606 369
q-47 0 -76 -28.5t-37 -78.5h214q2 47 -26 77t-75 30zM271 84q57 0 90 38.5t33 101.5q0 62 -33 99.5t-90 37.5t-91 -37.5t-34 -99.5q0 -63 33.5 -101.5t91.5 -38.5z" />
    <glyph glyph-name="Racute" unicode="&#x154;" horiz-adv-x="625" 
d="M421 852l-166 -106l-47 54l148 127zM424 271l174 -268v-3h-134l-160 258h-103v-258h-118v680h267q101 0 166 -60.5t65 -151.5q0 -71 -42 -123.5t-115 -73.5zM201 356h137q58 0 91 29.5t33 80.5q0 49 -34 80.5t-88 31.5h-139v-222z" />
    <glyph glyph-name="racute" unicode="&#x155;" horiz-adv-x="371" 
d="M314 623l-158 -102l-45 51l142 122zM288 456q44 0 77 -19l-28 -92q-28 10 -58 10q-48 0 -77 -30t-29 -82v-243h-109v446h74l21 -66q40 76 129 76z" />
    <glyph glyph-name="uni0156" unicode="&#x156;" horiz-adv-x="625" 
d="M424 271l174 -268v-3h-134l-160 258h-103v-258h-118v680h267q101 0 166 -60.5t65 -151.5q0 -71 -42 -123.5t-115 -73.5zM201 356h137q58 0 91 29.5t33 80.5q0 49 -34 80.5t-88 31.5h-139v-222zM248 -287q27 91 27 192h103q-9 -112 -57 -192h-73z" />
    <glyph glyph-name="uni0157" unicode="&#x157;" horiz-adv-x="371" 
d="M288 456q44 0 77 -19l-28 -92q-28 10 -58 10q-48 0 -77 -30t-29 -82v-243h-109v446h74l21 -66q40 76 129 76zM40 -279q27 88 27 188h100q-9 -112 -55 -188h-72z" />
    <glyph glyph-name="Rcaron" unicode="&#x158;" horiz-adv-x="625" 
d="M317 741h-18l-139 111l41 51l107 -69l108 69l42 -52zM424 271l174 -268v-3h-134l-160 258h-103v-258h-118v680h267q101 0 166 -60.5t65 -151.5q0 -71 -42 -123.5t-115 -73.5zM201 356h137q58 0 91 29.5t33 80.5q0 49 -34 80.5t-88 31.5h-139v-222z" />
    <glyph glyph-name="rcaron" unicode="&#x159;" horiz-adv-x="371" 
d="M214 518h-17l-125 108l38 48l95 -67l96 67l40 -49zM288 456q44 0 77 -19l-28 -92q-28 10 -58 10q-48 0 -77 -30t-29 -82v-243h-109v446h74l21 -66q40 76 129 76z" />
    <glyph glyph-name="Sacute" unicode="&#x15a;" horiz-adv-x="572" 
d="M244 746l-47 54l148 127l65 -75zM292 -13q-144 0 -249 83l55 92q81 -70 190 -70q54 0 90.5 24t36.5 67t-37.5 68t-109.5 48q-203 66 -203 207q0 87 65.5 137t161.5 50q118 0 221 -69l-51 -88q-83 53 -164 53q-48 0 -80.5 -20t-32.5 -57q0 -22 11 -39.5t33.5 -31t42 -22
t52.5 -19.5q99 -32 154.5 -81t55.5 -130q0 -93 -69 -147.5t-173 -54.5z" />
    <glyph glyph-name="sacute" unicode="&#x15b;" horiz-adv-x="398" 
d="M152 521l-45 51l142 122l61 -71zM203 -10q-96 0 -173 49l43 77q59 -37 122 -37q30 0 48 12.5t18 33.5q0 15 -14 28.5t-28.5 20t-43.5 17.5q-60 23 -93 54.5t-33 82.5q0 59 45.5 92t112.5 33q77 0 146 -40l-38 -73q-50 26 -99 26q-63 0 -63 -38q0 -20 20.5 -34.5
t60.5 -28.5q65 -24 99.5 -56t34.5 -84q0 -62 -45.5 -98.5t-119.5 -36.5z" />
    <glyph glyph-name="Scircumflex" unicode="&#x15c;" horiz-adv-x="572" 
d="M189 738l-42 52l141 110h18l140 -111l-41 -51l-108 69zM292 -13q-144 0 -249 83l55 92q81 -70 190 -70q54 0 90.5 24t36.5 67t-37.5 68t-109.5 48q-203 66 -203 207q0 87 65.5 137t161.5 50q118 0 221 -69l-51 -88q-83 53 -164 53q-48 0 -80.5 -20t-32.5 -57
q0 -22 11 -39.5t33.5 -31t42 -22t52.5 -19.5q99 -32 154.5 -81t55.5 -130q0 -93 -69 -147.5t-173 -54.5z" />
    <glyph glyph-name="scircumflex" unicode="&#x15d;" horiz-adv-x="398" 
d="M107 513l-40 50l127 106h17l125 -107l-39 -49l-95 67zM203 -10q-96 0 -173 49l43 77q59 -37 122 -37q30 0 48 12.5t18 33.5q0 15 -14 28.5t-28.5 20t-43.5 17.5q-60 23 -93 54.5t-33 82.5q0 59 45.5 92t112.5 33q77 0 146 -40l-38 -73q-50 26 -99 26q-63 0 -63 -38
q0 -20 20.5 -34.5t60.5 -28.5q65 -24 99.5 -56t34.5 -84q0 -62 -45.5 -98.5t-119.5 -36.5z" />
    <glyph glyph-name="Scedilla" unicode="&#x15e;" horiz-adv-x="572" 
d="M534 189q0 -81 -53 -133.5t-139 -64.5l-17 -42q38 -6 63.5 -27t25.5 -57q0 -44 -34.5 -68.5t-89.5 -24.5q-66 0 -112 28l28 63q31 -22 72 -22q47 0 48 29q2 25 -26 35.5t-68 9.5l30 73q-126 9 -219 82l55 92q81 -70 190 -70q54 0 90.5 24t36.5 67t-37.5 68t-109.5 48
q-203 66 -203 207q0 87 65.5 137t161.5 50q118 0 221 -69l-51 -88q-83 53 -164 53q-48 0 -80.5 -20t-32.5 -57q0 -22 11 -39.5t33.5 -31t42 -22t52.5 -19.5q99 -32 154.5 -81t55.5 -130z" />
    <glyph glyph-name="scedilla" unicode="&#x15f;" horiz-adv-x="398" 
d="M368 125q0 -53 -35 -88.5t-94 -43.5l-18 -44q37 -6 60.5 -26t23.5 -54q0 -40 -32 -62.5t-82 -22.5q-60 0 -103 26l25 57q32 -20 67 -20q46 0 46 30q0 41 -89 39l31 76q-74 6 -138 47l43 77q59 -37 122 -37q30 0 48 12.5t18 33.5q0 15 -14 28.5t-28.5 20t-43.5 17.5
q-60 23 -93 54.5t-33 82.5q0 59 45.5 92t112.5 33q77 0 146 -40l-38 -73q-50 26 -99 26q-63 0 -63 -38q0 -20 20.5 -34.5t60.5 -28.5q65 -24 99.5 -56t34.5 -84z" />
    <glyph glyph-name="Scaron" unicode="&#x160;" horiz-adv-x="572" 
d="M288 741l-139 111l41 51l107 -69l108 69l42 -52l-141 -110h-18zM292 -13q-144 0 -249 83l55 92q81 -70 190 -70q54 0 90.5 24t36.5 67t-37.5 68t-109.5 48q-203 66 -203 207q0 87 65.5 137t161.5 50q118 0 221 -69l-51 -88q-83 53 -164 53q-48 0 -80.5 -20t-32.5 -57
q0 -22 11 -39.5t33.5 -31t42 -22t52.5 -19.5q99 -32 154.5 -81t55.5 -130q0 -93 -69 -147.5t-173 -54.5z" />
    <glyph glyph-name="scaron" unicode="&#x161;" horiz-adv-x="398" 
d="M194 518l-125 108l38 48l95 -67l96 67l40 -49l-127 -107h-17zM203 -10q-96 0 -173 49l43 77q59 -37 122 -37q30 0 48 12.5t18 33.5q0 15 -14 28.5t-28.5 20t-43.5 17.5q-60 23 -93 54.5t-33 82.5q0 59 45.5 92t112.5 33q77 0 146 -40l-38 -73q-50 26 -99 26
q-63 0 -63 -38q0 -20 20.5 -34.5t60.5 -28.5q65 -24 99.5 -56t34.5 -84q0 -62 -45.5 -98.5t-119.5 -36.5z" />
    <glyph glyph-name="uni0162" unicode="&#x162;" horiz-adv-x="542" 
d="M330 0h-17l-22 -51q38 -5 64.5 -26.5t26.5 -56.5q0 -44 -35 -69t-91 -25q-67 0 -111 28l28 63q31 -22 72 -22q48 0 48 32q0 44 -94 42l34 85h-21v571h-193v109h503v-109h-192v-571z" />
    <glyph glyph-name="uni0163" unicode="&#x163;" horiz-adv-x="373" 
d="M246 -50q84 -15 84 -80q0 -40 -32 -63t-83 -23q-59 0 -103 27l26 56q28 -19 67 -19q45 0 45 30q0 39 -88 39l31 77q-96 20 -96 142v217l-79 6v87h79l3 143h106v-143h138v-93h-138v-206q0 -57 49 -57q39 0 75 23l35 -82q-51 -32 -102 -39z" />
    <glyph glyph-name="Tcaron" unicode="&#x164;" horiz-adv-x="542" 
d="M280 741h-18l-139 111l41 51l107 -69l108 69l42 -52zM522 680v-109h-192v-571h-118v571h-193v109h503z" />
    <glyph glyph-name="tcaron" unicode="&#x165;" horiz-adv-x="369" 
d="M259 513q22 81 22 172h98q-9 -103 -50 -172h-70zM227 -10q-60 0 -95 36.5t-35 109.5v216l-79 6v88h79l3 143h107v-143h138v-94h-138v-205q0 -58 47 -58q36 2 70 24l36 -82q-65 -41 -133 -41z" />
    <glyph glyph-name="Tbar" unicode="&#x166;" horiz-adv-x="542" 
d="M522 571h-192v-207h119v-82h-119v-282h-118v282h-119v82h119v207h-193v109h503v-109z" />
    <glyph glyph-name="tbar" unicode="&#x167;" horiz-adv-x="369" 
d="M325 110l35 -79q-63 -41 -133 -41q-60 0 -95 36.5t-35 109.5v61h-45v64h45v97l-79 6v82h79l3 143h107v-143h138v-88h-138v-97h100v-64h-100v-54q0 -57 47 -57q34 0 71 24z" />
    <glyph glyph-name="Utilde" unicode="&#x168;" horiz-adv-x="691" 
d="M254 760l-64 37q34 90 96 90q28 0 68 -20q30 -14 44 -14q22 0 38 34l65 -35q-34 -89 -96 -89q-27 0 -59 16q-38 18 -51 18q-24 0 -41 -37zM346 -13q-122 0 -197.5 67.5t-75.5 186.5v439h118v-431q0 -76 41.5 -115.5t113.5 -39.5q71 0 112.5 39.5t41.5 115.5v431h118v-439
q0 -119 -75.5 -186.5t-196.5 -67.5z" />
    <glyph glyph-name="utilde" unicode="&#x169;" horiz-adv-x="523" 
d="M178 540l-61 34q33 81 88 81q30 0 59 -16q32 -16 44 -16q19 0 33 31l61 -33q-31 -80 -87 -80q-27 0 -55 14q-32 17 -46 17q-23 0 -36 -32zM350 446h109v-446h-76l-22 69q-49 -78 -142 -78q-79 0 -120 47.5t-41 131.5v276h110v-266q0 -91 78 -91q49 0 76.5 36t27.5 90v231
z" />
    <glyph glyph-name="Umacron" unicode="&#x16a;" horiz-adv-x="691" 
d="M203 771v85h284v-85h-284zM346 -13q-122 0 -197.5 67.5t-75.5 186.5v439h118v-431q0 -76 41.5 -115.5t113.5 -39.5q71 0 112.5 39.5t41.5 115.5v431h118v-439q0 -119 -75.5 -186.5t-196.5 -67.5z" />
    <glyph glyph-name="umacron" unicode="&#x16b;" horiz-adv-x="523" 
d="M126 547v79h268v-79h-268zM350 446h109v-446h-76l-22 69q-49 -78 -142 -78q-79 0 -120 47.5t-41 131.5v276h110v-266q0 -91 78 -91q49 0 76.5 36t27.5 90v231z" />
    <glyph glyph-name="Ubreve" unicode="&#x16c;" horiz-adv-x="691" 
d="M346 742q-53 0 -92.5 29.5t-54.5 87.5l68 24q7 -27 29 -43t50 -16t50 16t29 43l68 -24q-15 -57 -54.5 -87t-92.5 -30zM346 -13q-122 0 -197.5 67.5t-75.5 186.5v439h118v-431q0 -76 41.5 -115.5t113.5 -39.5q71 0 112.5 39.5t41.5 115.5v431h118v-439
q0 -119 -75.5 -186.5t-196.5 -67.5z" />
    <glyph glyph-name="ubreve" unicode="&#x16d;" horiz-adv-x="523" 
d="M259 520q-48 0 -84 27.5t-50 81.5l62 27q7 -27 27 -42.5t45 -15.5t45 15.5t27 42.5l62 -27q-14 -54 -49.5 -81.5t-84.5 -27.5zM350 446h109v-446h-76l-22 68q-49 -77 -142 -77q-79 0 -120 47.5t-41 131.5v276h110v-266q0 -91 78 -91q49 0 76.5 36t27.5 90v231z" />
    <glyph glyph-name="Uring" unicode="&#x16e;" horiz-adv-x="691" 
d="M347 722q-50 0 -84 29.5t-34 78.5q0 50 33.5 79.5t82.5 29.5q50 0 84 -29.5t34 -79.5t-33 -79t-83 -29zM346 783q21 0 34.5 12.5t13.5 35.5q0 22 -14 35t-34 13t-34 -13t-14 -35t14 -35t34 -13zM346 -13q-122 0 -197.5 67.5t-75.5 186.5v439h118v-431q0 -76 41.5 -115.5
t113.5 -39.5q71 0 112.5 39.5t41.5 115.5v431h118v-439q0 -119 -75.5 -186.5t-196.5 -67.5z" />
    <glyph glyph-name="uring" unicode="&#x16f;" horiz-adv-x="523" 
d="M260 501q-47 0 -79.5 27.5t-32.5 74.5q0 48 32 76t79 28t79 -28t32 -76q0 -47 -31.5 -74.5t-78.5 -27.5zM259 558q20 0 32.5 12t12.5 34q0 21 -13 33.5t-32 12.5t-32 -12.5t-13 -33.5q0 -22 13 -34t32 -12zM350 446h109v-446h-76l-22 69q-49 -78 -142 -78
q-79 0 -120 47.5t-41 131.5v276h110v-266q0 -91 78 -91q49 0 76.5 36t27.5 90v231z" />
    <glyph glyph-name="Uhungarumlaut" unicode="&#x170;" horiz-adv-x="691" 
d="M254 737l-61 38l94 151l78 -48zM419 737l-61 41l102 148l76 -52zM346 -13q-122 0 -197.5 67.5t-75.5 186.5v439h118v-431q0 -76 41.5 -115.5t113.5 -39.5q71 0 112.5 39.5t41.5 115.5v431h118v-439q0 -119 -75.5 -186.5t-196.5 -67.5z" />
    <glyph glyph-name="uhungarumlaut" unicode="&#x171;" horiz-adv-x="523" 
d="M172 512l-60 37l93 148l75 -47zM334 512l-59 40l100 145l75 -50zM350 446h109v-446h-76l-22 69q-49 -78 -142 -78q-79 0 -120 47.5t-41 131.5v276h110v-266q0 -91 78 -91q49 0 76.5 36t27.5 90v231z" />
    <glyph glyph-name="Uogonek" unicode="&#x172;" horiz-adv-x="691" 
d="M500 680h118v-439q0 -136 -96 -203q-106 -93 -106 -147q0 -29 33 -29q22 0 42 14l24 -76q-42 -28 -96 -28q-53 0 -81.5 25.5t-28.5 67.5q0 57 58 123q-7 -1 -21 -1q-122 0 -197.5 67.5t-75.5 186.5v439h118v-431q0 -76 41.5 -115.5t113.5 -39.5q71 0 112.5 39.5
t41.5 115.5v431z" />
    <glyph glyph-name="uogonek" unicode="&#x173;" horiz-adv-x="523" 
d="M455 -124l24 -67q-37 -26 -90 -26q-50 0 -76 25t-26 63q0 68 91 143l-17 55q-49 -78 -142 -78q-79 0 -120 47.5t-41 131.5v276h110v-266q0 -91 78 -91q49 0 76.5 36t27.5 90v231h109v-446q-78 -62 -78 -109q0 -29 32 -29q22 0 42 14z" />
    <glyph glyph-name="Wcircumflex" unicode="&#x174;" horiz-adv-x="965" 
d="M481 807l-108 -69l-42 52l141 110h18l140 -111l-41 -51zM827 680h123v-3l-239 -681h-35l-165 361q-20 46 -30 76q-11 -37 -28 -76l-165 -361h-35l-238 681v3h124l119 -354q25 -79 30 -102q19 54 39 101l140 314h29l135 -300q31 -70 46 -114q5 19 34 109z" />
    <glyph glyph-name="wcircumflex" unicode="&#x175;" horiz-adv-x="675" 
d="M337 580l-95 -67l-40 50l127 106h17l125 -107l-39 -49zM548 446h115v-3l-167 -447h-34l-124 249l-125 -249h-33l-167 447v3h116l69 -198q10 -30 16 -54q14 36 25 55l87 175h23l87 -175q13 -23 26 -56q6 23 17 55z" />
    <glyph glyph-name="Ycircumflex" unicode="&#x176;" horiz-adv-x="644" 
d="M322 807l-108 -69l-42 52l141 110h18l140 -111l-41 -51zM495 680h134v-3l-248 -382v-295h-118v295l-248 382v3h134l122 -192q25 -40 52 -94q17 39 51 94z" />
    <glyph glyph-name="ycircumflex" unicode="&#x177;" horiz-adv-x="489" 
d="M244 580l-95 -67l-40 50l127 106h17l125 -107l-39 -49zM366 446h114v-3l-263 -663h-116v2l99 229l-191 432v3h118l95 -228q18 -44 30 -86q10 38 27 86z" />
    <glyph glyph-name="Ydieresis" unicode="&#x178;" horiz-adv-x="644" 
d="M223 764q-28 0 -45.5 18t-17.5 44t17.5 45t45.5 19q27 0 45 -19t18 -44t-17.5 -44t-45.5 -19zM420 764q-28 0 -45.5 18.5t-17.5 44.5q0 25 18 44t45 19t45 -19t18 -44q0 -26 -17.5 -44.5t-45.5 -18.5zM495 680h134v-3l-248 -382v-295h-118v295l-248 382v3h134l122 -192
q31 -50 52 -94q15 36 51 94z" />
    <glyph glyph-name="Zacute" unicode="&#x179;" horiz-adv-x="577" 
d="M238 746l-47 54l148 127l65 -75zM36 0v35l287 466q7 10 21.5 34t23.5 37q-25 -1 -74 -1h-241v109h485v-35l-293 -475q-21 -35 -39 -62q23 1 65 1h270v-109h-505z" />
    <glyph glyph-name="zacute" unicode="&#x17a;" horiz-adv-x="418" 
d="M319 623l-158 -102l-45 51l142 122zM257 94h129v-94h-353v31l166 273q17 29 30 49q-26 -1 -55 -1h-132v94h341v-31l-155 -256q-22 -37 -42 -66q28 1 71 1z" />
    <glyph glyph-name="Zdotaccent" unicode="&#x17b;" horiz-adv-x="577" 
d="M292 761q-29 0 -47.5 19t-18.5 46t18 47t48 20t48.5 -20t18.5 -48q0 -26 -19 -45t-48 -19zM36 0v35l287 466q7 10 21.5 34t23.5 37q-25 -1 -74 -1h-241v109h485v-35l-293 -475q-21 -35 -39 -62q23 1 65 1h270v-109h-505z" />
    <glyph glyph-name="zdotaccent" unicode="&#x17c;" horiz-adv-x="418" 
d="M212 536q-28 0 -46 18t-18 45q0 28 18 46.5t46 18.5t46 -18.5t18 -46.5q0 -27 -18 -45t-46 -18zM257 94h129v-94h-353v31l166 273q4 8 9 15.5t11 17.5t10 16q-25 -1 -55 -1h-132v94h341v-31l-155 -256q-22 -37 -42 -66q28 1 71 1z" />
    <glyph glyph-name="Zcaron" unicode="&#x17d;" horiz-adv-x="577" 
d="M282 741l-139 111l41 51l107 -69l108 69l42 -52l-141 -110h-18zM36 0v35l287 466q7 10 21.5 34t23.5 37q-25 -1 -74 -1h-241v109h485v-35l-293 -475q-21 -35 -39 -62q23 1 65 1h270v-109h-505z" />
    <glyph glyph-name="zcaron" unicode="&#x17e;" horiz-adv-x="418" 
d="M220 518h-17l-125 108l38 48l95 -67l96 67l40 -49zM257 94h129v-94h-353v31l166 273q17 29 30 49q-26 -1 -55 -1h-132v94h341v-31l-155 -256q-22 -37 -42 -66q28 1 71 1z" />
    <glyph glyph-name="florin" unicode="&#x192;" horiz-adv-x="491" 
d="M398 571q-68 0 -78 -90l-8 -81h119l-10 -102h-120l-29 -287q-9 -92 -58 -137.5t-124 -45.5q-69 0 -119 41l46 88q25 -21 61 -21q69 0 78 90l28 273l-111 3l9 98h113l10 96q9 88 58.5 135.5t123.5 47.5q68 0 118 -41l-45 -88q-27 21 -62 21z" />
    <glyph glyph-name="AEacute" unicode="&#x1fc;" horiz-adv-x="886" 
d="M680 852l-166 -106l-47 54l148 127zM552 104h292v-104h-404v125h-234l-81 -125h-132v3l447 677h395v-104h-283v-179h249v-100h-249v-193zM261 216h179v185v103q-9 -20 -42 -76z" />
    <glyph glyph-name="aeacute" unicode="&#x1fd;" horiz-adv-x="746" 
d="M478 623l-158 -102l-45 51l142 122zM524 454q89 0 138.5 -59.5t49.5 -156.5q0 -23 -3 -47h-301q7 -55 42 -85t89 -30q63 0 111 41l45 -68q-73 -61 -166 -61q-119 0 -172 96q-58 -94 -178 -94q-64 0 -104.5 34t-40.5 95q0 77 64.5 114t161.5 37q30 0 47 -2v24q0 69 -84 69
q-67 0 -137 -36l-31 83q94 46 178 46q102 0 136 -70q50 70 155 70zM409 265h200q-1 47 -24.5 74t-66.5 27q-93 0 -109 -101zM203 74q45 0 75 32t31 91q-17 3 -47 3q-120 0 -120 -73q0 -25 16.5 -39t44.5 -14z" />
    <glyph glyph-name="Oslashacute" unicode="&#x1fe;" horiz-adv-x="800" 
d="M513 852l-166 -106l-47 54l148 127zM635 613q119 -100 119 -272q0 -151 -99 -252.5t-255 -101.5q-93 0 -172 41l-55 -79l-61 43l55 77q-58 49 -89.5 119.5t-31.5 152.5q0 153 99 252.5t255 99.5q97 0 174 -40l67 98l61 -42zM400 588q-105 0 -169 -69t-64 -178
q0 -110 67 -180l280 401q-50 26 -114 26zM400 93q105 0 169.5 71t64.5 177q0 112 -67 181l-279 -402q51 -27 112 -27z" />
    <glyph glyph-name="oslashacute" unicode="&#x1ff;" horiz-adv-x="551" 
d="M383 623l-158 -102l-45 51l142 122zM430 407q85 -66 85 -184q0 -103 -67.5 -169.5t-172.5 -66.5q-65 0 -115 26l-37 -53l-40 27l36 52q-83 67 -83 184q0 103 67 169t172 66q62 0 114 -25l38 55l40 -27zM275 363q-58 0 -94 -39t-36 -101q0 -60 35 -100l153 228
q-25 12 -58 12zM275 83q58 0 94 39t36 101q0 60 -34 100l-155 -227q28 -13 59 -13z" />
    <glyph glyph-name="uni0218" unicode="&#x218;" horiz-adv-x="572" 
d="M292 -13q-144 0 -249 83l55 92q81 -70 190 -70q54 0 90.5 24t36.5 67t-37.5 68t-109.5 48q-203 66 -203 207q0 87 65.5 137t161.5 50q118 0 221 -69l-51 -88q-83 53 -164 53q-48 0 -80.5 -20t-32.5 -57q0 -22 11 -39.5t33.5 -31t42 -22t52.5 -19.5q99 -32 154.5 -81
t55.5 -130q0 -93 -69 -147.5t-173 -54.5zM219 -287q27 91 27 192h103q-9 -112 -57 -192h-73z" />
    <glyph glyph-name="uni0219" unicode="&#x219;" horiz-adv-x="398" 
d="M203 -10q-96 0 -173 49l43 77q59 -37 122 -37q30 0 48 12.5t18 33.5q0 15 -14 28.5t-28.5 20t-43.5 17.5q-60 23 -93 54.5t-33 82.5q0 59 45.5 92t112.5 33q77 0 146 -40l-38 -73q-50 26 -99 26q-63 0 -63 -38q0 -20 20.5 -34.5t60.5 -28.5q65 -24 99.5 -56t34.5 -84
q0 -62 -45.5 -98.5t-119.5 -36.5zM129 -279q27 88 27 188h100q-9 -112 -55 -188h-72z" />
    <glyph glyph-name="uni021A" unicode="&#x21a;" horiz-adv-x="542" 
d="M522 680v-109h-192v-571h-118v571h-193v109h503zM194 -287q27 91 27 192h103q-9 -112 -57 -192h-73z" />
    <glyph glyph-name="uni021B" unicode="&#x21b;" horiz-adv-x="373" 
d="M230 -10q-62 0 -97.5 36.5t-35.5 109.5v217l-79 6v87h79l3 143h106v-143h138v-93h-138v-206q0 -57 49 -57q39 0 75 23l35 -82q-65 -41 -135 -41zM152 -278q27 88 27 188h100q-9 -112 -55 -188h-72z" />
    <glyph glyph-name="uni0237" unicode="&#x237;" horiz-adv-x="241" 
d="M-32 -232l-14 93q67 5 90.5 35.5t23.5 98.5v451h109v-451q0 -113 -46.5 -167t-162.5 -60z" />
    <glyph glyph-name="circumflex" unicode="&#x2c6;" horiz-adv-x="391" 
d="M103 513l-40 50l127 106h17l125 -107l-39 -49l-95 67z" />
    <glyph glyph-name="caron" unicode="&#x2c7;" horiz-adv-x="392" 
d="M189 518l-125 108l38 48l95 -67l96 67l40 -49l-127 -107h-17z" />
    <glyph glyph-name="breve" unicode="&#x2d8;" horiz-adv-x="388" 
d="M194 520q-48 0 -84 27.5t-50 81.5l62 27q7 -27 27 -42.5t45 -15.5t45 15.5t27 42.5l62 -27q-14 -54 -49.5 -81.5t-84.5 -27.5z" />
    <glyph glyph-name="dotaccent" unicode="&#x2d9;" horiz-adv-x="234" 
d="M116 536q-28 0 -46 18t-18 45q0 28 18 46.5t46 18.5t46 -18.5t18 -46.5q0 -27 -18 -45t-46 -18z" />
    <glyph glyph-name="ring" unicode="&#x2da;" horiz-adv-x="316" 
d="M160 501q-47 0 -79.5 27.5t-32.5 74.5q0 48 32 76t79 28t79 -28t32 -76q0 -47 -31.5 -74.5t-78.5 -27.5zM159 558q20 0 32.5 12t12.5 34q0 21 -13 33.5t-32 12.5t-32 -12.5t-13 -33.5q0 -22 13 -34t32 -12z" />
    <glyph glyph-name="ogonek" unicode="&#x2db;" horiz-adv-x="268" 
d="M142 -217q-50 0 -76 25t-26 63q0 77 114 161l58 -32q-78 -62 -78 -109q0 -29 32 -29q22 0 42 14l24 -67q-37 -26 -90 -26z" />
    <glyph glyph-name="tilde" unicode="&#x2dc;" horiz-adv-x="408" 
d="M123 540l-61 34q33 81 88 81q30 0 59 -16q32 -16 44 -16q19 0 33 31l61 -33q-31 -80 -87 -80q-27 0 -55 14q-32 17 -46 17q-23 0 -36 -32z" />
    <glyph glyph-name="hungarumlaut" unicode="&#x2dd;" horiz-adv-x="420" 
d="M107 512l-60 37l93 148l75 -47zM269 512l-59 40l100 145l75 -50z" />
    <glyph glyph-name="gravecomb" unicode="&#x300;" 
d="M-90 521l-160 101l62 72l143 -122z" />
    <glyph glyph-name="acutecomb" unicode="&#x301;" 
d="M-211 521l-45 51l142 122l61 -71z" />
    <glyph glyph-name="uni0302" unicode="&#x302;" 
d="M-290 513l-40 50l127 106h17l125 -107l-39 -49l-95 67z" />
    <glyph glyph-name="tildecomb" unicode="&#x303;" 
d="M-287 540l-61 34q33 81 88 81q30 0 59 -16q32 -16 44 -16q19 0 33 31l61 -33q-31 -80 -87 -80q-27 0 -55 14q-32 17 -46 17q-23 0 -36 -32z" />
    <glyph glyph-name="uni0304" unicode="&#x304;" 
d="M-332 547v79h268v-79h-268z" />
    <glyph glyph-name="uni0306" unicode="&#x306;" 
d="M-196 520q-48 0 -84 27.5t-50 81.5l62 27q7 -27 27 -42.5t45 -15.5t45 15.5t27 42.5l62 -27q-14 -54 -49.5 -81.5t-84.5 -27.5z" />
    <glyph glyph-name="uni0307" unicode="&#x307;" 
d="M-119 536q-27 0 -45.5 18t-18.5 45q0 28 18 46.5t46 18.5t46 -18.5t18 -46.5q0 -27 -18.5 -45t-45.5 -18z" />
    <glyph glyph-name="uni0308" unicode="&#x308;" 
d="M-296 543q-26 0 -42.5 17t-16.5 41t16 41.5t43 17.5q25 0 42 -17.5t17 -40.5q0 -24 -16.5 -41.5t-42.5 -17.5zM-124 543q-26 0 -43 17.5t-17 40.5t17 41t43 18t42.5 -17.5t16.5 -41.5q0 -23 -17 -40.5t-42 -17.5z" />
    <glyph glyph-name="uni030A" unicode="&#x30a;" 
d="M-157 501q-47 0 -79.5 27.5t-32.5 74.5q0 48 32 76t79 28t79 -28t32 -76q0 -47 -31.5 -74.5t-78.5 -27.5zM-158 558q20 0 32.5 12t12.5 34q0 21 -13 33.5t-32 12.5t-32 -12.5t-13 -33.5q0 -22 13 -34t32 -12z" />
    <glyph glyph-name="uni030B" unicode="&#x30b;" 
d="M-314 512l-60 37l93 148l75 -47zM-152 512l-59 40l100 145l75 -50z" />
    <glyph glyph-name="uni030C" unicode="&#x30c;" 
d="M-205 518l-125 108l38 48l95 -67l96 67l40 -49l-127 -107h-17z" />
    <glyph glyph-name="uni0312" unicode="&#x312;" 
d="M-177 530q9 111 56 188h71q-26 -86 -26 -188h-101z" />
    <glyph glyph-name="uni0326" unicode="&#x326;" 
d="M-177 -279q27 88 27 188h100q-9 -112 -55 -188h-72z" />
    <glyph glyph-name="uni0327" unicode="&#x327;" 
d="M-168 -216q-60 0 -103 26l25 57q32 -20 67 -20q46 0 46 30q0 41 -89 39l35 86h71l-22 -53q37 -6 60.5 -26t23.5 -54q0 -40 -32 -62.5t-82 -22.5z" />
    <glyph glyph-name="uni0328" unicode="&#x328;" 
d="M-127 -217q-50 0 -76 25t-26 63q0 77 114 161l58 -32q-78 -62 -78 -109q0 -29 32 -29q22 0 42 14l24 -67q-37 -26 -90 -26z" />
    <glyph glyph-name="pi" unicode="&#x3c0;" horiz-adv-x="594" 
d="M102 -2v354h-79v94h551v-94h-79v-354h-106v354h-180v-354h-107z" />
    <glyph glyph-name="uni0400" unicode="&#x400;" horiz-adv-x="561" 
d="M342 746l-167 105l66 76l148 -127zM201 104h319v-104h-437v680h428v-104h-310v-180h271v-101h-271v-191z" />
    <glyph glyph-name="uni0401" unicode="&#x401;" horiz-adv-x="561" 
d="M201 764q-28 0 -45.5 18t-17.5 44t17.5 45t45.5 19q27 0 45 -19t18 -44t-17.5 -44t-45.5 -19zM398 764q-28 0 -45.5 18.5t-17.5 44.5q0 25 18 44t45 19t45 -19t18 -44q0 -26 -17.5 -44.5t-45.5 -18.5zM201 104h319v-104h-437v680h428v-104h-310v-180h271v-101h-271v-191z
" />
    <glyph glyph-name="uni0402" unicode="&#x402;" horiz-adv-x="689" 
d="M437 421q99 0 154 -54.5t55 -156.5q0 -75 -47.5 -140.5t-135.5 -81.5l-21 98q87 27 87 128q0 108 -107 108q-54 0 -102 -19v-303h-118v571h-183v109h513v-109h-212v-169q55 19 117 19z" />
    <glyph glyph-name="uni0403" unicode="&#x403;" horiz-adv-x="528" 
d="M254 746l-47 54l148 127l65 -75zM83 0v680h427v-109h-309v-571h-118z" />
    <glyph glyph-name="uni0404" unicode="&#x404;" horiz-adv-x="693" 
d="M603 186l69 -80q-121 -118 -276 -118q-153 0 -251.5 102.5t-98.5 250.5q0 153 99 252t252 99q81 0 141 -24.5t117 -75.5l-63 -79q-43 37 -86 54.5t-101 17.5q-94 0 -157.5 -53t-78.5 -141h276v-102h-275q15 -86 77 -140t149 -54q119 0 207 91z" />
    <glyph glyph-name="uni0405" unicode="&#x405;" horiz-adv-x="572" 
d="M292 -13q-144 0 -249 83l55 92q81 -70 190 -70q54 0 90.5 24t36.5 67t-37.5 68t-109.5 48q-203 66 -203 207q0 87 65.5 137t161.5 50q118 0 221 -69l-51 -88q-83 53 -164 53q-48 0 -80.5 -20t-32.5 -57q0 -22 11 -39.5t33.5 -31t42 -22t52.5 -19.5q99 -32 154.5 -81
t55.5 -130q0 -93 -69 -147.5t-173 -54.5z" />
    <glyph glyph-name="uni0406" unicode="&#x406;" horiz-adv-x="284" 
d="M83 0v680h118v-680h-118z" />
    <glyph glyph-name="uni0407" unicode="&#x407;" horiz-adv-x="284" 
d="M43 756q-27 0 -45 18t-18 43q0 26 17.5 45t45.5 19t45.5 -18.5t17.5 -43.5q0 -26 -17.5 -44.5t-45.5 -18.5zM240 756q-28 0 -45.5 18.5t-17.5 43.5t18 44t45 19q28 0 45.5 -19t17.5 -44t-17.5 -43.5t-45.5 -18.5zM83 0v680h118v-680h-118z" />
    <glyph glyph-name="uni0408" unicode="&#x408;" horiz-adv-x="498" 
d="M201 -13q-111 0 -194 63l55 90q61 -48 131 -48q114 0 114 128v460h118v-460q0 -115 -57.5 -174t-166.5 -59z" />
    <glyph glyph-name="uni0409" unicode="&#x409;" horiz-adv-x="982" 
d="M734 420q94 0 157.5 -59.5t63.5 -150.5t-63.5 -150.5t-157.5 -59.5h-252v571h-179l-29 -262q-19 -167 -81 -241t-172 -76l-13 100q69 2 103.5 65.5t50.5 207.5l36 315h402v-260h134zM722 102q51 0 83 29t32 79t-32 79t-83 29h-122v-216h122z" />
    <glyph glyph-name="uni040A" unicode="&#x40a;" horiz-adv-x="988" 
d="M740 409q96 0 159 -58.5t63 -146.5t-63 -146t-159 -58h-252v304h-287v-304h-118v680h118v-271h287v271h119v-271h133zM728 102q50 0 83 29.5t33 72.5q0 44 -32.5 73.5t-83.5 29.5h-121v-205h121z" />
    <glyph glyph-name="uni040B" unicode="&#x40b;" horiz-adv-x="700" 
d="M448 422q87 0 139.5 -50t52.5 -134v-238h-118v233q0 40 -25.5 63t-72.5 23q-52 0 -104 -19v-300h-118v571h-183v109h513v-109h-212v-168q59 19 128 19z" />
    <glyph glyph-name="uni040C" unicode="&#x40c;" horiz-adv-x="606" 
d="M463 852l-166 -106l-47 54l148 127zM311 343l289 -339v-4h-139l-260 304v-304h-118v680h118v-305l244 305h134v-3z" />
    <glyph glyph-name="uni040D" unicode="&#x40d;" horiz-adv-x="749" 
d="M487 800l-47 -54l-167 105l66 76zM631 684h35v-684h-118v366q0 48 3 97q-24 -28 -78 -86l-355 -381h-35v684h118v-366q0 -48 -3 -96q42 50 79 89z" />
    <glyph glyph-name="uni040E" unicode="&#x40e;" horiz-adv-x="628" 
d="M317 739q-118 0 -171 98l68 46q38 -57 103 -57q67 0 105 57l66 -46q-50 -98 -171 -98zM499 680h125l-215 -466q-59 -125 -118 -170t-179 -51l-10 102q66 2 105 21.5t66 60.5l-268 503h128l199 -380z" />
    <glyph glyph-name="uni040F" unicode="&#x40f;" horiz-adv-x="707" 
d="M624 680v-680h-215v-152h-111v152h-215v680h118v-571h305v571h118z" />
    <glyph glyph-name="uni0410" unicode="&#x410;" horiz-adv-x="687" 
d="M362 684l320 -681v-3h-123l-56 123h-318l-56 -123h-124v2l321 682h36zM344 494q-22 -61 -46 -116l-74 -162h240l-74 162q-21 47 -46 116z" />
    <glyph glyph-name="uni0411" unicode="&#x411;" horiz-adv-x="622" 
d="M83 0v680h443v-105h-325v-164h155q104 0 166.5 -60.5t62.5 -144.5q0 -85 -62.5 -145.5t-166.5 -60.5h-273zM201 99h142q58 0 91 28.5t33 78.5t-33 78.5t-91 28.5h-142v-214z" />
    <glyph glyph-name="uni0412" unicode="&#x412;" horiz-adv-x="629" 
d="M478 356q50 -22 79 -66.5t29 -101.5q0 -84 -59.5 -136t-153.5 -52h-290v680h271q90 0 147.5 -49.5t57.5 -128.5q0 -95 -81 -146zM200 583v-185h136q50 0 77 25t27 70q0 42 -29 66t-77 24h-134zM354 97q51 0 82 28t31 75q0 46 -30 74t-79 28h-158v-205h154z" />
    <glyph glyph-name="uni0413" unicode="&#x413;" horiz-adv-x="528" 
d="M83 0v680h427v-109h-309v-571h-118z" />
    <glyph glyph-name="uni0414" unicode="&#x414;" horiz-adv-x="709" 
d="M606 109h83v-261h-112v152h-461v-152h-111v261h79q52 102 65 234l35 337h422v-571zM263 321q-13 -115 -54 -212h281v462h-200z" />
    <glyph glyph-name="uni0415" unicode="&#x415;" horiz-adv-x="561" 
d="M201 104h319v-104h-437v680h428v-104h-310v-180h271v-101h-271v-191z" />
    <glyph glyph-name="uni0416" unicode="&#x416;" horiz-adv-x="873" 
d="M599 344l268 -340v-4h-138l-233 303v-303h-118v303l-234 -303h-138v4l269 340l-257 333l1 3h134l225 -303v303h118v-302l225 302h133v-4z" />
    <glyph glyph-name="uni0417" unicode="&#x417;" horiz-adv-x="566" 
d="M281 -11q-157 0 -256 92l55 84q80 -71 194 -71q55 0 92.5 29.5t37.5 77.5t-33.5 74.5t-90.5 26.5h-91v97h87q46 0 71.5 25.5t25.5 67.5q0 44 -32.5 69t-87.5 25q-84 0 -153 -55l-51 82q98 79 215 79q98 0 163 -53.5t65 -133.5q0 -50 -26 -89.5t-66 -56.5
q57 -21 89.5 -64.5t32.5 -104.5q0 -85 -67 -143t-174 -58z" />
    <glyph glyph-name="uni0418" unicode="&#x418;" horiz-adv-x="749" 
d="M631 684h35v-684h-118v366q0 48 3 97q-24 -28 -78 -86l-355 -381h-35v684h118v-366q0 -48 -3 -96q42 50 79 89z" />
    <glyph glyph-name="uni0419" unicode="&#x419;" horiz-adv-x="749" 
d="M396 739q-118 0 -171 98l68 46q38 -57 103 -57q67 0 105 57l66 -46q-50 -98 -171 -98zM631 684h35v-684h-118v366q0 48 3 97q-24 -28 -78 -86l-355 -381h-35v684h118v-366q0 -48 -3 -96q42 50 79 89z" />
    <glyph glyph-name="uni041A" unicode="&#x41a;" horiz-adv-x="606" 
d="M311 343l289 -339v-4h-139l-260 304v-304h-118v680h118v-305l244 305h134v-3z" />
    <glyph glyph-name="uni041B" unicode="&#x41b;" horiz-adv-x="709" 
d="M24 -8l-16 99q74 6 106 61.5t48 195.5l37 332h427v-680h-118v571h-207l-29 -261q-19 -167 -77.5 -239.5t-170.5 -78.5z" />
    <glyph glyph-name="uni041C" unicode="&#x41c;" horiz-adv-x="854" 
d="M712 685l100 -685h-116l-54 368q-7 53 -8 69q-12 -22 -40 -64l-155 -236h-24l-154 236q-23 31 -42 66q0 -12 -8 -72l-52 -367h-116l100 685h35l205 -314q24 -38 44 -71q20 33 44 71l206 314h35z" />
    <glyph glyph-name="uni041D" unicode="&#x41d;" horiz-adv-x="733" 
d="M83 0v680h118v-283h331v283h118v-680h-118v288h-331v-288h-118z" />
    <glyph glyph-name="uni041E" unicode="&#x41e;" horiz-adv-x="800" 
d="M400 -13q-154 0 -254 101.5t-100 252.5q0 153 99 252.5t255 99.5q157 0 255.5 -99t98.5 -253q0 -151 -99 -252.5t-255 -101.5zM400 94q105 0 169.5 71t64.5 176q0 107 -64 176t-170 69q-105 0 -169 -69t-64 -176q0 -105 64.5 -176t168.5 -71z" />
    <glyph glyph-name="uni041F" unicode="&#x41f;" horiz-adv-x="709" 
d="M83 0v680h544v-680h-119v571h-307v-571h-118z" />
    <glyph glyph-name="uni0420" unicode="&#x420;" horiz-adv-x="598" 
d="M83 0v680h261q105 0 166.5 -65t61.5 -154q0 -88 -61.5 -150.5t-168.5 -62.5h-141v-248h-118zM201 349h128q61 0 92.5 33t31.5 80q0 49 -33 82t-88 33h-131v-228z" />
    <glyph glyph-name="uni0421" unicode="&#x421;" horiz-adv-x="692" 
d="M396 -13q-155 0 -252.5 102t-97.5 252q0 153 99.5 252.5t253.5 99.5q146 0 256 -100l-61 -80q-79 73 -192 73q-104 0 -169.5 -68.5t-65.5 -176.5q0 -106 64.5 -176.5t166.5 -70.5q125 0 198 96l74 -76q-103 -127 -274 -127z" />
    <glyph glyph-name="uni0422" unicode="&#x422;" horiz-adv-x="542" 
d="M522 680v-109h-192v-571h-118v571h-193v109h503z" />
    <glyph glyph-name="uni0423" unicode="&#x423;" horiz-adv-x="628" 
d="M499 680h125l-215 -466q-59 -125 -118 -170t-179 -51l-10 102q66 2 105 21.5t66 60.5l-268 503h128l199 -380z" />
    <glyph glyph-name="uni0424" unicode="&#x424;" horiz-adv-x="833" 
d="M796 350q0 -123 -85 -205t-238 -96v-105h-113v105q-153 14 -238.5 96t-85.5 205q0 124 85.5 205.5t238.5 95.5v105h113v-105q153 -14 238 -95.5t85 -205.5zM154 350q0 -81 54 -133t155 -63v393q-101 -11 -155 -63.5t-54 -133.5zM470 154q101 11 154.5 63t53.5 133
t-53.5 133.5t-154.5 63.5v-393z" />
    <glyph glyph-name="uni0425" unicode="&#x425;" horiz-adv-x="643" 
d="M11 0v2l240 350l-220 326v2h136l95 -144q35 -53 61 -98q27 48 61 100l93 142h135v-2l-219 -326l239 -350v-2h-137l-113 170q-36 54 -60 96q-32 -56 -60 -96l-114 -170h-137z" />
    <glyph glyph-name="uni0426" unicode="&#x426;" horiz-adv-x="731" 
d="M624 109h87v-261h-111v152h-517v680h118v-571h305v571h118v-571z" />
    <glyph glyph-name="uni0427" unicode="&#x427;" horiz-adv-x="650" 
d="M449 680h118v-680h-118v257q-75 -26 -158 -26q-113 0 -177 56t-64 169v224h118v-212q0 -70 34 -100t102 -30q75 0 145 32v310z" />
    <glyph glyph-name="uni0428" unicode="&#x428;" horiz-adv-x="1008" 
d="M807 680h118v-680h-842v680h118v-571h245v571h116v-571h245v571z" />
    <glyph glyph-name="uni0429" unicode="&#x429;" horiz-adv-x="1033" 
d="M925 109h87v-261h-111v152h-818v680h118v-571h245v571h116v-571h245v571h118v-571z" />
    <glyph glyph-name="uni042A" unicode="&#x42a;" horiz-adv-x="715" 
d="M467 420q95 0 158.5 -59.5t63.5 -150.5t-63.5 -150.5t-158.5 -59.5h-275v571h-173v109h291v-260h157zM456 102q51 0 83 29t32 79t-32 79t-83 29h-146v-216h146z" />
    <glyph glyph-name="uni042B" unicode="&#x42b;" horiz-adv-x="886" 
d="M83 0v680h118v-260h157q94 0 158 -59.5t64 -150.5t-64 -150.5t-158 -59.5h-275zM685 0v680h118v-680h-118zM201 102h145q51 0 83.5 29t32.5 79t-32.5 79t-83.5 29h-145v-216z" />
    <glyph glyph-name="uni042C" unicode="&#x42c;" horiz-adv-x="606" 
d="M358 420q94 0 158 -59.5t64 -150.5t-64 -150.5t-158 -59.5h-275v680h118v-260h157zM346 102q51 0 83.5 29t32.5 79t-32.5 79t-83.5 29h-145v-216h145z" />
    <glyph glyph-name="uni042D" unicode="&#x42d;" horiz-adv-x="694" 
d="M298 692q152 0 251 -99t99 -252q0 -148 -98 -250.5t-252 -102.5q-155 0 -275 118l68 80q88 -91 203 -91q91 0 153.5 54t77.5 140h-286v102h287q-15 88 -77.5 141t-155.5 53q-60 0 -103.5 -17.5t-87.5 -53.5l-61 79q107 99 257 99z" />
    <glyph glyph-name="uni042E" unicode="&#x42e;" horiz-adv-x="1047" 
d="M650 692q154 0 252 -99t98 -252q0 -150 -98.5 -251.5t-251.5 -101.5q-138 0 -233 84.5t-113 214.5h-103v-287h-118v680h118v-284h103q17 132 112 214t234 82zM650 95q103 0 166.5 71t63.5 175q0 107 -63 175.5t-167 68.5q-103 0 -166.5 -69t-63.5 -175q0 -104 64 -175
t166 -71z" />
    <glyph glyph-name="uni042F" unicode="&#x42f;" horiz-adv-x="634" 
d="M278 680h273v-680h-118v261h-117l-166 -261h-131v4l175 268q-70 20 -108.5 74.5t-38.5 122.5q0 91 62.5 151t168.5 60zM433 357v221h-144q-57 0 -90.5 -30t-33.5 -80q0 -51 33.5 -81t90.5 -30h144z" />
    <glyph glyph-name="uni0430" unicode="&#x430;" horiz-adv-x="484" 
d="M242 454q87 0 135.5 -43t48.5 -123v-288h-73l-20 67q-53 -76 -159 -76q-63 0 -101.5 33.5t-38.5 91.5q0 75 61 116.5t165 41.5q24 0 56 -2v20q0 69 -91 69q-64 0 -139 -36l-31 83q101 46 187 46zM206 73q49 0 80.5 34t32.5 94q-27 3 -52 3q-59 0 -92 -20t-33 -57
q0 -54 64 -54z" />
    <glyph glyph-name="uni0431" unicode="&#x431;" horiz-adv-x="562" 
d="M319 447q89 0 148.5 -60t59.5 -164q0 -111 -66.5 -172.5t-170.5 -61.5q-111 0 -175.5 74t-64.5 211v52q0 87 33.5 167t100.5 125q55 37 141 62t121 47l36 -97q-44 -28 -121.5 -50t-115.5 -47q-78 -48 -92 -167q64 81 166 81zM290 84q59 0 92.5 38.5t33.5 97.5
q0 57 -33.5 94.5t-91.5 37.5q-54 0 -89 -38t-35 -97q0 -61 34.5 -97t88.5 -36z" />
    <glyph glyph-name="uni0432" unicode="&#x432;" horiz-adv-x="481" 
d="M372 229q74 -25 74 -105q0 -58 -40 -91t-106 -33h-236v446h219q64 0 103.5 -32.5t39.5 -86.5q0 -67 -54 -98zM261 367h-91v-104h91q31 0 46 15.5t15 38.5q0 22 -15 36t-46 14zM273 79q64 0 64 54q0 25 -16 40t-48 15h-103v-109h103z" />
    <glyph glyph-name="uni0433" unicode="&#x433;" horiz-adv-x="388" 
d="M64 0v446h303v-94h-193v-352h-110z" />
    <glyph glyph-name="uni0434" unicode="&#x434;" horiz-adv-x="539" 
d="M457 92h62v-206h-100v114h-304v-114h-100v206h56q31 49 39 137l20 217h327v-354zM226 355l-14 -144q-7 -77 -29 -121h169v265h-126z" />
    <glyph glyph-name="uni0435" unicode="&#x435;" horiz-adv-x="502" 
d="M266 458q94 0 148.5 -59t54.5 -160q0 -16 -4 -52h-320q10 -53 48.5 -81.5t93.5 -28.5q70 0 118 42l46 -70q-77 -62 -174 -62q-107 0 -174 66t-67 171q0 99 65 166.5t165 67.5zM264 369q-45 0 -77 -28.5t-41 -79.5h220q-2 52 -30 80t-72 28z" />
    <glyph glyph-name="uni0436" unicode="&#x436;" horiz-adv-x="659" 
d="M479 231l173 -225v-6h-121l-147 198v-198h-109v198l-148 -198h-120v6l172 224l-156 211v5h121l131 -187v187h109v-186l130 186h122v-5z" />
    <glyph glyph-name="uni0437" unicode="&#x437;" horiz-adv-x="418" 
d="M201 -10q-103 0 -180 48l38 79q58 -38 130 -38q42 0 63 15.5t21 41.5q0 52 -68 52h-86v81h77q27 0 42 13t15 34q0 20 -18.5 34t-53.5 14q-49 0 -107 -28l-32 78q77 40 156 40q70 0 116.5 -33.5t46.5 -92.5q0 -31 -16 -56.5t-43 -35.5q40 -12 60.5 -41t20.5 -68
q0 -62 -49.5 -99.5t-132.5 -37.5z" />
    <glyph glyph-name="uni0438" unicode="&#x438;" horiz-adv-x="524" 
d="M418 446h42v-446h-108v204q0 34 2 52q-17 -21 -40 -44l-208 -213h-42v447h108v-200q0 -37 -2 -55q15 18 45 50z" />
    <glyph glyph-name="uni0439" unicode="&#x439;" horiz-adv-x="524" 
d="M267 524q-101 0 -146 86l59 44q31 -52 87 -52q55 0 86 52l60 -43q-22 -42 -60 -64.5t-86 -22.5zM418 446h42v-446h-108v204q0 34 2 52q-17 -21 -40 -44l-208 -213h-42v447h108v-200q0 -37 -2 -55q15 18 45 50z" />
    <glyph glyph-name="uni043A" unicode="&#x43a;" horiz-adv-x="465" 
d="M267 230l192 -225v-5h-125l-161 190v-190h-109v446h109v-177l147 177h124v-4z" />
    <glyph glyph-name="uni043B" unicode="&#x43b;" horiz-adv-x="520" 
d="M19 -7l-12 95q55 6 77.5 37.5t28.5 100.5l19 220h324v-446h-109v352h-119l-10 -133q-10 -116 -55 -167.5t-144 -58.5z" />
    <glyph glyph-name="uni043C" unicode="&#x43c;" horiz-adv-x="616" 
d="M530 446l41 -446h-108l-17 199q-3 48 -3 49q-15 -20 -40 -50l-83 -103h-23l-80 98q-7 9 -21.5 28t-21.5 28q0 -1 -3 -55l-18 -194h-107l41 446h34l154 -183q24 -28 34 -42q9 14 33 42l154 183h34z" />
    <glyph glyph-name="uni043D" unicode="&#x43d;" horiz-adv-x="527" 
d="M353 446h110v-446h-110v178h-180v-178h-109v446h109v-174h180v174z" />
    <glyph glyph-name="uni043E" unicode="&#x43e;" horiz-adv-x="551" 
d="M275 -13q-105 0 -172 66t-67 170q0 103 67 169t172 66t172.5 -66t67.5 -169t-67.5 -169.5t-172.5 -66.5zM275 84q58 0 93.5 38.5t35.5 100.5t-35.5 100.5t-93.5 38.5q-57 0 -93 -39t-36 -100t36 -100t93 -39z" />
    <glyph glyph-name="uni043F" unicode="&#x43f;" horiz-adv-x="526" 
d="M64 0v446h398v-446h-109v351h-180v-351h-109z" />
    <glyph glyph-name="uni0440" unicode="&#x440;" horiz-adv-x="572" 
d="M321 457q92 0 152.5 -66t60.5 -166q0 -104 -60 -170t-153 -66q-91 0 -150 62q2 -31 2 -106v-165h-109v666h74l21 -68q60 79 162 79zM298 84q56 0 90.5 38.5t34.5 99.5q0 62 -34.5 100.5t-90.5 38.5q-58 0 -93.5 -38t-35.5 -99q0 -63 36 -101.5t93 -38.5z" />
    <glyph glyph-name="uni0441" unicode="&#x441;" horiz-adv-x="461" 
d="M266 -13q-92 0 -161 63t-69 173q0 106 68 170.5t167 64.5q97 0 166 -60l-53 -73q-45 38 -105 38q-57 0 -95 -38.5t-38 -101.5q0 -64 37.5 -102t93.5 -38q65 0 114 46l55 -73q-75 -69 -180 -69z" />
    <glyph glyph-name="uni0442" unicode="&#x442;" horiz-adv-x="399" 
d="M145 0v352h-128v94h365v-94h-127v-352h-110z" />
    <glyph glyph-name="uni0443" unicode="&#x443;" horiz-adv-x="489" 
d="M365 446h115v-3l-177 -455q-40 -104 -91 -153t-150 -61l-17 90q63 8 96.5 39t59.5 93l2 5l-194 442v3h118l78 -192q27 -63 47 -127q15 54 42 127z" />
    <glyph glyph-name="uni0444" unicode="&#x444;" horiz-adv-x="665" 
d="M629 223q0 -99 -66.5 -163t-176.5 -71v-211h-108v211q-113 6 -177.5 70t-64.5 164t64.5 164t177.5 70v242h108v-242q110 -6 176.5 -70.5t66.5 -163.5zM143 223q0 -62 36.5 -99t101.5 -42v282q-65 -5 -101.5 -42t-36.5 -99zM384 82q65 5 101 42t36 99t-36 99t-101 42v-282
z" />
    <glyph glyph-name="uni0445" unicode="&#x445;" horiz-adv-x="473" 
d="M17 0v2l150 230l-137 211v3h122l56 -92q12 -19 28 -53l30 54l57 91h119v-3l-136 -211l150 -230v-2h-123l-65 104q-11 18 -32 60q-14 -31 -32 -60l-66 -104h-121z" />
    <glyph glyph-name="uni0446" unicode="&#x446;" horiz-adv-x="542" 
d="M460 94h63v-208h-100v114h-359v446h109v-352h178v352h109v-352z" />
    <glyph glyph-name="uni0447" unicode="&#x447;" horiz-adv-x="479" 
d="M306 446h109v-446h-109v165q-53 -29 -112 -29q-158 0 -158 156v154h109v-144q0 -38 19 -54.5t60 -16.5q49 0 82 19v196z" />
    <glyph glyph-name="uni0448" unicode="&#x448;" horiz-adv-x="743" 
d="M571 446h108v-446h-615v446h108v-352h145v352h108v-352h146v352z" />
    <glyph glyph-name="uni0449" unicode="&#x449;" horiz-adv-x="761" 
d="M679 94h63v-208h-101v114h-577v446h108v-352h145v352h108v-352h146v352h108v-352z" />
    <glyph glyph-name="uni044A" unicode="&#x44a;" horiz-adv-x="534" 
d="M341 304q77 0 122.5 -41t45.5 -111q0 -71 -45.5 -111.5t-122.5 -40.5h-215v352h-112v94h222v-142h105zM319 84q81 0 81 68t-81 68h-83v-136h83z" />
    <glyph glyph-name="uni044B" unicode="&#x44b;" horiz-adv-x="694" 
d="M279 304q77 0 122 -41t45 -111q0 -71 -45 -111.5t-122 -40.5h-215v446h110v-142h105zM521 446h109v-446h-109v446zM257 84q80 0 80 68t-80 68h-83v-136h83z" />
    <glyph glyph-name="uni044C" unicode="&#x44c;" horiz-adv-x="471" 
d="M279 304q77 0 122 -41t45 -111q0 -71 -45 -111.5t-122 -40.5h-215v446h110v-142h105zM257 84q80 0 80 68t-80 68h-83v-136h83z" />
    <glyph glyph-name="uni044D" unicode="&#x44d;" horiz-adv-x="466" 
d="M195 458q99 0 166.5 -64t67.5 -169q0 -108 -68 -172.5t-167 -64.5q-105 0 -177 72l54 69q52 -49 115 -49q51 0 86 29t45 78h-182v79h181q-11 47 -46.5 73.5t-82.5 26.5q-58 0 -107 -43l-53 68q72 67 168 67z" />
    <glyph glyph-name="uni044E" unicode="&#x44e;" horiz-adv-x="755" 
d="M480 458q105 0 172 -66t67 -169q0 -104 -66.5 -169.5t-172.5 -65.5q-93 0 -155.5 52.5t-76.5 138.5h-75v-179h-109v446h109v-174h76q15 84 77.5 135t153.5 51zM480 84q57 0 92.5 38.5t35.5 100.5q0 61 -35.5 99.5t-92.5 38.5q-56 0 -91 -38t-35 -100t35 -100.5t91 -38.5z
" />
    <glyph glyph-name="uni044F" unicode="&#x44f;" horiz-adv-x="494" 
d="M215 446h215v-446h-108v153h-77l-103 -153h-121v5l117 162q-86 35 -86 132q0 67 44 107t119 40zM232 232h90v129h-90q-71 0 -71 -65q0 -64 71 -64z" />
    <glyph glyph-name="uni0450" unicode="&#x450;" horiz-adv-x="502" 
d="M309 521l-160 101l62 72l143 -122zM266 458q94 0 148.5 -59t54.5 -160q0 -16 -4 -52h-320q10 -53 48.5 -81.5t93.5 -28.5q70 0 118 42l46 -70q-77 -62 -174 -62q-107 0 -174 66t-67 171q0 99 65 166.5t165 67.5zM264 369q-45 0 -77 -28.5t-41 -79.5h220q-2 52 -30 80
t-72 28z" />
    <glyph glyph-name="uni0451" unicode="&#x451;" horiz-adv-x="502" 
d="M172 543q-26 0 -42.5 17t-16.5 41t16 41.5t43 17.5q25 0 42 -17.5t17 -40.5q0 -24 -16.5 -41.5t-42.5 -17.5zM344 543q-26 0 -43 17.5t-17 40.5t17 41t43 18t42.5 -17.5t16.5 -41.5q0 -23 -17 -40.5t-42 -17.5zM266 458q94 0 148.5 -59t54.5 -160q0 -16 -4 -52h-320
q10 -53 48.5 -81.5t93.5 -28.5q70 0 118 42l46 -70q-77 -62 -174 -62q-107 0 -174 66t-67 171q0 99 65 166.5t165 67.5zM264 369q-45 0 -77 -28.5t-41 -79.5h220q-2 52 -30 80t-72 28z" />
    <glyph glyph-name="uni0452" unicode="&#x452;" horiz-adv-x="526" 
d="M308 445q78 0 118.5 -47t40.5 -129v-307q0 -97 -49.5 -145.5t-140.5 -48.5l-9 92q50 1 70 25t20 80v297q0 38 -19.5 61.5t-57.5 23.5q-52 0 -80 -37t-28 -93v-217h-109v538h-60v61h60v100h109v-100h156v-61h-156v-96q0 -41 -1 -67q44 70 136 70z" />
    <glyph glyph-name="uni0453" unicode="&#x453;" horiz-adv-x="388" 
d="M172 521l-45 51l142 122l61 -71zM64 0v446h303v-94h-193v-352h-110z" />
    <glyph glyph-name="uni0454" unicode="&#x454;" horiz-adv-x="460" 
d="M392 126l53 -70q-72 -68 -179 -68q-92 0 -161 62.5t-69 172.5q0 106 67.5 170.5t166.5 64.5q89 0 159 -61l-53 -70q-44 38 -101 38q-46 0 -80.5 -26.5t-46.5 -72.5h175v-79h-177q10 -50 46 -78t85 -28q67 0 115 45z" />
    <glyph glyph-name="uni0455" unicode="&#x455;" horiz-adv-x="398" 
d="M203 -10q-96 0 -173 49l43 77q59 -37 122 -37q30 0 48 12.5t18 33.5q0 15 -14 28.5t-28.5 20t-43.5 17.5q-60 23 -93 54.5t-33 82.5q0 59 45.5 92t112.5 33q77 0 146 -40l-38 -73q-50 26 -99 26q-63 0 -63 -38q0 -20 20.5 -34.5t60.5 -28.5q65 -24 99.5 -56t34.5 -84
q0 -62 -45.5 -98.5t-119.5 -36.5z" />
    <glyph glyph-name="uni0456" unicode="&#x456;" horiz-adv-x="237" 
d="M119 539q-31 0 -49.5 18.5t-18.5 46.5t18.5 46.5t49.5 18.5t49.5 -19t18.5 -47q0 -27 -19 -45.5t-49 -18.5zM64 0v446h109v-446h-109z" />
    <glyph glyph-name="uni0457" unicode="&#x457;" horiz-adv-x="237" 
d="M38 540q-26 0 -42.5 17t-16.5 43t16.5 43.5t42.5 17.5t42 -17.5t16 -43.5t-16 -43t-42 -17zM198 540q-26 0 -42.5 17t-16.5 43t16.5 43.5t42.5 17.5t42.5 -17.5t16.5 -43.5t-16.5 -43t-42.5 -17zM64 0v446h109v-446h-109z" />
    <glyph glyph-name="uni0458" unicode="&#x458;" horiz-adv-x="241" 
d="M122 539q-30 0 -48.5 18.5t-18.5 45.5q0 28 18.5 47t48.5 19q32 0 50.5 -18.5t18.5 -47.5q0 -28 -19 -46t-50 -18zM-32 -232l-14 93q67 5 90.5 35.5t23.5 98.5v451h109v-451q0 -113 -46.5 -167t-162.5 -60z" />
    <glyph glyph-name="uni0459" unicode="&#x459;" horiz-adv-x="726" 
d="M543 284q72 0 115 -37t43 -104q0 -68 -43 -105.5t-115 -37.5h-206v352h-107l-14 -150q-18 -199 -197 -209l-12 92q95 6 108 148l19 213h313v-162h96zM523 83q69 0 69 60q0 59 -69 59h-76v-119h76z" />
    <glyph glyph-name="uni045A" unicode="&#x45a;" horiz-adv-x="728" 
d="M546 284q72 0 114.5 -36.5t42.5 -104.5q0 -67 -43 -105t-114 -38h-207v195h-166v-195h-109v446h109v-161h166v161h110v-162h97zM526 84q69 0 69 59q0 57 -69 57h-77v-116h77z" />
    <glyph glyph-name="uni045B" unicode="&#x45b;" horiz-adv-x="526" 
d="M309 445q78 0 118 -47.5t40 -129.5v-268h-109v262q0 38 -19 61.5t-58 23.5q-52 0 -80 -37t-28 -93v-217h-109v538h-60v61h60v100h109v-100h160v-61h-160v-96q0 -41 -1 -67q44 70 137 70z" />
    <glyph glyph-name="uni045C" unicode="&#x45c;" horiz-adv-x="465" 
d="M384 623l-158 -102l-45 51l142 122zM267 230l192 -225v-5h-125l-161 190v-190h-109v446h109v-177l147 177h124v-4z" />
    <glyph glyph-name="uni045D" unicode="&#x45d;" horiz-adv-x="524" 
d="M355 577l-45 -51l-160 101l63 72zM418 446h42v-446h-108v204q0 34 2 52q-17 -21 -40 -44l-208 -213h-42v447h108v-200q0 -37 -2 -55q15 18 45 50z" />
    <glyph glyph-name="uni045E" unicode="&#x45e;" horiz-adv-x="489" 
d="M245 524q-101 0 -146 86l59 44q31 -52 87 -52q55 0 86 52l60 -43q-22 -42 -60 -64.5t-86 -22.5zM365 446h115v-3l-177 -455q-40 -104 -91 -153t-150 -61l-17 90q63 8 96.5 39t59.5 93l2 5l-194 442v3h118l78 -192q27 -63 47 -127q15 54 42 127z" />
    <glyph glyph-name="uni045F" unicode="&#x45f;" horiz-adv-x="524" 
d="M460 446v-446h-148v-114h-100v114h-148v446h109v-352h178v352h109z" />
    <glyph glyph-name="uni0490" unicode="&#x490;" horiz-adv-x="526" 
d="M83 0v680h318v152h107v-261h-307v-571h-118z" />
    <glyph glyph-name="uni0491" unicode="&#x491;" horiz-adv-x="388" 
d="M64 0v446h204v109h99v-203h-193v-352h-110z" />
    <glyph glyph-name="Wgrave" unicode="&#x1e80;" horiz-adv-x="965" 
d="M525 746l-167 105l66 76l148 -127zM827 680h123v-3l-239 -681h-35l-165 361q-16 34 -29 75q-18 -51 -29 -75l-165 -361h-35l-238 681v3h124l119 -354q23 -71 30 -101q19 56 39 100l140 314h29l135 -300q25 -54 46 -113q7 26 34 108z" />
    <glyph glyph-name="wgrave" unicode="&#x1e81;" horiz-adv-x="675" 
d="M388 521l-160 101l62 72l143 -122zM548 446h115v-3l-167 -447h-34l-124 249l-125 -249h-33l-167 447v3h116l69 -198q8 -26 16 -54q10 25 25 55l87 175h23l87 -175q13 -23 26 -56q6 23 17 55z" />
    <glyph glyph-name="Wacute" unicode="&#x1e82;" horiz-adv-x="965" 
d="M594 852l-166 -106l-47 54l148 127zM827 680h123v-3l-239 -681h-35l-165 361q-20 46 -30 76q-11 -37 -28 -76l-165 -361h-35l-238 681v3h124l119 -354q25 -79 30 -102q19 54 39 101l140 314h29l135 -300q31 -70 46 -114q5 19 34 109z" />
    <glyph glyph-name="wacute" unicode="&#x1e83;" horiz-adv-x="675" 
d="M445 623l-158 -102l-45 51l142 122zM548 446h115v-3l-167 -447h-34l-124 249l-125 -249h-33l-167 447v3h116l69 -198q10 -30 16 -54q14 36 25 55l87 175h23l87 -175q13 -23 26 -56q6 23 17 55z" />
    <glyph glyph-name="Wdieresis" unicode="&#x1e84;" horiz-adv-x="965" 
d="M383 764q-28 0 -45.5 18t-17.5 44t17.5 45t45.5 19q27 0 45 -19t18 -44t-17.5 -44t-45.5 -19zM580 764q-28 0 -45.5 18.5t-17.5 44.5q0 25 18 44t45 19t45 -19t18 -44q0 -26 -17.5 -44.5t-45.5 -18.5zM827 680h123v-3l-239 -681h-35l-165 361q-16 34 -29 75
q-18 -51 -29 -75l-165 -361h-35l-238 681v3h124l119 -354q23 -71 30 -101q19 56 39 100l140 314h29l135 -300q25 -54 46 -113q7 26 34 108z" />
    <glyph glyph-name="wdieresis" unicode="&#x1e85;" horiz-adv-x="675" 
d="M252 543q-26 0 -42.5 17t-16.5 41t16 41.5t43 17.5q25 0 42 -17.5t17 -40.5q0 -24 -16.5 -41.5t-42.5 -17.5zM424 543q-26 0 -43 17.5t-17 40.5t17 41t43 18t42.5 -17.5t16.5 -41.5q0 -23 -17 -40.5t-42 -17.5zM548 446h115v-3l-167 -447h-34l-124 249l-125 -249h-33
l-167 447v3h116l69 -198q8 -26 16 -54q10 25 25 55l87 175h23l87 -175q13 -23 26 -56q6 23 17 55z" />
    <glyph glyph-name="uni1E9E" unicode="&#x1e9e;" horiz-adv-x="665" 
d="M446 419q82 -9 132 -65t50 -137q0 -96 -61 -156.5t-158 -60.5h-123v99h100q58 0 92 32.5t34 85.5t-34.5 85t-91.5 32h-69v59l118 188h-114q-61 0 -93.5 -37.5t-32.5 -106.5v-437h-116v436q0 118 63.5 181t181.5 63h259v-41z" />
    <glyph glyph-name="Ygrave" unicode="&#x1ef2;" horiz-adv-x="644" 
d="M365 746l-167 105l66 76l148 -127zM495 680h134v-3l-248 -382v-295h-118v295l-248 382v3h134l122 -192q31 -50 52 -94q15 36 51 94z" />
    <glyph glyph-name="ygrave" unicode="&#x1ef3;" horiz-adv-x="489" 
d="M296 521l-160 101l62 72l143 -122zM366 446h114v-3l-263 -663h-116v2l99 229l-191 432v3h118l95 -228q19 -47 30 -87q9 33 27 87z" />
    <glyph glyph-name="endash" unicode="&#x2013;" horiz-adv-x="519" 
d="M54 185v86h411v-86h-411z" />
    <glyph glyph-name="emdash" unicode="&#x2014;" horiz-adv-x="683" 
d="M54 185v85h575v-85h-575z" />
    <glyph glyph-name="quoteleft" unicode="&#x2018;" horiz-adv-x="207" 
d="M105 570q26 0 45 -18t19 -48q0 -32 -19.5 -49t-45.5 -17q-27 0 -46.5 21.5t-19.5 61.5q0 103 98 183l28 -30q-54 -50 -66 -104h7z" />
    <glyph glyph-name="quoteright" unicode="&#x2019;" horiz-adv-x="207" 
d="M108 698q27 0 46.5 -21.5t19.5 -61.5q0 -50 -26 -98t-71 -85l-29 29q54 50 66 105h-6q-26 0 -45.5 18t-19.5 48q0 31 20 48.5t45 17.5z" />
    <glyph glyph-name="quotesinglbase" unicode="&#x201a;" horiz-adv-x="259" 
d="M129 121q29 0 48 -20.5t19 -62.5q0 -104 -103 -182l-24 30q56 50 66 103h-6q-26 0 -45.5 18t-19.5 48q0 32 19.5 49t45.5 17z" />
    <glyph glyph-name="quotedblleft" unicode="&#x201c;" horiz-adv-x="376" 
d="M105 570q26 0 45 -18t19 -48q0 -31 -19.5 -48.5t-44.5 -17.5q-28 0 -47.5 21.5t-19.5 61.5q0 103 98 183l28 -29q-54 -51 -66 -105h7zM273 570q26 0 45 -18t19 -48q0 -32 -19.5 -49t-45.5 -17q-27 0 -46.5 21.5t-19.5 61.5q0 103 98 183l28 -29q-54 -51 -66 -105h7z" />
    <glyph glyph-name="quotedblright" unicode="&#x201d;" horiz-adv-x="376" 
d="M108 698q28 0 47.5 -21.5t19.5 -61.5q0 -102 -98 -183l-28 30q55 49 65 104h-6q-26 0 -45.5 18t-19.5 48q0 31 20 48.5t45 17.5zM276 698q28 0 47.5 -21.5t19.5 -61.5q0 -102 -98 -183l-28 30q54 50 66 104h-7q-26 0 -45 18t-19 48q0 31 19.5 48.5t44.5 17.5z" />
    <glyph glyph-name="quotedblbase" unicode="&#x201e;" horiz-adv-x="428" 
d="M129 121q29 0 48 -20.5t19 -62.5q0 -104 -103 -182l-24 30q56 50 66 103h-6q-26 0 -45.5 18t-19.5 48q0 32 19.5 49t45.5 17zM298 121q29 0 48 -20.5t19 -62.5q0 -104 -103 -182l-24 30q56 50 66 103h-6q-26 0 -45.5 18t-19.5 48q0 32 19.5 49t45.5 17z" />
    <glyph glyph-name="dagger" unicode="&#x2020;" horiz-adv-x="584" 
d="M242 -294v585h-193v91h193v299h99v-299h194v-91h-194v-585h-99z" />
    <glyph glyph-name="daggerdbl" unicode="&#x2021;" horiz-adv-x="584" 
d="M242 -294v299h-193v91h193v195h-193v91h193v299h99v-299h194v-91h-194v-195h194v-91h-194v-299h-99z" />
    <glyph glyph-name="bullet" unicode="&#x2022;" horiz-adv-x="325" 
d="M163 253q-41 0 -70.5 25t-29.5 72t29.5 72t70.5 25q40 0 69.5 -25t29.5 -72t-29.5 -72t-69.5 -25z" />
    <glyph glyph-name="ellipsis" unicode="&#x2026;" horiz-adv-x="708" 
d="M134 -12q-29 0 -50 18t-21 51q0 34 21 52t50 18t50 -18t21 -52q0 -33 -21 -51t-50 -18zM354 -12q-29 0 -49.5 18t-20.5 51q0 34 20.5 52t49.5 18t50 -18t21 -52q0 -33 -21 -51t-50 -18zM574 -12q-29 0 -49.5 18t-20.5 51q0 34 20.5 52t49.5 18t50 -18t21 -52
q0 -33 -21 -51t-50 -18z" />
    <glyph glyph-name="perthousand" unicode="&#x2030;" horiz-adv-x="1127" 
d="M187 385q-73 0 -114.5 45.5t-41.5 108.5q0 62 41.5 107.5t114.5 45.5q72 0 113.5 -45.5t41.5 -107.5q0 -63 -41 -108.5t-114 -45.5zM145 0l392 680h96l-391 -680h-97zM187 461q36 0 53 23.5t17 54.5t-17 54.5t-53 23.5t-53 -23.5t-17 -54.5t17 -54.5t53 -23.5zM584 -12
q-73 0 -114 45.5t-41 107.5q0 63 41 108.5t114 45.5t114.5 -45.5t41.5 -108.5q0 -62 -41.5 -107.5t-114.5 -45.5zM941 -12q-73 0 -114.5 45.5t-41.5 107.5q0 63 41.5 108.5t114.5 45.5t114 -45.5t41 -108.5q0 -62 -41.5 -107.5t-113.5 -45.5zM584 63q36 0 53 23.5t17 54.5
t-17 54.5t-53 23.5t-53 -23.5t-17 -54.5t17 -54.5t53 -23.5zM941 63q36 0 53 23.5t17 54.5t-17 54.5t-53 23.5t-53 -23.5t-17 -54.5t17 -54.5t53 -23.5z" />
    <glyph glyph-name="guilsinglleft" unicode="&#x2039;" horiz-adv-x="276" 
d="M152 44l-126 201l124 197l82 -45l-86 -152l87 -156z" />
    <glyph glyph-name="guilsinglright" unicode="&#x203a;" horiz-adv-x="276" 
d="M124 44l-82 45l88 156l-86 152l81 45l125 -197z" />
    <glyph glyph-name="fraction" unicode="&#x2044;" horiz-adv-x="132" 
d="M-145 0l353 680h75l-352 -680h-76z" />
    <glyph glyph-name="Euro" unicode="&#x20ac;" horiz-adv-x="585" 
d="M419 -12q-126 0 -209.5 69t-106.5 179h-81v70h71q0 3 -0.5 11t-0.5 12q0 11 2 33h-72v69h83q30 111 111.5 176t201.5 65q76 0 137 -29l-37 -94q-38 19 -98 19q-147 0 -192 -137h212l-26 -69h-200q-2 -10 -2 -32q0 -17 1 -24h182l-27 -70h-141q16 -64 67.5 -103.5
t134.5 -39.5q53 0 96 21l35 -94q-67 -32 -141 -32z" />
    <glyph glyph-name="uni20BD" unicode="&#x20bd;" horiz-adv-x="617" 
d="M358 249h-124v-55h252v-76h-252v-118h-118v118h-86v76h86v55h-86v89h86v323h248q105 0 165 -60.5t60 -148.5q0 -84 -60 -143.5t-171 -59.5zM234 559v-221h106q68 0 99.5 32t31.5 83q0 48 -33 77t-89 29h-115z" />
    <glyph glyph-name="uni2113" unicode="&#x2113;" horiz-adv-x="446" 
d="M257 -12q-147 0 -147 158v22q-18 -9 -66 -31l-31 67q67 30 97 46v249q0 88 41 140.5t120 52.5q73 0 108.5 -50.5t35.5 -114.5q0 -102 -57 -177.5t-162 -136.5v-60q0 -36 17 -61t51 -25q45 0 80 33l40 -66q-51 -46 -127 -46zM196 302q137 94 137 226q0 32 -16 58.5
t-47 26.5q-35 0 -54.5 -30t-19.5 -83v-198z" />
    <glyph glyph-name="uni2116" unicode="&#x2116;" horiz-adv-x="1063" 
d="M888 416q-62 0 -103 37t-41 101t41 100.5t103 36.5t103 -36.5t41 -100.5t-41 -101t-103 -37zM549 311v369h117v-684h-46l-367 401q-40 43 -57 62q4 -50 4 -74v-385h-117v684h45l356 -391q46 -48 68 -73q-3 50 -3 91zM888 620q-28 0 -45.5 -18t-17.5 -48t17.5 -48.5
t45.5 -18.5t45.5 18.5t17.5 48.5t-17.5 48t-45.5 18zM754 295v68h265v-68h-265z" />
    <glyph glyph-name="uni2117" unicode="&#x2117;" horiz-adv-x="776" 
d="M388 -3q-151 0 -246.5 98.5t-95.5 244.5t95.5 244t246.5 98q150 0 245.5 -98t95.5 -244t-95.5 -244.5t-245.5 -98.5zM388 58q124 0 200.5 80t76.5 202q0 121 -76.5 200.5t-200.5 79.5q-123 0 -200.5 -79.5t-77.5 -200.5t77.5 -201.5t200.5 -80.5zM269 158v371h158
q57 0 90.5 -36.5t33.5 -85.5q0 -54 -33.5 -90t-92.5 -36h-77v-123h-79zM348 348h61q63 0 63 59q0 24 -16 38.5t-46 14.5h-62v-112z" />
    <glyph glyph-name="trademark" unicode="&#x2122;" horiz-adv-x="658" 
d="M124 403v214h-83v63h232v-63h-82v-214h-67zM286 403l42 277h19l101 -136l101 136h19l41 -277h-69l-18 144l-66 -89h-16l-67 89l-18 -144h-69z" />
    <glyph glyph-name="uni2126" unicode="&#x2126;" horiz-adv-x="779" 
d="M60 0v99h105q-60 42 -91.5 107.5t-31.5 143.5q0 143 97.5 242.5t249.5 99.5q153 0 250 -99.5t97 -242.5q0 -78 -31 -143.5t-91 -107.5h105v-99h-266v94q80 27 127 94t47 155q0 107 -66.5 176t-171.5 69q-104 0 -170.5 -69t-66.5 -176q0 -88 47 -155t127 -94v-94h-266z
" />
    <glyph glyph-name="estimated" unicode="&#x212e;" horiz-adv-x="772" 
d="M391 -10q-153 0 -249 103t-96 258q0 152 97 255.5t248 103.5q150 0 241.5 -102.5t91.5 -256.5q0 -4 -0.5 -12t-0.5 -12h-556v-170q80 -111 224 -111q67 0 127.5 33t101.5 89l45 -34q-106 -144 -274 -144zM167 377h440v174q-77 104 -216 104q-145 0 -224 -109v-169z" />
    <glyph glyph-name="uni2153" unicode="&#x2153;" horiz-adv-x="647" 
d="M101 397v179l-38 -33l-38 41l104 99h36v-286h-64zM82 0l353 680h75l-352 -680h-76zM500 -11q-61 0 -100 36l34 45q22 -21 59 -21q45 0 45 37q0 35 -46 35h-32v51h26q39 0 39 32q0 14 -10 21.5t-24 7.5q-25 0 -46 -16l-36 43q38 33 92 33q37 0 63 -22t26 -56
q0 -48 -39 -64q22 -6 38 -26t16 -46q0 -41 -29 -65.5t-76 -24.5z" />
    <glyph glyph-name="uni2154" unicode="&#x2154;" horiz-adv-x="705" 
d="M248 455v-58h-203v27l106 129q21 28 21 47q0 31 -32 31q-25 0 -43 -37l-50 25q24 72 97 72q42 0 68 -25.5t26 -61.5q0 -40 -34 -84l-52 -65h96zM493 680h75l-352 -680h-76zM609 151q22 -6 38 -26t16 -46q0 -41 -29 -65.5t-76 -24.5q-61 0 -100 36l34 45q22 -21 59 -21
q45 0 45 37q0 35 -46 35h-32v51h26q39 0 39 32q0 14 -10 21.5t-24 7.5q-25 0 -46 -16l-36 43q38 33 92 33q37 0 63 -22t26 -56q0 -48 -39 -64z" />
    <glyph glyph-name="oneeighth" unicode="&#x215b;" horiz-adv-x="656" 
d="M101 397v179l-38 -33l-38 41l104 99h36v-286h-64zM82 0l353 680h75l-352 -680h-76zM508 -11q-48 0 -77.5 23.5t-29.5 67.5q0 48 45 71q-32 24 -32 63q0 37 26.5 58.5t67.5 21.5t67 -21.5t26 -57.5q0 -42 -33 -63q46 -23 46 -72q0 -44 -29 -67.5t-77 -23.5zM508 176
q13 0 21.5 9t8.5 22q0 14 -8.5 23t-21.5 9q-14 0 -22.5 -9t-8.5 -23q0 -13 8.5 -22t22.5 -9zM508 45q18 0 29.5 11t11.5 29t-12 29.5t-30 11.5q-19 0 -30 -11.5t-11 -29.5t11.5 -29t30.5 -11z" />
    <glyph glyph-name="threeeighths" unicode="&#x215c;" horiz-adv-x="717" 
d="M141 386q-61 0 -100 36l34 45q23 -21 59 -21q45 0 45 37q0 35 -46 35h-32v51h26q39 0 39 32q0 14 -10 21.5t-24 7.5q-25 0 -46 -16l-36 43q38 33 92 33q37 0 63 -22t26 -56q0 -48 -39 -64q22 -6 38 -26t16 -46q0 -40 -29 -65t-76 -25zM143 0l353 680h75l-352 -680h-76z
M569 -11q-48 0 -77.5 23.5t-29.5 67.5q0 48 45 71q-32 24 -32 63q0 37 26.5 58.5t67.5 21.5t67 -21.5t26 -57.5q0 -42 -33 -63q46 -23 46 -72q0 -44 -29 -67.5t-77 -23.5zM569 176q13 0 21.5 9t8.5 22q0 14 -8.5 23t-21.5 9q-14 0 -22.5 -9t-8.5 -23q0 -13 9 -22t22 -9z
M569 45q18 0 29.5 11t11.5 29t-12 29.5t-30 11.5q-19 0 -30 -11.5t-11 -29.5t11.5 -29t30.5 -11z" />
    <glyph glyph-name="fiveeighths" unicode="&#x215d;" horiz-adv-x="714" 
d="M137 386q-57 0 -94 36l36 44q21 -21 52 -21q20 0 32 11.5t12 30.5q0 43 -58 43q-23 0 -47 -7l-6 6l18 151h147v-59h-95l-5 -47q3 0 8.5 0.5t7.5 0.5q41 0 69 -23.5t28 -66.5q0 -45 -29 -72t-76 -27zM140 0l353 680h75l-352 -680h-76zM566 -11q-48 0 -77.5 23.5
t-29.5 67.5q0 48 45 71q-32 24 -32 63q0 37 26.5 58.5t67.5 21.5t67 -21.5t26 -57.5q0 -42 -33 -63q46 -23 46 -72q0 -44 -29 -67.5t-77 -23.5zM566 176q13 0 21.5 9t8.5 22q0 14 -8.5 23t-21.5 9q-14 0 -22.5 -9t-8.5 -23q0 -13 8.5 -22t22.5 -9zM566 45q18 0 29.5 11
t11.5 29t-12 29.5t-30 11.5q-19 0 -30 -11.5t-11 -29.5t11.5 -29t30.5 -11z" />
    <glyph glyph-name="seveneighths" unicode="&#x215e;" horiz-adv-x="654" 
d="M58 397l90 224h-105v59h190v-13l-107 -270h-68zM80 0l353 680h75l-352 -680h-76zM506 -11q-48 0 -77.5 23.5t-29.5 67.5q0 48 45 71q-32 24 -32 63q0 37 26.5 58.5t67.5 21.5t67 -21.5t26 -57.5q0 -42 -33 -63q46 -23 46 -72q0 -44 -29 -67.5t-77 -23.5zM506 176
q13 0 21.5 9t8.5 22q0 14 -8.5 23t-21.5 9q-14 0 -22.5 -9t-8.5 -23q0 -13 8.5 -22t22.5 -9zM506 45q18 0 29.5 11t11.5 29t-12 29.5t-30 11.5q-19 0 -30 -11.5t-11 -29.5t11.5 -29t30.5 -11z" />
    <glyph glyph-name="arrowleft" unicode="&#x2190;" horiz-adv-x="622" 
d="M603 278h-354q-33 0 -54 1q20 -16 39 -35l96 -95l-69 -70l-252 252l253 252l68 -69l-94 -94q-17 -17 -41 -38q40 2 55 2h353v-106z" />
    <glyph glyph-name="arrowup" unicode="&#x2191;" horiz-adv-x="532" 
d="M213 48v354q0 34 1 54q-17 -22 -35 -38l-95 -97l-70 70l252 252l252 -253l-69 -69l-94 94l-38 41q2 -38 2 -54v-354h-106z" />
    <glyph glyph-name="arrowright" unicode="&#x2192;" horiz-adv-x="622" 
d="M18 425h354q34 0 55 -1q-16 12 -39 35l-96 95l69 70l252 -252l-253 -252l-68 69l93 94q23 22 42 38q-40 -2 -55 -2h-354v106z" />
    <glyph glyph-name="arrowdown" unicode="&#x2193;" horiz-adv-x="532" 
d="M319 656v-354q0 -33 -1 -54q7 8 35 39l95 96l70 -69l-252 -253l-252 253l69 69l94 -94q17 -17 38 -41q-2 40 -2 55v353h106z" />
    <glyph glyph-name="arrowboth" unicode="&#x2194;" horiz-adv-x="813" 
d="M261 101l-252 252l253 251l68 -69l-93 -93q-21 -21 -42 -38q21 1 55 1h313q34 0 55 -1q-19 14 -39 36l-96 95l69 69l252 -251l-253 -252l-68 69l93 93q21 21 42 38q-20 -1 -55 -1h-313q-34 0 -55 1q16 -12 39 -35l96 -96z" />
    <glyph glyph-name="arrowupdn" unicode="&#x2195;" horiz-adv-x="532" 
d="M14 500l252 252l252 -253l-69 -68l-94 93q-23 25 -37 42q1 -21 1 -55v-314q0 -33 -1 -54q12 16 35 39l95 96l70 -69l-252 -253l-252 253l69 69l94 -93q10 -10 38 -42q-1 19 -1 55v313q0 34 1 55q-19 -23 -36 -39l-95 -96z" />
    <glyph glyph-name="uni2196" unicode="&#x2196;" horiz-adv-x="488" 
d="M402 86l-251 251q-24 24 -37 39q2 -19 2 -52l1 -135l-98 -1l-1 357l357 -1v-97h-132q-15 0 -57 2q22 -20 40 -37l251 -251z" />
    <glyph glyph-name="uni2197" unicode="&#x2197;" horiz-adv-x="488" 
d="M12 166l250 250q24 24 39 38q-19 -3 -52 -3l-135 -1l-1 99h357l-1 -357h-97v133q0 14 2 56q-20 -22 -37 -40l-251 -250z" />
    <glyph glyph-name="uni2198" unicode="&#x2198;" horiz-adv-x="488" 
d="M86 584l250 -251q21 -19 38 -39q-2 20 -2 52l-1 136h98v-356h-357l1 98h132q14 0 56 -2q-2 2 -17 15.5t-23 21.5l-250 250z" />
    <glyph glyph-name="uni2199" unicode="&#x2199;" horiz-adv-x="488" 
d="M476 510l-250 -251q-9 -9 -39 -37q19 2 52 2l135 1l1 -98l-357 -1l1 357h97v-132q0 -15 -2 -57q15 17 37 41l250 250z" />
    <glyph glyph-name="partialdiff" unicode="&#x2202;" horiz-adv-x="504" 
d="M247 -12q-88 0 -149.5 55t-61.5 150q0 103 59 163t139 60q69 0 115 -43q-31 84 -98.5 147.5t-153.5 94.5l47 90q155 -62 239.5 -187.5t84.5 -276.5q0 -109 -58 -181t-163 -72zM250 84q55 0 82 40.5t27 96.5q0 45 -29 73.5t-76 28.5t-79 -33.5t-32 -93.5q0 -47 29 -79.5
t78 -32.5z" />
    <glyph glyph-name="emptyset" unicode="&#x2205;" horiz-adv-x="809" 
d="M760 688l-95 -103q90 -98 90 -244q0 -150 -98.5 -251.5t-251.5 -101.5q-126 0 -220 73l-63 -69h-76l98 107q-89 100 -89 242q0 153 98.5 252t251.5 99q127 0 219 -70l60 66h76zM134 341q0 -109 62 -185l377 411q-70 51 -168 51q-123 0 -197 -77.5t-74 -199.5zM676 341
q0 113 -62 187l-378 -411q69 -55 169 -55q123 0 197 79.5t74 199.5z" />
    <glyph glyph-name="uni2206" unicode="&#x2206;" horiz-adv-x="669" 
d="M5 0v4l313 680h33l313 -681v-3h-659zM165 95h337l-168 367z" />
    <glyph glyph-name="product" unicode="&#x220f;" horiz-adv-x="700" 
d="M83 0v680h534v-680h-118v578h-298v-578h-118z" />
    <glyph glyph-name="summation" unicode="&#x2211;" horiz-adv-x="551" 
d="M36 0v45l204 295l-204 295v45h486v-103h-314l167 -237l-167 -237h314v-103h-486z" />
    <glyph glyph-name="minus" unicode="&#x2212;" horiz-adv-x="514" 
d="M59 294v90h396v-90h-396z" />
    <glyph glyph-name="radical" unicode="&#x221a;" horiz-adv-x="612" 
d="M530 725h111l-317 -725h-54l-144 314h-115v97h176l108 -249z" />
    <glyph glyph-name="infinity" unicode="&#x221e;" horiz-adv-x="717" 
d="M202 195q-63 0 -108 42.5t-45 112.5t45 112.5t108 42.5q83 0 157 -88q74 88 157 88q63 0 108 -42.5t45 -112.5t-45 -112.5t-108 -42.5q-83 0 -157 88q-74 -88 -157 -88zM211 285q44 0 99 65q-55 65 -99 65q-24 0 -44 -17t-20 -48t20 -48t44 -17zM507 285q24 0 43.5 17
t19.5 48t-19.5 48t-43.5 17q-45 0 -100 -65q55 -65 100 -65z" />
    <glyph glyph-name="integral" unicode="&#x222b;" horiz-adv-x="459" 
d="M112 -182q-62 0 -120 42l43 80q36 -25 69 -25q69 0 69 85v513q0 87 47 133t120 46q63 0 119 -42l-42 -80q-37 25 -69 25q-69 0 -69 -85v-513q0 -87 -47 -133t-120 -46z" />
    <glyph glyph-name="approxequal" unicode="&#x2248;" horiz-adv-x="572" 
d="M133 355l-77 40q36 115 135 115q42 0 96 -33q58 -34 80 -34q41 0 60 60l79 -39q-33 -119 -131 -119q-39 0 -93 31q-2 1 -13.5 8t-15 9t-13 6.5t-15 6.5t-13 3.5t-14.5 1.5q-26 0 -40 -14t-25 -42zM143 164l-77 41q36 114 135 114q40 0 96 -32q3 -2 16 -10t18 -10.5
t14.5 -7t17 -6t14.5 -1.5q41 0 60 61l79 -39q-33 -119 -131 -119q-39 0 -93 31q-58 34 -84 34t-40 -13.5t-25 -42.5z" />
    <glyph glyph-name="notequal" unicode="&#x2260;" horiz-adv-x="517" 
d="M448 391h-121l-59 -100h180v-91h-233l-63 -109l-57 36l42 73h-63v91h116l59 100h-175v91h228l63 109l59 -33l-44 -76h68v-91z" />
    <glyph glyph-name="lessequal" unicode="&#x2264;" horiz-adv-x="429" 
d="M377 225l-340 144v93l340 144v-105l-217 -85l217 -86v-105zM377 91h-340v88h340v-88z" />
    <glyph glyph-name="greaterequal" unicode="&#x2265;" horiz-adv-x="429" 
d="M52 225v105l217 86l-217 85v105l340 -144v-93zM52 91v88h340v-88h-340z" />
    <glyph glyph-name="lozenge" unicode="&#x25ca;" horiz-adv-x="555" 
d="M260 0l-231 340l231 340h35l231 -340l-231 -340h-35zM277 156l125 184l-125 181l-124 -181z" />
    <glyph glyph-name="i.loclTRK" horiz-adv-x="237" 
d="M118 543q-28 0 -46.5 19t-18.5 46q0 28 18.5 47t46.5 19q30 0 48.5 -19t18.5 -48q0 -27 -19 -45.5t-48 -18.5zM64 0v446h109v-446h-109z" />
    <glyph glyph-name="germandbls.calt" horiz-adv-x="665" 
d="M446 419q82 -9 132 -65t50 -137q0 -96 -61 -156.5t-158 -60.5h-123v99h100q58 0 92 32.5t34 85.5t-34.5 85t-91.5 32h-69v59l118 188h-114q-61 0 -93.5 -37.5t-32.5 -106.5v-437h-116v436q0 118 63.5 181t181.5 63h259v-41z" />
    <glyph glyph-name="a.ss01" horiz-adv-x="572" 
d="M428 446h80v-446h-81l-15 63q-59 -74 -161 -74q-94 0 -153.5 64.5t-59.5 169.5q0 103 60 168.5t155 65.5q98 0 157 -75zM274 84q58 0 93.5 37.5t35.5 101.5q0 63 -35.5 100.5t-93.5 37.5q-56 0 -91 -37.5t-35 -100.5q0 -64 35 -101.5t91 -37.5z" />
    <glyph glyph-name="aacute.ss01" horiz-adv-x="572" 
d="M381 623l-158 -102l-45 51l142 122zM428 446h80v-446h-81l-15 63q-59 -74 -161 -74q-94 0 -153.5 64.5t-59.5 169.5q0 103 60 168.5t155 65.5q98 0 157 -75zM274 84q58 0 93.5 37.5t35.5 101.5q0 63 -35.5 100.5t-93.5 37.5q-56 0 -91 -37.5t-35 -100.5q0 -64 35 -101.5
t91 -37.5z" />
    <glyph glyph-name="abreve.ss01" horiz-adv-x="572" 
d="M273 520q-48 0 -84 27.5t-50 81.5l62 27q7 -27 27 -42.5t45 -15.5t45 15.5t27 42.5l62 -27q-14 -54 -49.5 -81.5t-84.5 -27.5zM428 446h80v-446h-81l-15 63q-59 -74 -161 -74q-94 0 -153.5 64.5t-59.5 169.5q0 103 60 168.5t155 65.5q98 0 157 -75zM274 84
q58 0 93.5 37.5t35.5 101.5q0 63 -35.5 100.5t-93.5 37.5q-56 0 -91 -37.5t-35 -100.5q0 -64 35 -101.5t91 -37.5z" />
    <glyph glyph-name="acircumflex.ss01" horiz-adv-x="572" 
d="M273 580l-95 -67l-40 50l127 106h17l125 -107l-39 -49zM428 446h80v-446h-81l-15 63q-59 -74 -161 -74q-94 0 -153.5 64.5t-59.5 169.5q0 103 60 168.5t155 65.5q98 0 157 -75zM274 84q58 0 93.5 37.5t35.5 101.5q0 63 -35.5 100.5t-93.5 37.5q-56 0 -91 -37.5
t-35 -100.5q0 -64 35 -101.5t91 -37.5z" />
    <glyph glyph-name="adieresis.ss01" horiz-adv-x="572" 
d="M187 543q-26 0 -42.5 17t-16.5 41t16 41.5t43 17.5q25 0 42 -17.5t17 -40.5q0 -24 -16.5 -41.5t-42.5 -17.5zM359 543q-26 0 -43 17.5t-17 40.5t17 41t43 18t42.5 -17.5t16.5 -41.5q0 -23 -17 -40.5t-42 -17.5zM428 446h80v-446h-81l-15 63q-59 -74 -161 -74
q-94 0 -153.5 64.5t-59.5 169.5q0 103 60 168.5t155 65.5q98 0 157 -75zM274 84q58 0 93.5 37.5t35.5 101.5q0 63 -35.5 100.5t-93.5 37.5q-56 0 -91 -37.5t-35 -100.5q0 -64 35 -101.5t91 -37.5z" />
    <glyph glyph-name="agrave.ss01" horiz-adv-x="572" 
d="M324 521l-160 101l62 72l143 -122zM428 446h80v-446h-81l-15 63q-59 -74 -161 -74q-94 0 -153.5 64.5t-59.5 169.5q0 103 60 168.5t155 65.5q98 0 157 -75zM274 84q58 0 93.5 37.5t35.5 101.5q0 63 -35.5 100.5t-93.5 37.5q-56 0 -91 -37.5t-35 -100.5q0 -64 35 -101.5
t91 -37.5z" />
    <glyph glyph-name="amacron.ss01" horiz-adv-x="572" 
d="M139 547v79h268v-79h-268zM428 446h80v-446h-81l-15 63q-59 -74 -161 -74q-94 0 -153.5 64.5t-59.5 169.5q0 103 60 168.5t155 65.5q98 0 157 -75zM274 84q58 0 93.5 37.5t35.5 101.5q0 63 -35.5 100.5t-93.5 37.5q-56 0 -91 -37.5t-35 -100.5q0 -64 35 -101.5t91 -37.5z
" />
    <glyph glyph-name="aogonek.ss01" horiz-adv-x="580" 
d="M513 -124l24 -67q-37 -26 -90 -26q-50 0 -76 25t-26 63q0 67 87 140l-12 52q-59 -74 -161 -74q-94 0 -153.5 64.5t-59.5 169.5q0 103 60 168.5t155 65.5q99 0 157 -75l18 64h80v-445l1 -1q-78 -62 -78 -109q0 -29 32 -29q22 0 42 14zM282 84q58 0 93.5 37.5t35.5 101.5
q0 63 -35.5 100.5t-93.5 37.5q-56 0 -91 -37.5t-35 -100.5q0 -64 35 -101.5t91 -37.5z" />
    <glyph glyph-name="atilde.ss01" horiz-adv-x="572" 
d="M191 540l-61 34q33 81 88 81q30 0 59 -16q32 -16 44 -16q19 0 33 31l61 -33q-31 -80 -87 -80q-27 0 -55 14q-32 17 -46 17q-23 0 -36 -32zM428 446h80v-446h-81l-15 63q-59 -74 -161 -74q-94 0 -153.5 64.5t-59.5 169.5q0 103 60 168.5t155 65.5q98 0 157 -75zM274 84
q58 0 93.5 37.5t35.5 101.5q0 63 -35.5 100.5t-93.5 37.5q-56 0 -91 -37.5t-35 -100.5q0 -64 35 -101.5t91 -37.5z" />
    <glyph glyph-name="ae.ss01" horiz-adv-x="840" 
d="M641 78q73 0 122 40l43 -70q-69 -58 -163 -58q-107 0 -156 73l-6 -63h-75l-6 58q-57 -68 -153 -68q-92 0 -150.5 64.5t-58.5 167.5t59 168.5t152 65.5q94 0 148 -66l9 56h73l10 -62q48 74 154 74q71 0 119.5 -41t48.5 -111q0 -134 -192 -134q-60 0 -111 7
q11 -49 46.5 -75t86.5 -26zM627 370q-49 0 -81 -31t-40 -85q49 -7 103 -7q103 0 103 60q0 29 -23.5 46t-61.5 17zM270 85q61 0 92.5 38t31.5 99t-31 99.5t-93 38.5q-55 0 -88.5 -38t-33.5 -100q0 -63 33.5 -100t88.5 -37z" />
    <glyph glyph-name="aeacute.ss01" horiz-adv-x="840" 
d="M552 623l-158 -102l-45 51l142 122zM641 78q73 0 122 40l43 -70q-69 -58 -163 -58q-107 0 -156 73l-6 -63h-75l-6 58q-57 -68 -153 -68q-92 0 -150.5 64.5t-58.5 167.5t59 168.5t152 65.5q94 0 148 -66l9 56h73l10 -62q48 74 154 74q71 0 119.5 -41t48.5 -111
q0 -134 -192 -134q-60 0 -111 7q11 -49 46.5 -75t86.5 -26zM627 370q-49 0 -81 -31t-40 -85q49 -7 103 -7q103 0 103 60q0 29 -23.5 46t-61.5 17zM270 85q61 0 92.5 38t31.5 99t-31 99.5t-93 38.5q-55 0 -88.5 -38t-33.5 -100q0 -63 33.5 -100t88.5 -37z" />
    <glyph glyph-name="e.ss01" horiz-adv-x="484" 
d="M287 76q69 0 121 43l42 -72q-74 -60 -176 -60q-108 0 -173 66t-65 170q0 99 63 167t168 68q84 0 135.5 -43.5t51.5 -111.5q0 -65 -50 -98t-139 -33q-61 0 -117 7q12 -49 49 -76t90 -27zM269 371q-51 0 -83.5 -31t-40.5 -86q45 -6 104 -6q54 0 80 13t26 44q0 29 -24 47.5
t-62 18.5z" />
    <glyph glyph-name="eacute.ss01" horiz-adv-x="484" 
d="M369 623l-158 -102l-45 51l142 122zM287 76q69 0 121 43l42 -72q-74 -60 -176 -60q-108 0 -173 66t-65 170q0 99 63 167t168 68q84 0 135.5 -43.5t51.5 -111.5q0 -65 -50 -98t-139 -33q-61 0 -117 7q12 -49 49 -76t90 -27zM269 371q-51 0 -83.5 -31t-40.5 -86
q46 -6 104 -6q54 0 80 13t26 44q0 29 -24 47.5t-62 18.5z" />
    <glyph glyph-name="ebreve.ss01" horiz-adv-x="484" 
d="M261 520q-48 0 -84 27.5t-50 81.5l62 27q7 -27 27 -42.5t45 -15.5t45 15.5t27 42.5l62 -27q-14 -54 -49.5 -81.5t-84.5 -27.5zM287 76q69 0 121 43l42 -72q-74 -60 -176 -60q-108 0 -173 66t-65 170q0 99 63 167t168 68q84 0 135.5 -43.5t51.5 -111.5q0 -65 -50 -98
t-139 -33q-61 0 -117 7q12 -49 49 -76t90 -27zM269 371q-51 0 -83.5 -31t-40.5 -86q46 -6 104 -6q54 0 80 13t26 44q0 29 -24 47.5t-62 18.5z" />
    <glyph glyph-name="ecaron.ss01" horiz-adv-x="484" 
d="M269 518h-17l-125 108l38 48l95 -67l96 67l40 -49zM287 76q69 0 121 43l42 -72q-74 -60 -176 -60q-108 0 -173 66t-65 170q0 99 63 167t168 68q84 0 135.5 -43.5t51.5 -111.5q0 -65 -50 -98t-139 -33q-61 0 -117 7q12 -49 49 -76t90 -27zM269 371q-51 0 -83.5 -31
t-40.5 -86q46 -6 104 -6q54 0 80 13t26 44q0 29 -24 47.5t-62 18.5z" />
    <glyph glyph-name="ecircumflex.ss01" horiz-adv-x="484" 
d="M261 580l-95 -67l-40 50l127 106h17l125 -107l-39 -49zM287 76q69 0 121 43l42 -72q-74 -60 -176 -60q-108 0 -173 66t-65 170q0 99 63 167t168 68q84 0 135.5 -43.5t51.5 -111.5q0 -65 -50 -98t-139 -33q-61 0 -117 7q12 -49 49 -76t90 -27zM269 371q-51 0 -83.5 -31
t-40.5 -86q46 -6 104 -6q54 0 80 13t26 44q0 29 -24 47.5t-62 18.5z" />
    <glyph glyph-name="edieresis.ss01" horiz-adv-x="484" 
d="M175 543q-26 0 -42.5 17t-16.5 41t16 41.5t43 17.5q25 0 42 -17.5t17 -40.5q0 -24 -16.5 -41.5t-42.5 -17.5zM347 543q-26 0 -43 17.5t-17 40.5t17 41t43 18t42.5 -17.5t16.5 -41.5q0 -23 -17 -40.5t-42 -17.5zM287 76q69 0 121 43l42 -72q-74 -60 -176 -60
q-108 0 -173 66t-65 170q0 99 63 167t168 68q84 0 135.5 -43.5t51.5 -111.5q0 -65 -50 -98t-139 -33q-61 0 -117 7q12 -49 49 -76t90 -27zM269 371q-51 0 -83.5 -31t-40.5 -86q45 -6 104 -6q54 0 80 13t26 44q0 29 -24 47.5t-62 18.5z" />
    <glyph glyph-name="edotaccent.ss01" horiz-adv-x="484" 
d="M261 536q-27 0 -45.5 18t-18.5 45q0 28 18 46.5t46 18.5t46 -18.5t18 -46.5q0 -27 -18.5 -45t-45.5 -18zM287 76q69 0 121 43l42 -72q-74 -60 -176 -60q-108 0 -173 66t-65 170q0 99 63 167t168 68q84 0 135.5 -43.5t51.5 -111.5q0 -65 -50 -98t-139 -33q-61 0 -117 7
q12 -49 49 -76t90 -27zM269 371q-51 0 -83.5 -31t-40.5 -86q45 -6 104 -6q54 0 80 13t26 44q0 29 -24 47.5t-62 18.5z" />
    <glyph glyph-name="egrave.ss01" horiz-adv-x="484" 
d="M312 521l-160 101l62 72l143 -122zM287 76q69 0 121 43l42 -72q-74 -60 -176 -60q-108 0 -173 66t-65 170q0 99 63 167t168 68q84 0 135.5 -43.5t51.5 -111.5q0 -65 -50 -98t-139 -33q-61 0 -117 7q12 -49 49 -76t90 -27zM269 371q-51 0 -83.5 -31t-40.5 -86
q45 -6 104 -6q54 0 80 13t26 44q0 29 -24 47.5t-62 18.5z" />
    <glyph glyph-name="emacron.ss01" horiz-adv-x="484" 
d="M127 547v79h268v-79h-268zM287 76q69 0 121 43l42 -72q-74 -60 -176 -60q-108 0 -173 66t-65 170q0 99 63 167t168 68q84 0 135.5 -43.5t51.5 -111.5q0 -65 -50 -98t-139 -33q-61 0 -117 7q12 -49 49 -76t90 -27zM269 371q-51 0 -83.5 -31t-40.5 -86q45 -6 104 -6
q54 0 80 13t26 44q0 29 -24 47.5t-62 18.5z" />
    <glyph glyph-name="eogonek.ss01" horiz-adv-x="484" 
d="M455 48q-111 -101 -111 -158q0 -30 33 -30q18 0 41 14l24 -66q-38 -27 -90 -27q-50 0 -76.5 24.5t-26.5 63.5q0 56 62 121q-24 -2 -36 -2q-108 0 -173 65.5t-65 169.5q0 99 63 167t168 68q84 0 135.5 -43.5t51.5 -110.5q0 -65 -50 -98.5t-140 -33.5q-60 0 -116 7
q12 -49 49.5 -75.5t91.5 -26.5q69 0 120 40zM268 370q-49 0 -81.5 -31t-40.5 -85q46 -6 104 -6q54 0 80 13t26 45q0 28 -24.5 46t-63.5 18z" />
    <glyph glyph-name="g.ss01" horiz-adv-x="472" 
d="M319 52q67 -4 105 -34t38 -86q0 -69 -62 -116.5t-160 -47.5q-105 0 -158 43.5t-53 106.5q0 65 47 104q-29 29 -29 70q0 49 41 84q-42 45 -42 111q0 73 51.5 122t143.5 49q36 0 108 -6.5t108 -6.5v-67l-66 -5q42 -40 42 -96q0 -68 -51 -114t-141 -46q-45 0 -81 12
q-7 -10 -7 -25q0 -42 63 -45zM241 373q-40 0 -62.5 -24.5t-22.5 -62.5t22.5 -62.5t62.5 -24.5q41 0 63 24.5t22 62.5t-22 62.5t-63 24.5zM245 -150q43 0 76.5 20t33.5 50q0 43 -60 46l-80 5q-32 2 -53 7q-23 -21 -23 -57q0 -30 26.5 -50.5t79.5 -20.5z" />
    <glyph glyph-name="gbreve.ss01" horiz-adv-x="472" 
d="M242 520q-48 0 -84 27.5t-50 81.5l62 27q7 -27 27 -42.5t45 -15.5t45 15.5t27 42.5l62 -27q-14 -54 -49.5 -81.5t-84.5 -27.5zM319 52q67 -4 105 -34t38 -86q0 -69 -62 -116.5t-160 -47.5q-105 0 -158 43.5t-53 106.5q0 65 47 104q-29 29 -29 70q0 50 41 84
q-42 45 -42 111q0 73 51.5 122t143.5 49q36 0 108 -6.5t108 -6.5v-67l-66 -5q42 -40 42 -96q0 -68 -51 -114t-141 -46q-45 0 -80 12q-8 -9 -8 -25q0 -42 63 -45zM241 373q-40 0 -62.5 -24.5t-22.5 -62.5t22.5 -62.5t62.5 -24.5q41 0 63 24.5t22 62.5t-22 62.5t-63 24.5z
M245 -150q43 0 76.5 20t33.5 50q0 43 -60 46l-80 5q-22 1 -53 7q-23 -20 -23 -57q0 -30 26.5 -50.5t79.5 -20.5z" />
    <glyph glyph-name="gcircumflex.ss01" horiz-adv-x="472" 
d="M241 580l-95 -67l-40 50l127 106h17l125 -107l-39 -49zM319 52q67 -4 105 -34t38 -86q0 -69 -62 -116.5t-160 -47.5q-105 0 -158 43.5t-53 106.5q0 65 47 104q-29 29 -29 70q0 50 41 84q-42 45 -42 111q0 73 51.5 122t143.5 49q36 0 108 -6.5t108 -6.5v-67l-66 -5
q42 -40 42 -96q0 -68 -51 -114t-141 -46q-45 0 -80 12q-8 -9 -8 -25q0 -42 63 -45zM241 373q-40 0 -62.5 -24.5t-22.5 -62.5t22.5 -62.5t62.5 -24.5q41 0 63 24.5t22 62.5t-22 62.5t-63 24.5zM245 -150q43 0 76.5 20t33.5 50q0 43 -60 46l-80 5q-22 1 -53 7q-23 -20 -23 -57
q0 -30 26.5 -50.5t79.5 -20.5z" />
    <glyph glyph-name="uni0123.ss01" horiz-adv-x="472" 
d="M316 718q-26 -86 -26 -188h-101q9 111 56 188h71zM319 52q67 -4 105 -34t38 -86q0 -69 -62 -116.5t-160 -47.5q-105 0 -158 43.5t-53 106.5q0 65 47 104q-29 29 -29 70q0 50 41 84q-42 45 -42 111q0 73 51.5 122t143.5 49q36 0 108 -6.5t108 -6.5v-67l-66 -5
q42 -40 42 -96q0 -68 -51 -114t-141 -46q-45 0 -80 12q-8 -9 -8 -25q0 -42 63 -45zM241 373q-40 0 -62.5 -24.5t-22.5 -62.5t22.5 -62.5t62.5 -24.5q41 0 63 24.5t22 62.5t-22 62.5t-63 24.5zM245 -150q43 0 76.5 20t33.5 50q0 43 -60 46l-80 5q-22 1 -53 7q-23 -20 -23 -57
q0 -30 26.5 -50.5t79.5 -20.5z" />
    <glyph glyph-name="gdotaccent.ss01" horiz-adv-x="472" 
d="M242 536q-28 0 -46 18t-18 45q0 28 18 46.5t46 18.5t46 -18.5t18 -46.5q0 -27 -18 -45t-46 -18zM319 52q67 -4 105 -34t38 -86q0 -69 -62 -116.5t-160 -47.5q-105 0 -158 43.5t-53 106.5q0 65 47 104q-29 29 -29 70q0 49 41 84q-42 45 -42 111q0 73 51.5 122t143.5 49
q36 0 108 -6.5t108 -6.5v-67l-66 -5q42 -40 42 -96q0 -68 -51 -114t-141 -46q-45 0 -81 12q-7 -10 -7 -25q0 -42 63 -45zM241 373q-40 0 -62.5 -24.5t-22.5 -62.5t22.5 -62.5t62.5 -24.5q41 0 63 24.5t22 62.5t-22 62.5t-63 24.5zM245 -150q43 0 76.5 20t33.5 50
q0 43 -60 46l-80 5q-32 2 -53 7q-23 -21 -23 -57q0 -30 26.5 -50.5t79.5 -20.5z" />
    <glyph glyph-name="y.ss01" horiz-adv-x="523" 
d="M350 446h109v-469q0 -102 -61 -155.5t-155 -53.5q-112 0 -182 65l42 82q52 -49 132 -49q50 0 82 29t32 82v78q-43 -64 -133 -64q-75 0 -116 47.5t-41 128.5v279h109v-274q0 -38 19.5 -60.5t58.5 -22.5q49 0 76.5 36t27.5 94v227z" />
    <glyph glyph-name="yacute.ss01" horiz-adv-x="523" 
d="M366 623l-158 -102l-45 51l142 122zM350 446h109v-469q0 -102 -61 -155.5t-155 -53.5q-112 0 -182 65l42 82q52 -49 132 -49q50 0 82 29t32 82v78q-43 -64 -133 -64q-75 0 -116 47.5t-41 128.5v279h109v-274q0 -38 19.5 -60.5t58.5 -22.5q49 0 76.5 36t27.5 94v227z" />
    <glyph glyph-name="ycircumflex.ss01" horiz-adv-x="523" 
d="M258 580l-95 -67l-40 50l127 106h17l125 -107l-39 -49zM350 446h109v-469q0 -102 -61 -155.5t-155 -53.5q-112 0 -182 65l42 82q52 -49 132 -49q50 0 82 29t32 82v78q-43 -64 -133 -64q-75 0 -116 47.5t-41 128.5v279h109v-274q0 -38 19.5 -60.5t58.5 -22.5q49 0 76.5 36
t27.5 94v227z" />
    <glyph glyph-name="ydieresis.ss01" horiz-adv-x="523" 
d="M172 543q-26 0 -42.5 17t-16.5 41t16 41.5t43 17.5q25 0 42 -17.5t17 -40.5q0 -24 -16.5 -41.5t-42.5 -17.5zM344 543q-26 0 -43 17.5t-17 40.5t17 41t43 18t42.5 -17.5t16.5 -41.5q0 -23 -17 -40.5t-42 -17.5zM350 446h109v-469q0 -102 -61 -155.5t-155 -53.5
q-112 0 -182 65l42 82q52 -49 132 -49q50 0 82 29t32 82v78q-43 -64 -133 -64q-75 0 -116 47.5t-41 128.5v279h109v-274q0 -38 19.5 -60.5t58.5 -22.5q49 0 76.5 36t27.5 94v227z" />
    <glyph glyph-name="ygrave.ss01" horiz-adv-x="523" 
d="M309 521l-160 101l62 72l143 -122zM350 446h109v-469q0 -102 -61 -155.5t-155 -53.5q-112 0 -182 65l42 82q52 -49 132 -49q50 0 82 29t32 82v78q-43 -64 -133 -64q-75 0 -116 47.5t-41 128.5v279h109v-274q0 -38 19.5 -60.5t58.5 -22.5q49 0 76.5 36t27.5 94v227z" />
    <glyph glyph-name="f_b" horiz-adv-x="918" 
d="M666 457q94 0 154.5 -65t60.5 -166q0 -106 -59.5 -171.5t-155.5 -65.5q-104 0 -161 78l-19 -67h-75v600q-51 36 -112 36q-93 0 -93 -97v-93h122v-93h-121v-353h-109v353h-83v93h83v103q0 86 47.5 135.5t132.5 49.5q82 0 146 -49l9 35h87v-199q0 -67 -3 -128q56 64 149 64
zM644 84q57 0 92 38.5t35 100.5t-35 100t-92 38q-58 0 -93.5 -38t-35.5 -100t35.5 -100.5t93.5 -38.5z" />
    <glyph glyph-name="f_f_b" horiz-adv-x="1271" 
d="M1019 457q94 0 154.5 -65t60.5 -166q0 -106 -59.5 -171.5t-155.5 -65.5q-105 0 -162 78l-17 -67h-76v597q-59 39 -122 39q-93 0 -93 -97v-93h119v-93h-118v-353h-109v353h-235v-353h-109v353h-82v93h82v118q0 77 42 123.5t117 46.5q61 0 116 -26l-31 -84q-29 12 -63 12
q-33 0 -52.5 -20.5t-19.5 -57.5v-112h235v103q0 86 47.5 135.5t132.5 49.5q87 0 156 -52l9 38h87v-199q0 -69 -3 -129q57 65 149 65zM997 84q57 0 92 38.5t35 100.5t-35 100t-92 38q-58 0 -93 -38t-35 -100q0 -63 35 -101t93 -38z" />
    <glyph glyph-name="f_f_h" horiz-adv-x="1225" 
d="M1005 458q76 0 119 -48t43 -127v-283h-109v276q0 38 -21 61t-60 23q-49 0 -76.5 -37t-27.5 -93v-230h-109v594q-58 42 -122 42q-93 0 -93 -97v-93h119v-93h-118v-353h-109v353h-235v-353h-109v353h-82v93h82v118q0 77 42 123.5t117 46.5q60 0 116 -26l-31 -84
q-29 12 -63 12q-33 0 -52.5 -20.5t-19.5 -57.5v-112h235v103q0 86 47.5 135.5t133.5 49.5q88 0 155 -57l11 43h85v-266q0 -40 -2 -66q47 70 134 70z" />
    <glyph glyph-name="f_f_j" horiz-adv-x="937" 
d="M873 446v-456q0 -110 -47 -163t-162 -59l-14 93q67 5 90.5 35.5t23.5 98.5v358h-214v-353h-109v353h-235v-353h-109v353h-82v93h82v118q0 77 42 123.5t117 46.5q58 0 116 -26l-31 -84q-27 12 -63 12q-33 0 -52.5 -20.5t-19.5 -57.5v-112h235v96q0 93 50 142.5t142 49.5
q103 0 190 -70l-42 -73q-64 45 -127 45q-105 0 -105 -100v-90h324z" />
    <glyph glyph-name="f_f_k" horiz-adv-x="1165" 
d="M967 230l192 -224v-6h-126l-160 190v-190h-109v597q-53 39 -122 39q-93 0 -93 -97v-93h118v-93h-117v-353h-109v353h-235v-353h-109v353h-82v93h82v118q0 77 42 123.5t117 46.5q60 0 116 -26l-31 -84q-27 12 -63 12q-33 0 -52.5 -20.5t-19.5 -57.5v-112h235v103
q0 86 47.5 135.5t133.5 49.5q88 0 155 -52l9 38h87v-451l148 177h123v-5z" />
    <glyph glyph-name="f_h" horiz-adv-x="872" 
d="M652 458q76 0 119 -48t43 -127v-283h-110v276q0 38 -20.5 61t-59.5 23q-49 0 -76.5 -37t-27.5 -93v-230h-109v600q-51 36 -112 36q-93 0 -93 -97v-93h122v-93h-122v-353h-109v353h-82v93h82v103q0 86 47.5 135.5t132.5 49.5t147 -49l8 35h88v-263q0 -42 -1 -69
q44 70 133 70z" />
    <glyph glyph-name="f_j" horiz-adv-x="591" 
d="M527 446v-456q0 -110 -47 -163t-162 -59l-14 93q67 5 90.5 35.5t23.5 98.5v358h-212v-353h-109v353h-82v93h82v96q0 93 50 142.5t143 49.5q112 0 205 -70l-42 -75q-67 47 -142 47q-105 0 -105 -101v-89h321z" />
    <glyph glyph-name="f_k" horiz-adv-x="811" 
d="M613 230l192 -224v-6h-126l-160 190v-190h-109v600q-51 36 -111 36q-93 0 -93 -97v-93h122v-93h-122v-353h-109v353h-82v93h82v103q0 86 47.5 135.5t132.5 49.5q83 0 147 -49l8 35h87v-451l148 177h123v-5z" />
    <glyph glyph-name="uni0414.loclBGR" horiz-adv-x="747" 
d="M661 106h76v-258h-111v152h-505v-152h-111v258h76l263 575h49zM352 429l-145 -328h331l-143 328q-13 30 -22 62q-7 -30 -21 -62z" />
    <glyph glyph-name="uni041B.loclBGR" horiz-adv-x="689" 
d="M363 684l321 -681v-3h-126l-182 398q-21 48 -31 89q-11 -41 -32 -88l-182 -399h-126v2l322 682h36z" />
    <glyph glyph-name="uni0424.loclBGR" horiz-adv-x="889" 
d="M843 343q0 -149 -91.5 -247.5t-249.5 -105.5v-103h-115v104q-152 7 -246.5 104t-94.5 245t92 246t249 105v104h115v-104q152 -7 246.5 -104t94.5 -244zM499 95q105 6 164 74.5t59 173.5q0 101 -61 170t-162 74v-492zM167 340q0 -101 61 -170.5t162 -74.5v491
q-104 -6 -163.5 -74t-59.5 -172z" />
    <glyph glyph-name="uni0414.ss02" horiz-adv-x="747" 
d="M661 106h76v-258h-111v152h-505v-152h-111v258h76l263 575h49zM352 429l-145 -328h331l-143 328q-13 30 -22 62q-7 -30 -21 -62z" />
    <glyph glyph-name="uni041B.ss02" horiz-adv-x="689" 
d="M363 684l321 -681v-3h-126l-182 398q-21 48 -31 89q-11 -41 -32 -88l-182 -399h-126v2l322 682h36z" />
    <glyph glyph-name="uni0424.ss02" horiz-adv-x="889" 
d="M843 343q0 -149 -91.5 -247.5t-249.5 -105.5v-103h-115v104q-152 7 -246.5 104t-94.5 245t92 246t249 105v104h115v-104q152 -7 246.5 -104t94.5 -244zM499 95q105 6 164 74.5t59 173.5q0 101 -61 170t-162 74v-492zM167 340q0 -101 61 -170.5t162 -74.5v491
q-104 -6 -163.5 -74t-59.5 -172z" />
    <glyph glyph-name="uni0414.ss03" horiz-adv-x="747" 
d="M661 106h76v-258h-111v152h-505v-152h-111v258h76l263 575h49zM352 429l-145 -328h331l-143 328q-13 30 -22 62q-7 -30 -21 -62z" />
    <glyph glyph-name="uni041B.ss03" horiz-adv-x="689" 
d="M363 684l321 -681v-3h-126l-182 398q-21 48 -31 89q-11 -41 -32 -88l-182 -399h-126v2l322 682h36z" />
    <glyph glyph-name="uni0424.ss03" horiz-adv-x="889" 
d="M843 343q0 -149 -91.5 -247.5t-249.5 -105.5v-103h-115v104q-152 7 -246.5 104t-94.5 245t92 246t249 105v104h115v-104q152 -7 246.5 -104t94.5 -244zM499 95q105 6 164 74.5t59 173.5q0 101 -61 170t-162 74v-492zM167 340q0 -101 61 -170.5t162 -74.5v491
q-104 -6 -163.5 -74t-59.5 -172z" />
    <glyph glyph-name="uni0432.loclBGR" horiz-adv-x="553" 
d="M385 385q61 -17 96.5 -65.5t35.5 -115.5q0 -97 -64.5 -156.5t-171.5 -59.5q-104 0 -165 71t-61 211v130q0 156 66.5 233t180.5 77q82 0 131 -44t49 -116q0 -103 -97 -165zM295 613q-59 0 -93 -49.5t-34 -140.5v-44l79 24q125 39 125 134q0 35 -20 55.5t-57 20.5zM285 86
q54 0 86 33t32 89q0 49 -27.5 80.5t-73.5 31.5q-32 0 -64 -10l-70 -22v-36q0 -166 117 -166z" />
    <glyph glyph-name="uni0433.loclBGR" horiz-adv-x="398" 
d="M195 -12q-74 0 -119.5 32t-45.5 96q0 101 137 148q45 16 63 29.5t18 32.5q0 20 -16.5 30.5t-40.5 10.5q-50 0 -108 -32l-35 76q73 43 156 43q66 0 108 -33t42 -92q0 -52 -30 -83.5t-103 -57.5q-39 -13 -58 -28t-19 -38q0 -45 65 -45q60 0 119 39l40 -79q-80 -49 -173 -49
z" />
    <glyph glyph-name="uni0434.loclBGR" horiz-adv-x="572" 
d="M436 446h72v-464q0 -104 -64 -159t-170 -55q-119 0 -202 68l42 82q65 -52 151 -52q62 0 97.5 29t35.5 85q0 23 2 73q-58 -61 -148 -61q-95 0 -154.5 65t-59.5 167t59 167.5t153 65.5q107 0 164 -76zM274 86q61 0 95 38.5t34 99.5t-33.5 99.5t-94.5 38.5q-58 0 -92 -38
t-34 -100q0 -61 34 -99.5t91 -38.5z" />
    <glyph glyph-name="uni0436.loclBGR" horiz-adv-x="658" 
d="M478 231l174 -226v-5h-122l-147 198v-198h-108v198l-148 -198h-121v5l172 225l-156 213v3h122l131 -187l-1 440h109v-440l130 187h122v-3z" />
    <glyph glyph-name="uni0437.loclBGR" horiz-adv-x="412" 
d="M167 -232q-103 0 -179 52l38 85q60 -40 132 -40q62 0 96 29t34 80q0 50 -32.5 78.5t-90.5 28.5h-69v90h63q46 0 74 27t28 70q0 42 -26.5 65t-74.5 23q-53 0 -110 -29l-34 83q80 44 159 44q89 0 141 -46.5t52 -126.5q0 -99 -82 -149q51 -17 82 -62.5t31 -104.5
q0 -91 -62 -144t-170 -53z" />
    <glyph glyph-name="uni0438.loclBGR" horiz-adv-x="523" 
d="M350 446h109v-446h-76l-22 69q-49 -78 -142 -78q-79 0 -120 47.5t-41 131.5v276h110v-266q0 -91 78 -91q49 0 76.5 36t27.5 90v231z" />
    <glyph glyph-name="uni0439.loclBGR" horiz-adv-x="523" 
d="M260 524q-101 0 -146 86l59 44q31 -52 87 -52q55 0 86 52l60 -43q-22 -42 -60 -64.5t-86 -22.5zM350 446h109v-446h-76l-22 69q-49 -78 -142 -78q-79 0 -120 47.5t-41 131.5v276h110v-266q0 -91 78 -91q49 0 76.5 36t27.5 90v231z" />
    <glyph glyph-name="uni045D.loclBGR" horiz-adv-x="526" 
d="M301 529l-160 101l62 72l143 -122zM350 446h109v-446h-76l-22 69q-49 -78 -142 -78q-79 0 -120 47.5t-41 131.5v276h110v-266q0 -91 78 -91q49 0 76.5 36t27.5 90v231z" />
    <glyph glyph-name="uni043A.loclBGR" horiz-adv-x="465" 
d="M267 230l192 -226v-4h-125l-161 190v-190h-109v699h109v-430l148 177h123v-4z" />
    <glyph glyph-name="uni043B.loclBGR" horiz-adv-x="480" 
d="M265 449l208 -447v-2h-120l-86 200q-22 63 -27 82q-8 -32 -27 -82l-85 -200h-120v2l207 447h50z" />
    <glyph glyph-name="uni043F.loclBGR" horiz-adv-x="526" 
d="M310 458q76 0 116.5 -46.5t40.5 -132.5v-279h-109v269q0 91 -76 91q-50 0 -79.5 -32t-29.5 -83v-245h-109v446h74l22 -70q53 82 150 82z" />
    <glyph glyph-name="uni0442.loclBGR" horiz-adv-x="792" 
d="M581 458q73 0 113 -45.5t40 -125.5v-287h-109v275q0 40 -19.5 62.5t-52.5 22.5q-49 0 -74.5 -36t-25.5 -85v-239h-108v276q0 36 -19 60t-54 24q-48 0 -73.5 -36t-25.5 -85v-239h-109v446h74l22 -71q47 83 142 83q97 0 134 -79q48 79 145 79z" />
    <glyph glyph-name="uni0446.loclBGR" horiz-adv-x="543" 
d="M508 94h15v-208h-99v121q-48 16 -60 63q-49 -79 -147 -79q-76 0 -117.5 47.5t-41.5 127.5v280h110v-272q0 -85 77 -85q51 0 78 36.5t27 90.5v230h110v-310q0 -22 11 -32t37 -10z" />
    <glyph glyph-name="uni0448.loclBGR" horiz-adv-x="790" 
d="M617 446h109v-446h-75l-23 71q-22 -36 -58.5 -57.5t-81.5 -21.5q-96 0 -133 79q-48 -79 -142 -79q-73 0 -114 45.5t-41 124.5v284h110v-274q0 -39 19 -60.5t53 -21.5q47 0 72.5 37t25.5 87v232h109v-275q0 -35 19 -58t53 -23q47 0 72.5 37t25.5 87v232z" />
    <glyph glyph-name="uni0449.loclBGR" horiz-adv-x="810" 
d="M776 94h14v-208h-99v122q-47 16 -60 62q-51 -78 -140 -78q-97 0 -136 79q-46 -79 -142 -79q-74 0 -114.5 46t-40.5 123v285h110v-275q0 -37 18.5 -59t52.5 -22q48 0 73.5 37t25.5 87v232h109v-275q0 -35 18.5 -58t52.5 -23q48 0 73.5 37t25.5 87v232h109v-309
q0 -23 12 -33t38 -10z" />
    <glyph glyph-name="uni044C.loclBGR" horiz-adv-x="477" 
d="M278 336q79 0 126 -46t47 -124q0 -82 -53 -129.5t-143 -47.5q-92 0 -144.5 48t-52.5 133v276h109v-145q44 35 111 35zM256 78q40 0 63.5 23t23.5 63q0 39 -23.5 61t-63.5 22q-43 0 -67.5 -22t-24.5 -60q0 -42 24 -64.5t68 -22.5z" />
    <glyph glyph-name="uni044A.loclBGR" horiz-adv-x="539" 
d="M340 337q78 0 125.5 -46t47.5 -126q0 -82 -53 -129t-143 -47q-91 0 -144 48.5t-53 131.5v183h-111v94h220v-144q44 35 111 35zM319 78q38 0 62 23t24 64q0 39 -24 61t-62 22q-41 0 -66 -21t-25 -62q0 -42 24.5 -64.5t66.5 -22.5z" />
    <glyph glyph-name="uni044B.loclBGR" horiz-adv-x="703" 
d="M278 336q79 0 126 -46t47 -124q0 -82 -53 -129.5t-143 -47.5q-92 0 -144.5 48t-52.5 133v276h109v-145q44 35 111 35zM530 0v446h109v-446h-109zM256 78q40 0 63.5 23t23.5 63q0 39 -23.5 61t-63.5 22q-43 0 -67.5 -22t-24.5 -60q0 -42 24 -64.5t68 -22.5z" />
    <glyph glyph-name="uni0430.ss01" horiz-adv-x="572" 
d="M428 446h80v-446h-81l-15 63q-59 -74 -161 -74q-94 0 -153.5 64.5t-59.5 169.5q0 103 60 168.5t155 65.5q98 0 157 -75zM274 84q58 0 93.5 37.5t35.5 101.5q0 63 -35.5 100.5t-93.5 37.5q-56 0 -91 -37.5t-35 -100.5q0 -64 35 -101.5t91 -37.5z" />
    <glyph glyph-name="uni0435.ss01" horiz-adv-x="484" 
d="M287 76q69 0 121 43l42 -72q-74 -60 -176 -60q-108 0 -173 66t-65 170q0 99 63 167t168 68q84 0 135.5 -43.5t51.5 -111.5q0 -65 -50 -98t-139 -33q-61 0 -117 7q12 -49 49 -76t90 -27zM269 371q-51 0 -83.5 -31t-40.5 -86q45 -6 104 -6q54 0 80 13t26 44q0 29 -24 47.5
t-62 18.5z" />
    <glyph glyph-name="uni0443.ss01" horiz-adv-x="523" 
d="M350 446h109v-469q0 -102 -61 -155.5t-155 -53.5q-112 0 -182 65l42 82q52 -49 132 -49q50 0 82 29t32 82v78q-43 -64 -133 -64q-75 0 -116 47.5t-41 128.5v279h109v-274q0 -38 19.5 -60.5t58.5 -22.5q49 0 76.5 36t27.5 94v227z" />
    <glyph glyph-name="uni0432.ss02" horiz-adv-x="553" 
d="M385 385q61 -17 96.5 -65.5t35.5 -115.5q0 -97 -64.5 -156.5t-171.5 -59.5q-104 0 -165 71t-61 211v130q0 156 66.5 233t180.5 77q82 0 131 -44t49 -116q0 -103 -97 -165zM295 613q-59 0 -93 -49.5t-34 -140.5v-44l79 24q125 39 125 134q0 35 -20 55.5t-57 20.5zM285 86
q54 0 86 33t32 89q0 49 -27.5 80.5t-73.5 31.5q-32 0 -64 -10l-70 -22v-36q0 -166 117 -166z" />
    <glyph glyph-name="uni0433.ss02" horiz-adv-x="398" 
d="M195 -12q-74 0 -119.5 32t-45.5 96q0 101 137 148q45 16 63 29.5t18 32.5q0 20 -16.5 30.5t-40.5 10.5q-50 0 -108 -32l-35 76q73 43 156 43q66 0 108 -33t42 -92q0 -52 -30 -83.5t-103 -57.5q-39 -13 -58 -28t-19 -38q0 -45 65 -45q60 0 119 39l40 -79q-80 -49 -173 -49
z" />
    <glyph glyph-name="uni0434.ss02" horiz-adv-x="572" 
d="M436 446h72v-464q0 -104 -64 -159t-170 -55q-119 0 -202 68l42 82q65 -52 151 -52q62 0 97.5 29t35.5 85q0 23 2 73q-58 -61 -148 -61q-95 0 -154.5 65t-59.5 167t59 167.5t153 65.5q107 0 164 -76zM274 86q61 0 95 38.5t34 99.5t-33.5 99.5t-94.5 38.5q-58 0 -92 -38
t-34 -100q0 -61 34 -99.5t91 -38.5z" />
    <glyph glyph-name="uni0436.ss02" horiz-adv-x="658" 
d="M478 231l174 -226v-5h-122l-147 198v-198h-108v198l-148 -198h-121v5l172 225l-156 213v3h122l131 -187l-1 440h109v-440l130 187h122v-3z" />
    <glyph glyph-name="uni0437.ss02" horiz-adv-x="412" 
d="M167 -232q-103 0 -179 52l38 85q60 -40 132 -40q62 0 96 29t34 80q0 50 -32.5 78.5t-90.5 28.5h-69v90h63q46 0 74 27t28 70q0 42 -26.5 65t-74.5 23q-53 0 -110 -29l-34 83q80 44 159 44q89 0 141 -46.5t52 -126.5q0 -99 -82 -149q51 -17 82 -62.5t31 -104.5
q0 -91 -62 -144t-170 -53z" />
    <glyph glyph-name="uni0438.ss02" horiz-adv-x="523" 
d="M350 446h109v-446h-76l-22 69q-49 -78 -142 -78q-79 0 -120 47.5t-41 131.5v276h110v-266q0 -91 78 -91q49 0 76.5 36t27.5 90v231z" />
    <glyph glyph-name="uni0439.ss02" horiz-adv-x="523" 
d="M260 524q-101 0 -146 86l59 44q31 -52 87 -52q55 0 86 52l60 -43q-22 -42 -60 -64.5t-86 -22.5zM350 446h109v-446h-76l-22 69q-49 -78 -142 -78q-79 0 -120 47.5t-41 131.5v276h110v-266q0 -91 78 -91q49 0 76.5 36t27.5 90v231z" />
    <glyph glyph-name="uni045D.ss02" horiz-adv-x="523" 
d="M310 521l-160 101l62 72l143 -122zM350 446h109v-446h-76l-22 69q-49 -78 -142 -78q-79 0 -120 47.5t-41 131.5v276h110v-266q0 -91 78 -91q49 0 76.5 36t27.5 90v231z" />
    <glyph glyph-name="uni043A.ss02" horiz-adv-x="465" 
d="M267 230l192 -226v-4h-125l-161 190v-190h-109v699h109v-430l148 177h123v-4z" />
    <glyph glyph-name="uni043B.ss02" horiz-adv-x="480" 
d="M265 449l208 -447v-2h-120l-86 200q-22 63 -27 82q-8 -32 -27 -82l-85 -200h-120v2l207 447h50z" />
    <glyph glyph-name="uni043F.ss02" horiz-adv-x="526" 
d="M310 458q76 0 116.5 -46.5t40.5 -132.5v-279h-109v269q0 91 -76 91q-50 0 -79.5 -32t-29.5 -83v-245h-109v446h74l22 -70q53 82 150 82z" />
    <glyph glyph-name="uni0442.ss02" horiz-adv-x="792" 
d="M581 458q73 0 113 -45.5t40 -125.5v-287h-109v275q0 40 -19.5 62.5t-52.5 22.5q-49 0 -74.5 -36t-25.5 -85v-239h-108v276q0 36 -19 60t-54 24q-48 0 -73.5 -36t-25.5 -85v-239h-109v446h74l22 -71q47 83 142 83q97 0 134 -79q48 79 145 79z" />
    <glyph glyph-name="uni0446.ss02" horiz-adv-x="543" 
d="M508 94h15v-208h-99v121q-48 16 -60 63q-49 -79 -147 -79q-76 0 -117.5 47.5t-41.5 127.5v280h110v-272q0 -85 77 -85q51 0 78 36.5t27 90.5v230h110v-310q0 -22 11 -32t37 -10z" />
    <glyph glyph-name="uni0448.ss02" horiz-adv-x="790" 
d="M617 446h109v-446h-75l-23 71q-22 -36 -58.5 -57.5t-81.5 -21.5q-96 0 -133 79q-48 -79 -142 -79q-73 0 -114 45.5t-41 124.5v284h110v-274q0 -39 19 -60.5t53 -21.5q47 0 72.5 37t25.5 87v232h109v-275q0 -35 19 -58t53 -23q47 0 72.5 37t25.5 87v232z" />
    <glyph glyph-name="uni0449.ss02" horiz-adv-x="810" 
d="M776 94h14v-208h-99v122q-47 16 -60 62q-51 -78 -140 -78q-97 0 -136 79q-46 -79 -142 -79q-74 0 -114.5 46t-40.5 123v285h110v-275q0 -37 18.5 -59t52.5 -22q48 0 73.5 37t25.5 87v232h109v-275q0 -35 18.5 -58t52.5 -23q48 0 73.5 37t25.5 87v232h109v-309
q0 -23 12 -33t38 -10z" />
    <glyph glyph-name="uni044C.ss02" horiz-adv-x="483" 
d="M284 336q79 0 126 -46t47 -124q0 -82 -53 -129.5t-143 -47.5q-92 0 -144.5 48t-52.5 133v276h109v-145q44 35 111 35zM262 78q40 0 63.5 23t23.5 63q0 39 -23.5 61t-63.5 22q-43 0 -67.5 -22t-24.5 -60q0 -42 24 -64.5t68 -22.5z" />
    <glyph glyph-name="uni044A.ss02" horiz-adv-x="539" 
d="M340 337q78 0 125.5 -46t47.5 -126q0 -82 -53 -129t-143 -47q-91 0 -144 48.5t-53 131.5v183h-111v94h220v-144q44 35 111 35zM319 78q38 0 62 23t24 64q0 39 -24 61t-62 22q-41 0 -66 -21t-25 -62q0 -42 24.5 -64.5t66.5 -22.5z" />
    <glyph glyph-name="uni044B.ss02" horiz-adv-x="703" 
d="M278 336q79 0 126 -46t47 -124q0 -82 -53 -129.5t-143 -47.5q-92 0 -144.5 48t-52.5 133v276h109v-145q44 35 111 35zM530 0v446h109v-446h-109zM256 78q40 0 63.5 23t23.5 63q0 39 -23.5 61t-63.5 22q-43 0 -67.5 -22t-24.5 -60q0 -42 24 -64.5t68 -22.5z" />
    <glyph glyph-name="uni0430.ss03" horiz-adv-x="572" 
d="M428 446h80v-446h-81l-15 63q-59 -74 -161 -74q-94 0 -153.5 64.5t-59.5 169.5q0 103 60 168.5t155 65.5q98 0 157 -75zM274 84q58 0 93.5 37.5t35.5 101.5q0 63 -35.5 100.5t-93.5 37.5q-56 0 -91 -37.5t-35 -100.5q0 -64 35 -101.5t91 -37.5z" />
    <glyph glyph-name="uni0432.ss03" horiz-adv-x="553" 
d="M385 385q61 -17 96.5 -65.5t35.5 -115.5q0 -97 -64.5 -156.5t-171.5 -59.5q-104 0 -165 71t-61 211v130q0 156 66.5 233t180.5 77q82 0 131 -44t49 -116q0 -103 -97 -165zM295 613q-59 0 -93 -49.5t-34 -140.5v-44l79 24q125 39 125 134q0 35 -20 55.5t-57 20.5zM285 86
q54 0 86 33t32 89q0 49 -27.5 80.5t-73.5 31.5q-32 0 -64 -10l-70 -22v-36q0 -166 117 -166z" />
    <glyph glyph-name="uni0433.ss03" horiz-adv-x="398" 
d="M195 -12q-74 0 -119.5 32t-45.5 96q0 101 137 148q45 16 63 29.5t18 32.5q0 20 -16.5 30.5t-40.5 10.5q-50 0 -108 -32l-35 76q73 43 156 43q66 0 108 -33t42 -92q0 -52 -30 -83.5t-103 -57.5q-39 -13 -58 -28t-19 -38q0 -45 65 -45q60 0 119 39l40 -79q-80 -49 -173 -49
z" />
    <glyph glyph-name="uni0434.ss03" horiz-adv-x="572" 
d="M436 446h72v-464q0 -104 -64 -159t-170 -55q-119 0 -202 68l42 82q65 -52 151 -52q62 0 97.5 29t35.5 85q0 23 2 73q-58 -61 -148 -61q-95 0 -154.5 65t-59.5 167t59 167.5t153 65.5q107 0 164 -76zM274 86q61 0 95 38.5t34 99.5t-33.5 99.5t-94.5 38.5q-58 0 -92 -38
t-34 -100q0 -61 34 -99.5t91 -38.5z" />
    <glyph glyph-name="uni0435.ss03" horiz-adv-x="484" 
d="M287 76q69 0 121 43l42 -72q-74 -60 -176 -60q-108 0 -173 66t-65 170q0 99 63 167t168 68q84 0 135.5 -43.5t51.5 -111.5q0 -65 -50 -98t-139 -33q-61 0 -117 7q12 -49 49 -76t90 -27zM269 371q-51 0 -83.5 -31t-40.5 -86q45 -6 104 -6q54 0 80 13t26 44q0 29 -24 47.5
t-62 18.5z" />
    <glyph glyph-name="uni0436.ss03" horiz-adv-x="658" 
d="M478 231l174 -226v-5h-122l-147 198v-198h-108v198l-148 -198h-121v5l172 225l-156 213v3h122l131 -187l-1 440h109v-440l130 187h122v-3z" />
    <glyph glyph-name="uni0437.ss03" horiz-adv-x="412" 
d="M167 -232q-103 0 -179 52l38 85q60 -40 132 -40q62 0 96 29t34 80q0 50 -32.5 78.5t-90.5 28.5h-69v90h63q46 0 74 27t28 70q0 42 -26.5 65t-74.5 23q-53 0 -110 -29l-34 83q80 44 159 44q89 0 141 -46.5t52 -126.5q0 -99 -82 -149q51 -17 82 -62.5t31 -104.5
q0 -91 -62 -144t-170 -53z" />
    <glyph glyph-name="uni0438.ss03" horiz-adv-x="523" 
d="M350 446h109v-446h-76l-22 69q-49 -78 -142 -78q-79 0 -120 47.5t-41 131.5v276h110v-266q0 -91 78 -91q49 0 76.5 36t27.5 90v231z" />
    <glyph glyph-name="uni0439.ss03" horiz-adv-x="523" 
d="M260 524q-101 0 -146 86l59 44q31 -52 87 -52q55 0 86 52l60 -43q-22 -42 -60 -64.5t-86 -22.5zM350 446h109v-446h-76l-22 69q-49 -78 -142 -78q-79 0 -120 47.5t-41 131.5v276h110v-266q0 -91 78 -91q49 0 76.5 36t27.5 90v231z" />
    <glyph glyph-name="uni045D.ss03" horiz-adv-x="526" 
d="M301 529l-160 101l62 72l143 -122zM350 446h109v-446h-76l-22 69q-49 -78 -142 -78q-79 0 -120 47.5t-41 131.5v276h110v-266q0 -91 78 -91q49 0 76.5 36t27.5 90v231z" />
    <glyph glyph-name="uni043A.ss03" horiz-adv-x="465" 
d="M267 230l192 -226v-4h-125l-161 190v-190h-109v699h109v-430l148 177h123v-4z" />
    <glyph glyph-name="uni043B.ss03" horiz-adv-x="480" 
d="M265 449l208 -447v-2h-120l-86 200q-22 63 -27 82q-8 -32 -27 -82l-85 -200h-120v2l207 447h50z" />
    <glyph glyph-name="uni043F.ss03" horiz-adv-x="526" 
d="M310 458q76 0 116.5 -46.5t40.5 -132.5v-279h-109v269q0 91 -76 91q-50 0 -79.5 -32t-29.5 -83v-245h-109v446h74l22 -70q53 82 150 82z" />
    <glyph glyph-name="uni0442.ss03" horiz-adv-x="792" 
d="M581 458q73 0 113 -45.5t40 -125.5v-287h-109v275q0 40 -19.5 62.5t-52.5 22.5q-49 0 -74.5 -36t-25.5 -85v-239h-108v276q0 36 -19 60t-54 24q-48 0 -73.5 -36t-25.5 -85v-239h-109v446h74l22 -71q47 83 142 83q97 0 134 -79q48 79 145 79z" />
    <glyph glyph-name="uni0443.ss03" horiz-adv-x="523" 
d="M350 446h109v-469q0 -102 -61 -155.5t-155 -53.5q-112 0 -182 65l42 82q52 -49 132 -49q50 0 82 29t32 82v78q-43 -64 -133 -64q-75 0 -116 47.5t-41 128.5v279h109v-274q0 -38 19.5 -60.5t58.5 -22.5q49 0 76.5 36t27.5 94v227z" />
    <glyph glyph-name="uni0446.ss03" horiz-adv-x="543" 
d="M508 94h15v-208h-99v121q-48 16 -60 63q-49 -79 -147 -79q-76 0 -117.5 47.5t-41.5 127.5v280h110v-272q0 -85 77 -85q51 0 78 36.5t27 90.5v230h110v-310q0 -22 11 -32t37 -10z" />
    <glyph glyph-name="uni0448.ss03" horiz-adv-x="790" 
d="M617 446h109v-446h-75l-23 71q-22 -36 -58.5 -57.5t-81.5 -21.5q-96 0 -133 79q-48 -79 -142 -79q-73 0 -114 45.5t-41 124.5v284h110v-274q0 -39 19 -60.5t53 -21.5q47 0 72.5 37t25.5 87v232h109v-275q0 -35 19 -58t53 -23q47 0 72.5 37t25.5 87v232z" />
    <glyph glyph-name="uni0449.ss03" horiz-adv-x="810" 
d="M776 94h14v-208h-99v122q-47 16 -60 62q-51 -78 -140 -78q-97 0 -136 79q-46 -79 -142 -79q-74 0 -114.5 46t-40.5 123v285h110v-275q0 -37 18.5 -59t52.5 -22q48 0 73.5 37t25.5 87v232h109v-275q0 -35 18.5 -58t52.5 -23q48 0 73.5 37t25.5 87v232h109v-309
q0 -23 12 -33t38 -10z" />
    <glyph glyph-name="uni044C.ss03" horiz-adv-x="483" 
d="M284 336q79 0 126 -46t47 -124q0 -82 -53 -129.5t-143 -47.5q-92 0 -144.5 48t-52.5 133v276h109v-145q44 35 111 35zM262 78q40 0 63.5 23t23.5 63q0 39 -23.5 61t-63.5 22q-43 0 -67.5 -22t-24.5 -60q0 -42 24 -64.5t68 -22.5z" />
    <glyph glyph-name="uni044A.ss03" horiz-adv-x="539" 
d="M340 337q78 0 125.5 -46t47.5 -126q0 -82 -53 -129t-143 -47q-91 0 -144 48.5t-53 131.5v183h-111v94h220v-144q44 35 111 35zM319 78q38 0 62 23t24 64q0 39 -24 61t-62 22q-41 0 -66 -21t-25 -62q0 -42 24.5 -64.5t66.5 -22.5z" />
    <glyph glyph-name="uni044B.ss03" horiz-adv-x="703" 
d="M278 336q79 0 126 -46t47 -124q0 -82 -53 -129.5t-143 -47.5q-92 0 -144.5 48t-52.5 133v276h109v-145q44 35 111 35zM530 0v446h109v-446h-109zM256 78q40 0 63.5 23t23.5 63q0 39 -23.5 61t-63.5 22q-43 0 -67.5 -22t-24.5 -60q0 -42 24 -64.5t68 -22.5z" />
    <glyph glyph-name="zero.sinf" horiz-adv-x="314" 
d="M157 -71q-59 0 -87 45.5t-28 107.5q0 61 28 106.5t87 45.5q58 0 86 -45.5t28 -106.5q0 -62 -27.5 -107.5t-86.5 -45.5zM157 -8q48 0 48 90q0 89 -48 89t-48 -89q0 -90 48 -90z" />
    <glyph glyph-name="one.sinf" horiz-adv-x="227" 
d="M101 -60v179l-38 -33l-38 41l104 99h36v-286h-64z" />
    <glyph glyph-name="two.sinf" horiz-adv-x="285" 
d="M152 -2h96v-58h-203v27l106 129q21 28 21 47q0 31 -32 31q-25 0 -43 -37l-50 25q24 72 97 72q42 0 68 -25.5t26 -61.5q0 -40 -34 -84z" />
    <glyph glyph-name="three.sinf" horiz-adv-x="288" 
d="M141 -71q-61 0 -100 36l34 45q23 -21 59 -21q45 0 45 37q0 35 -46 35h-32v51h26q39 0 39 32q0 14 -10 21.5t-24 7.5q-25 0 -46 -16l-36 43q38 33 92 33q37 0 63 -22t26 -56q0 -48 -39 -64q22 -6 38 -26t16 -46q0 -41 -29 -65.5t-76 -24.5z" />
    <glyph glyph-name="four.sinf" horiz-adv-x="304" 
d="M166 -60v46h-132v29l160 211h31v-189h34v-51h-34v-46h-59zM115 37h51v69z" />
    <glyph glyph-name="five.sinf" horiz-adv-x="285" 
d="M137 -71q-57 0 -94 36l36 44q21 -21 52 -21q20 0 32 11.5t12 30.5q0 43 -58 43q-23 0 -47 -7l-6 6l18 151h147v-59h-95l-5 -47q3 0 8.5 0.5t7.5 0.5q41 0 69 -23.5t28 -66.5q0 -45 -29 -72t-76 -27z" />
    <glyph glyph-name="six.sinf" horiz-adv-x="293" 
d="M164 117q37 0 61.5 -24t24.5 -67t-27.5 -70t-72.5 -27q-52 0 -79.5 34.5t-27.5 87.5v9q0 75 42.5 122t123.5 48l10 -57q-88 3 -107 -74q21 18 52 18zM150 -17q18 0 28 11t10 29q0 40 -40 40q-17 0 -27.5 -11t-10.5 -29q0 -17 10.5 -28.5t29.5 -11.5z" />
    <glyph glyph-name="seven.sinf" horiz-adv-x="275" 
d="M58 -60l90 224h-105v59h190v-13l-107 -270h-68z" />
    <glyph glyph-name="eight.sinf" horiz-adv-x="298" 
d="M149 -71q-48 0 -77.5 23.5t-29.5 67.5q0 48 45 71q-32 24 -32 63q0 37 26.5 58.5t67.5 21.5t67 -21.5t26 -57.5q0 -42 -33 -63q46 -23 46 -72q0 -44 -29 -67.5t-77 -23.5zM149 116q13 0 21.5 9t8.5 22q0 14 -8.5 23t-21.5 9q-14 0 -22.5 -9t-8.5 -23q0 -13 9 -22t22 -9z
M149 -15q18 0 29.5 11t11.5 29t-12 29.5t-30 11.5q-19 0 -30 -11.5t-11 -29.5t11.5 -29t30.5 -11z" />
    <glyph glyph-name="nine.sinf" horiz-adv-x="292" 
d="M142 234q52 0 80 -34.5t28 -87.5v-9q0 -75 -42.5 -122t-123.5 -48l-10 57q88 -3 107 75q-20 -19 -52 -19q-38 0 -62.5 24t-24.5 67q0 42 27.5 69.5t72.5 27.5zM144 100q18 0 28.5 11t10.5 29q0 17 -10.5 28.5t-29.5 11.5q-18 0 -28 -11t-10 -29q0 -40 39 -40z" />
    <glyph glyph-name="zero.tf" horiz-adv-x="549" 
d="M274 -12q-114 0 -180.5 92.5t-66.5 250.5q0 157 66.5 249.5t180.5 92.5t181 -92.5t67 -249.5q0 -158 -66.5 -250.5t-181.5 -92.5zM274 91q62 0 96 65t34 175q0 109 -34 174.5t-96 65.5q-61 0 -95 -65.5t-34 -174.5q0 -110 34 -175t95 -65z" />
    <glyph glyph-name="one.tf" horiz-adv-x="549" 
d="M362 100h143v-100h-420v100h160v344q0 38 4 74q-13 -10 -41 -28l-128 -79l-52 85l262 172h72v-568z" />
    <glyph glyph-name="two.tf" horiz-adv-x="549" 
d="M283 101h195v-101h-433v47l249 312q57 70 57 120q0 39 -24 63t-68 24q-75 0 -127 -75l-78 60q78 122 215 122q92 0 146.5 -51t54.5 -130q0 -50 -18 -93t-68 -104l-120 -150q-20 -24 -39 -45q19 1 58 1z" />
    <glyph glyph-name="three.tf" horiz-adv-x="549" 
d="M256 -12q-137 0 -220 83l62 79q56 -59 151 -59q56 0 91.5 29t35.5 76q0 100 -143 100h-71v96h65q59 0 89 28t30 67q0 37 -29 61t-74 24q-79 0 -131 -60l-58 75q81 86 199 86q92 0 150 -51t58 -129q0 -41 -24.5 -80t-68.5 -60q61 -19 93.5 -64.5t32.5 -102.5
q0 -88 -67 -143t-171 -55z" />
    <glyph glyph-name="four.tf" horiz-adv-x="549" 
d="M443 220h72v-95h-72v-125h-109v125h-310v61l354 482h65v-448zM336 220v166q0 49 2 76q-21 -31 -39 -55l-101 -140q-20 -29 -37 -48q23 1 66 1h109z" />
    <glyph glyph-name="five.tf" horiz-adv-x="549" 
d="M255 412q108 0 175 -54.5t67 -148.5q0 -98 -67.5 -159t-179.5 -61q-129 0 -213 83l61 82q54 -59 143 -59q62 0 100 32.5t38 82.5q0 56 -41.5 84t-111.5 28q-57 0 -128 -19l-14 11l38 347h346v-101h-252l-15 -151q27 3 54 3z" />
    <glyph glyph-name="six.tf" horiz-adv-x="549" 
d="M304 412q90 0 149 -54t59 -150q0 -98 -62 -159t-163 -61q-117 0 -176 72t-59 190v11q0 179 91 288.5t280 123.5l15 -97q-115 -9 -182.5 -64t-84.5 -147q48 47 133 47zM285 91q50 0 82.5 31t32.5 83q0 53 -32.5 82.5t-82.5 29.5q-53 0 -85 -30.5t-32 -82.5q0 -51 32.5 -82
t84.5 -31z" />
    <glyph glyph-name="seven.tf" horiz-adv-x="549" 
d="M34 661h473v-43l-257 -618h-120l205 490l30 71q-12 0 -36 -0.5t-37 -0.5h-258v101z" />
    <glyph glyph-name="eight.tf" horiz-adv-x="549" 
d="M275 -11q-109 0 -173 52.5t-64 142.5q0 59 33 104t89 62q-45 16 -73 53t-28 91q0 80 60 129.5t157 49.5q96 0 155 -49.5t59 -129.5q0 -51 -27.5 -88.5t-70.5 -55.5q52 -18 85.5 -63.5t33.5 -103.5q0 -90 -64 -142t-172 -52zM276 397q47 0 74.5 25.5t27.5 66.5
q0 39 -28 63.5t-74 24.5q-47 0 -76 -24.5t-29 -63.5q0 -42 28 -67t77 -25zM274 90q53 0 86.5 27t33.5 76t-32.5 78.5t-88.5 29.5q-53 0 -85.5 -30t-32.5 -78t34 -75.5t85 -27.5z" />
    <glyph glyph-name="nine.tf" horiz-adv-x="549" 
d="M260 673q118 0 176.5 -71.5t58.5 -189.5v-11q0 -179 -91 -288.5t-279 -124.5l-17 98q117 8 185 63.5t85 148.5q-49 -49 -135 -49q-89 0 -148.5 54.5t-59.5 150.5q0 97 62 158t163 61zM262 344q53 0 85.5 31t32.5 83q0 50 -32.5 81t-85.5 31q-50 0 -82 -31t-32 -83
q0 -53 32 -82.5t82 -29.5z" />
    <glyph glyph-name="zero.dnom" horiz-adv-x="314" 
d="M157 -11q-59 0 -87 45.5t-28 107.5q0 61 28 106.5t87 45.5q58 0 86 -45.5t28 -106.5q0 -62 -27.5 -107.5t-86.5 -45.5zM157 52q48 0 48 90q0 89 -48 89t-48 -89q0 -90 48 -90z" />
    <glyph glyph-name="one.dnom" horiz-adv-x="227" 
d="M101 0v179l-38 -33l-38 41l104 99h36v-286h-64z" />
    <glyph glyph-name="two.dnom" horiz-adv-x="285" 
d="M152 58h96v-58h-203v27l106 129q21 28 21 47q0 31 -32 31q-25 0 -43 -37l-50 25q24 72 97 72q42 0 68 -25.5t26 -61.5q0 -40 -34 -84z" />
    <glyph glyph-name="three.dnom" horiz-adv-x="288" 
d="M141 -11q-61 0 -100 36l34 45q23 -21 59 -21q45 0 45 37q0 35 -46 35h-32v51h26q39 0 39 32q0 14 -10 21.5t-24 7.5q-25 0 -46 -16l-36 43q38 33 92 33q37 0 63 -22t26 -56q0 -48 -39 -64q22 -6 38 -26t16 -46q0 -41 -29 -65.5t-76 -24.5z" />
    <glyph glyph-name="four.dnom" horiz-adv-x="304" 
d="M166 0v46h-132v29l160 211h31v-189h34v-51h-34v-46h-59zM115 97h51v69z" />
    <glyph glyph-name="five.dnom" horiz-adv-x="285" 
d="M137 -11q-57 0 -94 36l36 44q21 -21 52 -21q20 0 32 11.5t12 30.5q0 43 -58 43q-23 0 -47 -7l-6 6l18 151h147v-59h-95l-5 -47q3 0 8.5 0.5t7.5 0.5q41 0 69 -23.5t28 -66.5q0 -45 -29 -72t-76 -27z" />
    <glyph glyph-name="six.dnom" horiz-adv-x="293" 
d="M164 177q37 0 61.5 -24t24.5 -67t-27.5 -70t-72.5 -27q-52 0 -79.5 34.5t-27.5 87.5v9q0 75 42.5 122t123.5 48l10 -57q-88 3 -107 -74q21 18 52 18zM150 43q18 0 28 11t10 29q0 40 -40 40q-17 0 -27.5 -11t-10.5 -29q0 -17 10.5 -28.5t29.5 -11.5z" />
    <glyph glyph-name="seven.dnom" horiz-adv-x="275" 
d="M58 0l90 224h-105v59h190v-13l-107 -270h-68z" />
    <glyph glyph-name="eight.dnom" horiz-adv-x="298" 
d="M149 -11q-48 0 -77.5 23.5t-29.5 67.5q0 48 45 71q-32 24 -32 63q0 37 26.5 58.5t67.5 21.5t67 -21.5t26 -57.5q0 -42 -33 -63q46 -23 46 -72q0 -44 -29 -67.5t-77 -23.5zM149 176q13 0 21.5 9t8.5 22q0 14 -8.5 23t-21.5 9q-14 0 -22.5 -9t-8.5 -23q0 -13 9 -22t22 -9z
M149 45q18 0 29.5 11t11.5 29t-12 29.5t-30 11.5q-19 0 -30 -11.5t-11 -29.5t11.5 -29t30.5 -11z" />
    <glyph glyph-name="nine.dnom" horiz-adv-x="292" 
d="M142 294q52 0 80 -34.5t28 -87.5v-9q0 -75 -42.5 -122t-123.5 -48l-10 57q88 -3 107 75q-20 -19 -52 -19q-38 0 -62.5 24t-24.5 67q0 42 27.5 69.5t72.5 27.5zM144 160q18 0 28.5 11t10.5 29q0 17 -10.5 28.5t-29.5 11.5q-18 0 -28 -11t-10 -29q0 -40 39 -40z" />
    <glyph glyph-name="zero.numr" horiz-adv-x="314" 
d="M157 386q-59 0 -87 45.5t-28 107.5q0 61 28 106.5t87 45.5q58 0 86 -45.5t28 -106.5q0 -62 -27.5 -107.5t-86.5 -45.5zM157 449q48 0 48 90q0 89 -48 89t-48 -89q0 -90 48 -90z" />
    <glyph glyph-name="one.numr" horiz-adv-x="227" 
d="M101 397v179l-38 -33l-38 41l104 99h36v-286h-64z" />
    <glyph glyph-name="two.numr" horiz-adv-x="285" 
d="M152 455h96v-58h-203v27l106 129q21 28 21 47q0 31 -32 31q-25 0 -43 -37l-50 25q24 72 97 72q42 0 68 -25.5t26 -61.5q0 -40 -34 -84z" />
    <glyph glyph-name="three.numr" horiz-adv-x="288" 
d="M141 386q-61 0 -100 36l34 45q23 -21 59 -21q45 0 45 37q0 35 -46 35h-32v51h26q39 0 39 32q0 14 -10 21.5t-24 7.5q-25 0 -46 -16l-36 43q38 33 92 33q37 0 63 -22t26 -56q0 -48 -39 -64q22 -6 38 -26t16 -46q0 -40 -29 -65t-76 -25z" />
    <glyph glyph-name="four.numr" horiz-adv-x="304" 
d="M166 397v46h-132v29l160 211h31v-189h34v-51h-34v-46h-59zM115 494h51v69z" />
    <glyph glyph-name="five.numr" horiz-adv-x="285" 
d="M137 386q-57 0 -94 36l36 44q21 -21 52 -21q20 0 32 11.5t12 30.5q0 43 -58 43q-23 0 -47 -7l-6 6l18 151h147v-59h-95l-5 -47q3 0 8.5 0.5t7.5 0.5q41 0 69 -23.5t28 -66.5q0 -45 -29 -72t-76 -27z" />
    <glyph glyph-name="six.numr" horiz-adv-x="293" 
d="M164 579q37 0 61.5 -24t24.5 -67t-27.5 -70t-72.5 -27q-52 0 -79.5 34.5t-27.5 87.5v9q0 75 42.5 122t123.5 48l10 -57q-88 3 -107 -74q21 18 52 18zM150 445q18 0 28 11t10 29q0 40 -40 40q-17 0 -27.5 -11t-10.5 -29q0 -17 10.5 -28.5t29.5 -11.5z" />
    <glyph glyph-name="seven.numr" horiz-adv-x="275" 
d="M58 397l90 224h-105v59h190v-13l-107 -270h-68z" />
    <glyph glyph-name="eight.numr" horiz-adv-x="298" 
d="M149 386q-48 0 -77.5 23.5t-29.5 67.5q0 49 45 71q-32 24 -32 63q0 37 26.5 58.5t67.5 21.5t67 -21.5t26 -57.5q0 -42 -33 -63q46 -23 46 -72q0 -44 -29 -67.5t-77 -23.5zM149 573q13 0 21.5 9t8.5 22q0 14 -8.5 23t-21.5 9q-14 0 -22.5 -9t-8.5 -23t9 -22.5t22 -8.5z
M149 442q18 0 29.5 11t11.5 29t-12 29.5t-30 11.5q-19 0 -30 -11.5t-11 -29.5t11.5 -29t30.5 -11z" />
    <glyph glyph-name="nine.numr" horiz-adv-x="292" 
d="M142 691q52 0 80 -34.5t28 -87.5v-9q0 -75 -42.5 -122t-123.5 -48l-10 57q88 -3 107 75q-20 -19 -52 -19q-38 0 -62.5 24t-24.5 67q0 42 27.5 69.5t72.5 27.5zM144 557q18 0 28.5 10.5t10.5 29.5q0 17 -10.5 28.5t-29.5 11.5q-18 0 -28 -11t-10 -29q0 -40 39 -40z" />
    <glyph glyph-name="zero.sups" horiz-adv-x="314" 
d="M157 386q-59 0 -87 45.5t-28 107.5q0 61 28 106.5t87 45.5q58 0 86 -45.5t28 -106.5q0 -62 -27.5 -107.5t-86.5 -45.5zM157 449q48 0 48 90q0 89 -48 89t-48 -89q0 -90 48 -90z" />
    <glyph glyph-name="one.sups" horiz-adv-x="227" 
d="M101 399v179l-38 -33l-38 41l104 99h36v-286h-64z" />
    <glyph glyph-name="two.sups" horiz-adv-x="285" 
d="M152 455h96v-58h-203v27l106 129q21 28 21 47q0 31 -32 31q-25 0 -43 -37l-50 25q24 72 97 72q42 0 68 -25.5t26 -61.5q0 -40 -34 -84z" />
    <glyph glyph-name="three.sups" horiz-adv-x="288" 
d="M141 386q-61 0 -100 36l34 45q23 -21 59 -21q45 0 45 37q0 35 -46 35h-32v51h26q39 0 39 32q0 14 -10 21.5t-24 7.5q-25 0 -46 -16l-36 43q38 33 92 33q37 0 63 -22t26 -56q0 -48 -39 -64q22 -6 38 -26t16 -46q0 -40 -29 -65t-76 -25z" />
    <glyph glyph-name="four.sups" horiz-adv-x="304" 
d="M166 397v46h-132v29l160 211h31v-189h34v-51h-34v-46h-59zM115 494h51v69z" />
    <glyph glyph-name="five.sups" horiz-adv-x="285" 
d="M137 386q-57 0 -94 36l36 44q21 -21 52 -21q20 0 32 11.5t12 30.5q0 43 -58 43q-23 0 -47 -7l-6 6l18 151h147v-59h-95l-5 -47q3 0 8.5 0.5t7.5 0.5q41 0 69 -23.5t28 -66.5q0 -45 -29 -72t-76 -27z" />
    <glyph glyph-name="six.sups" horiz-adv-x="293" 
d="M164 577q37 0 61.5 -24t24.5 -67t-27.5 -70t-72.5 -27q-52 0 -79.5 34.5t-27.5 87.5v9q0 75 42.5 122t123.5 48l10 -57q-88 3 -107 -74q21 18 52 18zM150 443q18 0 28 11t10 29q0 40 -40 40q-17 0 -27.5 -11t-10.5 -29q0 -17 10.5 -28.5t29.5 -11.5z" />
    <glyph glyph-name="seven.sups" horiz-adv-x="275" 
d="M58 397l90 224h-105v59h190v-13l-107 -270h-68z" />
    <glyph glyph-name="eight.sups" horiz-adv-x="298" 
d="M149 386q-48 0 -77.5 23.5t-29.5 67.5q0 49 45 71q-32 24 -32 63q0 37 26.5 58.5t67.5 21.5t67 -21.5t26 -57.5q0 -42 -33 -63q46 -23 46 -72q0 -44 -29 -67.5t-77 -23.5zM149 573q13 0 21.5 9t8.5 22q0 14 -8.5 23t-21.5 9q-14 0 -22.5 -9t-8.5 -23t9 -22.5t22 -8.5z
M149 442q18 0 29.5 11t11.5 29t-12 29.5t-30 11.5q-19 0 -30 -11.5t-11 -29.5t11.5 -29t30.5 -11z" />
    <glyph glyph-name="nine.sups" horiz-adv-x="292" 
d="M142 691q52 0 80 -34.5t28 -87.5v-9q0 -75 -42.5 -122t-123.5 -48l-10 57q88 -3 107 75q-20 -19 -52 -19q-38 0 -62.5 24t-24.5 67q0 42 27.5 69.5t72.5 27.5zM144 557q18 0 28.5 10.5t10.5 29.5q0 17 -10.5 28.5t-29.5 11.5q-18 0 -28 -11t-10 -29q0 -40 39 -40z" />
    <glyph glyph-name="colon.case" horiz-adv-x="265" 
d="M132 414q-28 0 -48.5 17.5t-20.5 50.5q0 32 20.5 50t48.5 18q29 0 49.5 -18t20.5 -50q0 -33 -20.5 -50.5t-49.5 -17.5zM132 91q-28 0 -48.5 18t-20.5 50q0 33 20.5 50.5t48.5 17.5q29 0 49.5 -17.5t20.5 -50.5t-20.5 -50.5t-49.5 -17.5z" />
    <glyph glyph-name="parenleft.case" horiz-adv-x="342" 
d="M240 -129q-73 84 -116.5 211t-43.5 268t43.5 268t116.5 211l65 -56q-59 -76 -92.5 -187.5t-33.5 -235.5t33.5 -235.5t92.5 -187.5z" />
    <glyph glyph-name="parenright.case" horiz-adv-x="342" 
d="M102 829q73 -85 116.5 -211.5t43.5 -267.5t-43.5 -267.5t-116.5 -211.5l-65 56q59 76 92.5 187.5t33.5 235.5t-33.5 235.5t-92.5 187.5z" />
    <glyph glyph-name="braceleft.case" horiz-adv-x="344" 
d="M308 -126q-10 -1 -29 -1q-73 0 -108.5 34t-35.5 107v200q0 48 -18 69.5t-64 20.5v91q46 0 64 21t18 69v200q0 74 35.5 108t108.5 34q19 0 29 -1v-91q-43 2 -59 -11.5t-16 -52.5v-202q0 -95 -75 -119q75 -24 75 -119v-202q0 -39 16 -53t59 -11v-91z" />
    <glyph glyph-name="braceright.case" horiz-adv-x="344" 
d="M37 -126v91q42 -3 58 11t16 53v202q0 95 75 119q-75 24 -75 119v202q0 39 -15.5 52.5t-58.5 11.5v91q10 1 29 1q73 0 108 -34t35 -108v-200q0 -47 18 -68.5t65 -21.5v-91q-46 1 -64.5 -20.5t-18.5 -69.5v-200q0 -73 -35 -107t-108 -34q-19 0 -29 1z" />
    <glyph glyph-name="bracketleft.case" horiz-adv-x="307" 
d="M85 -123v946h180v-90h-81v-766h81v-90h-180z" />
    <glyph glyph-name="bracketright.case" horiz-adv-x="307" 
d="M222 -123h-181v90h82v766h-82v90h181v-946z" />
    <glyph glyph-name="hyphen.case" horiz-adv-x="409" 
d="M64 302v95h281v-95h-281z" />
    <glyph glyph-name="endash.case" horiz-adv-x="539" 
d="M64 308v86h411v-86h-411z" />
    <glyph glyph-name="emdash.case" horiz-adv-x="703" 
d="M64 308v86h575v-86h-575z" />
    <glyph glyph-name="guillemotleft.case" horiz-adv-x="467" 
d="M158 150l-126 201l124 197l82 -45l-86 -152l87 -156zM337 150l-126 201l125 197l81 -45l-86 -152l88 -156z" />
    <glyph glyph-name="guillemotright.case" horiz-adv-x="467" 
d="M130 150l-82 45l88 156l-86 152l81 45l125 -197zM309 150l-81 45l87 156l-86 152l82 45l124 -197z" />
    <glyph glyph-name="guilsinglleft.case" horiz-adv-x="288" 
d="M158 150l-126 201l124 197l82 -45l-86 -152l87 -156z" />
    <glyph glyph-name="guilsinglright.case" horiz-adv-x="288" 
d="M130 150l-82 45l88 156l-86 152l81 45l125 -197z" />
    <glyph glyph-name="cent.tf" horiz-adv-x="549" 
d="M473 143q-56 -56 -134 -66v-85h-75v86q-85 12 -138 72t-53 152q0 93 52.5 153t138.5 72v84h75v-83q75 -9 128 -62l-51 -74q-39 41 -102 41q-56 0 -93 -35t-37 -96q0 -59 36.5 -95t95.5 -36q64 0 107 46z" />
    <glyph glyph-name="dollar.tf" horiz-adv-x="549" 
d="M239 -101v92q-113 10 -202 81l58 85q85 -67 186 -67q51 0 82.5 23t31.5 62q0 29 -24 53t-50 36.5t-77 33.5q-88 36 -137 79.5t-49 111.5q0 77 50 124.5t131 57.5v97h85v-98q84 -9 166 -63l-49 -89q-74 53 -158 53q-46 0 -76.5 -18t-30.5 -58q0 -35 34 -58t107 -52
q45 -18 74.5 -33.5t60.5 -39.5t46 -56t15 -73q0 -80 -51.5 -131.5t-137.5 -60.5v-92h-85z" />
    <glyph glyph-name="Euro.tf" horiz-adv-x="549" 
d="M501 115l35 -95q-66 -32 -140 -32q-114 0 -191 67.5t-100 180.5h-76v70h67v20q0 24 1 36h-68v69h80q27 109 106 175.5t187 66.5q69 0 130 -29l-37 -96q-38 19 -85 19q-63 0 -109.5 -36.5t-68.5 -99.5h195l-26 -69h-183q-2 -22 -2 -35v-21h166l-27 -70h-127
q18 -66 65 -104t115 -38q51 0 93 21z" />
    <glyph glyph-name="florin.tf" horiz-adv-x="549" 
d="M427 570q-33 0 -54 -23.5t-25 -67.5l-8 -79h120l-9 -97l-121 -1l-29 -291q-9 -88 -56 -135.5t-120 -47.5q-64 0 -108 34l43 86q22 -17 52 -17q32 0 53 23.5t25 67.5l28 280l-110 3l8 95h112l9 91q9 88 56 135t120 47q70 0 109 -35l-43 -85q-21 17 -52 17z" />
    <glyph glyph-name="uni20BD.tf" horiz-adv-x="549" 
d="M290 260h-73v-61h198v-75h-198v-124h-118v124h-77v75h77v61h-77v89h77v312h197q104 0 165 -60t61 -143t-61 -140.5t-171 -57.5zM217 559v-210h64q64 0 93 30.5t29 76.5q0 43 -31.5 73t-81.5 30h-73z" />
    <glyph glyph-name="sterling.tf" horiz-adv-x="549" 
d="M220 102h308v-102h-446l-26 64q120 93 120 207q0 11 -1 16h-96v77h74q-4 7 -16 28.5t-17 32.5t-10.5 32t-5.5 43q0 73 58.5 123.5t150.5 50.5q114 0 201 -85l-65 -71q-51 53 -122 53q-47 0 -76.5 -21.5t-29.5 -58.5q0 -22 7.5 -41.5t23 -45.5t21.5 -40h183v-77h-164v-12
q0 -91 -72 -173z" />
    <glyph glyph-name="yen.tf" horiz-adv-x="549" 
d="M215 0v160h-152v74h152v55h-152v73h118l-172 299h131l134 -257l136 257h131l-173 -299h119v-73h-153v-55h153v-74h-153v-160h-119z" />
    <glyph glyph-name="uni0308.case" 
d="M-310 762q-28 0 -45.5 18t-17.5 44t17.5 45t45.5 19q27 0 45 -19t18 -44t-17.5 -44t-45.5 -19zM-113 762q-28 0 -45.5 18.5t-17.5 44.5q0 25 18 44t45 19t45 -19t18 -44q0 -26 -17.5 -44.5t-45.5 -18.5z" />
    <glyph glyph-name="uni0307.case" 
d="M-119 756q-29 0 -47.5 19t-18.5 46t18 47t48 20t48.5 -20t18.5 -48q0 -26 -19 -45t-48 -19z" />
    <glyph glyph-name="gravecomb.case" 
d="M-88 746l-167 105l66 76l148 -127z" />
    <glyph glyph-name="acutecomb.case" 
d="M-214 746l-47 54l148 127l65 -75z" />
    <glyph glyph-name="uni030B.case" 
d="M-316 737l-61 38l94 151l78 -48zM-151 737l-61 41l102 148l76 -52z" />
    <glyph glyph-name="uni0302.case" 
d="M-303 738l-42 52l141 110h18l140 -111l-41 -51l-108 69z" />
    <glyph glyph-name="uni030C.case" 
d="M-206 741l-139 111l41 51l107 -69l108 69l42 -52l-141 -110h-18z" />
    <glyph glyph-name="uni0306.case" 
d="M-196 742q-53 0 -92.5 29.5t-54.5 87.5l68 24q7 -27 29 -43t50 -16t50 16t29 43l68 -24q-15 -57 -54.5 -87t-92.5 -30z" />
    <glyph glyph-name="uni030A.case" 
d="M-157 722q-50 0 -84 29.5t-34 78.5q0 50 33.5 79.5t82.5 29.5q50 0 84 -29.5t34 -79.5t-33 -79t-83 -29zM-158 783q21 0 34.5 12.5t13.5 35.5q0 22 -14 35t-34 13t-34 -13t-14 -35t14 -35t34 -13z" />
    <glyph glyph-name="tildecomb.case" 
d="M-297 760l-64 37q34 90 96 90q28 0 68 -20q30 -14 44 -14q22 0 38 34l65 -35q-34 -89 -96 -89q-27 0 -59 16q-38 18 -51 18q-24 0 -41 -37z" />
    <glyph glyph-name="uni0304.case" 
d="M-342 803v85h284v-85h-284z" />
    <glyph glyph-name="uni0312.case" 
d="M-178 765q9 113 56 192h74q-27 -91 -27 -192h-103z" />
    <glyph glyph-name="uni0326.case" 
d="M-178 -287q27 91 27 192h103q-9 -112 -57 -192h-73z" />
    <glyph glyph-name="uni0327.case" 
d="M-165 -228q-66 0 -112 28l28 63q31 -22 72 -22q47 0 48 29q2 25 -26 35.5t-68 9.5l35 85h79l-21 -51q38 -6 63.5 -27t25.5 -57q0 -44 -34.5 -68.5t-89.5 -24.5z" />
    <glyph glyph-name="uni0328.case" 
d="M-131 -228q-52 0 -80 25t-28 67q0 80 110 167l74 -31q-80 -58 -80 -108q0 -30 34 -30q22 0 42 14l24 -76q-42 -28 -96 -28z" />
    <glyph glyph-name="uni0308.narrow" 
d="M-290 540q-26 0 -42.5 17t-16.5 43t16.5 43.5t42.5 17.5t42 -17.5t16 -43.5t-16 -43t-42 -17zM-130 540q-26 0 -42.5 17t-16.5 43t16.5 43.5t42.5 17.5t42.5 -17.5t16.5 -43.5t-16.5 -43t-42.5 -17z" />
    <glyph glyph-name="uni0304.narrow" 
d="M-309 543v81h220v-81h-220z" />
    <glyph glyph-name="brevecombcy" 
d="M-174 524q-101 0 -146 86l59 44q31 -52 87 -52q55 0 86 52l60 -43q-22 -42 -60 -64.5t-86 -22.5z" />
    <glyph glyph-name="brevecombcy.case" 
d="M-167 739q-118 0 -171 98l68 46q38 -57 103 -57q67 0 105 57l66 -46q-50 -98 -171 -98z" />
    </font>
</defs>
</svg>
