<?xml version="1.0" standalone="no"?>
<!DOCTYPE svg PUBLIC "-//W3C//DTD SVG 1.1//EN" "http://www.w3.org/Graphics/SVG/1.1/DTD/svg11.dtd" >
<svg xmlns="http://www.w3.org/2000/svg" xmlns:xlink="http://www.w3.org/1999/xlink" version="1.1">
<metadata>
Created by FontForge 20170731 at Fri Feb 29 17:34:21 2008
 By Aleksey,,,
Copyright (URW)++, copyright 1999 by (URW)++ Design &#38; Development; Cyrillic glyphs added by Valek Filippov, copyright 2001-2002; Vietnamese characters were added by Han The Thanh; copyright 2006, 2008 for TeX Gyre extensions by B. Jackowski and J.M. Nowacki (on behalf of TeX users groups). This work is released under the GUST Font License --  see http://tug.org/fonts/licenses/GUST-FONT-LICENSE.txt for details.
</metadata>
<defs>
<font id="TeXGyreAdventor-Italic" horiz-adv-x="683" >
  <font-face 
    font-family="TeXGyreAdventor"
    font-weight="400"
    font-style="italic"
    font-stretch="normal"
    units-per-em="1000"
    panose-1="0 0 5 0 0 0 0 0 0 0"
    ascent="808"
    descent="-192"
    x-height="547"
    cap-height="739"
    bbox="-569 -297 1552 1158"
    underline-thickness="58"
    underline-position="-212"
    slope="-10.5"
    unicode-range="U+0020-FB04"
  />
<missing-glyph horiz-adv-x="280" 
 />
    <glyph glyph-name="I_J" unicode="IJ" horiz-adv-x="669" 
d="M244 739l-137 -739h-74l137 739h74zM713 739l-95 -508q-22 -121 -83.5 -183t-157.5 -62q-77 0 -121.5 41t-44.5 119q0 18 2 29h73q6 -64 28 -92.5t74 -28.5q62 0 100 43t56 134l95 508h74z" />
    <glyph glyph-name="i_j" unicode="ij" horiz-adv-x="405" 
d="M107 0h-74l101 547h74zM220 607h-74l23 126h74zM318 38q-35 -220 -229 -230l13 71q64 4 94.5 38.5t47.5 120.5l94 509h74zM424 607h-74l23 126h74z" />
    <glyph glyph-name="f_k" unicode="fk" horiz-adv-x="787" 
d="M405 672h-15q-64 0 -98 -29.5t-46 -95.5h135l-12 -67h-135l-89 -480h-74l89 480h-85l12 67h85q20 99 81 145.5t147 46.5h17zM752 0h-92l-141 219l-106 -106l-21 -113h-74l137 739h74l-97 -524l316 332h91l-264 -275z" />
    <glyph glyph-name="f_f" unicode="ff" horiz-adv-x="573" 
d="M652 672h-15q-64 0 -98 -29.5t-46 -95.5h135l-12 -67h-135l-89 -480h-74l89 480h-173l-89 -480h-74l89 480h-85l12 67h85q20 99 81 145.5t147 46.5h17l-12 -67h-15q-64 0 -98 -29.5t-46 -95.5h173q20 99 81 145.5t147 46.5h17z" />
    <glyph glyph-name="f_i" unicode="fi" horiz-adv-x="487" 
d="M405 672h-15q-64 0 -98 -29.5t-46 -95.5h135l-12 -67h-135l-89 -480h-74l89 480h-85l12 67h85q20 99 81 145.5t147 46.5h17zM394 0h-74l101 547h74zM507 607h-74l23 126h74z" />
    <glyph glyph-name="f_l" unicode="fl" horiz-adv-x="485" 
d="M405 672h-15q-64 0 -98 -29.5t-46 -95.5h135l-12 -67h-135l-89 -480h-74l89 480h-85l12 67h85q20 99 81 145.5t147 46.5h17zM529 739l-137 -739h-74l137 739h74z" />
    <glyph glyph-name="f_f_i" unicode="ffi" horiz-adv-x="732" 
d="M652 672h-15q-64 0 -98 -29.5t-46 -95.5h135l-12 -67h-135l-89 -480h-74l89 480h-173l-89 -480h-74l89 480h-85l12 67h85q20 99 81 145.5t147 46.5h17l-12 -67h-15q-64 0 -98 -29.5t-46 -95.5h173q20 99 81 145.5t147 46.5h17zM639 0h-74l101 547h74zM751 607h-74l23 126
h74z" />
    <glyph glyph-name="f_f_l" unicode="ffl" horiz-adv-x="732" 
d="M652 672h-15q-64 0 -98 -29.5t-46 -95.5h135l-12 -67h-135l-89 -480h-74l89 480h-173l-89 -480h-74l89 480h-85l12 67h85q20 99 81 145.5t147 46.5h17l-12 -67h-15q-64 0 -98 -29.5t-46 -95.5h173q20 99 81 145.5t147 46.5h17zM776 739l-137 -739h-74l137 739h74z" />
    <glyph glyph-name=".notdef" horiz-adv-x="280" 
 />
    <glyph glyph-name=".null" horiz-adv-x="0" 
 />
    <glyph glyph-name="nonmarkingreturn" horiz-adv-x="333" 
 />
    <glyph glyph-name="space" unicode=" " horiz-adv-x="277" 
 />
    <glyph glyph-name="exclam" unicode="!" horiz-adv-x="295" 
d="M155 0h-74l23 126h74zM192 197h-74l100 542h74z" />
    <glyph glyph-name="quotedbl" unicode="&#x22;" horiz-adv-x="309" 
d="M231 739l-42 -226h-50l42 226h50zM344 739l-42 -226h-50l42 226h50z" />
    <glyph glyph-name="numbersign" unicode="#" horiz-adv-x="554" 
d="M599 453h-122l-57 -156h115l-11 -60h-126l-87 -237h-66l87 237h-129l-88 -237h-66l89 237h-117l11 60h128l59 156h-121l11 60h132l85 226h64l-84 -226h127l83 226h66l-83 -226h111zM411 453h-127l-58 -156h128z" />
    <glyph glyph-name="dollar" unicode="$" horiz-adv-x="554" 
d="M494 264q0 -83 -56 -150.5t-152 -84.5l-16 -85h-66l16 85q-57 8 -97.5 47t-40.5 102q0 18 6 50h68q-2 -24 -2 -32q0 -47 29.5 -76.5t77.5 -29.5q65 0 110.5 47.5t45.5 114.5q0 41 -23 65.5t-89 45.5q-78 24 -108 59.5t-30 90.5q0 79 51.5 139.5t131.5 75.5l15 82h66
l-15 -82q68 -15 98.5 -51.5t30.5 -103.5q0 -4 -2 -26h-70q2 23 2 32q0 38 -27 62t-69 24q-59 0 -99.5 -42.5t-40.5 -106.5q0 -29 22.5 -48.5t81.5 -39.5q90 -31 120.5 -67.5t30.5 -96.5z" />
    <glyph glyph-name="percent" unicode="%" horiz-adv-x="775" 
d="M696 739l-471 -739h-72l468 739h75zM755 195q0 -81 -64 -144.5t-146 -63.5q-64 0 -105.5 41t-41.5 104q0 80 64.5 143t147.5 63q62 0 103.5 -41t41.5 -102zM687 185q0 35 -25.5 60t-62.5 25q-52 0 -92.5 -39t-40.5 -89q0 -37 25.5 -62t62.5 -25q53 0 93 39t40 91z
M444 606q0 -81 -64 -145t-145 -64q-64 0 -106 41t-42 104q0 78 64 142.5t148 64.5q62 0 103.5 -41t41.5 -102zM376 595q0 36 -25.5 61t-62.5 25q-53 0 -93 -38.5t-40 -90.5q0 -37 25 -62t63 -25q53 0 93 39t40 91z" />
    <glyph glyph-name="ampersand" unicode="&#x26;" horiz-adv-x="757" 
d="M713 38l-60 -51l-141 166q-107 -166 -256 -166q-88 0 -140.5 50.5t-52.5 135.5q0 61 34 119t93 95l71 37q10 5 17 9q-55 75 -55 127q0 76 63 134t146 58q66 0 107.5 -37.5t41.5 -97.5q0 -69 -39.5 -115t-140.5 -91l115 -138l146 208h82l-184 -261zM467 206l-146 174
q-102 -47 -144 -92.5t-42 -110.5q0 -53 37 -87.5t94 -34.5q51 0 104 39t97 112zM509 603q0 38 -23.5 59.5t-64.5 21.5q-46 0 -83.5 -34t-37.5 -78q0 -23 12 -45t45 -63q92 38 122 66t30 73z" />
    <glyph glyph-name="quotesingle" unicode="'" horiz-adv-x="198" 
d="M231 739l-42 -226h-50l42 226h50z" />
    <glyph glyph-name="parenleft" unicode="(" horiz-adv-x="369" 
d="M282 -125q-98 39 -152 135.5t-54 210.5q0 98 44.5 203t130 193t191.5 122l-12 -63q-135 -81 -206 -201.5t-71 -242.5q0 -194 141 -292z" />
    <glyph glyph-name="parenright" unicode=")" horiz-adv-x="369" 
d="M347 392q0 -100 -45 -203.5t-130 -189t-192 -124.5l12 64q118 63 198 190.5t80 252.5q0 185 -142 292l12 65q94 -34 150.5 -133t56.5 -214z" />
    <glyph glyph-name="asterisk" unicode="*" horiz-adv-x="425" 
d="M438 547l-102 21l39 -100l-53 -19l-35 101l-70 -80l-44 36l75 79l-106 17l10 52l105 -22l-40 102l55 18l34 -100l70 82l41 -38l-73 -81l103 -16z" />
    <glyph glyph-name="plus" unicode="+" horiz-adv-x="606" 
d="M566 213h-203v-203h-74v203h-203v74h203v203h74v-203h203v-74z" />
    <glyph glyph-name="comma" unicode="," horiz-adv-x="277" 
d="M246 126l-124 -193h-73l124 193h73z" />
    <glyph glyph-name="hyphen" unicode="-" horiz-adv-x="332" 
d="M334 296l-12 -63h-272l12 63h272z" />
    <glyph glyph-name="period" unicode="." horiz-adv-x="277" 
d="M145 0h-74l23 126h74z" />
    <glyph glyph-name="slash" unicode="/" horiz-adv-x="437" 
d="M504 739l-451 -867h-67l449 867h69z" />
    <glyph glyph-name="zero" unicode="0" horiz-adv-x="554" 
d="M582 479l-39 -210q-53 -282 -296 -282q-95 0 -150.5 50.5t-55.5 137.5q0 47 8 85l2 9l39 210q25 136 102.5 204.5t195.5 68.5q89 0 146 -50.5t57 -126.5q0 -47 -9 -96zM472 281l33 181q9 52 9 88q0 63 -39.5 98.5t-100.5 35.5q-175 0 -215 -222l-33 -181q-8 -37 -8 -92
q0 -60 39 -97t103 -37q86 0 138 53.5t74 172.5z" />
    <glyph glyph-name="one" unicode="1" horiz-adv-x="554" 
d="M461 739l-137 -739h-73l125 672h-126l12 67h199z" />
    <glyph glyph-name="two" unicode="2" horiz-adv-x="554" 
d="M472 0h-469l12 67l306 250q107 87 143 136t36 107q0 56 -36 90t-96 34q-76 0 -127.5 -49t-65.5 -135h-73q17 112 94.5 182t184.5 70q88 0 142 -49.5t54 -130.5q0 -74 -39 -134t-143 -144l-280 -227h369z" />
    <glyph glyph-name="three" unicode="3" horiz-adv-x="554" 
d="M518 270q0 -112 -84 -197.5t-194 -85.5q-88 0 -143.5 52t-55.5 132q0 22 3 60h73l-1 -15q0 -86 33.5 -123.5t97.5 -37.5q77 0 135.5 59t58.5 138q0 74 -45.5 105t-135.5 31l12 66l39 -2q61 0 103.5 40t42.5 101q0 40 -25 65.5t-68 25.5q-53 0 -92 -36.5t-45 -92.5h-73
q19 93 81.5 145t143.5 52q70 0 112.5 -41t42.5 -107q0 -113 -108 -181q92 -49 92 -153z" />
    <glyph glyph-name="four" unicode="4" horiz-adv-x="554" 
d="M523 135h-68l-25 -135h-73l25 135h-375l12 67l461 537h87l-100 -537h68zM475 637l-370 -435h289z" />
    <glyph glyph-name="five" unicode="5" horiz-adv-x="554" 
d="M547 297q0 -122 -92.5 -216t-208.5 -94q-86 0 -147.5 57t-61.5 146v42h72q0 -89 39.5 -133t104.5 -44q88 0 152.5 69t64.5 162q0 66 -40 107.5t-104 41.5q-86 0 -168 -82l-53 22l133 364h335l-12 -67h-276l-74 -204q74 35 136 35q89 0 144.5 -57.5t55.5 -148.5z" />
    <glyph glyph-name="six" unicode="6" horiz-adv-x="554" 
d="M549 299q0 -126 -90 -219t-212 -93q-93 0 -152 56.5t-59 145.5q0 71 24.5 125.5t109.5 152.5l233 272h85l-221 -257q50 21 91 21q84 0 137.5 -57t53.5 -147zM472 286q0 67 -38.5 108t-102.5 41q-86 0 -152 -68.5t-66 -162.5q0 -68 40.5 -108.5t107.5 -40.5
q84 0 147.5 70.5t63.5 160.5z" />
    <glyph glyph-name="seven" unicode="7" horiz-adv-x="554" 
d="M585 672l-429 -672h-78l431 672h-350l12 67h426z" />
    <glyph glyph-name="eight" unicode="8" horiz-adv-x="554" 
d="M526 267q0 -116 -81 -198t-196 -82q-92 0 -146.5 51.5t-54.5 137.5q0 74 44.5 138.5t120.5 98.5q-37 28 -49.5 52t-12.5 62q0 91 73 158t163 67q73 0 118 -41.5t45 -107.5q0 -62 -29 -113t-90 -77q95 -50 95 -146zM451 250q0 56 -36.5 90.5t-95.5 34.5
q-79 0 -136.5 -56.5t-57.5 -137.5q0 -55 38 -90.5t96 -35.5q79 0 135.5 57.5t56.5 137.5zM473 587q0 44 -27 70.5t-73 26.5q-59 0 -102 -42.5t-43 -100.5q0 -41 30 -69t74 -28q57 0 99 44t42 99z" />
    <glyph glyph-name="nine" unicode="9" horiz-adv-x="554" 
d="M595 550q0 -71 -32 -137q-22 -46 -103 -141l-233 -272h-85l222 257q-50 -21 -91 -21q-83 0 -137 56.5t-54 142.5q0 128 89.5 222.5t210.5 94.5q95 0 154 -56t59 -146zM518 532q0 68 -41 110t-107 42q-86 0 -148.5 -71.5t-62.5 -157.5q0 -68 38 -109.5t102 -41.5
q89 0 154 68t65 160z" />
    <glyph glyph-name="colon" unicode=":" horiz-adv-x="277" 
d="M217 381h-74l23 126h74zM145 0h-74l23 126h74z" />
    <glyph glyph-name="semicolon" unicode=";" horiz-adv-x="277" 
d="M196 126l-124 -193h-73l125 193h72zM245 381h-74l23 126h74z" />
    <glyph glyph-name="less" unicode="&#x3c;" horiz-adv-x="606" 
d="M503 -95l-378 317v56l378 317v-96l-296 -249l296 -249v-96z" />
    <glyph glyph-name="equal" unicode="=" horiz-adv-x="606" 
d="M566 305h-480v74h480v-74zM566 121h-480v74h480v-74z" />
    <glyph glyph-name="greater" unicode="&#x3e;" horiz-adv-x="606" 
d="M503 222l-378 -317v96l296 249l-296 249v96l378 -317v-56z" />
    <glyph glyph-name="question" unicode="?" horiz-adv-x="591" 
d="M305 0h-74l23 126h74zM597 577q0 -64 -25 -108t-101 -104q-65 -52 -94.5 -91t-37.5 -81h-70q9 102 139 204q66 52 85 81q27 39 27 89q0 52 -35 84.5t-91 32.5q-148 0 -195 -176h-70q26 118 101 181t178 63q86 0 137.5 -48t51.5 -127z" />
    <glyph glyph-name="at" unicode="@" horiz-adv-x="867" 
d="M853 489q0 -78 -45 -160.5t-113.5 -136t-132.5 -53.5q-36 0 -54 13t-25 44q-66 -52 -129 -52q-52 0 -82.5 30.5t-30.5 82.5q0 72 48 151.5t119.5 132t135.5 52.5q82 0 102 -69l26 50h61l-145 -278q-26 -54 -30 -64t-4 -21q0 -8 9 -14t22 -6q40 0 90.5 42.5t87.5 112.5
t37 136q0 96 -69.5 157t-178.5 61q-153 0 -274.5 -120.5t-121.5 -272.5q0 -117 77.5 -192.5t197.5 -75.5q137 0 252 99l34 -33q-130 -118 -304 -118q-134 0 -222 88t-88 223q0 118 64.5 223t172 168t228.5 63q123 0 204 -74.5t81 -188.5zM598 482q0 26 -16 42t-45 17h-5
q-44 0 -96 -44.5t-87.5 -108.5t-35.5 -117q0 -32 17.5 -50.5t46.5 -18.5q40 0 76 28.5t79 93.5q66 101 66 158z" />
    <glyph glyph-name="A" unicode="A" horiz-adv-x="740" 
d="M699 0h-81l-61 249h-344l-154 -249h-78l454 739h83zM541 316l-80 339l-207 -339h287z" />
    <glyph glyph-name="B" unicode="B" horiz-adv-x="574" 
d="M558 260q0 -57 -23 -109.5t-62 -86.5q-40 -35 -95.5 -49.5t-148.5 -14.5h-183l137 739h173q113 0 167 -35t54 -109q0 -67 -29.5 -121.5t-90.5 -79.5q56 -27 78.5 -57t22.5 -77zM481 242q0 65 -50 92q-37 20 -157 20h-91l-51 -287h101q138 0 193 46t55 129zM500 578
q0 53 -35.5 73.5t-129.5 20.5h-90l-47 -251h90q68 0 105 9t62 32q45 42 45 116z" />
    <glyph glyph-name="C" unicode="C" horiz-adv-x="813" 
d="M777 194q-67 -98 -165 -152.5t-210 -54.5q-145 0 -235.5 84.5t-90.5 218.5q0 123 63 229.5t170 169.5t230 63q114 0 197.5 -57t102.5 -148h-82q-61 137 -228 137q-96 0 -183 -51.5t-140 -138.5t-53 -184q0 -111 74 -183t187 -72q154 0 281 139h82z" />
    <glyph glyph-name="D" unicode="D" horiz-adv-x="744" 
d="M744 448q0 -102 -43 -192t-122 -154q-68 -54 -146 -78t-188 -24h-199l137 739h174q186 0 269 -58q118 -81 118 -233zM667 435q0 116 -73.5 176.5t-245.5 60.5h-103l-113 -605h103q116 0 188 22.5t129 75.5q53 49 84 122t31 148z" />
    <glyph glyph-name="E" unicode="E" horiz-adv-x="536" 
d="M575 672h-330l-50 -265h319l-12 -67h-319l-51 -273h330l-12 -67h-404l137 739h404z" />
    <glyph glyph-name="F" unicode="F" horiz-adv-x="485" 
d="M546 672h-301l-50 -267h290l-12 -67h-290l-63 -338h-74l137 739h375z" />
    <glyph glyph-name="G" unicode="G" horiz-adv-x="872" 
d="M864 341q-37 -147 -166 -250.5t-282 -103.5q-149 0 -244 87.5t-95 225.5q0 88 38.5 171t102 144.5t150 99t177.5 37.5q121 0 206 -57.5t106 -152.5h-84q-23 65 -85.5 103.5t-145.5 38.5q-157 0 -272.5 -111t-115.5 -261q0 -116 76.5 -186.5t194.5 -70.5q105 0 197.5 60
t140.5 159h-414l12 67h503z" />
    <glyph glyph-name="H" unicode="H" 
d="M714 739l-137 -739h-74l64 347h-383l-64 -347h-74l137 739h74l-60 -325h383l60 325h74z" />
    <glyph glyph-name="I" unicode="I" horiz-adv-x="226" 
d="M257 739l-137 -739h-74l137 739h74z" />
    <glyph glyph-name="J" unicode="J" horiz-adv-x="482" 
d="M513 739l-95 -508q-22 -121 -83.5 -183t-157.5 -62q-77 0 -121.5 41t-44.5 119q0 18 2 29h73q6 -64 28 -92.5t74 -28.5q62 0 100 43t56 134l95 508h74z" />
    <glyph glyph-name="K" unicode="K" horiz-adv-x="591" 
d="M692 739l-359 -360l222 -379h-93l-187 320l-118 -118l-37 -202h-74l137 739h74l-79 -425l421 425h93z" />
    <glyph glyph-name="L" unicode="L" horiz-adv-x="462" 
d="M426 0h-380l137 739h74l-125 -672h306z" />
    <glyph glyph-name="M" unicode="M" horiz-adv-x="919" 
d="M950 739l-137 -739h-74l122 658l-400 -658h-64l-155 658l-122 -658h-74l137 739h115l152 -629l385 629h115z" />
    <glyph glyph-name="N" unicode="N" horiz-adv-x="740" 
d="M771 739l-137 -739h-74l-320 650l-120 -650h-74l137 739h100l300 -613l114 613h74z" />
    <glyph glyph-name="O" unicode="O" horiz-adv-x="869" 
d="M870 436q0 -114 -66.5 -218.5t-176 -167.5t-229.5 -63q-135 0 -228.5 90t-93.5 225q0 115 66.5 219.5t176 167.5t229.5 63q133 0 227.5 -89.5t94.5 -226.5zM793 422q0 114 -74 188t-189 74q-143 0 -260 -114t-117 -254q0 -110 74.5 -185.5t182.5 -75.5q149 0 266 112.5
t117 254.5z" />
    <glyph glyph-name="P" unicode="P" horiz-adv-x="592" 
d="M635 572q0 -57 -20.5 -110.5t-57.5 -90.5q-39 -39 -94 -55.5t-146 -16.5h-142l-55 -299h-74l137 739h205q131 0 189 -39.5t58 -127.5zM558 558q0 64 -47 92q-36 22 -161 22h-105l-57 -306h137q72 0 113.5 12t68.5 41q23 25 37 63t14 76z" />
    <glyph glyph-name="Q" unicode="Q" horiz-adv-x="871" 
d="M883 447q0 -103 -48.5 -198.5t-131.5 -155.5q44 -38 88 -38q9 0 16 1l-13 -69q-54 1 -84.5 14t-65.5 50q-102 -64 -233 -64q-145 0 -240.5 89t-95.5 223q0 120 68 225.5t178 166.5t230 61q149 0 240.5 -84.5t91.5 -220.5zM593 100q-66 73 -136 105t-163 32
q-68 0 -123 -21q16 -60 88 -110.5t162 -50.5q89 0 172 45zM806 427q0 115 -73.5 186t-192.5 71q-159 0 -273.5 -114t-114.5 -285l-1 -6q88 26 169 26q103 0 175.5 -36t163.5 -127q79 70 113 137t34 148z" />
    <glyph glyph-name="R" unicode="R" horiz-adv-x="607" 
d="M643 553q0 -114 -73 -190.5t-190 -86.5l156 -276h-92l-187 335q141 0 200 24q48 20 78.5 71t30.5 111q0 71 -50 101t-167 30h-104l-125 -672h-74l137 739h183q150 0 213.5 -44.5t63.5 -141.5z" />
    <glyph glyph-name="S" unicode="S" horiz-adv-x="498" 
d="M488 246q0 -102 -81 -180.5t-188 -78.5q-85 0 -139 49.5t-54 128.5q0 10 2 42h79q0 -80 31.5 -116t95.5 -36q72 0 124.5 52.5t52.5 124.5q0 46 -30 72.5t-109 51.5q-97 30 -127 65.5t-30 98.5q0 89 72.5 160.5t173.5 71.5q78 0 125.5 -44.5t47.5 -117.5q0 -11 -3 -38h-77
q0 132 -106 132q-65 0 -110.5 -47.5t-45.5 -105.5q0 -15 6.5 -34t15.5 -28q11 -11 29 -19.5t72 -26.5q110 -37 141 -76q32 -41 32 -101z" />
    <glyph glyph-name="T" unicode="T" horiz-adv-x="426" 
d="M514 672h-169l-125 -672h-74l125 672h-169l12 67h412z" />
    <glyph glyph-name="U" unicode="U" horiz-adv-x="655" 
d="M601 278q-27 -145 -107.5 -218t-197.5 -73q-92 0 -149.5 52t-57.5 134q0 44 11 105l85 461h74l-85 -461q-9 -48 -9 -90q0 -59 40 -96t104 -37q84 0 140.5 55t77.5 168l85 461h74z" />
    <glyph glyph-name="V" unicode="V" horiz-adv-x="702" 
d="M799 739l-443 -739h-72l-167 739h81l140 -647l381 647h80z" />
    <glyph glyph-name="W" unicode="W" horiz-adv-x="960" 
d="M1057 739l-349 -739h-95l-52 606l-274 -606h-96l-74 739h76l63 -643l296 643h70l58 -643l301 643h76z" />
    <glyph glyph-name="X" unicode="X" horiz-adv-x="609" 
d="M571 0h-88l-149 316l-269 -316h-87l321 378l-170 361h87l141 -296l250 296h86l-304 -361z" />
    <glyph glyph-name="Y" unicode="Y" horiz-adv-x="592" 
d="M697 739l-349 -492l-46 -247h-74l46 247l-165 492h82l133 -414l292 414h81z" />
    <glyph glyph-name="Z" unicode="Z" horiz-adv-x="480" 
d="M444 0h-457l12 67l476 605h-352l12 67h435l-12 -67l-475 -605h373z" />
    <glyph glyph-name="bracketleft" unicode="[" horiz-adv-x="351" 
d="M274 -50l-14 -75q-158 48 -158 211q0 26 10 78l55 298q16 101 84.5 176.5t168.5 100.5l-14 -75q-76 -29 -115 -78t-57 -138l-50 -271q-10 -51 -10 -88q0 -95 100 -139z" />
    <glyph glyph-name="backslash" unicode="\" horiz-adv-x="605" 
d="M434 0h-71l-172 739h72z" />
    <glyph glyph-name="bracketright" unicode="]" horiz-adv-x="351" 
d="M238 153q-20 -106 -85.5 -178t-168.5 -100l14 75q75 27 115.5 78.5t56.5 137.5l50 272q10 51 10 88q0 96 -100 138l14 75q73 -22 115.5 -75t42.5 -123q0 -43 -9 -91z" />
    <glyph glyph-name="asciicircum" unicode="^" horiz-adv-x="606" 
d="M591 180h-81l-114 477l-292 -477h-83l347 559h84z" />
    <glyph glyph-name="underscore" unicode="_" horiz-adv-x="500" 
d="M458 -67l-11 -58h-500l11 58h500z" />
    <glyph glyph-name="grave" unicode="`" horiz-adv-x="375" 
d="M354 650l-45 -56l-172 114l46 58z" />
    <glyph glyph-name="a" unicode="a" 
d="M590 0h-74l18 96q-61 -62 -111 -85.5t-120 -23.5q-110 0 -177.5 63t-67.5 166q0 139 103 241.5t243 102.5q139 0 195 -110l18 97h74zM571 319q0 75 -49.5 124t-124.5 49q-104 0 -183 -77.5t-79 -179.5q0 -80 50.5 -130t132.5 -50q100 0 176.5 80t76.5 184z" />
    <glyph glyph-name="b" unicode="b" horiz-adv-x="682" 
d="M666 330q0 -139 -104 -241t-244 -102q-67 0 -117.5 28t-76.5 79l-17 -94h-74l137 739h74l-53 -286q43 51 104.5 79t129.5 28q105 0 173 -65t68 -165zM589 318q0 78 -49 126t-129 48q-103 0 -183 -78.5t-80 -176.5q0 -78 51 -130t130 -52q104 0 182 79t78 184z" />
    <glyph glyph-name="c" unicode="c" horiz-adv-x="647" 
d="M609 161q-70 -95 -141.5 -134.5t-158.5 -39.5q-112 0 -181.5 65t-69.5 170q0 133 106 235.5t244 102.5q94 0 158.5 -48t82.5 -131h-83q-20 53 -64.5 82t-105.5 29q-104 0 -182.5 -78t-78.5 -181q0 -78 51.5 -128t131.5 -50q61 0 102.5 21t105.5 85h83z" />
    <glyph glyph-name="d" unicode="d" horiz-adv-x="685" 
d="M729 739l-137 -739h-74l18 99q-53 -60 -106.5 -86t-124.5 -26q-107 0 -177 65t-70 165q0 137 105 240t245 103q127 0 195 -100l52 279h74zM576 318q0 75 -52.5 124.5t-131.5 49.5q-101 0 -179 -78t-78 -178q0 -81 51 -131t134 -50q99 0 177.5 80.5t78.5 182.5z" />
    <glyph glyph-name="e" unicode="e" horiz-adv-x="650" 
d="M626 249h-495q-2 -24 -2 -28q0 -70 52 -118t127 -48q61 0 121.5 35t92.5 90h77q-48 -88 -130.5 -140.5t-173.5 -52.5q-102 0 -169.5 66.5t-67.5 166.5q0 135 102.5 237.5t237.5 102.5q104 0 170.5 -64t66.5 -164q0 -32 -9 -83zM565 316q-4 81 -52.5 128.5t-127.5 47.5
q-78 0 -145 -49.5t-94 -126.5h419z" />
    <glyph glyph-name="f" unicode="f" horiz-adv-x="314" 
d="M405 672h-15q-64 0 -98 -29.5t-46 -95.5h135l-12 -67h-135l-89 -480h-74l89 480h-85l12 67h85q20 99 81 145.5t147 46.5h17z" />
    <glyph glyph-name="g" unicode="g" horiz-adv-x="673" 
d="M681 547l-84 -449q-17 -88 -35 -132t-55 -83q-92 -98 -242 -98q-99 0 -158.5 47t-76.5 151h72q33 -77 70 -103.5t107 -26.5q97 0 158.5 56t81.5 165l7 37q-81 -124 -231 -124q-104 0 -171 65t-67 167q0 135 103 238t236 103q67 0 109.5 -22.5t83.5 -87.5l18 97h74z
M562 325q0 72 -50.5 119.5t-126.5 47.5q-96 0 -173.5 -76t-77.5 -180q0 -78 45 -129.5t128 -51.5q100 0 177.5 80.5t77.5 189.5z" />
    <glyph glyph-name="h" unicode="h" horiz-adv-x="610" 
d="M515 0h-74l54 294q7 44 7 72q0 55 -39 90.5t-100 35.5q-76 0 -129 -49.5t-71 -142.5l-56 -300h-74l137 739h74l-49 -263q76 84 185 84q94 0 146.5 -48.5t52.5 -135.5q0 -26 -10 -82z" />
    <glyph glyph-name="i" unicode="i" horiz-adv-x="200" 
d="M107 0h-74l101 547h74zM220 607h-74l23 126h74z" />
    <glyph glyph-name="j" unicode="j" horiz-adv-x="203" 
d="M118 38q-35 -220 -229 -230l13 71q64 4 94.5 38.5t47.5 120.5l94 509h74zM224 607h-74l23 126h74z" />
    <glyph glyph-name="k" unicode="k" horiz-adv-x="502" 
d="M467 0h-92l-141 219l-106 -106l-21 -113h-74l137 739h74l-97 -524l316 332h91l-264 -275z" />
    <glyph glyph-name="l" unicode="l" horiz-adv-x="200" 
d="M244 739l-137 -739h-74l137 739h74z" />
    <glyph glyph-name="m" unicode="m" horiz-adv-x="938" 
d="M843 0h-74l59 317q6 36 6 62q0 52 -31.5 82.5t-86.5 30.5q-69 0 -117 -43.5t-65 -131.5l-59 -317h-74l59 319q6 31 6 53q0 59 -34 89.5t-87 30.5q-68 0 -116 -46.5t-63 -126.5l-59 -319h-74l101 547h74l-11 -63q47 47 81 61.5t85 14.5q128 0 159 -105q49 56 97 80.5
t112 24.5q81 0 130.5 -43.5t49.5 -114.5q0 -31 -8 -77z" />
    <glyph glyph-name="n" unicode="n" horiz-adv-x="610" 
d="M515 0h-74l53 287q8 45 8 74q0 60 -37.5 95.5t-101.5 35.5q-76 0 -129 -47t-71 -144l-56 -301h-74l101 547h74l-13 -71q87 84 188 84q90 0 143 -49t53 -132q0 -35 -11 -92z" />
    <glyph glyph-name="o" unicode="o" horiz-adv-x="655" 
d="M639 332q0 -140 -102 -242.5t-234 -102.5q-109 0 -177.5 63.5t-68.5 164.5q0 141 105 243t243 102q104 0 169 -63t65 -165zM562 325q0 73 -48 120t-122 47q-105 0 -181.5 -78.5t-76.5 -185.5q0 -77 49.5 -125t129.5 -48q104 0 176.5 78.5t72.5 191.5z" />
    <glyph glyph-name="p" unicode="p" horiz-adv-x="682" 
d="M665 325q0 -133 -104.5 -235.5t-240.5 -102.5q-140 0 -196 107l-53 -286h-74l137 739h74l-17 -94q37 49 100 78t134 29q108 0 174 -65t66 -170zM588 317q0 76 -50.5 125.5t-128.5 49.5q-99 0 -180.5 -76.5t-81.5 -188.5q0 -74 51 -123t127 -49q101 0 182 76.5t81 185.5z
" />
    <glyph glyph-name="q" unicode="q" horiz-adv-x="682" 
d="M690 547l-137 -739h-74l53 286q-91 -107 -237 -107q-104 0 -171 65t-67 165q0 137 103.5 240t241.5 103q145 0 197 -107l17 94h74zM575 318q0 75 -51.5 124.5t-130.5 49.5q-103 0 -181 -79t-78 -184q0 -76 49.5 -125t126.5 -49q105 0 185 78t80 185z" />
    <glyph glyph-name="r" unicode="r" horiz-adv-x="301" 
d="M366 560l-14 -73q-158 -17 -186 -168l-59 -319h-74l101 547h74l-14 -78q30 45 69.5 66t102.5 25z" />
    <glyph glyph-name="s" unicode="s" horiz-adv-x="388" 
d="M362 189q0 -83 -61 -142.5t-142 -59.5q-66 0 -106 38t-40 92q0 20 3 44h73q0 -62 20.5 -84t62.5 -22q46 0 79.5 33.5t33.5 78.5q0 31 -16 47.5t-72 40.5q-45 20 -62.5 30t-28.5 23q-26 29 -26 72q0 72 57.5 126t130.5 54q55 0 91 -33.5t36 -84.5q0 -19 -1 -30h-75
q0 80 -65 80q-37 0 -67 -28.5t-30 -63.5q0 -38 38 -59q18 -9 95 -44q72 -32 72 -108z" />
    <glyph glyph-name="t" unicode="t" horiz-adv-x="339" 
d="M386 480h-129l-89 -480h-74l89 480h-112l12 67h112l36 192h74l-36 -192h129z" />
    <glyph glyph-name="u" unicode="u" horiz-adv-x="608" 
d="M616 547l-102 -547h-74l16 85q-40 -53 -85.5 -75.5t-110.5 -22.5q-87 0 -139 45.5t-52 122.5q0 47 9 97l55 295h74l-55 -295q-6 -26 -6 -67q0 -62 34 -96t100 -34q77 0 132.5 50.5t76.5 160.5l53 281h74z" />
    <glyph glyph-name="v" unicode="v" horiz-adv-x="554" 
d="M617 547l-331 -547h-78l-129 547h75l107 -460l281 460h75z" />
    <glyph glyph-name="w" unicode="w" horiz-adv-x="831" 
d="M895 547l-313 -547h-79l-52 363l-185 -363h-80l-108 547h74l89 -458l202 391h61l56 -391l263 458h72z" />
    <glyph glyph-name="x" unicode="x" horiz-adv-x="480" 
d="M442 0h-85l-106 219l-189 -219h-84l242 279l-141 268h84l109 -211l186 211h85l-240 -268z" />
    <glyph glyph-name="y" unicode="y" horiz-adv-x="536" 
d="M598 547l-453 -739h-78l127 210l-114 529h81l92 -436l266 436h79z" />
    <glyph glyph-name="z" unicode="z" horiz-adv-x="425" 
d="M385 0h-405l12 67l379 413h-292l12 67h376l-11 -63l-377 -417h318z" />
    <glyph glyph-name="braceleft" unicode="{" horiz-adv-x="351" 
d="M378 739l-13 -67q-49 -4 -63 -15.5t-25 -55.5l-32 -170q-12 -58 -34 -82.5t-78 -42.5q41 -14 55.5 -31.5t14.5 -53.5l-3 -38l-32 -170q-3 -15 -3 -31q0 -21 11 -29t44 -11l10 -1l-13 -67q-73 2 -93 14q-37 22 -37 71q0 32 4 54l32 170l3 32q0 28 -11.5 38.5t-50.5 18.5
l13 69q47 8 65.5 26t25.5 64l32 170q23 89 55.5 112.5t122.5 25.5z" />
    <glyph glyph-name="bar" unicode="|" horiz-adv-x="672" 
d="M396 -125h-74v864h74v-864z" />
    <glyph glyph-name="braceright" unicode="}" horiz-adv-x="351" 
d="M296 341l-13 -69q-49 -9 -63.5 -23t-27.5 -66l-31 -170q-15 -81 -53 -110t-124 -29l12 67q49 4 62.5 14.5t26.5 57.5l31 170q8 52 33 79.5t78 43.5q-45 20 -57.5 34.5t-12.5 44.5q0 23 5 46l32 170q1 4 1 31q0 21 -10 28.5t-42 10.5l-11 1l12 67q73 -2 93 -14
q38 -23 38 -77q0 -15 -5 -47l-32 -170l-4 -41q0 -21 13.5 -31.5t48.5 -17.5z" />
    <glyph glyph-name="asciitilde" unicode="~" horiz-adv-x="606" 
d="M589 343q-35 -51 -79 -81.5t-83 -30.5q-28 0 -87 26l-50 22q-47 20 -69 20q-31 0 -53 -16.5t-66 -72.5l-33 47q48 65 86 92.5t80 27.5q29 0 73 -19l60 -27q50 -23 75 -22q47 0 111 81z" />
    <glyph glyph-name="uni00A0" unicode="&#xa0;" horiz-adv-x="277" 
 />
    <glyph glyph-name="exclamdown" unicode="&#xa1;" horiz-adv-x="295" 
d="M232 421h-74l23 126h74zM118 -192h-74l100 542h74z" />
    <glyph glyph-name="cent" unicode="&#xa2;" horiz-adv-x="554" 
d="M565 463h-82q-1 2 -2.5 4.5t-2.5 4.5l-1 3q-35 72 -123 72q-77 0 -135.5 -58.5t-58.5 -135.5q0 -61 37 -98.5t97 -37.5q83 0 153 73h80q-28 -54 -84 -92t-119 -47l-16 -89h-67l16 89q-77 7 -125.5 59t-48.5 128q0 100 73 180.5t187 95.5l17 93h67l-17 -93
q64 -11 104.5 -50t50.5 -101z" />
    <glyph glyph-name="sterling" unicode="&#xa3;" horiz-adv-x="554" 
d="M603 268q0 -126 -79 -197t-211 -71h-285l12 67h138q30 28 48 69t18 84q0 31 -15.5 59.5t-53.5 67.5h-124l13 67h76q-12 40 -12 67q0 111 88.5 191t197.5 80q93 0 152 -53.5t59 -129.5q0 -4 -2 -28h-70q0 65 -41 104t-110 39q-81 0 -139 -61t-58 -147q0 -24 15 -62h283
l-13 -67h-216q47 -64 47 -128q0 -68 -56 -152h57q102 0 155.5 54t53.5 147h72z" />
    <glyph glyph-name="currency" unicode="&#xa4;" horiz-adv-x="554" 
d="M560 352q0 -55 -21.5 -109.5t-57.5 -89.5l34 -42l-64 -53l-33 42q-88 -50 -163 -50q-42 0 -73 11t-66 39l-51 -42l-44 53l51 42q-23 39 -23 97q0 110 78 202l-35 43l64 54l35 -42q54 28 86 37.5t72 9.5q87 0 142 -47l51 42l43 -54l-49 -43q24 -55 24 -100zM488 340
q0 67 -42 104t-105 37q-89 0 -154.5 -64.5t-65.5 -146.5q0 -67 41 -107t110 -40q87 0 151.5 64.5t64.5 152.5z" />
    <glyph glyph-name="yen" unicode="&#xa5;" horiz-adv-x="554" 
d="M696 739l-195 -276h102l-13 -67h-138l-66 -92h180l-12 -67h-205l-44 -237h-74l44 237h-208l12 67h182l-32 92h-140l13 67h104l-97 276h76l145 -412l290 412h76z" />
    <glyph glyph-name="brokenbar" unicode="&#xa6;" horiz-adv-x="672" 
d="M396 393h-74v346h74v-346zM396 -125h-74v346h74v-346z" />
    <glyph glyph-name="section" unicode="&#xa7;" horiz-adv-x="615" 
d="M553 315q0 -93 -104 -169q31 -38 31 -76q0 -92 -69 -151.5t-155 -59.5q-76 0 -124 47.5t-48 115.5q0 16 3 42h68q-1 -9 -1 -25q0 -50 32.5 -81t84.5 -31q55 0 98 38.5t43 86.5q0 43 -78 85l-130 70q-47 26 -67.5 49.5t-20.5 53.5q0 53 31.5 101.5t86.5 79.5
q-24 28 -24 70q0 76 61.5 133.5t144.5 57.5q62 0 106 -35.5t44 -85.5q0 -3 -2 -25h-71q-3 78 -93 78q-49 0 -84.5 -32.5t-35.5 -76.5q0 -47 45 -70l143 -74q85 -44 85 -116zM481 300q0 42 -45 65l-171 89q-33 -21 -55 -55.5t-22 -65.5q0 -14 11.5 -29.5t29.5 -25.5l181 -96
q71 47 71 118z" />
    <glyph glyph-name="dieresis" unicode="&#xa8;" horiz-adv-x="369" 
d="M229 607h-74l23 126h74zM376 607h-74l23 126h74z" />
    <glyph glyph-name="copyright" unicode="&#xa9;" horiz-adv-x="747" 
d="M751 341q0 -146 -104 -249.5t-250 -103.5t-249.5 103.5t-103.5 249.5t103.5 250t249.5 104t250 -104t104 -250zM714 341q0 131 -93 224t-224 93t-223.5 -93t-92.5 -224t92.5 -223.5t223.5 -92.5t224 92.5t93 223.5zM630 430h-61q-36 74 -135 74q-85 0 -149 -58t-63 -135
q1 -58 44 -95.5t109 -37.5q90 0 164 75h62q-39 -60 -101 -93.5t-134 -33.5q-89 0 -145 47.5t-58 122.5q-2 105 81.5 182.5t198.5 77.5q74 0 126.5 -35.5t60.5 -90.5z" />
    <glyph glyph-name="ordfeminine" unicode="&#xaa;" horiz-adv-x="369" 
d="M447 739l-54 -291h-48l8 45q-49 -52 -114 -52q-52 0 -88 37t-36 91q0 68 57.5 122t130.5 54q53 0 88 -51l8 45h48zM370 610q0 36 -22.5 61t-56.5 25q-47 0 -85 -37.5t-38 -83.5q0 -35 24 -60t58 -25q44 0 82 38t38 82zM379 319h-318l9 52h318z" />
    <glyph glyph-name="guillemotleft" unicode="&#xab;" horiz-adv-x="425" 
d="M206 132l-65 -33l-75 201l149 199l53 -32l-124 -167zM380 132l-65 -33l-75 201l149 199l53 -32l-124 -167z" />
    <glyph glyph-name="logicalnot" unicode="&#xac;" horiz-adv-x="606" 
d="M566 379v-221h-74v147h-406v74h480z" />
    <glyph glyph-name="uni00AD" unicode="&#xad;" horiz-adv-x="332" 
d="M334 296l-12 -63h-272l12 63h272z" />
    <glyph glyph-name="registered" unicode="&#xae;" horiz-adv-x="747" 
d="M751 341q0 -146 -104 -249.5t-250 -103.5t-249.5 103.5t-103.5 249.5t103.5 250t249.5 104t250 -104t104 -250zM714 341q0 131 -93 224t-224 93t-223.5 -93t-92.5 -224t92.5 -223.5t223.5 -92.5t224 92.5t93 223.5zM580 442q1 -62 -40 -105.5t-108 -52.5l97 -151h-73
l-124 197q96 -1 132 13q26 10 42 35t15 54q-1 36 -29.5 50.5t-96.5 14.5h-56l-67 -364h-57l77 416h116q92 0 131 -25.5t41 -81.5z" />
    <glyph glyph-name="macron" unicode="&#xaf;" horiz-adv-x="485" 
d="M511 701l-12 -62h-337l12 62h337z" />
    <glyph glyph-name="degree" unicode="&#xb0;" horiz-adv-x="400" 
d="M432 531q0 -62 -44.5 -106t-108.5 -44q-63 0 -107.5 44t-44.5 107q0 62 45 105.5t110 43.5q62 0 106 -44.5t44 -105.5zM375 531q0 38 -28 65.5t-66 27.5q-40 0 -68.5 -27t-28.5 -65q0 -39 28 -66.5t67 -27.5q40 0 68 27.5t28 65.5z" />
    <glyph glyph-name="plusminus" unicode="&#xb1;" horiz-adv-x="606" 
d="M566 287h-203v-146h-74v146h-203v74h203v203h74v-203h203v-74zM566 0h-480v74h480v-74z" />
    <glyph glyph-name="two.superior" unicode="&#xb2;" horiz-adv-x="332" 
d="M343 297h-306l9 49l191 146q76 58 93 80t17 57q0 29 -22.5 47.5t-58.5 18.5q-94 0 -114 -107h-57q11 74 60.5 116.5t122.5 42.5q57 0 92 -31t35 -82q0 -43 -25.5 -79t-89.5 -85l-161 -121h223z" />
    <glyph glyph-name="three.superior" unicode="&#xb3;" horiz-adv-x="332" 
d="M373 456q0 -65 -55 -116t-126 -51q-59 0 -95 32t-36 81q0 18 3 41h57l-1 -35q-1 -27 23 -47t57 -20q45 0 80 31.5t35 71.5q0 79 -111 79h-9l10 50h24q41 0 67.5 20t26.5 51q0 24 -15 37.5t-41 13.5q-70 0 -82 -75h-57q8 55 49.5 91t97.5 36q49 0 77.5 -25.5t28.5 -68.5
q0 -32 -17.5 -60t-46.5 -43q56 -29 56 -94z" />
    <glyph glyph-name="acute" unicode="&#xb4;" horiz-adv-x="375" 
d="M440 708l-214 -114l-24 56l214 116z" />
    <glyph glyph-name="mu" unicode="&#xb5;" horiz-adv-x="608" 
d="M616 547l-102 -547h-74l16 85q-34 -53 -72.5 -75.5t-94.5 -22.5q-112 0 -165 107l-53 -286h-74l137 739h74l-52 -281q-7 -38 -7 -68q0 -143 149 -143q73 0 121 47t70 164l53 281h74z" />
    <glyph glyph-name="paragraph" unicode="&#xb6;" horiz-adv-x="564" 
d="M437 -133h-74l149 805h-116l-149 -805h-74l90 488q-75 8 -116.5 48t-41.5 107q0 96 70 162.5t192 66.5h231z" />
    <glyph glyph-name="periodcentered" unicode="&#xb7;" horiz-adv-x="277" 
d="M225 250q0 -26 -18.5 -44.5t-44.5 -18.5t-44.5 18.5t-18.5 44.5t18.5 44.5t44.5 18.5t44.5 -18.5t18.5 -44.5z" />
    <glyph glyph-name="cedilla" unicode="&#xb8;" horiz-adv-x="324" 
d="M232 -137q-8 -48 -45.5 -81t-87.5 -33q-73 0 -80 85l54 6q2 -18 10.5 -25.5t27.5 -7.5q24 0 41 18.5t17 45.5q1 19 -10 29.5t-30 10.5q-29 0 -51 -19l-28 19l55 94h39l-27 -53q22 5 34 5q37 0 60 -20.5t23 -54.5q0 -7 -2 -19z" />
    <glyph glyph-name="one.superior" unicode="&#xb9;" horiz-adv-x="332" 
d="M259 297h-58l72 390h-76l9 52h134z" />
    <glyph glyph-name="ordmasculine" unicode="&#xba;" horiz-adv-x="369" 
d="M420 619q0 -69 -56.5 -123t-129.5 -54q-52 0 -87.5 36t-35.5 89q0 70 56 124t129 54q53 0 88.5 -36t35.5 -90zM367 617q0 32 -23.5 55.5t-56.5 23.5q-50 0 -86.5 -37t-36.5 -87q0 -35 23.5 -58t58.5 -23q49 0 85 37.5t36 88.5zM367 319h-305l9 52h305z" />
    <glyph glyph-name="guillemotright" unicode="&#xbb;" horiz-adv-x="425" 
d="M237 300l-149 -201l-53 33l124 168l-62 167l65 32zM411 300l-149 -201l-53 33l124 168l-62 167l65 32z" />
    <glyph glyph-name="onequarter" unicode="&#xbc;" horiz-adv-x="831" 
d="M786 79h-42l-15 -79h-58l15 79h-232l9 48l285 315h63l-58 -311h42zM738 358l-204 -227h161zM720 739l-479 -739h-54l479 739h54zM266 297h-58l72 390h-76l9 52h134z" />
    <glyph glyph-name="onehalf" unicode="&#xbd;" horiz-adv-x="831" 
d="M710 739l-479 -739h-54l479 739h54zM256 297h-58l72 390h-76l9 52h134zM782 0h-306l9 49l191 146q76 58 93 80t17 57q0 29 -22.5 47.5t-58.5 18.5q-94 0 -114 -107h-57q11 74 60.5 116.5t122.5 42.5q57 0 92 -31t35 -82q0 -43 -25.5 -79t-89.5 -85l-161 -121h223z" />
    <glyph glyph-name="threequarters" unicode="&#xbe;" horiz-adv-x="831" 
d="M786 79h-42l-15 -79h-58l15 79h-232l9 48l285 315h63l-58 -311h42zM738 358l-204 -227h161zM730 739l-479 -739h-54l479 739h54zM373 456q0 -65 -55 -116t-126 -51q-59 0 -95 32t-36 81q0 18 3 41h57l-1 -35q-1 -27 23 -47t57 -20q45 0 80 31.5t35 71.5q0 79 -111 79h-9
l10 50h24q41 0 67.5 20t26.5 51q0 24 -15 37.5t-41 13.5q-70 0 -82 -75h-57q8 55 49.5 91t97.5 36q49 0 77.5 -25.5t28.5 -68.5q0 -32 -17.5 -60t-46.5 -43q56 -29 56 -94z" />
    <glyph glyph-name="questiondown" unicode="&#xbf;" horiz-adv-x="591" 
d="M378 421h-74l23 126h74zM503 39q-26 -118 -101 -181t-178 -63q-86 0 -137.5 48t-51.5 127q0 64 25 108t101 104q65 52 94.5 91t37.5 81h70q-9 -102 -139 -204q-66 -52 -85 -81q-27 -39 -27 -89q0 -52 35 -84.5t91 -32.5q148 0 195 176h70z" />
    <glyph glyph-name="Agrave" unicode="&#xc0;" horiz-adv-x="740" 
d="M699 0h-81l-61 249h-344l-154 -249h-78l454 739h83zM541 316l-80 339l-207 -339h287zM570 832l-45 -56l-172 114l46 58z" />
    <glyph glyph-name="Aacute" unicode="&#xc1;" horiz-adv-x="740" 
d="M699 0h-81l-61 249h-344l-154 -249h-78l454 739h83zM541 316l-80 339l-207 -339h287zM655 890l-214 -114l-24 56l214 116z" />
    <glyph glyph-name="Acircumflex" unicode="&#xc2;" horiz-adv-x="740" 
d="M699 0h-81l-61 249h-344l-154 -249h-78l454 739h83zM541 316l-80 339l-207 -339h287zM663 789h-89l-72 74l-102 -74h-91l168 126h66z" />
    <glyph glyph-name="Atilde" unicode="&#xc3;" horiz-adv-x="740" 
d="M699 0h-81l-61 249h-344l-154 -249h-78l454 739h83zM541 316l-80 339l-207 -339h287zM638 857q-40 -55 -92 -55q-27 0 -96 33q-7 4 -17 4q-9 0 -18 -5.5t-40 -27.5l-23 45q49 51 89 51q14 0 55 -18.5t50 -18.5q36 0 71 38z" />
    <glyph glyph-name="Adieresis" unicode="&#xc4;" horiz-adv-x="740" 
d="M699 0h-81l-61 249h-344l-154 -249h-78l454 739h83zM541 316l-80 339l-207 -339h287zM448 789h-74l23 126h74zM595 789h-74l23 126h74z" />
    <glyph glyph-name="Aring" unicode="&#xc5;" horiz-adv-x="740" 
d="M699 0h-81l-61 249h-344l-154 -249h-78l454 739h83zM541 316l-80 339l-207 -339h287zM602 879q0 -44 -38 -79.5t-84 -35.5q-36 0 -60 22.5t-24 56.5q0 50 35.5 86.5t84.5 36.5q39 0 62.5 -24t23.5 -63zM560 874q0 20 -15 34t-36 14q-27 0 -49 -21t-22 -47q0 -20 14 -33
t36 -13q26 0 49 21t23 45z" />
    <glyph glyph-name="AE" unicode="&#xc6;" horiz-adv-x="992" 
d="M1031 672h-319l-50 -265h308l-12 -67h-308l-51 -273h319l-12 -67h-393l46 250h-271l-219 -250h-88l648 739h414zM572 317l60 327l-284 -327h224z" />
    <glyph glyph-name="Ccedilla" unicode="&#xc7;" horiz-adv-x="813" 
d="M777 194q-66 -98 -163.5 -152t-208.5 -55l-18 -35q22 5 34 5q37 0 60 -20.5t23 -54.5q0 -7 -2 -19q-8 -48 -45.5 -81t-87.5 -33q-73 0 -80 85l54 6q2 -18 10.5 -25.5t27.5 -7.5q24 0 41 18.5t17 45.5q1 19 -10 29.5t-30 10.5q-29 0 -51 -19l-28 19l45 78
q-130 11 -209.5 93.5t-79.5 207.5q0 123 63 229.5t170 169.5t230 63q114 0 197.5 -57t102.5 -148h-82q-61 137 -228 137q-96 0 -183 -51.5t-140 -138.5t-53 -184q0 -111 74 -183t187 -72q154 0 281 139h82z" />
    <glyph glyph-name="Egrave" unicode="&#xc8;" horiz-adv-x="536" 
d="M575 672h-330l-50 -265h319l-12 -67h-319l-51 -273h330l-12 -67h-404l137 739h404zM478 832l-45 -56l-172 114l46 58z" />
    <glyph glyph-name="Eacute" unicode="&#xc9;" horiz-adv-x="536" 
d="M575 672h-330l-50 -265h319l-12 -67h-319l-51 -273h330l-12 -67h-404l137 739h404zM564 890l-214 -114l-24 56l214 116z" />
    <glyph glyph-name="Ecircumflex" unicode="&#xca;" horiz-adv-x="536" 
d="M575 672h-330l-50 -265h319l-12 -67h-319l-51 -273h330l-12 -67h-404l137 739h404zM572 789h-89l-72 74l-102 -74h-91l168 126h66z" />
    <glyph glyph-name="Edieresis" unicode="&#xcb;" horiz-adv-x="536" 
d="M575 672h-330l-50 -265h319l-12 -67h-319l-51 -273h330l-12 -67h-404l137 739h404zM356 789h-74l23 126h74zM503 789h-74l23 126h74z" />
    <glyph glyph-name="Igrave" unicode="&#xcc;" horiz-adv-x="226" 
d="M257 739l-137 -739h-74l137 739h74zM309 832l-45 -56l-172 114l46 58z" />
    <glyph glyph-name="Iacute" unicode="&#xcd;" horiz-adv-x="226" 
d="M257 739l-137 -739h-74l137 739h74zM403 890l-214 -114l-24 56l214 116z" />
    <glyph glyph-name="Icircumflex" unicode="&#xce;" horiz-adv-x="226" 
d="M257 739l-137 -739h-74l137 739h74zM407 789h-89l-72 74l-102 -74h-91l168 126h66z" />
    <glyph glyph-name="Idieresis" unicode="&#xcf;" horiz-adv-x="226" 
d="M257 739l-137 -739h-74l137 739h74zM191 789h-74l23 126h74zM338 789h-74l23 126h74z" />
    <glyph glyph-name="Eth" unicode="&#xd0;" horiz-adv-x="790" 
d="M790 451q0 -216 -165 -349q-68 -54 -146 -78t-188 -24h-199l64 347h-93l12 67h93l61 325h174q100 0 162 -13.5t107 -44.5q118 -82 118 -230zM713 435q0 116 -73.5 176.5t-245.5 60.5h-103l-49 -258h206l-12 -67h-206l-51 -280h103q115 0 187 22.5t129 75.5q53 49 84 122
t31 148z" />
    <glyph glyph-name="Ntilde" unicode="&#xd1;" horiz-adv-x="740" 
d="M771 739l-137 -739h-74l-320 650l-120 -650h-74l137 739h100l300 -613l114 613h74zM638 857q-40 -55 -92 -55q-27 0 -96 33q-7 4 -17 4q-9 0 -18 -5.5t-40 -27.5l-23 45q49 51 89 51q14 0 55 -18.5t50 -18.5q36 0 71 38z" />
    <glyph glyph-name="Ograve" unicode="&#xd2;" horiz-adv-x="869" 
d="M870 436q0 -114 -66.5 -218.5t-176 -167.5t-229.5 -63q-135 0 -228.5 90t-93.5 225q0 115 66.5 219.5t176 167.5t229.5 63q133 0 227.5 -89.5t94.5 -226.5zM793 422q0 114 -74 188t-189 74q-143 0 -260 -114t-117 -254q0 -110 74.5 -185.5t182.5 -75.5q149 0 266 112.5
t117 254.5zM639 832l-45 -56l-172 114l46 58z" />
    <glyph glyph-name="Oacute" unicode="&#xd3;" horiz-adv-x="869" 
d="M870 436q0 -114 -66.5 -218.5t-176 -167.5t-229.5 -63q-135 0 -228.5 90t-93.5 225q0 115 66.5 219.5t176 167.5t229.5 63q133 0 227.5 -89.5t94.5 -226.5zM793 422q0 114 -74 188t-189 74q-143 0 -260 -114t-117 -254q0 -110 74.5 -185.5t182.5 -75.5q149 0 266 112.5
t117 254.5zM724 890l-214 -114l-24 56l214 116z" />
    <glyph glyph-name="Ocircumflex" unicode="&#xd4;" horiz-adv-x="869" 
d="M870 436q0 -114 -66.5 -218.5t-176 -167.5t-229.5 -63q-135 0 -228.5 90t-93.5 225q0 115 66.5 219.5t176 167.5t229.5 63q133 0 227.5 -89.5t94.5 -226.5zM793 422q0 114 -74 188t-189 74q-143 0 -260 -114t-117 -254q0 -110 74.5 -185.5t182.5 -75.5q149 0 266 112.5
t117 254.5zM732 789h-89l-72 74l-102 -74h-91l168 126h66z" />
    <glyph glyph-name="Otilde" unicode="&#xd5;" horiz-adv-x="869" 
d="M870 436q0 -114 -66.5 -218.5t-176 -167.5t-229.5 -63q-135 0 -228.5 90t-93.5 225q0 115 66.5 219.5t176 167.5t229.5 63q133 0 227.5 -89.5t94.5 -226.5zM793 422q0 114 -74 188t-189 74q-143 0 -260 -114t-117 -254q0 -110 74.5 -185.5t182.5 -75.5q149 0 266 112.5
t117 254.5zM707 857q-40 -55 -92 -55q-27 0 -96 33q-7 4 -17 4q-9 0 -18 -5.5t-40 -27.5l-23 45q49 51 89 51q14 0 55 -18.5t50 -18.5q36 0 71 38z" />
    <glyph glyph-name="Odieresis" unicode="&#xd6;" horiz-adv-x="869" 
d="M870 436q0 -114 -66.5 -218.5t-176 -167.5t-229.5 -63q-135 0 -228.5 90t-93.5 225q0 115 66.5 219.5t176 167.5t229.5 63q133 0 227.5 -89.5t94.5 -226.5zM793 422q0 114 -74 188t-189 74q-143 0 -260 -114t-117 -254q0 -110 74.5 -185.5t182.5 -75.5q149 0 266 112.5
t117 254.5zM517 789h-74l23 126h74zM664 789h-74l23 126h74z" />
    <glyph glyph-name="multiply" unicode="&#xd7;" horiz-adv-x="606" 
d="M522 106l-52 -52l-144 144l-144 -144l-52 52l144 144l-144 144l52 52l144 -144l144 144l52 -52l-144 -144z" />
    <glyph glyph-name="Oslash" unicode="&#xd8;" horiz-adv-x="868" 
d="M867 442q0 -115 -66 -221t-174.5 -170t-225.5 -64q-51 0 -104 15t-89 40l-118 -125l-48 41l117 124q-86 84 -86 212q0 119 65.5 225.5t172 169.5t223.5 63q116 0 199 -56l117 125l45 -43l-114 -122q86 -84 86 -214zM682 641q-62 43 -158 43q-147 0 -260.5 -117
t-113.5 -258q0 -56 12 -90t49 -81zM790 426q0 53 -11 86t-43 78l-7 10l-470 -503q75 -42 151 -42q146 0 263 111.5t117 259.5z" />
    <glyph glyph-name="Ugrave" unicode="&#xd9;" horiz-adv-x="655" 
d="M601 278q-27 -145 -107.5 -218t-197.5 -73q-92 0 -149.5 52t-57.5 134q0 44 11 105l85 461h74l-85 -461q-9 -48 -9 -90q0 -59 40 -96t104 -37q84 0 140.5 55t77.5 168l85 461h74zM529 832l-45 -56l-172 114l46 58z" />
    <glyph glyph-name="Uacute" unicode="&#xda;" horiz-adv-x="655" 
d="M601 278q-27 -145 -107.5 -218t-197.5 -73q-92 0 -149.5 52t-57.5 134q0 44 11 105l85 461h74l-85 -461q-9 -48 -9 -90q0 -59 40 -96t104 -37q84 0 140.5 55t77.5 168l85 461h74zM614 890l-214 -114l-24 56l214 116z" />
    <glyph glyph-name="Ucircumflex" unicode="&#xdb;" horiz-adv-x="655" 
d="M601 278q-27 -145 -107.5 -218t-197.5 -73q-92 0 -149.5 52t-57.5 134q0 44 11 105l85 461h74l-85 -461q-9 -48 -9 -90q0 -59 40 -96t104 -37q84 0 140.5 55t77.5 168l85 461h74zM622 789h-89l-72 74l-102 -74h-91l168 126h66z" />
    <glyph glyph-name="Udieresis" unicode="&#xdc;" horiz-adv-x="655" 
d="M601 278q-27 -145 -107.5 -218t-197.5 -73q-92 0 -149.5 52t-57.5 134q0 44 11 105l85 461h74l-85 -461q-9 -48 -9 -90q0 -59 40 -96t104 -37q84 0 140.5 55t77.5 168l85 461h74zM407 789h-74l23 126h74zM554 789h-74l23 126h74z" />
    <glyph glyph-name="Yacute" unicode="&#xdd;" horiz-adv-x="592" 
d="M697 739l-349 -492l-46 -247h-74l46 247l-165 492h82l133 -414l292 414h81zM581 890l-214 -114l-24 56l214 116z" />
    <glyph glyph-name="Thorn" unicode="&#xde;" horiz-adv-x="592" 
d="M607 425q0 -57 -20.5 -110.5t-57.5 -90.5q-39 -39 -94 -55.5t-146 -16.5h-141l-28 -152h-74l137 739h74l-27 -147h130q131 0 189 -39.5t58 -127.5zM530 411q0 64 -47 92q-36 22 -161 22h-105l-57 -306h137q72 0 113.5 12t68.5 41q23 25 37 63t14 76z" />
    <glyph glyph-name="germandbls" unicode="&#xdf;" horiz-adv-x="554" 
d="M535 245q0 -105 -73 -181.5t-174 -76.5q-128 0 -165 122l-20 -109h-74l89 481q27 140 90 205.5t165 65.5q77 0 125 -45.5t48 -118.5q0 -132 -115 -199q104 -36 104 -144zM458 230q0 53 -41.5 83t-116.5 30q-21 0 -43 -2l13 67h15q79 0 131.5 49t52.5 117q0 50 -30 80
t-79 30q-68 0 -108.5 -48.5t-59.5 -154.5l-51 -278h51q-4 -20 -4 -31q0 -52 30.5 -84.5t79.5 -32.5q64 0 112 52.5t48 122.5z" />
    <glyph glyph-name="agrave" unicode="&#xe0;" 
d="M590 0h-74l18 96q-61 -62 -111 -85.5t-120 -23.5q-110 0 -177.5 63t-67.5 166q0 139 103 241.5t243 102.5q139 0 195 -110l18 97h74zM571 319q0 75 -49.5 124t-124.5 49q-104 0 -183 -77.5t-79 -179.5q0 -80 50.5 -130t132.5 -50q100 0 176.5 80t76.5 184zM497 650
l-45 -56l-172 114l46 58z" />
    <glyph glyph-name="aacute" unicode="&#xe1;" 
d="M590 0h-74l18 96q-61 -62 -111 -85.5t-120 -23.5q-110 0 -177.5 63t-67.5 166q0 139 103 241.5t243 102.5q139 0 195 -110l18 97h74zM571 319q0 75 -49.5 124t-124.5 49q-104 0 -183 -77.5t-79 -179.5q0 -80 50.5 -130t132.5 -50q100 0 176.5 80t76.5 184zM582 708
l-214 -114l-24 56l214 116z" />
    <glyph glyph-name="acircumflex" unicode="&#xe2;" 
d="M590 0h-74l18 96q-61 -62 -111 -85.5t-120 -23.5q-110 0 -177.5 63t-67.5 166q0 139 103 241.5t243 102.5q139 0 195 -110l18 97h74zM571 319q0 75 -49.5 124t-124.5 49q-104 0 -183 -77.5t-79 -179.5q0 -80 50.5 -130t132.5 -50q100 0 176.5 80t76.5 184zM589 607h-89
l-72 74l-102 -74h-91l168 126h66z" />
    <glyph glyph-name="atilde" unicode="&#xe3;" 
d="M590 0h-74l18 96q-61 -62 -111 -85.5t-120 -23.5q-110 0 -177.5 63t-67.5 166q0 139 103 241.5t243 102.5q139 0 195 -110l18 97h74zM571 319q0 75 -49.5 124t-124.5 49q-104 0 -183 -77.5t-79 -179.5q0 -80 50.5 -130t132.5 -50q100 0 176.5 80t76.5 184zM563 675
q-40 -55 -92 -55q-27 0 -96 33q-7 4 -17 4q-9 0 -18 -5.5t-40 -27.5l-23 45q49 51 89 51q14 0 55 -18.5t50 -18.5q36 0 71 38z" />
    <glyph glyph-name="adieresis" unicode="&#xe4;" 
d="M590 0h-74l18 96q-61 -62 -111 -85.5t-120 -23.5q-110 0 -177.5 63t-67.5 166q0 139 103 241.5t243 102.5q139 0 195 -110l18 97h74zM571 319q0 75 -49.5 124t-124.5 49q-104 0 -183 -77.5t-79 -179.5q0 -80 50.5 -130t132.5 -50q100 0 176.5 80t76.5 184zM374 607h-74
l23 126h74zM521 607h-74l23 126h74z" />
    <glyph glyph-name="aring" unicode="&#xe5;" 
d="M590 0h-74l18 96q-61 -62 -111 -85.5t-120 -23.5q-110 0 -177.5 63t-67.5 166q0 139 103 241.5t243 102.5q139 0 195 -110l18 97h74zM571 319q0 75 -49.5 124t-124.5 49q-104 0 -183 -77.5t-79 -179.5q0 -80 50.5 -130t132.5 -50q100 0 176.5 80t76.5 184zM528 694
q0 -44 -38 -79.5t-84 -35.5q-36 0 -59.5 22.5t-23.5 56.5q0 50 35.5 86.5t84.5 36.5q38 0 61.5 -24t23.5 -63zM487 689q0 20 -15 34t-37 14q-26 0 -48 -21t-22 -47q0 -20 13.5 -33t35.5 -13q26 0 49.5 21t23.5 45z" />
    <glyph glyph-name="ae" unicode="&#xe6;" horiz-adv-x="1157" 
d="M1132 247h-495q-1 -10 -1 -22q0 -72 52.5 -121t129.5 -49q62 0 121 34t90 89h77q-36 -79 -124.5 -135t-177.5 -56q-128 0 -200 105l-17 -92h-71l17 92q-102 -105 -233 -105q-109 0 -175.5 64t-66.5 168q0 131 103 236t241 105q144 0 198 -108l18 95h71l-18 -95
q105 108 235 108q104 0 170 -63.5t66 -163.5q0 -40 -10 -86zM1073 314q-1 82 -49 130t-128 48q-81 0 -150 -50.5t-93 -127.5h420zM574 319q0 77 -49.5 125t-128.5 48q-107 0 -184 -79t-77 -182q0 -77 50 -126.5t127 -49.5q104 0 183 79.5t79 184.5z" />
    <glyph glyph-name="ccedilla" unicode="&#xe7;" horiz-adv-x="647" 
d="M609 161q-68 -93 -138.5 -132.5t-155.5 -41.5l-18 -35q22 5 34 5q37 0 60 -20.5t23 -54.5q0 -7 -2 -19q-8 -48 -45.5 -81t-87.5 -33q-73 0 -80 85l54 6q2 -18 10.5 -25.5t27.5 -7.5q24 0 41 18.5t17 45.5q1 19 -10 29.5t-30 10.5q-29 0 -51 -19l-28 19l45 78
q-98 10 -157.5 73t-59.5 160q0 133 106 235.5t244 102.5q94 0 158.5 -48t82.5 -131h-83q-20 53 -64.5 82t-105.5 29q-104 0 -182.5 -78t-78.5 -181q0 -78 51.5 -128t131.5 -50q61 0 102.5 21t105.5 85h83z" />
    <glyph glyph-name="egrave" unicode="&#xe8;" horiz-adv-x="650" 
d="M626 249h-495q-2 -24 -2 -28q0 -70 52 -118t127 -48q61 0 121.5 35t92.5 90h77q-48 -88 -130.5 -140.5t-173.5 -52.5q-102 0 -169.5 66.5t-67.5 166.5q0 135 102.5 237.5t237.5 102.5q104 0 170.5 -64t66.5 -164q0 -32 -9 -83zM565 316q-4 81 -52.5 128.5t-127.5 47.5
q-78 0 -145 -49.5t-94 -126.5h419zM491 650l-45 -56l-172 114l46 58z" />
    <glyph glyph-name="eacute" unicode="&#xe9;" horiz-adv-x="650" 
d="M626 249h-495q-2 -24 -2 -28q0 -70 52 -118t127 -48q61 0 121.5 35t92.5 90h77q-48 -88 -130.5 -140.5t-173.5 -52.5q-102 0 -169.5 66.5t-67.5 166.5q0 135 102.5 237.5t237.5 102.5q104 0 170.5 -64t66.5 -164q0 -32 -9 -83zM565 316q-4 81 -52.5 128.5t-127.5 47.5
q-78 0 -145 -49.5t-94 -126.5h419zM576 708l-214 -114l-24 56l214 116z" />
    <glyph glyph-name="ecircumflex" unicode="&#xea;" horiz-adv-x="650" 
d="M626 249h-495q-2 -24 -2 -28q0 -70 52 -118t127 -48q61 0 121.5 35t92.5 90h77q-48 -88 -130.5 -140.5t-173.5 -52.5q-102 0 -169.5 66.5t-67.5 166.5q0 135 102.5 237.5t237.5 102.5q104 0 170.5 -64t66.5 -164q0 -32 -9 -83zM565 316q-4 81 -52.5 128.5t-127.5 47.5
q-78 0 -145 -49.5t-94 -126.5h419zM583 607h-89l-72 74l-102 -74h-91l168 126h66z" />
    <glyph glyph-name="edieresis" unicode="&#xeb;" horiz-adv-x="650" 
d="M626 249h-495q-2 -24 -2 -28q0 -70 52 -118t127 -48q61 0 121.5 35t92.5 90h77q-48 -88 -130.5 -140.5t-173.5 -52.5q-102 0 -169.5 66.5t-67.5 166.5q0 135 102.5 237.5t237.5 102.5q104 0 170.5 -64t66.5 -164q0 -32 -9 -83zM565 316q-4 81 -52.5 128.5t-127.5 47.5
q-78 0 -145 -49.5t-94 -126.5h419zM368 607h-74l23 126h74zM515 607h-74l23 126h74z" />
    <glyph glyph-name="igrave" unicode="&#xec;" horiz-adv-x="200" 
d="M107 0h-74l101 547h74zM262 650l-45 -56l-172 114l46 58z" />
    <glyph glyph-name="iacute" unicode="&#xed;" horiz-adv-x="200" 
d="M107 0h-74l101 547h74zM356 708l-214 -114l-24 56l214 116z" />
    <glyph glyph-name="icircumflex" unicode="&#xee;" horiz-adv-x="200" 
d="M107 0h-74l101 547h74zM359 607h-89l-72 74l-102 -74h-91l168 126h66z" />
    <glyph glyph-name="idieresis" unicode="&#xef;" horiz-adv-x="200" 
d="M107 0h-74l101 547h74zM144 607h-74l23 126h74zM291 607h-74l23 126h74z" />
    <glyph glyph-name="eth" unicode="&#xf0;" horiz-adv-x="655" 
d="M643 346q0 -149 -99.5 -254t-241.5 -105q-111 0 -178 63.5t-67 169.5q0 134 101 235.5t234 101.5q44 0 91 -17l-74 92l-95 -40l-28 45l86 37l-46 45l55 37q10 -8 58 -55l100 40l29 -45l-93 -37q168 -173 168 -313zM566 319q0 77 -47.5 125t-123.5 48q-106 0 -183.5 -78
t-77.5 -185q0 -79 49.5 -126.5t131.5 -47.5q103 0 177 77.5t74 186.5z" />
    <glyph glyph-name="ntilde" unicode="&#xf1;" horiz-adv-x="610" 
d="M515 0h-74l53 287q8 45 8 74q0 60 -37.5 95.5t-101.5 35.5q-76 0 -129 -47t-71 -144l-56 -301h-74l101 547h74l-13 -71q87 84 188 84q90 0 143 -49t53 -132q0 -35 -11 -92zM537 675q-40 -55 -92 -55q-27 0 -96 33q-7 4 -17 4q-9 0 -18 -5.5t-40 -27.5l-23 45q49 51 89 51
q14 0 55 -18.5t50 -18.5q36 0 71 38z" />
    <glyph glyph-name="ograve" unicode="&#xf2;" horiz-adv-x="655" 
d="M639 332q0 -140 -102 -242.5t-234 -102.5q-109 0 -177.5 63.5t-68.5 164.5q0 141 105 243t243 102q104 0 169 -63t65 -165zM562 325q0 73 -48 120t-122 47q-105 0 -181.5 -78.5t-76.5 -185.5q0 -77 49.5 -125t129.5 -48q104 0 176.5 78.5t72.5 191.5zM498 650l-45 -56
l-172 114l46 58z" />
    <glyph glyph-name="oacute" unicode="&#xf3;" horiz-adv-x="655" 
d="M639 332q0 -140 -102 -242.5t-234 -102.5q-109 0 -177.5 63.5t-68.5 164.5q0 141 105 243t243 102q104 0 169 -63t65 -165zM562 325q0 73 -48 120t-122 47q-105 0 -181.5 -78.5t-76.5 -185.5q0 -77 49.5 -125t129.5 -48q104 0 176.5 78.5t72.5 191.5zM583 708l-214 -114
l-24 56l214 116z" />
    <glyph glyph-name="ocircumflex" unicode="&#xf4;" horiz-adv-x="655" 
d="M639 332q0 -140 -102 -242.5t-234 -102.5q-109 0 -177.5 63.5t-68.5 164.5q0 141 105 243t243 102q104 0 169 -63t65 -165zM562 325q0 73 -48 120t-122 47q-105 0 -181.5 -78.5t-76.5 -185.5q0 -77 49.5 -125t129.5 -48q104 0 176.5 78.5t72.5 191.5zM590 607h-89l-72 74
l-102 -74h-91l168 126h66z" />
    <glyph glyph-name="otilde" unicode="&#xf5;" horiz-adv-x="655" 
d="M639 332q0 -140 -102 -242.5t-234 -102.5q-109 0 -177.5 63.5t-68.5 164.5q0 141 105 243t243 102q104 0 169 -63t65 -165zM562 325q0 73 -48 120t-122 47q-105 0 -181.5 -78.5t-76.5 -185.5q0 -77 49.5 -125t129.5 -48q104 0 176.5 78.5t72.5 191.5zM564 675
q-40 -55 -92 -55q-27 0 -96 33q-7 4 -17 4q-9 0 -18 -5.5t-40 -27.5l-23 45q49 51 89 51q14 0 55 -18.5t50 -18.5q36 0 71 38z" />
    <glyph glyph-name="odieresis" unicode="&#xf6;" horiz-adv-x="655" 
d="M639 332q0 -140 -102 -242.5t-234 -102.5q-109 0 -177.5 63.5t-68.5 164.5q0 141 105 243t243 102q104 0 169 -63t65 -165zM562 325q0 73 -48 120t-122 47q-105 0 -181.5 -78.5t-76.5 -185.5q0 -77 49.5 -125t129.5 -48q104 0 176.5 78.5t72.5 191.5zM375 607h-74l23 126
h74zM522 607h-74l23 126h74z" />
    <glyph glyph-name="divide" unicode="&#xf7;" horiz-adv-x="606" 
d="M566 213h-480v74h480v-74zM389 435q0 -26 -18.5 -44.5t-44.5 -18.5t-44.5 18.5t-18.5 44.5t18.5 44.5t44.5 18.5t44.5 -18.5t18.5 -44.5zM389 65q0 -26 -18.5 -44.5t-44.5 -18.5t-44.5 18.5t-18.5 44.5t18.5 44.5t44.5 18.5t44.5 -18.5t18.5 -44.5z" />
    <glyph glyph-name="oslash" unicode="&#xf8;" horiz-adv-x="653" 
d="M639 340q0 -144 -100.5 -248.5t-239.5 -104.5q-82 0 -145 41l-63 -66l-45 40l62 66q-28 41 -38.5 73t-10.5 73q0 93 51 174t129.5 126.5t160.5 45.5q83 0 141 -41l70 74l46 -42l-70 -73q52 -55 52 -138zM491 468q-45 24 -96 24q-100 0 -179.5 -82t-79.5 -185
q0 -55 23 -104zM562 336q0 45 -25 90l-334 -347q40 -16 54.5 -20t41.5 -4q112 0 187.5 80.5t75.5 200.5z" />
    <glyph glyph-name="ugrave" unicode="&#xf9;" horiz-adv-x="608" 
d="M616 547l-102 -547h-74l16 85q-40 -53 -85.5 -75.5t-110.5 -22.5q-87 0 -139 45.5t-52 122.5q0 47 9 97l55 295h74l-55 -295q-6 -26 -6 -67q0 -62 34 -96t100 -34q77 0 132.5 50.5t76.5 160.5l53 281h74zM470 650l-45 -56l-172 114l46 58z" />
    <glyph glyph-name="uacute" unicode="&#xfa;" horiz-adv-x="608" 
d="M616 547l-102 -547h-74l16 85q-40 -53 -85.5 -75.5t-110.5 -22.5q-87 0 -139 45.5t-52 122.5q0 47 9 97l55 295h74l-55 -295q-6 -26 -6 -67q0 -62 34 -96t100 -34q77 0 132.5 50.5t76.5 160.5l53 281h74zM555 708l-214 -114l-24 56l214 116z" />
    <glyph glyph-name="ucircumflex" unicode="&#xfb;" horiz-adv-x="608" 
d="M616 547l-102 -547h-74l16 85q-40 -53 -85.5 -75.5t-110.5 -22.5q-87 0 -139 45.5t-52 122.5q0 47 9 97l55 295h74l-55 -295q-6 -26 -6 -67q0 -62 34 -96t100 -34q77 0 132.5 50.5t76.5 160.5l53 281h74zM562 607h-89l-72 74l-102 -74h-91l168 126h66z" />
    <glyph glyph-name="udieresis" unicode="&#xfc;" horiz-adv-x="608" 
d="M616 547l-102 -547h-74l16 85q-40 -53 -85.5 -75.5t-110.5 -22.5q-87 0 -139 45.5t-52 122.5q0 47 9 97l55 295h74l-55 -295q-6 -26 -6 -67q0 -62 34 -96t100 -34q77 0 132.5 50.5t76.5 160.5l53 281h74zM347 607h-74l23 126h74zM494 607h-74l23 126h74z" />
    <glyph glyph-name="yacute" unicode="&#xfd;" horiz-adv-x="536" 
d="M598 547l-453 -739h-78l127 210l-114 529h81l92 -436l266 436h79zM521 708l-214 -114l-24 56l214 116z" />
    <glyph glyph-name="thorn" unicode="&#xfe;" horiz-adv-x="682" 
d="M665 325q0 -133 -104.5 -235.5t-240.5 -102.5q-140 0 -196 107l-53 -286h-74l173 931h74l-53 -286q37 49 100 78t134 29q108 0 174 -65t66 -170zM588 317q0 77 -50.5 126t-129.5 49q-98 0 -179.5 -76.5t-81.5 -188.5q0 -74 51 -123t127 -49q101 0 182 76.5t81 185.5z" />
    <glyph glyph-name="ydieresis" unicode="&#xff;" horiz-adv-x="536" 
d="M598 547l-453 -739h-78l127 210l-114 529h81l92 -436l266 436h79zM313 607h-74l23 126h74zM460 607h-74l23 126h74z" />
    <glyph glyph-name="Amacron" unicode="&#x100;" horiz-adv-x="740" 
d="M699 0h-81l-61 249h-344l-154 -249h-78l454 739h83zM541 316l-80 339l-207 -339h287zM672 883l-12 -62h-337l12 62h337z" />
    <glyph glyph-name="amacron" unicode="&#x101;" 
d="M590 0h-74l18 96q-61 -62 -111 -85.5t-120 -23.5q-110 0 -177.5 63t-67.5 166q0 139 103 241.5t243 102.5q139 0 195 -110l18 97h74zM571 319q0 75 -49.5 124t-124.5 49q-104 0 -183 -77.5t-79 -179.5q0 -80 50.5 -130t132.5 -50q100 0 176.5 80t76.5 184zM598 701
l-12 -62h-337l12 62h337z" />
    <glyph glyph-name="Abreve" unicode="&#x102;" horiz-adv-x="740" 
d="M699 0h-81l-61 249h-344l-154 -249h-78l454 739h83zM541 316l-80 339l-207 -339h287zM660 911q-35 -117 -172 -117q-62 0 -95.5 26.5t-36.5 90.5h64q4 -36 22.5 -49t58.5 -13q38 0 67 16.5t39 45.5h53z" />
    <glyph glyph-name="abreve" unicode="&#x103;" 
d="M590 0h-74l18 96q-61 -62 -111 -85.5t-120 -23.5q-110 0 -177.5 63t-67.5 166q0 139 103 241.5t243 102.5q139 0 195 -110l18 97h74zM571 319q0 75 -49.5 124t-124.5 49q-104 0 -183 -77.5t-79 -179.5q0 -80 50.5 -130t132.5 -50q100 0 176.5 80t76.5 184zM581 729
q-35 -117 -172 -117q-62 0 -95.5 26.5t-36.5 90.5h64q4 -36 22.5 -49t58.5 -13q38 0 67 16.5t39 45.5h53z" />
    <glyph glyph-name="Aogonek" unicode="&#x104;" horiz-adv-x="740" 
d="M669 -246q-27 -4 -60 -4q-46 0 -67 31t-21 72q0 44 27 80q29 40 70 67l-61 249h-344l-154 -249h-78l454 739h83l181 -739q-46 -23 -74 -56t-28 -60q0 -60 36 -60q29 0 50 4zM541 316l-80 339l-207 -339h287z" />
    <glyph glyph-name="aogonek" unicode="&#x105;" 
d="M560 -246q-27 -4 -60 -4q-46 0 -67 31t-21 72q0 81 104 147l18 96q-61 -62 -111 -85.5t-120 -23.5q-110 0 -177.5 63t-67.5 166q0 139 103 241.5t243 102.5q139 0 195 -110l18 97h74l-101 -547q-46 -23 -74 -56t-28 -60q0 -60 36 -60q29 0 50 4zM571 319q0 75 -49.5 124
t-124.5 49q-104 0 -183 -77.5t-79 -179.5q0 -80 50.5 -130t132.5 -50q100 0 176.5 80t76.5 184z" />
    <glyph glyph-name="Cacute" unicode="&#x106;" horiz-adv-x="813" 
d="M777 194q-67 -98 -165 -152.5t-210 -54.5q-145 0 -235.5 84.5t-90.5 218.5q0 123 63 229.5t170 169.5t230 63q114 0 197.5 -57t102.5 -148h-82q-61 137 -228 137q-96 0 -183 -51.5t-140 -138.5t-53 -184q0 -111 74 -183t187 -72q154 0 281 139h82zM715 890l-214 -114
l-24 56l214 116z" />
    <glyph glyph-name="cacute" unicode="&#x107;" horiz-adv-x="647" 
d="M609 161q-70 -95 -141.5 -134.5t-158.5 -39.5q-112 0 -181.5 65t-69.5 170q0 133 106 235.5t244 102.5q94 0 158.5 -48t82.5 -131h-83q-20 53 -64.5 82t-105.5 29q-104 0 -182.5 -78t-78.5 -181q0 -78 51.5 -128t131.5 -50q61 0 102.5 21t105.5 85h83zM586 708l-214 -114
l-24 56l214 116z" />
    <glyph glyph-name="Ccircumflex" unicode="&#x108;" horiz-adv-x="813" 
d="M777 194q-67 -98 -165 -152.5t-210 -54.5q-145 0 -235.5 84.5t-90.5 218.5q0 123 63 229.5t170 169.5t230 63q114 0 197.5 -57t102.5 -148h-82q-61 137 -228 137q-96 0 -183 -51.5t-140 -138.5t-53 -184q0 -111 74 -183t187 -72q154 0 281 139h82zM723 789h-89l-72 74
l-102 -74h-91l168 126h66z" />
    <glyph glyph-name="ccircumflex" unicode="&#x109;" horiz-adv-x="647" 
d="M609 161q-70 -95 -141.5 -134.5t-158.5 -39.5q-112 0 -181.5 65t-69.5 170q0 133 106 235.5t244 102.5q94 0 158.5 -48t82.5 -131h-83q-20 53 -64.5 82t-105.5 29q-104 0 -182.5 -78t-78.5 -181q0 -78 51.5 -128t131.5 -50q61 0 102.5 21t105.5 85h83zM593 607h-89
l-72 74l-102 -74h-91l168 126h66z" />
    <glyph glyph-name="Cdotaccent" unicode="&#x10a;" horiz-adv-x="813" 
d="M777 194q-67 -98 -165 -152.5t-210 -54.5q-145 0 -235.5 84.5t-90.5 218.5q0 123 63 229.5t170 169.5t230 63q114 0 197.5 -57t102.5 -148h-82q-61 137 -228 137q-96 0 -183 -51.5t-140 -138.5t-53 -184q0 -111 74 -183t187 -72q154 0 281 139h82zM583 789h-74l23 126h74
z" />
    <glyph glyph-name="cdotaccent" unicode="&#x10b;" horiz-adv-x="647" 
d="M609 161q-70 -95 -141.5 -134.5t-158.5 -39.5q-112 0 -181.5 65t-69.5 170q0 133 106 235.5t244 102.5q94 0 158.5 -48t82.5 -131h-83q-20 53 -64.5 82t-105.5 29q-104 0 -182.5 -78t-78.5 -181q0 -78 51.5 -128t131.5 -50q61 0 102.5 21t105.5 85h83zM454 607h-74
l23 126h74z" />
    <glyph glyph-name="Ccaron" unicode="&#x10c;" horiz-adv-x="813" 
d="M777 194q-67 -98 -165 -152.5t-210 -54.5q-145 0 -235.5 84.5t-90.5 218.5q0 123 63 229.5t170 169.5t230 63q114 0 197.5 -57t102.5 -148h-82q-61 137 -228 137q-96 0 -183 -51.5t-140 -138.5t-53 -184q0 -111 74 -183t187 -72q154 0 281 139h82zM746 915l-168 -126h-66
l-120 126h89l72 -74l102 74h91z" />
    <glyph glyph-name="ccaron" unicode="&#x10d;" horiz-adv-x="647" 
d="M609 161q-70 -95 -141.5 -134.5t-158.5 -39.5q-112 0 -181.5 65t-69.5 170q0 133 106 235.5t244 102.5q94 0 158.5 -48t82.5 -131h-83q-20 53 -64.5 82t-105.5 29q-104 0 -182.5 -78t-78.5 -181q0 -78 51.5 -128t131.5 -50q61 0 102.5 21t105.5 85h83zM617 733l-168 -126
h-66l-120 126h89l72 -74l102 74h91z" />
    <glyph glyph-name="Dcaron" unicode="&#x10e;" horiz-adv-x="744" 
d="M744 448q0 -102 -43 -192t-122 -154q-68 -54 -146 -78t-188 -24h-199l137 739h174q186 0 269 -58q118 -81 118 -233zM667 435q0 116 -73.5 176.5t-245.5 60.5h-103l-113 -605h103q116 0 188 22.5t129 75.5q53 49 84 122t31 148zM619 915l-168 -126h-66l-120 126h89
l72 -74l102 74h91z" />
    <glyph glyph-name="dcaron" unicode="&#x10f;" horiz-adv-x="685" 
d="M729 739l-137 -739h-74l18 99q-53 -60 -106.5 -86t-124.5 -26q-107 0 -177 65t-70 165q0 137 105 240t245 103q127 0 195 -100l52 279h74zM576 318q0 75 -52.5 124.5t-131.5 49.5q-101 0 -179 -78t-78 -178q0 -81 51 -131t134 -50q99 0 177.5 80.5t78.5 182.5zM917 739
l-87 -179h-71l84 179h74z" />
    <glyph glyph-name="Dcroat" unicode="&#x110;" horiz-adv-x="790" 
d="M790 451q0 -216 -165 -349q-68 -54 -146 -78t-188 -24h-199l64 347h-93l12 67h93l61 325h174q100 0 162 -13.5t107 -44.5q118 -82 118 -230zM713 435q0 116 -73.5 176.5t-245.5 60.5h-103l-49 -258h206l-12 -67h-206l-51 -280h103q115 0 187 22.5t129 75.5q53 49 84 122
t31 148z" />
    <glyph glyph-name="dcroat" unicode="&#x111;" horiz-adv-x="685" 
d="M767 602h-63l-112 -602h-74l18 99q-53 -60 -106.5 -86t-124.5 -26q-107 0 -177 65t-70 165q0 137 105 240t245 103q127 0 195 -100l27 142h-152l12 63h152l13 74h74l-14 -74h63zM576 318q0 74 -52.5 124t-131.5 50q-101 0 -179 -78t-78 -178q0 -81 51 -131t134 -50
q99 0 177.5 80.5t78.5 182.5z" />
    <glyph glyph-name="Emacron" unicode="&#x112;" horiz-adv-x="536" 
d="M575 672h-330l-50 -265h319l-12 -67h-319l-51 -273h330l-12 -67h-404l137 739h404zM580 883l-12 -62h-337l12 62h337z" />
    <glyph glyph-name="emacron" unicode="&#x113;" horiz-adv-x="650" 
d="M626 249h-495q-2 -24 -2 -28q0 -70 52 -118t127 -48q61 0 121.5 35t92.5 90h77q-48 -88 -130.5 -140.5t-173.5 -52.5q-102 0 -169.5 66.5t-67.5 166.5q0 135 102.5 237.5t237.5 102.5q104 0 170.5 -64t66.5 -164q0 -32 -9 -83zM565 316q-4 81 -52.5 128.5t-127.5 47.5
q-78 0 -145 -49.5t-94 -126.5h419zM592 701l-12 -62h-337l12 62h337z" />
    <glyph glyph-name="Ebreve" unicode="&#x114;" horiz-adv-x="536" 
d="M575 672h-330l-50 -265h319l-12 -67h-319l-51 -273h330l-12 -67h-404l137 739h404zM569 911q-35 -117 -172 -117q-62 0 -95.5 26.5t-36.5 90.5h64q4 -36 22.5 -49t58.5 -13q38 0 67 16.5t39 45.5h53z" />
    <glyph glyph-name="ebreve" unicode="&#x115;" horiz-adv-x="650" 
d="M626 249h-495q-2 -24 -2 -28q0 -70 52 -118t127 -48q61 0 121.5 35t92.5 90h77q-48 -88 -130.5 -140.5t-173.5 -52.5q-102 0 -169.5 66.5t-67.5 166.5q0 135 102.5 237.5t237.5 102.5q104 0 170.5 -64t66.5 -164q0 -32 -9 -83zM565 316q-4 81 -52.5 128.5t-127.5 47.5
q-78 0 -145 -49.5t-94 -126.5h419zM575 729q-35 -117 -172 -117q-62 0 -95.5 26.5t-36.5 90.5h64q4 -36 22.5 -49t58.5 -13q38 0 67 16.5t39 45.5h53z" />
    <glyph glyph-name="Edotaccent" unicode="&#x116;" horiz-adv-x="536" 
d="M575 672h-330l-50 -265h319l-12 -67h-319l-51 -273h330l-12 -67h-404l137 739h404zM432 789h-74l23 126h74z" />
    <glyph glyph-name="edotaccent" unicode="&#x117;" horiz-adv-x="650" 
d="M626 249h-495q-2 -24 -2 -28q0 -70 52 -118t127 -48q61 0 121.5 35t92.5 90h77q-48 -88 -130.5 -140.5t-173.5 -52.5q-102 0 -169.5 66.5t-67.5 166.5q0 135 102.5 237.5t237.5 102.5q104 0 170.5 -64t66.5 -164q0 -32 -9 -83zM565 316q-4 81 -52.5 128.5t-127.5 47.5
q-78 0 -145 -49.5t-94 -126.5h419zM444 607h-74l23 126h74z" />
    <glyph glyph-name="Eogonek" unicode="&#x118;" horiz-adv-x="536" 
d="M421 -246q-28 -4 -60 -4q-46 0 -67.5 31t-21.5 72q0 81 104 147h-330l137 739h404l-12 -67h-330l-50 -265h319l-12 -67h-319l-51 -273h330l-12 -67q-46 -23 -74 -56t-28 -60q0 -60 36 -60q29 0 50 4z" />
    <glyph glyph-name="eogonek" unicode="&#x119;" horiz-adv-x="650" 
d="M626 249h-495q-2 -24 -2 -28q0 -70 52 -118t127 -48q61 0 121.5 35t92.5 90h77q-53 -98 -147 -150q-39 -23 -55.5 -33t-45.5 -31.5t-41 -41t-12 -40.5q0 -60 36 -60q29 0 50 4l-14 -74q-27 -4 -60 -4q-46 0 -67 31t-21 72q0 74 85 134h-12q-102 0 -169.5 66.5
t-67.5 166.5q0 135 102.5 237.5t237.5 102.5q104 0 170.5 -64t66.5 -164q0 -32 -9 -83zM565 316q-4 81 -52.5 128.5t-127.5 47.5q-78 0 -145 -49.5t-94 -126.5h419z" />
    <glyph glyph-name="Ecaron" unicode="&#x11a;" horiz-adv-x="536" 
d="M575 672h-330l-50 -265h319l-12 -67h-319l-51 -273h330l-12 -67h-404l137 739h404zM595 915l-168 -126h-66l-120 126h89l72 -74l102 74h91z" />
    <glyph glyph-name="ecaron" unicode="&#x11b;" horiz-adv-x="650" 
d="M626 249h-495q-2 -24 -2 -28q0 -70 52 -118t127 -48q61 0 121.5 35t92.5 90h77q-48 -88 -130.5 -140.5t-173.5 -52.5q-102 0 -169.5 66.5t-67.5 166.5q0 135 102.5 237.5t237.5 102.5q104 0 170.5 -64t66.5 -164q0 -32 -9 -83zM565 316q-4 81 -52.5 128.5t-127.5 47.5
q-78 0 -145 -49.5t-94 -126.5h419zM607 733l-168 -126h-66l-120 126h89l72 -74l102 74h91z" />
    <glyph glyph-name="Gcircumflex" unicode="&#x11c;" horiz-adv-x="872" 
d="M864 341q-37 -147 -166 -250.5t-282 -103.5q-149 0 -244 87.5t-95 225.5q0 88 38.5 171t102 144.5t150 99t177.5 37.5q121 0 206 -57.5t106 -152.5h-84q-23 65 -85.5 103.5t-145.5 38.5q-157 0 -272.5 -111t-115.5 -261q0 -116 76.5 -186.5t194.5 -70.5q105 0 197.5 60
t140.5 159h-414l12 67h503zM729 789h-89l-72 74l-102 -74h-91l168 126h66z" />
    <glyph glyph-name="gcircumflex" unicode="&#x11d;" horiz-adv-x="673" 
d="M681 547l-84 -449q-17 -88 -35 -132t-55 -83q-92 -98 -242 -98q-99 0 -158.5 47t-76.5 151h72q33 -77 70 -103.5t107 -26.5q97 0 158.5 56t81.5 165l7 37q-81 -124 -231 -124q-104 0 -171 65t-67 167q0 135 103 238t236 103q67 0 109.5 -22.5t83.5 -87.5l18 97h74z
M562 325q0 72 -50.5 119.5t-126.5 47.5q-96 0 -173.5 -76t-77.5 -180q0 -78 45 -129.5t128 -51.5q100 0 177.5 80.5t77.5 189.5zM581 607h-89l-72 74l-102 -74h-91l168 126h66z" />
    <glyph glyph-name="Gbreve" unicode="&#x11e;" horiz-adv-x="872" 
d="M864 341q-37 -147 -166 -250.5t-282 -103.5q-149 0 -244 87.5t-95 225.5q0 88 38.5 171t102 144.5t150 99t177.5 37.5q121 0 206 -57.5t106 -152.5h-84q-23 65 -85.5 103.5t-145.5 38.5q-157 0 -272.5 -111t-115.5 -261q0 -116 76.5 -186.5t194.5 -70.5q105 0 197.5 60
t140.5 159h-414l12 67h503zM726 911q-35 -117 -172 -117q-62 0 -95.5 26.5t-36.5 90.5h64q4 -36 22.5 -49t58.5 -13q38 0 67 16.5t39 45.5h53z" />
    <glyph glyph-name="gbreve" unicode="&#x11f;" horiz-adv-x="673" 
d="M681 547l-84 -449q-17 -88 -35 -132t-55 -83q-92 -98 -242 -98q-99 0 -158.5 47t-76.5 151h72q33 -77 70 -103.5t107 -26.5q97 0 158.5 56t81.5 165l7 37q-81 -124 -231 -124q-104 0 -171 65t-67 167q0 135 103 238t236 103q67 0 109.5 -22.5t83.5 -87.5l18 97h74z
M562 325q0 72 -50.5 119.5t-126.5 47.5q-96 0 -173.5 -76t-77.5 -180q0 -78 45 -129.5t128 -51.5q100 0 177.5 80.5t77.5 189.5zM573 729q-35 -117 -172 -117q-62 0 -95.5 26.5t-36.5 90.5h64q4 -36 22.5 -49t58.5 -13q38 0 67 16.5t39 45.5h53z" />
    <glyph glyph-name="Gdotaccent" unicode="&#x120;" horiz-adv-x="872" 
d="M864 341q-37 -147 -166 -250.5t-282 -103.5q-149 0 -244 87.5t-95 225.5q0 88 38.5 171t102 144.5t150 99t177.5 37.5q121 0 206 -57.5t106 -152.5h-84q-23 65 -85.5 103.5t-145.5 38.5q-157 0 -272.5 -111t-115.5 -261q0 -116 76.5 -186.5t194.5 -70.5q105 0 197.5 60
t140.5 159h-414l12 67h503zM589 789h-74l23 126h74z" />
    <glyph glyph-name="gdotaccent" unicode="&#x121;" horiz-adv-x="673" 
d="M681 547l-84 -449q-17 -88 -35 -132t-55 -83q-92 -98 -242 -98q-99 0 -158.5 47t-76.5 151h72q33 -77 70 -103.5t107 -26.5q97 0 158.5 56t81.5 165l7 37q-81 -124 -231 -124q-104 0 -171 65t-67 167q0 135 103 238t236 103q67 0 109.5 -22.5t83.5 -87.5l18 97h74z
M562 325q0 72 -50.5 119.5t-126.5 47.5q-96 0 -173.5 -76t-77.5 -180q0 -78 45 -129.5t128 -51.5q100 0 177.5 80.5t77.5 189.5zM442 607h-74l23 126h74z" />
    <glyph glyph-name="Gcommaaccent" unicode="&#x122;" horiz-adv-x="872" 
d="M864 341q-37 -147 -166 -250.5t-282 -103.5q-149 0 -244 87.5t-95 225.5q0 88 38.5 171t102 144.5t150 99t177.5 37.5q121 0 206 -57.5t106 -152.5h-84q-23 65 -85.5 103.5t-145.5 38.5q-157 0 -272.5 -111t-115.5 -261q0 -116 76.5 -186.5t194.5 -70.5q105 0 197.5 60
t140.5 159h-414l12 67h503zM454 -53l-87 -179h-71l84 179h74z" />
    <glyph glyph-name="gcommaaccent" unicode="&#x123;" horiz-adv-x="673" 
d="M501 792l-84 -179h-74l87 179h71zM681 547l-84 -449q-17 -88 -35 -132t-55 -83q-92 -98 -242 -98q-99 0 -158.5 47t-76.5 151h72q33 -77 70 -103.5t107 -26.5q97 0 158.5 56t81.5 165l7 37q-81 -124 -231 -124q-104 0 -171 65t-67 167q0 135 103 238t236 103
q67 0 109.5 -22.5t83.5 -87.5l18 97h74zM562 325q0 72 -50.5 119.5t-126.5 47.5q-96 0 -173.5 -76t-77.5 -180q0 -78 45 -129.5t128 -51.5q100 0 177.5 80.5t77.5 189.5z" />
    <glyph glyph-name="Hcircumflex" unicode="&#x124;" 
d="M714 739l-137 -739h-74l64 347h-383l-64 -347h-74l137 739h74l-60 -325h383l60 325h74zM635 789h-89l-72 74l-102 -74h-91l168 126h66z" />
    <glyph glyph-name="hcircumflex" unicode="&#x125;" horiz-adv-x="610" 
d="M515 0h-74l54 294q7 44 7 72q0 55 -39 90.5t-100 35.5q-76 0 -129 -49.5t-71 -142.5l-56 -300h-74l137 739h74l-49 -263q76 84 185 84q94 0 146.5 -48.5t52.5 -135.5q0 -26 -10 -82zM599 789h-89l-72 74l-102 -74h-91l168 126h66z" />
    <glyph glyph-name="Hbar" unicode="&#x126;" 
d="M749 565h-67l-105 -565h-74l64 347h-383l-64 -347h-74l105 565h-64l12 64h64l20 110h74l-20 -110h383l20 110h74l-20 -110h67zM580 414l28 151h-383l-28 -151h383z" />
    <glyph glyph-name="hbar" unicode="&#x127;" horiz-adv-x="610" 
d="M516 0h-74l54 294q17 93 -11 138q-36 60 -121 60q-89 0 -149 -68q-37 -40 -53 -124l-56 -300h-74l114 615h-53l12 64h54l11 60h74l-11 -60h99l-12 -64h-99l-27 -139q73 84 190 84q124 0 173 -85q36 -64 13 -181z" />
    <glyph glyph-name="Itilde" unicode="&#x128;" horiz-adv-x="226" 
d="M257 739l-137 -739h-74l137 739h74zM381 857q-40 -55 -92 -55q-27 0 -96 33q-7 4 -17 4q-9 0 -18 -5.5t-40 -27.5l-23 45q49 51 89 51q14 0 55 -18.5t50 -18.5q36 0 71 38z" />
    <glyph glyph-name="itilde" unicode="&#x129;" horiz-adv-x="200" 
d="M107 0h-74l101 547h74zM333 675q-40 -55 -92 -55q-27 0 -96 33q-7 4 -17 4q-9 0 -18 -5.5t-40 -27.5l-23 45q49 51 89 51q14 0 55 -18.5t50 -18.5q36 0 71 38z" />
    <glyph glyph-name="Imacron" unicode="&#x12a;" horiz-adv-x="226" 
d="M257 739l-137 -739h-74l137 739h74zM415 883l-12 -62h-337l12 62h337z" />
    <glyph glyph-name="imacron" unicode="&#x12b;" horiz-adv-x="200" 
d="M107 0h-74l101 547h74zM368 701l-12 -62h-337l12 62h337z" />
    <glyph glyph-name="Ibreve" unicode="&#x12c;" horiz-adv-x="226" 
d="M257 739l-137 -739h-74l137 739h74zM404 911q-35 -117 -172 -117q-62 0 -95.5 26.5t-36.5 90.5h64q4 -36 22.5 -49t58.5 -13q38 0 67 16.5t39 45.5h53z" />
    <glyph glyph-name="ibreve" unicode="&#x12d;" horiz-adv-x="200" 
d="M107 0h-74l101 547h74zM351 729q-35 -117 -172 -117q-62 0 -95.5 26.5t-36.5 90.5h64q4 -36 22.5 -49t58.5 -13q38 0 67 16.5t39 45.5h53z" />
    <glyph glyph-name="Iogonek" unicode="&#x12e;" horiz-adv-x="226" 
d="M90 -246q-27 -4 -60 -4q-46 0 -67 31t-21 72q0 63 60 115q14 12 44 32l137 739h74l-137 -739q-46 -23 -74 -56t-28 -60q0 -60 36 -60q29 0 50 4z" />
    <glyph glyph-name="iogonek" unicode="&#x12f;" horiz-adv-x="200" 
d="M77 -246q-27 -4 -60 -4q-46 0 -67 31t-21 72q0 81 104 147l101 547h74l-101 -547q-46 -23 -74 -56t-28 -60q0 -60 36 -60q29 0 50 4zM220 607h-74l23 126h74z" />
    <glyph glyph-name="Idotaccent" unicode="&#x130;" horiz-adv-x="226" 
d="M257 739l-137 -739h-74l137 739h74zM267 789h-74l23 126h74z" />
    <glyph glyph-name="dotlessi" unicode="&#x131;" horiz-adv-x="200" 
d="M107 0h-74l101 547h74z" />
    <glyph glyph-name="Jcircumflex" unicode="&#x134;" horiz-adv-x="482" 
d="M513 739l-95 -508q-22 -121 -83.5 -183t-157.5 -62q-77 0 -121.5 41t-44.5 119q0 18 2 29h73q6 -64 28 -92.5t74 -28.5q62 0 100 43t56 134l95 508h74zM663 789h-89l-72 74l-102 -74h-91l168 126h66z" />
    <glyph glyph-name="jcircumflex" unicode="&#x135;" horiz-adv-x="203" 
d="M118 38q-35 -220 -229 -230l13 71q64 4 94.5 38.5t47.5 120.5l94 509h74zM363 607h-89l-72 74l-102 -74h-91l168 126h66z" />
    <glyph glyph-name="Kcommaaccent" unicode="&#x136;" horiz-adv-x="591" 
d="M692 739l-359 -360l222 -379h-93l-187 320l-118 -118l-37 -202h-74l137 739h74l-79 -425l421 425h93zM340 -53l-87 -179h-71l84 179h74z" />
    <glyph glyph-name="kcommaaccent" unicode="&#x137;" horiz-adv-x="502" 
d="M467 0h-92l-141 219l-106 -106l-21 -113h-74l137 739h74l-97 -524l316 332h91l-264 -275zM290 -53l-87 -179h-71l84 179h74z" />
    <glyph glyph-name="Lacute" unicode="&#x139;" horiz-adv-x="462" 
d="M426 0h-380l137 739h74l-125 -672h306zM403 890l-214 -114l-24 56l214 116z" />
    <glyph glyph-name="lacute" unicode="&#x13a;" horiz-adv-x="200" 
d="M244 739l-137 -739h-74l137 739h74zM390 890l-214 -114l-24 56l214 116z" />
    <glyph glyph-name="Lcommaaccent" unicode="&#x13b;" horiz-adv-x="462" 
d="M426 0h-380l137 739h74l-125 -672h306zM285 -53l-87 -179h-71l84 179h74z" />
    <glyph glyph-name="lcommaaccent" unicode="&#x13c;" horiz-adv-x="200" 
d="M244 739l-137 -739h-74l137 739h74zM119 -53l-87 -179h-71l84 179h74z" />
    <glyph glyph-name="Lcaron" unicode="&#x13d;" horiz-adv-x="462" 
d="M426 0h-380l137 739h74l-125 -672h306zM445 739l-87 -179h-71l84 179h74z" />
    <glyph glyph-name="lcaron" unicode="&#x13e;" horiz-adv-x="200" 
d="M244 739l-137 -739h-74l137 739h74zM432 739l-87 -179h-71l84 179h74z" />
    <glyph glyph-name="Ldot" unicode="&#x13f;" horiz-adv-x="462" 
d="M426 0h-380l137 739h74l-125 -672h306zM410 320h-74l23 126h74z" />
    <glyph glyph-name="ldot" unicode="&#x140;" horiz-adv-x="274" 
d="M244 739l-137 -739h-74l137 739h74zM303 320h-74l23 126h74z" />
    <glyph glyph-name="Lslash" unicode="&#x141;" horiz-adv-x="517" 
d="M472 0h-380l57 307l-109 -81l16 84l108 81l65 348h74l-58 -313l181 132l-15 -84l-182 -132l-51 -275h306z" />
    <glyph glyph-name="lslash" unicode="&#x142;" horiz-adv-x="300" 
d="M340 507l-14 -73l-93 -55l-71 -379h-74l66 352l-90 -54l13 74l90 53l58 314h74l-52 -287z" />
    <glyph glyph-name="Nacute" unicode="&#x143;" horiz-adv-x="740" 
d="M771 739l-137 -739h-74l-320 650l-120 -650h-74l137 739h100l300 -613l114 613h74zM656 890l-214 -114l-24 56l214 116z" />
    <glyph glyph-name="nacute" unicode="&#x144;" horiz-adv-x="610" 
d="M515 0h-74l53 287q8 45 8 74q0 60 -37.5 95.5t-101.5 35.5q-76 0 -129 -47t-71 -144l-56 -301h-74l101 547h74l-13 -71q87 84 188 84q90 0 143 -49t53 -132q0 -35 -11 -92zM556 708l-214 -114l-24 56l214 116z" />
    <glyph glyph-name="Ncommaaccent" unicode="&#x145;" horiz-adv-x="740" 
d="M771 739l-137 -739h-74l-320 650l-120 -650h-74l137 739h100l300 -613l114 613h74zM389 -53l-87 -179h-71l84 179h74z" />
    <glyph glyph-name="ncommaaccent" unicode="&#x146;" horiz-adv-x="610" 
d="M515 0h-74l53 287q8 45 8 74q0 60 -37.5 95.5t-101.5 35.5q-76 0 -129 -47t-71 -144l-56 -301h-74l101 547h74l-13 -71q87 84 188 84q90 0 143 -49t53 -132q0 -35 -11 -92zM323 -53l-87 -179h-71l84 179h74z" />
    <glyph glyph-name="Ncaron" unicode="&#x147;" horiz-adv-x="740" 
d="M771 739l-137 -739h-74l-320 650l-120 -650h-74l137 739h100l300 -613l114 613h74zM687 915l-168 -126h-66l-120 126h89l72 -74l102 74h91z" />
    <glyph glyph-name="ncaron" unicode="&#x148;" horiz-adv-x="610" 
d="M515 0h-74l53 287q8 45 8 74q0 60 -37.5 95.5t-101.5 35.5q-76 0 -129 -47t-71 -144l-56 -301h-74l101 547h74l-13 -71q87 84 188 84q90 0 143 -49t53 -132q0 -35 -11 -92zM587 733l-168 -126h-66l-120 126h89l72 -74l102 74h91z" />
    <glyph glyph-name="Eng" unicode="&#x14a;" horiz-adv-x="740" 
d="M771 739l-139 -745q-22 -121 -83.5 -183t-157.5 -62q-77 0 -121.5 41t-44.5 119q0 18 2 29h73q6 -64 28 -92.5t74 -28.5q55 0 98 47t55 111l5 26l-320 649l-120 -650h-74l137 739h100l300 -613l114 613h74z" />
    <glyph glyph-name="eng" unicode="&#x14b;" horiz-adv-x="610" 
d="M522 38q-35 -220 -229 -230l13 71q64 4 94.5 38.5t47.5 120.5l46 249q8 45 8 74q0 60 -37.5 95.5t-101.5 35.5q-76 0 -129 -47t-71 -144l-56 -301h-74l101 547h74l-13 -71q87 84 188 84q90 0 143 -49t53 -132q0 -35 -11 -92z" />
    <glyph glyph-name="Omacron" unicode="&#x14c;" horiz-adv-x="869" 
d="M870 436q0 -114 -66.5 -218.5t-176 -167.5t-229.5 -63q-135 0 -228.5 90t-93.5 225q0 115 66.5 219.5t176 167.5t229.5 63q133 0 227.5 -89.5t94.5 -226.5zM793 422q0 114 -74 188t-189 74q-143 0 -260 -114t-117 -254q0 -110 74.5 -185.5t182.5 -75.5q149 0 266 112.5
t117 254.5zM741 883l-12 -62h-337l12 62h337z" />
    <glyph glyph-name="omacron" unicode="&#x14d;" horiz-adv-x="655" 
d="M639 332q0 -140 -102 -242.5t-234 -102.5q-109 0 -177.5 63.5t-68.5 164.5q0 141 105 243t243 102q104 0 169 -63t65 -165zM562 325q0 73 -48 120t-122 47q-105 0 -181.5 -78.5t-76.5 -185.5q0 -77 49.5 -125t129.5 -48q104 0 176.5 78.5t72.5 191.5zM599 701l-12 -62
h-337l12 62h337z" />
    <glyph glyph-name="Obreve" unicode="&#x14e;" horiz-adv-x="869" 
d="M870 436q0 -114 -66.5 -218.5t-176 -167.5t-229.5 -63q-135 0 -228.5 90t-93.5 225q0 115 66.5 219.5t176 167.5t229.5 63q133 0 227.5 -89.5t94.5 -226.5zM793 422q0 114 -74 188t-189 74q-143 0 -260 -114t-117 -254q0 -110 74.5 -185.5t182.5 -75.5q149 0 266 112.5
t117 254.5zM729 911q-35 -117 -172 -117q-62 0 -95.5 26.5t-36.5 90.5h64q4 -36 22.5 -49t58.5 -13q38 0 67 16.5t39 45.5h53z" />
    <glyph glyph-name="obreve" unicode="&#x14f;" horiz-adv-x="655" 
d="M639 332q0 -140 -102 -242.5t-234 -102.5q-109 0 -177.5 63.5t-68.5 164.5q0 141 105 243t243 102q104 0 169 -63t65 -165zM562 325q0 73 -48 120t-122 47q-105 0 -181.5 -78.5t-76.5 -185.5q0 -77 49.5 -125t129.5 -48q104 0 176.5 78.5t72.5 191.5zM582 729
q-35 -117 -172 -117q-62 0 -95.5 26.5t-36.5 90.5h64q4 -36 22.5 -49t58.5 -13q38 0 67 16.5t39 45.5h53z" />
    <glyph glyph-name="Ohungarumlaut" unicode="&#x150;" horiz-adv-x="869" 
d="M870 436q0 -114 -66.5 -218.5t-176 -167.5t-229.5 -63q-135 0 -228.5 90t-93.5 225q0 115 66.5 219.5t176 167.5t229.5 63q133 0 227.5 -89.5t94.5 -226.5zM793 422q0 114 -74 188t-189 74q-143 0 -260 -114t-117 -254q0 -110 74.5 -185.5t182.5 -75.5q149 0 266 112.5
t117 254.5zM654 898l-194 -122l-29 50l192 122zM849 898l-194 -122l-29 50l193 122z" />
    <glyph glyph-name="ohungarumlaut" unicode="&#x151;" horiz-adv-x="655" 
d="M639 332q0 -140 -102 -242.5t-234 -102.5q-109 0 -177.5 63.5t-68.5 164.5q0 141 105 243t243 102q104 0 169 -63t65 -165zM562 325q0 73 -48 120t-122 47q-105 0 -181.5 -78.5t-76.5 -185.5q0 -77 49.5 -125t129.5 -48q104 0 176.5 78.5t72.5 191.5zM511 706l-194 -122
l-29 50l192 122zM706 706l-194 -122l-29 50l193 122z" />
    <glyph glyph-name="OE" unicode="&#x152;" horiz-adv-x="1194" 
d="M1245 739l-13 -67h-319l-49 -265h308l-12 -67h-308l-51 -273h319l-12 -67h-394l28 151q-128 -164 -330 -164q-152 0 -244 85.5t-92 227.5q0 182 139 317t327 135q103 0 175.5 -41.5t105.5 -118.5l28 147h394zM791 436q0 111 -72.5 179.5t-190.5 68.5q-150 0 -262.5 -112
t-112.5 -259q0 -111 72.5 -184.5t193.5 -73.5q95 0 181 51t138.5 139.5t52.5 190.5z" />
    <glyph glyph-name="oe" unicode="&#x153;" horiz-adv-x="1137" 
d="M1110 248h-488q-2 -26 -2 -32q0 -65 53 -113t131 -48q131 0 209 124h75q-36 -78 -119 -135t-177 -57q-80 0 -141.5 37.5t-84.5 113.5q-42 -50 -61 -68.5t-45 -34.5q-79 -48 -158 -48q-107 0 -175.5 64t-68.5 166q0 94 50.5 174t128.5 124.5t161 44.5q79 0 128 -31.5
t91 -114.5q34 56 110 101t162 45q102 0 168 -62t66 -159q0 -32 -13 -91zM1054 315v3v9q0 70 -50.5 117.5t-125.5 47.5q-79 0 -142 -45.5t-101 -131.5h419zM560 320q0 77 -48 124.5t-125 47.5q-101 0 -176.5 -78t-75.5 -184q0 -77 48.5 -126t124.5 -49q100 0 176 80.5
t76 184.5z" />
    <glyph glyph-name="Racute" unicode="&#x154;" horiz-adv-x="607" 
d="M643 553q0 -114 -73 -190.5t-190 -86.5l156 -276h-92l-187 335q141 0 200 24q48 20 78.5 71t30.5 111q0 71 -50 101t-167 30h-104l-125 -672h-74l137 739h183q150 0 213.5 -44.5t63.5 -141.5zM598 890l-214 -114l-24 56l214 116z" />
    <glyph glyph-name="racute" unicode="&#x155;" horiz-adv-x="301" 
d="M366 560l-14 -73q-158 -17 -186 -168l-59 -319h-74l101 547h74l-14 -78q30 45 69.5 66t102.5 25zM389 708l-214 -114l-24 56l214 116z" />
    <glyph glyph-name="Rcommaaccent" unicode="&#x156;" horiz-adv-x="607" 
d="M643 553q0 -114 -73 -190.5t-190 -86.5l156 -276h-92l-187 335q141 0 200 24q48 20 78.5 71t30.5 111q0 71 -50 101t-167 30h-104l-125 -672h-74l137 739h183q150 0 213.5 -44.5t63.5 -141.5zM331 -53l-87 -179h-71l84 179h74z" />
    <glyph glyph-name="rcommaaccent" unicode="&#x157;" horiz-adv-x="301" 
d="M366 560l-14 -73q-158 -17 -186 -168l-59 -319h-74l101 547h74l-14 -78q30 45 69.5 66t102.5 25zM119 -53l-87 -179h-71l84 179h74z" />
    <glyph glyph-name="Rcaron" unicode="&#x158;" horiz-adv-x="607" 
d="M643 553q0 -114 -73 -190.5t-190 -86.5l156 -276h-92l-187 335q141 0 200 24q48 20 78.5 71t30.5 111q0 71 -50 101t-167 30h-104l-125 -672h-74l137 739h183q150 0 213.5 -44.5t63.5 -141.5zM629 915l-168 -126h-66l-120 126h89l72 -74l102 74h91z" />
    <glyph glyph-name="rcaron" unicode="&#x159;" horiz-adv-x="301" 
d="M366 560l-14 -73q-158 -17 -186 -168l-59 -319h-74l101 547h74l-14 -78q30 45 69.5 66t102.5 25zM420 733l-168 -126h-66l-120 126h89l72 -74l102 74h91z" />
    <glyph glyph-name="Sacute" unicode="&#x15a;" horiz-adv-x="498" 
d="M488 246q0 -102 -81 -180.5t-188 -78.5q-85 0 -139 49.5t-54 128.5q0 10 2 42h79q0 -80 31.5 -116t95.5 -36q72 0 124.5 52.5t52.5 124.5q0 46 -30 72.5t-109 51.5q-97 30 -127 65.5t-30 98.5q0 89 72.5 160.5t173.5 71.5q78 0 125.5 -44.5t47.5 -117.5q0 -11 -3 -38h-77
q0 132 -106 132q-65 0 -110.5 -47.5t-45.5 -105.5q0 -15 6.5 -34t15.5 -28q11 -11 29 -19.5t72 -26.5q110 -37 141 -76q32 -41 32 -101zM537 890l-214 -114l-24 56l214 116z" />
    <glyph glyph-name="sacute" unicode="&#x15b;" horiz-adv-x="388" 
d="M362 189q0 -83 -61 -142.5t-142 -59.5q-66 0 -106 38t-40 92q0 20 3 44h73q0 -62 20.5 -84t62.5 -22q46 0 79.5 33.5t33.5 78.5q0 31 -16 47.5t-72 40.5q-45 20 -62.5 30t-28.5 23q-26 29 -26 72q0 72 57.5 126t130.5 54q55 0 91 -33.5t36 -84.5q0 -19 -1 -30h-75
q0 80 -65 80q-37 0 -67 -28.5t-30 -63.5q0 -38 38 -59q18 -9 95 -44q72 -32 72 -108zM446 708l-214 -114l-24 56l214 116z" />
    <glyph glyph-name="Scircumflex" unicode="&#x15c;" horiz-adv-x="498" 
d="M488 246q0 -102 -81 -180.5t-188 -78.5q-85 0 -139 49.5t-54 128.5q0 10 2 42h79q0 -80 31.5 -116t95.5 -36q72 0 124.5 52.5t52.5 124.5q0 46 -30 72.5t-109 51.5q-97 30 -127 65.5t-30 98.5q0 89 72.5 160.5t173.5 71.5q78 0 125.5 -44.5t47.5 -117.5q0 -11 -3 -38h-77
q0 132 -106 132q-65 0 -110.5 -47.5t-45.5 -105.5q0 -15 6.5 -34t15.5 -28q11 -11 29 -19.5t72 -26.5q110 -37 141 -76q32 -41 32 -101zM545 789h-89l-72 74l-102 -74h-91l168 126h66z" />
    <glyph glyph-name="scircumflex" unicode="&#x15d;" horiz-adv-x="388" 
d="M362 189q0 -83 -61 -142.5t-142 -59.5q-66 0 -106 38t-40 92q0 20 3 44h73q0 -62 20.5 -84t62.5 -22q46 0 79.5 33.5t33.5 78.5q0 31 -16 47.5t-72 40.5q-45 20 -62.5 30t-28.5 23q-26 29 -26 72q0 72 57.5 126t130.5 54q55 0 91 -33.5t36 -84.5q0 -19 -1 -30h-75
q0 80 -65 80q-37 0 -67 -28.5t-30 -63.5q0 -38 38 -59q18 -9 95 -44q72 -32 72 -108zM453 607h-89l-72 74l-102 -74h-91l168 126h66z" />
    <glyph glyph-name="Scedilla" unicode="&#x15e;" horiz-adv-x="498" 
d="M488 246q0 -100 -79 -178.5t-184 -80.5l-18 -35q22 5 34 5q37 0 60 -20.5t23 -54.5q0 -7 -2 -19q-8 -48 -45.5 -81t-87.5 -33q-73 0 -80 85l54 6q2 -18 10.5 -25.5t27.5 -7.5q24 0 41 18.5t17 45.5q1 19 -10 29.5t-30 10.5q-29 0 -51 -19l-28 19l46 78q-72 10 -116 58
t-44 118q0 10 2 42h79q0 -80 31.5 -116t95.5 -36q72 0 124.5 52.5t52.5 124.5q0 46 -30 72.5t-109 51.5q-97 30 -127 65.5t-30 98.5q0 89 72.5 160.5t173.5 71.5q78 0 125.5 -44.5t47.5 -117.5q0 -11 -3 -38h-77q0 132 -106 132q-65 0 -110.5 -47.5t-45.5 -105.5
q0 -15 6.5 -34t15.5 -28q11 -11 29 -19.5t72 -26.5q110 -37 141 -76q32 -41 32 -101z" />
    <glyph glyph-name="scedilla" unicode="&#x15f;" horiz-adv-x="388" 
d="M362 189q0 -80 -57 -138.5t-135 -63.5l-18 -35q22 5 34 5q37 0 60 -20.5t23 -54.5q0 -7 -2 -19q-8 -48 -45.5 -81t-87.5 -33q-73 0 -80 85l54 6q2 -18 10.5 -25.5t27.5 -7.5q24 0 41 18.5t17 45.5q1 19 -10 29.5t-30 10.5q-29 0 -51 -19l-28 19l46 78q-54 8 -86 44
t-32 84q0 20 3 44h73q0 -62 20.5 -84t62.5 -22q46 0 79.5 33.5t33.5 78.5q0 31 -16 47.5t-72 40.5q-45 20 -62.5 30t-28.5 23q-26 29 -26 72q0 72 57.5 126t130.5 54q55 0 91 -33.5t36 -84.5q0 -19 -1 -30h-75q0 80 -65 80q-37 0 -67 -28.5t-30 -63.5q0 -38 38 -59
q18 -9 95 -44q72 -32 72 -108z" />
    <glyph glyph-name="Scaron" unicode="&#x160;" horiz-adv-x="498" 
d="M488 246q0 -102 -81 -180.5t-188 -78.5q-85 0 -139 49.5t-54 128.5q0 10 2 42h79q0 -80 31.5 -116t95.5 -36q72 0 124.5 52.5t52.5 124.5q0 46 -30 72.5t-109 51.5q-97 30 -127 65.5t-30 98.5q0 89 72.5 160.5t173.5 71.5q78 0 125.5 -44.5t47.5 -117.5q0 -11 -3 -38h-77
q0 132 -106 132q-65 0 -110.5 -47.5t-45.5 -105.5q0 -15 6.5 -34t15.5 -28q11 -11 29 -19.5t72 -26.5q110 -37 141 -76q32 -41 32 -101zM568 915l-168 -126h-66l-120 126h89l72 -74l102 74h91z" />
    <glyph glyph-name="scaron" unicode="&#x161;" horiz-adv-x="388" 
d="M362 189q0 -83 -61 -142.5t-142 -59.5q-66 0 -106 38t-40 92q0 20 3 44h73q0 -62 20.5 -84t62.5 -22q46 0 79.5 33.5t33.5 78.5q0 31 -16 47.5t-72 40.5q-45 20 -62.5 30t-28.5 23q-26 29 -26 72q0 72 57.5 126t130.5 54q55 0 91 -33.5t36 -84.5q0 -19 -1 -30h-75
q0 80 -65 80q-37 0 -67 -28.5t-30 -63.5q0 -38 38 -59q18 -9 95 -44q72 -32 72 -108zM477 733l-168 -126h-66l-120 126h89l72 -74l102 74h91z" />
    <glyph glyph-name="Tcedilla" unicode="&#x162;" horiz-adv-x="426" 
d="M514 672h-169l-125 -672h-19l-24 -48q22 5 34 5q37 0 60 -20.5t23 -54.5q0 -7 -2 -19q-8 -48 -45.5 -81t-87.5 -33q-73 0 -80 85l54 6q2 -18 10.5 -25.5t27.5 -7.5q24 0 41 18.5t17 45.5q1 19 -10 29.5t-30 10.5q-29 0 -51 -19l-28 19l52 89h-16l125 672h-169l12 67h412z
" />
    <glyph glyph-name="tcedilla" unicode="&#x163;" horiz-adv-x="339" 
d="M386 480h-129l-89 -480h-7l-24 -48q22 5 34 5q37 0 60 -20.5t23 -54.5q0 -7 -2 -19q-8 -48 -45.5 -81t-87.5 -33q-73 0 -80 85l54 6q2 -18 10.5 -25.5t27.5 -7.5q24 0 41 18.5t17 45.5q1 19 -10 29.5t-30 10.5q-29 0 -51 -19l-28 19l52 89h-28l89 480h-112l12 67h112
l36 192h74l-36 -192h129z" />
    <glyph glyph-name="Tcaron" unicode="&#x164;" horiz-adv-x="426" 
d="M514 672h-169l-125 -672h-74l125 672h-169l12 67h412zM530 915l-168 -126h-66l-120 126h89l72 -74l102 74h91z" />
    <glyph glyph-name="tcaron" unicode="&#x165;" horiz-adv-x="339" 
d="M386 480h-129l-89 -480h-74l89 480h-112l12 67h112l36 192h74l-36 -192h129zM465 758l-87 -179h-71l84 179h74z" />
    <glyph glyph-name="Utilde" unicode="&#x168;" horiz-adv-x="655" 
d="M601 278q-27 -145 -107.5 -218t-197.5 -73q-92 0 -149.5 52t-57.5 134q0 44 11 105l85 461h74l-85 -461q-9 -48 -9 -90q0 -59 40 -96t104 -37q84 0 140.5 55t77.5 168l85 461h74zM597 857q-40 -55 -92 -55q-27 0 -96 33q-7 4 -17 4q-9 0 -18 -5.5t-40 -27.5l-23 45
q49 51 89 51q14 0 55 -18.5t50 -18.5q36 0 71 38z" />
    <glyph glyph-name="utilde" unicode="&#x169;" horiz-adv-x="608" 
d="M616 547l-102 -547h-74l16 85q-40 -53 -85.5 -75.5t-110.5 -22.5q-87 0 -139 45.5t-52 122.5q0 47 9 97l55 295h74l-55 -295q-6 -26 -6 -67q0 -62 34 -96t100 -34q77 0 132.5 50.5t76.5 160.5l53 281h74zM536 675q-40 -55 -92 -55q-27 0 -96 33q-7 4 -17 4q-9 0 -18 -5.5
t-40 -27.5l-23 45q49 51 89 51q14 0 55 -18.5t50 -18.5q36 0 71 38z" />
    <glyph glyph-name="Umacron" unicode="&#x16a;" horiz-adv-x="655" 
d="M601 278q-27 -145 -107.5 -218t-197.5 -73q-92 0 -149.5 52t-57.5 134q0 44 11 105l85 461h74l-85 -461q-9 -48 -9 -90q0 -59 40 -96t104 -37q84 0 140.5 55t77.5 168l85 461h74zM631 883l-12 -62h-337l12 62h337z" />
    <glyph glyph-name="umacron" unicode="&#x16b;" horiz-adv-x="608" 
d="M616 547l-102 -547h-74l16 85q-40 -53 -85.5 -75.5t-110.5 -22.5q-87 0 -139 45.5t-52 122.5q0 47 9 97l55 295h74l-55 -295q-6 -26 -6 -67q0 -62 34 -96t100 -34q77 0 132.5 50.5t76.5 160.5l53 281h74zM571 701l-12 -62h-337l12 62h337z" />
    <glyph glyph-name="Ubreve" unicode="&#x16c;" horiz-adv-x="655" 
d="M601 278q-27 -145 -107.5 -218t-197.5 -73q-92 0 -149.5 52t-57.5 134q0 44 11 105l85 461h74l-85 -461q-9 -48 -9 -90q0 -59 40 -96t104 -37q84 0 140.5 55t77.5 168l85 461h74zM619 911q-35 -117 -172 -117q-62 0 -95.5 26.5t-36.5 90.5h64q4 -36 22.5 -49t58.5 -13
q38 0 67 16.5t39 45.5h53z" />
    <glyph glyph-name="ubreve" unicode="&#x16d;" horiz-adv-x="608" 
d="M616 547l-102 -547h-74l16 85q-40 -53 -85.5 -75.5t-110.5 -22.5q-87 0 -139 45.5t-52 122.5q0 47 9 97l55 295h74l-55 -295q-6 -26 -6 -67q0 -62 34 -96t100 -34q77 0 132.5 50.5t76.5 160.5l53 281h74zM554 729q-35 -117 -172 -117q-62 0 -95.5 26.5t-36.5 90.5h64
q4 -36 22.5 -49t58.5 -13q38 0 67 16.5t39 45.5h53z" />
    <glyph glyph-name="Uring" unicode="&#x16e;" horiz-adv-x="655" 
d="M601 278q-27 -145 -107.5 -218t-197.5 -73q-92 0 -149.5 52t-57.5 134q0 44 11 105l85 461h74l-85 -461q-9 -48 -9 -90q0 -59 40 -96t104 -37q84 0 140.5 55t77.5 168l85 461h74zM561 879q0 -44 -38 -79.5t-84 -35.5q-36 0 -60 22.5t-24 56.5q0 50 35.5 86.5t84.5 36.5
q39 0 62.5 -24t23.5 -63zM519 874q0 20 -15 34t-36 14q-27 0 -49 -21t-22 -47q0 -20 14 -33t36 -13q26 0 49 21t23 45z" />
    <glyph glyph-name="uring" unicode="&#x16f;" horiz-adv-x="608" 
d="M616 547l-102 -547h-74l16 85q-40 -53 -85.5 -75.5t-110.5 -22.5q-87 0 -139 45.5t-52 122.5q0 47 9 97l55 295h74l-55 -295q-6 -26 -6 -67q0 -62 34 -96t100 -34q77 0 132.5 50.5t76.5 160.5l53 281h74zM501 694q0 -44 -38 -79.5t-84 -35.5q-36 0 -59.5 22.5t-23.5 56.5
q0 50 35.5 86.5t84.5 36.5q38 0 61.5 -24t23.5 -63zM460 689q0 20 -15 34t-37 14q-26 0 -48 -21t-22 -47q0 -20 13.5 -33t35.5 -13q26 0 49.5 21t23.5 45z" />
    <glyph glyph-name="Uhungarumlaut" unicode="&#x170;" horiz-adv-x="655" 
d="M601 278q-27 -145 -107.5 -218t-197.5 -73q-92 0 -149.5 52t-57.5 134q0 44 11 105l85 461h74l-85 -461q-9 -48 -9 -90q0 -59 40 -96t104 -37q84 0 140.5 55t77.5 168l85 461h74zM544 898l-194 -122l-29 50l192 122zM739 898l-194 -122l-29 50l193 122z" />
    <glyph glyph-name="uhungarumlaut" unicode="&#x171;" horiz-adv-x="608" 
d="M616 547l-102 -547h-74l16 85q-40 -53 -85.5 -75.5t-110.5 -22.5q-87 0 -139 45.5t-52 122.5q0 47 9 97l55 295h74l-55 -295q-6 -26 -6 -67q0 -62 34 -96t100 -34q77 0 132.5 50.5t76.5 160.5l53 281h74zM483 706l-194 -122l-29 50l192 122zM678 706l-194 -122l-29 50
l193 122z" />
    <glyph glyph-name="Uogonek" unicode="&#x172;" horiz-adv-x="655" 
d="M601 278q-38 -202 -180 -266q-124 -55 -124 -128q0 -23 8.5 -41.5t28.5 -18.5q27 0 50 4l-14 -74q-27 -4 -60 -4q-46 0 -67.5 31t-21.5 72q0 74 85 134h-10q-92 0 -149.5 52t-57.5 134q0 44 11 105l85 461h74l-85 -461q-9 -48 -9 -90q0 -59 40 -96t104 -37q84 0 140.5 55
t77.5 168l85 461h74z" />
    <glyph glyph-name="uogonek" unicode="&#x173;" horiz-adv-x="608" 
d="M485 -246q-27 -4 -60 -4q-46 0 -67.5 31t-21.5 72q0 80 105 147l3 22l8 42l4 21q-40 -53 -85.5 -75.5t-110.5 -22.5q-87 0 -139 45.5t-52 122.5q0 47 9 97l55 295h74l-55 -295q-6 -26 -6 -67q0 -62 34 -96t100 -34q77 0 132.5 50.5t76.5 160.5l53 281h74l-102 -547
q-46 -23 -74 -56t-28 -60q0 -23 8.5 -41.5t28.5 -18.5q27 0 50 4z" />
    <glyph glyph-name="Wcircumflex" unicode="&#x174;" horiz-adv-x="960" 
d="M1057 739l-349 -739h-95l-52 606l-274 -606h-96l-74 739h76l63 -643l296 643h70l58 -643l301 643h76zM774 789h-89l-72 74l-102 -74h-91l168 126h66z" />
    <glyph glyph-name="wcircumflex" unicode="&#x175;" horiz-adv-x="831" 
d="M895 547l-313 -547h-79l-52 363l-185 -363h-80l-108 547h74l89 -458l202 391h61l56 -391l263 458h72zM674 607h-89l-72 74l-102 -74h-91l168 126h66z" />
    <glyph glyph-name="Ycircumflex" unicode="&#x176;" horiz-adv-x="592" 
d="M697 739l-349 -492l-46 -247h-74l46 247l-165 492h82l133 -414l292 414h81zM589 789h-89l-72 74l-102 -74h-91l168 126h66z" />
    <glyph glyph-name="ycircumflex" unicode="&#x177;" horiz-adv-x="536" 
d="M598 547l-453 -739h-78l127 210l-114 529h81l92 -436l266 436h79zM528 607h-89l-72 74l-102 -74h-91l168 126h66z" />
    <glyph glyph-name="Ydieresis" unicode="&#x178;" horiz-adv-x="592" 
d="M697 739l-349 -492l-46 -247h-74l46 247l-165 492h82l133 -414l292 414h81zM373 789h-74l23 126h74zM520 789h-74l23 126h74z" />
    <glyph glyph-name="Zacute" unicode="&#x179;" horiz-adv-x="480" 
d="M444 0h-457l12 67l476 605h-352l12 67h435l-12 -67l-475 -605h373zM531 890l-214 -114l-24 56l214 116z" />
    <glyph glyph-name="zacute" unicode="&#x17a;" horiz-adv-x="425" 
d="M385 0h-405l12 67l379 413h-292l12 67h376l-11 -63l-377 -417h318zM460 708l-214 -114l-24 56l214 116z" />
    <glyph glyph-name="Zdotaccent" unicode="&#x17b;" horiz-adv-x="480" 
d="M444 0h-457l12 67l476 605h-352l12 67h435l-12 -67l-475 -605h373zM399 789h-74l23 126h74z" />
    <glyph glyph-name="zdotaccent" unicode="&#x17c;" horiz-adv-x="425" 
d="M385 0h-405l12 67l379 413h-292l12 67h376l-11 -63l-377 -417h318zM328 607h-74l23 126h74z" />
    <glyph glyph-name="Zcaron" unicode="&#x17d;" horiz-adv-x="480" 
d="M444 0h-457l12 67l476 605h-352l12 67h435l-12 -67l-475 -605h373zM562 915l-168 -126h-66l-120 126h89l72 -74l102 74h91z" />
    <glyph glyph-name="zcaron" unicode="&#x17e;" horiz-adv-x="425" 
d="M385 0h-405l12 67l379 413h-292l12 67h376l-11 -63l-377 -417h318zM491 733l-168 -126h-66l-120 126h89l72 -74l102 74h91z" />
    <glyph glyph-name="longs" unicode="&#x17f;" horiz-adv-x="314" 
d="M405 672h-11h-4q-64 0 -98 -29.5t-46 -95.5l-101 -547h-74l89 480h-85l12 67h85q11 54 28 85.5t49 56.5q64 50 151 50h6h11z" />
    <glyph glyph-name="Ereversed" unicode="&#x18e;" horiz-adv-x="536" 
d="M450 0h-404l13 67h330l50 273h-319l13 67h319l49 265h-330l12 67h404z" />
    <glyph glyph-name="florin" unicode="&#x192;" horiz-adv-x="554" 
d="M655 815l-23 -66q-11 2 -19 2h-2q-45 1 -76 -29.5t-67 -114.5l-10 -23h112l-24 -67h-112l-160 -431q-32 -86 -53.5 -122.5t-56.5 -64.5q-67 -52 -161 -52q-21 0 -54 7l25 64l20 -2q5 -1 24 -1q71 0 110 36.5t78 140.5l159 425h-113l25 67h111l9 23q82 211 235 211
q10 0 23 -3z" />
    <glyph glyph-name="Ohorn" unicode="&#x1a0;" horiz-adv-x="869" 
d="M870 436q0 -114 -66.5 -218.5t-176 -167.5t-229.5 -63q-77 0 -148 34t-114 92q-60 81 -60 189q0 115 66.5 219.5t176 167.5t229.5 63q70 0 134 -28t110 -78q37 36 44 93h62q-9 -82 -72 -138q44 -73 44 -165zM793 422q0 114 -74 188t-189 74q-143 0 -260 -114t-117 -254
q0 -110 74.5 -185.5t182.5 -75.5q149 0 266 112.5t117 254.5z" />
    <glyph glyph-name="ohorn" unicode="&#x1a1;" horiz-adv-x="698" 
d="M712 547q-9 -90 -82 -147q9 -38 9 -68q0 -136 -96 -237q-102 -108 -240 -108q-109 0 -177.5 63.5t-68.5 164.5q0 62 24.5 123.5t68.5 108.5q105 113 255 113q67 0 119.5 -28t82.5 -77q36 36 43 92h62zM562 325q0 73 -48 120t-122 47q-105 0 -181.5 -78.5t-76.5 -185.5
q0 -77 49.5 -125t129.5 -48q104 0 176.5 78.5t72.5 191.5z" />
    <glyph glyph-name="Uhorn" unicode="&#x1af;" horiz-adv-x="729" 
d="M800 739q-13 -126 -149 -187l-50 -274q-24 -130 -89 -200q-86 -91 -216 -91q-92 0 -149.5 52t-57.5 134q0 44 11 105l85 461h74l-85 -461q-9 -48 -9 -90q0 -59 40 -96t104 -37q93 0 155 70q43 49 63 153l85 461h74l-21 -115q64 41 73 115h62z" />
    <glyph glyph-name="uhorn" unicode="&#x1b0;" horiz-adv-x="698" 
d="M730 547q-13 -125 -149 -187l-67 -360h-74l16 85q-40 -53 -85.5 -75.5t-110.5 -22.5q-87 0 -139 45.5t-52 122.5q0 47 9 97l55 295h74l-55 -295q-6 -39 -6 -67q0 -49 21 -82q14 -22 45 -35t68 -13q87 0 149 68q41 45 60 143l53 281h74l-22 -115q65 40 74 115h62z" />
    <glyph glyph-name="eturned" unicode="&#x1dd;" horiz-adv-x="650" 
d="M635 327q0 -135 -102.5 -237.5t-237.5 -102.5q-104 0 -170.5 64t-66.5 164q0 32 9 83h495q2 24 2 28q0 70 -52 118t-127 48q-61 0 -121.5 -35t-92.5 -90h-77q48 88 130.5 140.5t173.5 52.5q102 0 169.5 -66.5t67.5 -166.5zM547 231h-419q4 -81 52.5 -128.5t127.5 -47.5
q78 0 145 49.5t94 126.5z" />
    <glyph glyph-name="Gcaron" unicode="&#x1e6;" horiz-adv-x="872" 
d="M864 341q-37 -147 -166 -250.5t-282 -103.5q-149 0 -244 87.5t-95 225.5q0 88 38.5 171t102 144.5t150 99t177.5 37.5q121 0 206 -57.5t106 -152.5h-84q-23 65 -85.5 103.5t-145.5 38.5q-157 0 -272.5 -111t-115.5 -261q0 -116 76.5 -186.5t194.5 -70.5q105 0 197.5 60
t140.5 159h-414l12 67h503zM752 915l-168 -126h-66l-120 126h89l72 -74l102 74h91z" />
    <glyph glyph-name="gcaron" unicode="&#x1e7;" horiz-adv-x="673" 
d="M681 547l-84 -449q-17 -88 -35 -132t-55 -83q-92 -98 -242 -98q-99 0 -158.5 47t-76.5 151h72q33 -77 70 -103.5t107 -26.5q97 0 158.5 56t81.5 165l7 37q-81 -124 -231 -124q-104 0 -171 65t-67 167q0 135 103 238t236 103q67 0 109.5 -22.5t83.5 -87.5l18 97h74z
M562 325q0 72 -50.5 119.5t-126.5 47.5q-96 0 -173.5 -76t-77.5 -180q0 -78 45 -129.5t128 -51.5q100 0 177.5 80.5t77.5 189.5zM605 733l-168 -126h-66l-120 126h89l72 -74l102 74h91z" />
    <glyph glyph-name="Oogonek" unicode="&#x1ea;" horiz-adv-x="869" 
d="M870 436q0 -138 -94.5 -257.5t-234.5 -167.5q-60 -20 -100 -52t-40 -75q0 -60 36 -60q29 0 50 4l-14 -74q-27 -4 -60 -4q-46 0 -67 31t-21 72q0 75 85 134h-12q-135 0 -228.5 90t-93.5 225q0 115 66.5 219.5t176 167.5t229.5 63q133 0 227.5 -89.5t94.5 -226.5zM793 422
q0 114 -74 188t-189 74q-143 0 -260 -114t-117 -254q0 -110 74.5 -185.5t182.5 -75.5q149 0 266 112.5t117 254.5z" />
    <glyph glyph-name="oogonek" unicode="&#x1eb;" horiz-adv-x="655" 
d="M639 332q0 -99 -55 -183.5t-141 -127.5q-30 -15 -50.5 -27t-43 -29.5t-34 -38t-11.5 -42.5q0 -60 36 -60q29 0 50 4l-13 -74q-28 -4 -61 -4q-46 0 -67 31t-21 72q0 74 85 134h-10q-109 0 -177.5 63.5t-68.5 164.5q0 141 105 243t243 102q104 0 169 -63t65 -165zM562 325
q0 73 -48 120t-122 47q-105 0 -181.5 -78.5t-76.5 -185.5q0 -77 49.5 -125t129.5 -48q104 0 176.5 78.5t72.5 191.5z" />
    <glyph glyph-name="Gacute" unicode="&#x1f4;" horiz-adv-x="872" 
d="M864 341q-37 -147 -166 -250.5t-282 -103.5q-149 0 -244 87.5t-95 225.5q0 88 38.5 171t102 144.5t150 99t177.5 37.5q121 0 206 -57.5t106 -152.5h-84q-23 65 -85.5 103.5t-145.5 38.5q-157 0 -272.5 -111t-115.5 -261q0 -116 76.5 -186.5t194.5 -70.5q105 0 197.5 60
t140.5 159h-414l12 67h503zM721 890l-214 -114l-24 56l214 116z" />
    <glyph glyph-name="gacute" unicode="&#x1f5;" horiz-adv-x="673" 
d="M681 547l-84 -449q-17 -88 -35 -132t-55 -83q-92 -98 -242 -98q-99 0 -158.5 47t-76.5 151h72q33 -77 70 -103.5t107 -26.5q97 0 158.5 56t81.5 165l7 37q-81 -124 -231 -124q-104 0 -171 65t-67 167q0 135 103 238t236 103q67 0 109.5 -22.5t83.5 -87.5l18 97h74z
M562 325q0 72 -50.5 119.5t-126.5 47.5q-96 0 -173.5 -76t-77.5 -180q0 -78 45 -129.5t128 -51.5q100 0 177.5 80.5t77.5 189.5zM574 708l-214 -114l-24 56l214 116z" />
    <glyph glyph-name="Aringacute" unicode="&#x1fa;" horiz-adv-x="740" 
d="M699 0h-81l-61 249h-344l-154 -249h-78l454 739h83zM541 316l-80 339l-207 -339h287zM694 1100l-214 -114l-24 56l214 116zM602 879q0 -44 -38 -79.5t-84 -35.5q-36 0 -60 22.5t-24 56.5q0 50 35.5 86.5t84.5 36.5q39 0 62.5 -24t23.5 -63zM560 874q0 20 -15 34t-36 14
q-27 0 -49 -21t-22 -47q0 -20 14 -33t36 -13q26 0 49 21t23 45z" />
    <glyph glyph-name="aringacute" unicode="&#x1fb;" 
d="M590 0h-74l18 96q-61 -62 -111 -85.5t-120 -23.5q-110 0 -177.5 63t-67.5 166q0 139 103 241.5t243 102.5q139 0 195 -110l18 97h74zM571 319q0 75 -49.5 124t-124.5 49q-104 0 -183 -77.5t-79 -179.5q0 -80 50.5 -130t132.5 -50q100 0 176.5 80t76.5 184zM619 908
l-214 -114l-24 56l214 116zM527 687q0 -44 -38 -79.5t-84 -35.5q-36 0 -60 22.5t-24 56.5q0 50 35.5 86.5t84.5 36.5q39 0 62.5 -24t23.5 -63zM485 682q0 20 -15 34t-36 14q-27 0 -49 -21t-22 -47q0 -20 14 -33t36 -13q26 0 49 21t23 45z" />
    <glyph glyph-name="AEacute" unicode="&#x1fc;" horiz-adv-x="992" 
d="M1031 672h-319l-50 -265h308l-12 -67h-308l-51 -273h319l-12 -67h-393l46 250h-271l-219 -250h-88l648 739h414zM572 317l60 327l-284 -327h224zM865 890l-214 -114l-24 56l214 116z" />
    <glyph glyph-name="aeacute" unicode="&#x1fd;" horiz-adv-x="1157" 
d="M1132 247h-495q-1 -10 -1 -22q0 -72 52.5 -121t129.5 -49q62 0 121 34t90 89h77q-36 -79 -124.5 -135t-177.5 -56q-128 0 -200 105l-17 -92h-71l17 92q-102 -105 -233 -105q-109 0 -175.5 64t-66.5 168q0 131 103 236t241 105q144 0 198 -108l18 95h71l-18 -95
q105 108 235 108q104 0 170 -63.5t66 -163.5q0 -40 -10 -86zM1073 314q-1 82 -49 130t-128 48q-81 0 -150 -50.5t-93 -127.5h420zM574 319q0 77 -49.5 125t-128.5 48q-107 0 -184 -79t-77 -182q0 -77 50 -126.5t127 -49.5q104 0 183 79.5t79 184.5zM834 708l-214 -114
l-24 56l214 116z" />
    <glyph glyph-name="Oslashacute" unicode="&#x1fe;" horiz-adv-x="868" 
d="M867 442q0 -115 -66 -221t-174.5 -170t-225.5 -64q-51 0 -104 15t-89 40l-118 -125l-48 41l117 124q-86 84 -86 212q0 119 65.5 225.5t172 169.5t223.5 63q116 0 199 -56l117 125l45 -43l-114 -122q86 -84 86 -214zM682 641q-62 43 -158 43q-147 0 -260.5 -117
t-113.5 -258q0 -56 12 -90t49 -81zM790 426q0 53 -11 86t-43 78l-7 10l-470 -503q75 -42 151 -42q146 0 263 111.5t117 259.5zM720 890l-214 -114l-24 56l214 116z" />
    <glyph glyph-name="oslashacute" unicode="&#x1ff;" horiz-adv-x="653" 
d="M639 340q0 -144 -100.5 -248.5t-239.5 -104.5q-82 0 -145 41l-63 -66l-45 40l62 66q-28 41 -38.5 73t-10.5 73q0 93 51 174t129.5 126.5t160.5 45.5q83 0 141 -41l70 74l46 -42l-70 -73q52 -55 52 -138zM491 468q-45 24 -96 24q-100 0 -179.5 -82t-79.5 -185
q0 -55 23 -104zM562 336q0 45 -25 90l-334 -347q40 -16 54.5 -20t41.5 -4q112 0 187.5 80.5t75.5 200.5zM579 708l-214 -114l-24 56l214 116z" />
    <glyph glyph-name="Adblgrave" unicode="&#x200;" horiz-adv-x="740" 
d="M699 0h-81l-61 249h-344l-154 -249h-78l454 739h83zM541 316l-80 339l-207 -339h287zM623 826l-47 -50l-149 122l50 50zM428 826l-47 -50l-149 122l49 50z" />
    <glyph glyph-name="adblgrave" unicode="&#x201;" 
d="M590 0h-74l18 96q-61 -62 -111 -85.5t-120 -23.5q-110 0 -177.5 63t-67.5 166q0 139 103 241.5t243 102.5q139 0 195 -110l18 97h74zM571 319q0 75 -49.5 124t-124.5 49q-104 0 -183 -77.5t-79 -179.5q0 -80 50.5 -130t132.5 -50q100 0 176.5 80t76.5 184zM548 634
l-47 -50l-149 122l50 50zM353 634l-47 -50l-149 122l49 50z" />
    <glyph glyph-name="Edblgrave" unicode="&#x204;" horiz-adv-x="536" 
d="M575 672h-330l-50 -265h319l-12 -67h-319l-51 -273h330l-12 -67h-404l137 739h404zM532 826l-47 -50l-149 122l50 50zM337 826l-47 -50l-149 122l49 50z" />
    <glyph glyph-name="edblgrave" unicode="&#x205;" horiz-adv-x="650" 
d="M626 249h-495q-2 -24 -2 -28q0 -70 52 -118t127 -48q61 0 121.5 35t92.5 90h77q-48 -88 -130.5 -140.5t-173.5 -52.5q-102 0 -169.5 66.5t-67.5 166.5q0 135 102.5 237.5t237.5 102.5q104 0 170.5 -64t66.5 -164q0 -32 -9 -83zM565 316q-4 81 -52.5 128.5t-127.5 47.5
q-78 0 -145 -49.5t-94 -126.5h419zM542 634l-47 -50l-149 122l50 50zM347 634l-47 -50l-149 122l49 50z" />
    <glyph glyph-name="Idblgrave" unicode="&#x208;" horiz-adv-x="226" 
d="M257 739l-137 -739h-74l137 739h74zM367 826l-47 -50l-149 122l50 50zM172 826l-47 -50l-149 122l49 50z" />
    <glyph glyph-name="idblgrave" unicode="&#x209;" horiz-adv-x="200" 
d="M107 0h-74l101 547h74zM318 634l-47 -50l-149 122l50 50zM123 634l-47 -50l-149 122l49 50z" />
    <glyph glyph-name="Odblgrave" unicode="&#x20c;" horiz-adv-x="869" 
d="M870 436q0 -114 -66.5 -218.5t-176 -167.5t-229.5 -63q-135 0 -228.5 90t-93.5 225q0 115 66.5 219.5t176 167.5t229.5 63q133 0 227.5 -89.5t94.5 -226.5zM793 422q0 114 -74 188t-189 74q-143 0 -260 -114t-117 -254q0 -110 74.5 -185.5t182.5 -75.5q149 0 266 112.5
t117 254.5zM692 826l-47 -50l-149 122l50 50zM497 826l-47 -50l-149 122l49 50z" />
    <glyph glyph-name="odblgrave" unicode="&#x20d;" horiz-adv-x="655" 
d="M639 332q0 -140 -102 -242.5t-234 -102.5q-109 0 -177.5 63.5t-68.5 164.5q0 141 105 243t243 102q104 0 169 -63t65 -165zM562 325q0 73 -48 120t-122 47q-105 0 -181.5 -78.5t-76.5 -185.5q0 -77 49.5 -125t129.5 -48q104 0 176.5 78.5t72.5 191.5zM549 634l-47 -50
l-149 122l50 50zM354 634l-47 -50l-149 122l49 50z" />
    <glyph glyph-name="Rdblgrave" unicode="&#x210;" horiz-adv-x="607" 
d="M643 553q0 -114 -73 -190.5t-190 -86.5l156 -276h-92l-187 335q141 0 200 24q48 20 78.5 71t30.5 111q0 71 -50 101t-167 30h-104l-125 -672h-74l137 739h183q150 0 213.5 -44.5t63.5 -141.5zM566 826l-47 -50l-149 122l50 50zM371 826l-47 -50l-149 122l49 50z" />
    <glyph glyph-name="rdblgrave" unicode="&#x211;" horiz-adv-x="301" 
d="M366 560l-14 -73q-158 -17 -186 -168l-59 -319h-74l101 547h74l-14 -78q30 45 69.5 66t102.5 25zM355 634l-47 -50l-149 122l50 50zM160 634l-47 -50l-149 122l49 50z" />
    <glyph glyph-name="Udblgrave" unicode="&#x214;" horiz-adv-x="655" 
d="M601 278q-27 -145 -107.5 -218t-197.5 -73q-92 0 -149.5 52t-57.5 134q0 44 11 105l85 461h74l-85 -461q-9 -48 -9 -90q0 -59 40 -96t104 -37q84 0 140.5 55t77.5 168l85 461h74zM582 826l-47 -50l-149 122l50 50zM387 826l-47 -50l-149 122l49 50z" />
    <glyph glyph-name="udblgrave" unicode="&#x215;" horiz-adv-x="608" 
d="M616 547l-102 -547h-74l16 85q-40 -53 -85.5 -75.5t-110.5 -22.5q-87 0 -139 45.5t-52 122.5q0 47 9 97l55 295h74l-55 -295q-6 -26 -6 -67q0 -62 34 -96t100 -34q77 0 132.5 50.5t76.5 160.5l53 281h74zM521 634l-47 -50l-149 122l50 50zM326 634l-47 -50l-149 122
l49 50z" />
    <glyph glyph-name="uni0218" unicode="&#x218;" horiz-adv-x="498" 
d="M488 246q0 -102 -81 -180.5t-188 -78.5q-85 0 -139 49.5t-54 128.5q0 10 2 42h79q0 -80 31.5 -116t95.5 -36q72 0 124.5 52.5t52.5 124.5q0 46 -30 72.5t-109 51.5q-97 30 -127 65.5t-30 98.5q0 89 72.5 160.5t173.5 71.5q78 0 125.5 -44.5t47.5 -117.5q0 -11 -3 -38h-77
q0 132 -106 132q-65 0 -110.5 -47.5t-45.5 -105.5q0 -15 6.5 -34t15.5 -28q11 -11 29 -19.5t72 -26.5q110 -37 141 -76q32 -41 32 -101zM270 -53l-87 -179h-71l84 179h74z" />
    <glyph glyph-name="uni0219" unicode="&#x219;" horiz-adv-x="388" 
d="M362 189q0 -83 -61 -142.5t-142 -59.5q-66 0 -106 38t-40 92q0 20 3 44h73q0 -62 20.5 -84t62.5 -22q46 0 79.5 33.5t33.5 78.5q0 31 -16 47.5t-72 40.5q-45 20 -62.5 30t-28.5 23q-26 29 -26 72q0 72 57.5 126t130.5 54q55 0 91 -33.5t36 -84.5q0 -19 -1 -30h-75
q0 80 -65 80q-37 0 -67 -28.5t-30 -63.5q0 -38 38 -59q18 -9 95 -44q72 -32 72 -108zM213 -53l-87 -179h-71l84 179h74z" />
    <glyph glyph-name="uni021A" unicode="&#x21a;" horiz-adv-x="426" 
d="M514 672h-169l-125 -672h-74l125 672h-169l12 67h412zM232 -53l-87 -179h-71l84 179h74z" />
    <glyph glyph-name="uni021B" unicode="&#x21b;" horiz-adv-x="339" 
d="M386 480h-129l-89 -480h-74l89 480h-112l12 67h112l36 192h74l-36 -192h129zM188 -53l-87 -179h-71l84 179h74z" />
    <glyph glyph-name="ereversed" unicode="&#x258;" horiz-adv-x="650" 
d="M615 220q-37 -100 -129 -166.5t-194 -66.5q-91 0 -154 52.5t-78 140.5h77q12 -55 59 -90t108 -35q75 0 145 48t96 118l8 28h-495q10 52 22 83q38 101 127.5 164.5t193.5 63.5q135 0 199.5 -102.5t14.5 -237.5zM563 316q2 77 -47 126.5t-127 49.5q-79 0 -145 -47.5
t-100 -128.5h419z" />
    <glyph glyph-name="schwa" unicode="&#x259;" horiz-adv-x="650" 
d="M635 327q0 -135 -102.5 -237.5t-237.5 -102.5q-104 0 -170.5 64t-66.5 164q0 32 9 83h495q2 24 2 28q0 70 -52 118t-127 48q-61 0 -121.5 -35t-92.5 -90h-77q48 88 130.5 140.5t173.5 52.5q102 0 169.5 -66.5t67.5 -166.5zM547 231h-419q4 -81 52.5 -128.5t127.5 -47.5
q78 0 145 49.5t94 126.5z" />
    <glyph glyph-name="ringhalfright" unicode="&#x2be;" horiz-adv-x="520" 
d="M526 552q-1 -93 -74 -164t-169 -71q-65 0 -110 33.5t-57 91.5q-1 4 2 7.5t7 3.5h56q2 0 6 -4q27 -70 107 -70q65 0 114.5 49t49.5 114q0 49 -32.5 80.5t-82.5 31.5q-39 0 -65.5 -13.5t-67.5 -54.5q-2 -2 -6 -2h-55q-5 0 -6.5 3.5t1.5 7.5q48 66 98 93.5t110 27.5
q78 0 125.5 -45t48.5 -119z" />
    <glyph glyph-name="ringhalfleft" unicode="&#x2bf;" horiz-adv-x="520" 
d="M507 438q-48 -66 -97.5 -93.5t-109.5 -27.5q-78 0 -126 45t-49 119q1 92 74.5 163.5t169.5 71.5q65 0 109.5 -33.5t57.5 -91.5q1 -4 -2.5 -7.5t-7.5 -3.5h-56q-2 0 -6 4q-27 70 -107 70q-65 0 -114.5 -49t-49.5 -114q0 -49 32.5 -80.5t82.5 -31.5q39 0 65.5 13.5
t67.5 54.5q2 2 6 2h55q5 0 6.5 -3.5t-1.5 -7.5z" />
    <glyph glyph-name="circumflex" unicode="&#x2c6;" horiz-adv-x="502" 
d="M510 607h-89l-72 74l-102 -74h-91l168 126h66z" />
    <glyph glyph-name="caron" unicode="&#x2c7;" horiz-adv-x="502" 
d="M534 733l-168 -126h-66l-120 126h89l72 -74l102 74h91z" />
    <glyph glyph-name="breve" unicode="&#x2d8;" horiz-adv-x="453" 
d="M478 729q-35 -117 -172 -117q-62 0 -95.5 26.5t-36.5 90.5h64q4 -36 22.5 -49t58.5 -13q38 0 67 16.5t39 45.5h53z" />
    <glyph glyph-name="dotaccent" unicode="&#x2d9;" horiz-adv-x="222" 
d="M231 607h-74l23 126h74z" />
    <glyph glyph-name="ring" unicode="&#x2da;" horiz-adv-x="332" 
d="M364 694q0 -44 -38 -79.5t-84 -35.5q-36 0 -59.5 22.5t-23.5 56.5q0 50 35.5 86.5t84.5 36.5q38 0 61.5 -24t23.5 -63zM323 689q0 20 -15 34t-37 14q-26 0 -48 -21t-22 -47q0 -20 13.5 -33t35.5 -13q26 0 49.5 21t23.5 45z" />
    <glyph glyph-name="ogonek" unicode="&#x2db;" horiz-adv-x="302" 
d="M160 -246q-27 -4 -60 -4q-46 0 -67 31t-21 72q0 81 104 147h74q-46 -23 -74 -56t-28 -60q0 -60 36 -60q29 0 50 4z" />
    <glyph glyph-name="tilde" unicode="&#x2dc;" horiz-adv-x="439" 
d="M453 675q-40 -55 -92 -55q-27 0 -96 33q-7 4 -17 4q-9 0 -18 -5.5t-40 -27.5l-23 45q49 51 89 51q14 0 55 -18.5t50 -18.5q36 0 71 38z" />
    <glyph glyph-name="hungarumlaut" unicode="&#x2dd;" horiz-adv-x="552" 
d="M456 706l-194 -122l-29 50l192 122zM651 706l-194 -122l-29 50l193 122z" />
    <glyph glyph-name="uni0300" unicode="&#x300;" horiz-adv-x="0" 
d="M-175 650l-45 -56l-172 114l46 58z" />
    <glyph glyph-name="uni0301" unicode="&#x301;" horiz-adv-x="0" 
d="M-89 708l-214 -114l-24 56l214 116z" />
    <glyph glyph-name="uni0302" unicode="&#x302;" horiz-adv-x="0" 
d="M-82 607h-89l-72 74l-102 -74h-91l168 126h66z" />
    <glyph glyph-name="uni0303" unicode="&#x303;" horiz-adv-x="0" 
d="M-108 675q-40 -55 -92 -55q-27 0 -96 33q-7 4 -17 4q-9 0 -18 -5.5t-40 -27.5l-23 45q49 51 89 51q14 0 55 -18.5t50 -18.5q36 0 71 38z" />
    <glyph glyph-name="uni0304" unicode="&#x304;" horiz-adv-x="0" 
d="M-73 701l-12 -62h-337l12 62h337z" />
    <glyph glyph-name="uni0306" unicode="&#x306;" horiz-adv-x="0" 
d="M-90 729q-35 -117 -172 -117q-62 0 -95.5 26.5t-36.5 90.5h64q4 -36 22.5 -49t58.5 -13q38 0 67 16.5t39 45.5h53z" />
    <glyph glyph-name="uni0307" unicode="&#x307;" horiz-adv-x="0" 
d="M-221 607h-74l23 126h74z" />
    <glyph glyph-name="uni0308" unicode="&#x308;" horiz-adv-x="0" 
d="M-297 607h-74l23 126h74zM-150 607h-74l23 126h74z" />
    <glyph glyph-name="uni0309" unicode="&#x309;" horiz-adv-x="0" 
d="M-135 722q0 -28 -19 -50q-10 -10 -35 -27h-1q-41 -26 -46 -56h-54q5 53 61 90q38 25 38 40q0 22 -35 22q-48 0 -67 -55h-55q17 57 48.5 81t78.5 24q40 0 63 -18.5t23 -50.5z" />
    <glyph glyph-name="uni030A" unicode="&#x30a;" horiz-adv-x="0" 
d="M-143 694q0 -44 -38 -79.5t-84 -35.5q-36 0 -59.5 22.5t-23.5 56.5q0 50 35.5 86.5t84.5 36.5q38 0 61.5 -24t23.5 -63zM-184 689q0 20 -15 34t-37 14q-26 0 -48 -21t-22 -47q0 -20 13.5 -33t35.5 -13q26 0 49.5 21t23.5 45z" />
    <glyph glyph-name="uni030B" unicode="&#x30b;" horiz-adv-x="0" 
d="M-161 706l-194 -122l-29 50l192 122zM34 706l-194 -122l-29 50l193 122z" />
    <glyph glyph-name="uni030C" unicode="&#x30c;" horiz-adv-x="0" 
d="M-58 733l-168 -126h-66l-120 126h89l72 -74l102 74h91z" />
    <glyph glyph-name="uni030F" unicode="&#x30f;" horiz-adv-x="0" 
d="M-123 634l-47 -50l-149 122l50 50zM-318 634l-47 -50l-149 122l49 50z" />
    <glyph glyph-name="uni0311" unicode="&#x311;" horiz-adv-x="0" 
d="M-111 612h-64q-4 36 -22.5 49t-58.5 13q-38 0 -67 -16.5t-39 -45.5h-53q35 117 172 117q62 0 95.5 -26.5t36.5 -90.5z" />
    <glyph glyph-name="uni0323" unicode="&#x323;" horiz-adv-x="0" 
d="M-368 -186h-74l23 126h74z" />
    <glyph glyph-name="uni0326" unicode="&#x326;" horiz-adv-x="0" 
d="M-323 -53l-87 -179h-71l84 179h74z" />
    <glyph glyph-name="uni032E" unicode="&#x32e;" horiz-adv-x="0" 
d="M-231 -64q-35 -117 -172 -117q-62 0 -95.5 26.5t-36.5 90.5h64q4 -36 22.5 -49t58.5 -13q38 0 67 16.5t39 45.5h53z" />
    <glyph glyph-name="uni032F" unicode="&#x32f;" horiz-adv-x="0" 
d="M-253 -181h-64q-4 36 -22.5 49t-58.5 13q-38 0 -67 -16.5t-39 -45.5h-53q35 117 172 117q62 0 95.5 -26.5t36.5 -90.5z" />
    <glyph glyph-name="uni0330" unicode="&#x330;" horiz-adv-x="0" 
d="M-254 -118q-40 -55 -92 -55q-27 0 -96 33q-7 4 -17 4q-9 0 -18 -5.5t-40 -27.5l-23 45q49 51 89 51q14 0 55 -18.5t50 -18.5q36 0 71 38z" />
    <glyph glyph-name="uni0331" unicode="&#x331;" horiz-adv-x="0" 
d="M-220 -92l-12 -62h-337l12 62h337z" />
    <glyph glyph-name="uni0332" unicode="&#x332;" horiz-adv-x="0" 
d="M-220 -92l-12 -62h-337l12 62h337z" />
    <glyph glyph-name="Alpha" unicode="&#x391;" horiz-adv-x="740" 
d="M699 0h-81l-61 249h-344l-154 -249h-78l454 739h83zM541 316l-80 339l-207 -339h287z" />
    <glyph glyph-name="Beta" unicode="&#x392;" horiz-adv-x="574" 
d="M558 260q0 -57 -23 -109.5t-62 -86.5q-40 -35 -95.5 -49.5t-148.5 -14.5h-183l137 739h173q113 0 167 -35t54 -109q0 -67 -29.5 -121.5t-90.5 -79.5q56 -27 78.5 -57t22.5 -77zM481 242q0 65 -50 92q-37 20 -157 20h-91l-51 -287h101q138 0 193 46t55 129zM500 578
q0 53 -35.5 73.5t-129.5 20.5h-90l-47 -251h90q68 0 105 9t62 32q45 42 45 116z" />
    <glyph glyph-name="Gamma" unicode="&#x393;" horiz-adv-x="485" 
d="M546 672h-301l-125 -672h-74l137 739h375z" />
    <glyph glyph-name="Delta" unicode="&#x394;" horiz-adv-x="645" 
d="M617 0h-648l406 680h74zM510 75l-117 497l-291 -497h408z" />
    <glyph glyph-name="Epsilon" unicode="&#x395;" horiz-adv-x="536" 
d="M575 672h-330l-50 -265h319l-12 -67h-319l-51 -273h330l-12 -67h-404l137 739h404z" />
    <glyph glyph-name="Zeta" unicode="&#x396;" horiz-adv-x="480" 
d="M444 0h-457l12 67l476 605h-352l12 67h435l-12 -67l-475 -605h373z" />
    <glyph glyph-name="Eta" unicode="&#x397;" 
d="M714 739l-137 -739h-74l64 347h-383l-64 -347h-74l137 739h74l-60 -325h383l60 325h74z" />
    <glyph glyph-name="Theta" unicode="&#x398;" horiz-adv-x="869" 
d="M870 436q0 -114 -66.5 -218.5t-176 -167.5t-229.5 -63q-135 0 -228.5 90t-93.5 225q0 115 66.5 219.5t176 167.5t229.5 63q133 0 227.5 -89.5t94.5 -226.5zM793 422q0 114 -74 188t-189 74q-143 0 -260 -114t-117 -254q0 -110 74.5 -185.5t182.5 -75.5q149 0 266 112.5
t117 254.5zM614 333h-295l14 74h294z" />
    <glyph glyph-name="Iota" unicode="&#x399;" horiz-adv-x="226" 
d="M257 739l-137 -739h-74l137 739h74z" />
    <glyph glyph-name="Kappa" unicode="&#x39a;" horiz-adv-x="591" 
d="M692 739l-359 -360l222 -379h-93l-187 320l-118 -118l-37 -202h-74l137 739h74l-79 -425l421 425h93z" />
    <glyph glyph-name="Lambda" unicode="&#x39b;" horiz-adv-x="740" 
d="M699 0h-81l-157 655l-402 -655h-78l454 739h83z" />
    <glyph glyph-name="Mu" unicode="&#x39c;" horiz-adv-x="919" 
d="M950 739l-137 -739h-74l122 658l-400 -658h-64l-155 658l-122 -658h-74l137 739h115l152 -629l385 629h115z" />
    <glyph glyph-name="Nu" unicode="&#x39d;" horiz-adv-x="740" 
d="M771 739l-137 -739h-74l-320 650l-120 -650h-74l137 739h100l300 -613l114 613h74z" />
    <glyph glyph-name="Xi" unicode="&#x39e;" 
d="M744 665h-619l14 74h619zM608 333h-469l13 74h469zM621 0h-619l14 74h619z" />
    <glyph glyph-name="Omicron" unicode="&#x39f;" horiz-adv-x="869" 
d="M870 436q0 -114 -66.5 -218.5t-176 -167.5t-229.5 -63q-135 0 -228.5 90t-93.5 225q0 115 66.5 219.5t176 167.5t229.5 63q133 0 227.5 -89.5t94.5 -226.5zM793 422q0 114 -74 188t-189 74q-143 0 -260 -114t-117 -254q0 -110 74.5 -185.5t182.5 -75.5q149 0 266 112.5
t117 254.5z" />
    <glyph glyph-name="Pi" unicode="&#x3a0;" horiz-adv-x="636" 
d="M579 0h-83l107 606h-381l-107 -606h-83l120 680h547z" />
    <glyph glyph-name="Rho" unicode="&#x3a1;" horiz-adv-x="592" 
d="M635 572q0 -57 -20.5 -110.5t-57.5 -90.5q-39 -39 -94 -55.5t-146 -16.5h-142l-55 -299h-74l137 739h205q131 0 189 -39.5t58 -127.5zM558 558q0 64 -47 92q-36 22 -161 22h-105l-57 -306h137q72 0 113.5 12t68.5 41q23 25 37 63t14 76z" />
    <glyph glyph-name="Sigma" unicode="&#x3a3;" horiz-adv-x="453" 
d="M413 0h-434l11 68l219 278l-115 265l12 69h414l-13 -74h-319l115 -260l-215 -272h338z" />
    <glyph glyph-name="Tau" unicode="&#x3a4;" horiz-adv-x="426" 
d="M514 672h-169l-125 -672h-74l125 672h-169l12 67h412z" />
    <glyph glyph-name="Upsilon" unicode="&#x3a5;" horiz-adv-x="592" 
d="M697 739l-349 -492l-46 -247h-74l46 247l-165 492h82l133 -414l292 414h81z" />
    <glyph glyph-name="Phi" unicode="&#x3a6;" horiz-adv-x="809" 
d="M784 370q-18 -99 -116.5 -156t-228.5 -65l-28 -149h-74l28 149q-81 5 -143.5 30t-97.5 74.5t-23 116.5q12 66 66 115.5t125.5 74.5t154.5 30l27 149h74l-27 -149q126 -8 203.5 -65t59.5 -155zM710 370q13 70 -45.5 105.5t-157.5 40.5l-54 -293q101 5 172.5 40.5
t84.5 106.5zM433 516q-100 -5 -172.5 -40.5t-85.5 -105.5q-9 -48 19.5 -81.5t75 -48t109.5 -17.5z" />
    <glyph glyph-name="Chi" unicode="&#x3a7;" horiz-adv-x="609" 
d="M571 0h-88l-149 316l-269 -316h-87l321 378l-170 361h87l141 -296l250 296h86l-304 -361z" />
    <glyph glyph-name="Psi" unicode="&#x3a8;" horiz-adv-x="795" 
d="M803 547q-22 -121 -124.5 -208.5t-229.5 -100.5l-45 -238h-74l45 238q-123 13 -193 100.5t-48 208.5l36 192h74l-36 -192q-16 -91 36 -156.5t144 -77.5l79 426h74l-79 -426q97 12 174 77.5t93 156.5l36 192h74z" />
    <glyph glyph-name="Omega" unicode="&#x3a9;" horiz-adv-x="797" 
d="M795 340q-16 -82 -64.5 -156t-111.5 -110h79l-14 -76h-232l14 78q91 25 160.5 97.5t87.5 166.5q5 25 5 44q0 95 -70 161.5t-171 66.5q-115 0 -215 -82t-118 -194q-3 -20 -3 -40q0 -79 45 -138.5t116 -81.5l-14 -78h-235l14 76h82q-42 31 -66 87t-24 122q0 30 4 53
q15 94 79.5 176t157.5 130t190 48q129 0 219.5 -84.5t90.5 -206.5q0 -29 -6 -59z" />
    <glyph glyph-name="alpha" unicode="&#x3b1;" horiz-adv-x="712" 
d="M720 547q-72 -101 -147 -289q-7 -44 -9 -71t0 -60t17.5 -49.5t43.5 -16.5l-13 -74q-99 0 -116 127q-92 -127 -200 -127q-111 0 -173 81t-42 194q23 122 115.5 210t205.5 88q63 0 105 -37.5t59 -101.5q35 75 70 126h84zM499 265q8 58 0.5 106.5t-36 81.5t-75.5 33
q-82 0 -149 -66.5t-84 -157.5q-15 -83 29.5 -142t124.5 -59q63 0 108 56.5t82 147.5z" />
    <glyph glyph-name="beta" unicode="&#x3b2;" horiz-adv-x="484" 
d="M430 208q-17 -91 -77.5 -157.5t-136.5 -66.5q-60 0 -106 31l-3 -15q-19 -107 -65 -216h-76q49 117 67 216l101 547q16 85 81 146.5t144 61.5q70 0 103.5 -59t18.5 -140q-10 -50 -45.5 -93t-85.5 -68q47 -30 68.5 -79.5t11.5 -107.5zM356 208q12 65 -31.5 109t-113.5 44
l12 68q65 0 119.5 35.5t64.5 91.5q10 51 -6 88t-56 37q-48 0 -87.5 -40t-49.5 -94l-82 -447q36 -42 104 -42q47 0 81 44.5t45 105.5z" />
    <glyph glyph-name="gamma" unicode="&#x3b3;" horiz-adv-x="477" 
d="M611 547l-337 -555l-31 -163h-74l32 171q28 152 -11.5 293.5t-134.5 253.5h106q131 -155 129 -395l240 395h81z" />
    <glyph glyph-name="delta" unicode="&#x3b4;" horiz-adv-x="697" 
d="M660 332q0 -140 -102 -242.5t-234 -102.5q-109 0 -177.5 63.5t-68.5 164.5q0 131 92.5 230t220.5 113l-161 124l30 61h393l-13 -67h-283q92 -74 211 -157q92 -63 92 -187zM583 325q0 73 -48 120t-122 47q-105 0 -181.5 -78.5t-76.5 -185.5q0 -77 49.5 -125t129.5 -48
q104 0 176.5 78.5t72.5 191.5z" />
    <glyph glyph-name="epsilon" unicode="&#x3b5;" horiz-adv-x="571" 
d="M523 24q-126 -55 -239 -55q-104 0 -169.5 59t-48.5 151q16 84 116 121q-73 37 -59 117q14 73 87 117.5t161 44.5q116 0 231 -56l-39 -61q-87 43 -206 43q-59 0 -105.5 -22.5t-54.5 -65.5q-3 -16 0.5 -29t14.5 -22.5t22.5 -16t33.5 -10.5t37.5 -6.5t43.5 -3.5t43.5 -1
h45.5l-12 -66h-47.5t-46 -1t-47 -3.5t-41.5 -6t-39 -10t-30 -14.5t-23.5 -20.5t-11.5 -27.5q-12 -61 36 -98.5t122 -37.5q115 0 207 41z" />
    <glyph glyph-name="zeta" unicode="&#x3b6;" horiz-adv-x="424" 
d="M456 672h-27q-107 -69 -178 -174.5t-93 -223.5q-8 -43 -11 -72.5t-1.5 -61.5t17 -49t44.5 -17h25q48 0 70.5 -42t12.5 -99l-19 -104h-67l19 104q5 27 -2.5 47t-27.5 20h-25q-55 0 -85.5 41t-32.5 102t9 131q21 113 84.5 216t158.5 182h-169l12 67h298z" />
    <glyph glyph-name="eta" unicode="&#x3b7;" horiz-adv-x="542" 
d="M417 -171h-74l100 536q9 50 -18.5 85.5t-76.5 35.5q-60 0 -108.5 -47t-72.5 -118l-60 -321h-74l101 547h74l-11 -61q76 74 165 74q79 0 124 -57t31 -138z" />
    <glyph glyph-name="theta" unicode="&#x3b8;" horiz-adv-x="544" 
d="M517 358q-18 -98 -51 -177.5t-92.5 -136.5t-133.5 -57q-56 0 -92.5 32t-49.5 86.5t-12.5 117.5t13.5 135q15 77 37 142.5t55.5 124.5t82 93t107.5 34t95.5 -34t48 -92.5t9.5 -124.5t-17 -143zM450 395q8 48 12 83.5t3 75.5t-10 65.5t-31 42t-56 16.5q-43 0 -75 -23
t-53.5 -67.5t-34.5 -87.5t-25 -105h270zM436 321h-269q-9 -67 -11.5 -125t22 -96.5t75.5 -38.5q39 0 70.5 21.5t52.5 61t35 81t25 96.5z" />
    <glyph glyph-name="iota" unicode="&#x3b9;" horiz-adv-x="325" 
d="M229 -17q-47 0 -73 35.5t-27 88t8 112.5l60 328h74l-60 -328q-5 -25 -7 -38.5t-4.5 -36t-1 -35t5.5 -26.5t13.5 -20t24.5 -6z" />
    <glyph glyph-name="kappa" unicode="&#x3ba;" horiz-adv-x="502" 
d="M467 0h-92l-141 219l-106 -106l-21 -113h-74l101 547h74l-61 -332l316 332h91l-264 -275z" />
    <glyph glyph-name="lambda" unicode="&#x3bb;" horiz-adv-x="609" 
d="M516 0h-78l-54 394l-269 -394h-82l338 495l-6 41q-8 59 -34 97.5t-74 38.5l14 74q71 0 114.5 -53.5t54.5 -134.5z" />
    <glyph glyph-name="mu.greek" unicode="&#x3bc;" horiz-adv-x="608" 
d="M515 0h-74l17 92q-83 -99 -185 -98q-104 -1 -149 98l-49 -263h-74l133 718h74l-51 -278q-2 -90 29 -145.5t101 -55.5q69 0 121 55.5t83 145.5l51 278h74z" />
    <glyph glyph-name="nu" unicode="&#x3bd;" horiz-adv-x="493" 
d="M468 365q-21 -112 -90 -211.5t-172 -165.5l-54 21l-51 538h77l44 -463q140 114 172 281q15 84 20 182h75q-5 -91 -21 -182z" />
    <glyph glyph-name="xi" unicode="&#x3be;" horiz-adv-x="395" 
d="M427 672h-114q-33 -10 -57.5 -42t-32.5 -72q-9 -51 28 -82.5t96 -31.5l-12 -67q-65 0 -120 -44.5t-67 -108.5q-27 -150 43 -150h21q46 0 65 -42t9 -99l-19 -104h-67l19 104q13 67 -20 67h-22q-69 0 -94 66t-9 158q11 57 49.5 106t92.5 79q-39 24 -57.5 63t-9.5 86
q12 65 61 114h-52l12 67h269z" />
    <glyph glyph-name="omicron" unicode="&#x3bf;" horiz-adv-x="655" 
d="M639 332q0 -140 -102 -242.5t-234 -102.5q-109 0 -177.5 63.5t-68.5 164.5q0 141 105 243t243 102q104 0 169 -63t65 -165zM562 325q0 73 -48 120t-122 47q-105 0 -181.5 -78.5t-76.5 -185.5q0 -77 49.5 -125t129.5 -48q104 0 176.5 78.5t72.5 191.5z" />
    <glyph glyph-name="pi" unicode="&#x3c0;" horiz-adv-x="736" 
d="M731 473h-134l-88 -473h-74l88 473h-148l-88 -473h-74l88 473h-13q-40 0 -72.5 -32t-40.5 -76h-74q14 75 72 128.5t128 53.5h443z" />
    <glyph glyph-name="rho" unicode="&#x3c1;" horiz-adv-x="606" 
d="M564 274q-22 -116 -106 -201.5t-187 -85.5q-92 0 -154 65l-42 -223h-74l83 445q22 116 105.5 201t187.5 85t156.5 -85t30.5 -201zM490 274q16 85 -19 148.5t-108 63.5t-131 -63.5t-74 -148.5l-24 -130q19 -40 59 -61.5t91 -21.5q74 0 132 63.5t74 149.5z" />
    <glyph glyph-name="uni03C2" unicode="&#x3c2;" horiz-adv-x="541" 
d="M413 -171h-67l19 104q6 29 -15.5 48t-54.5 19h-37q-99 0 -146.5 83t-26.5 197t99.5 197t176.5 83q70 0 114.5 -46t42.5 -116l-68 -11q1 43 -28 71t-74 28q-69 0 -121.5 -61.5t-67.5 -144.5q-16 -83 14 -144.5t98 -61.5h38q61 0 97.5 -41t25.5 -100z" />
    <glyph glyph-name="sigma" unicode="&#x3c3;" horiz-adv-x="729" 
d="M764 524q-85 -18 -172 -24q68 -63 68 -168q0 -140 -102 -242.5t-234 -102.5q-109 0 -177.5 63.5t-68.5 164.5q0 141 105 243t243 102q30 0 57 -6q118 8 279 42zM583 325q0 73 -48 120t-122 47q-105 0 -181.5 -78.5t-76.5 -185.5q0 -77 49.5 -125t129.5 -48
q104 0 176.5 78.5t72.5 191.5z" />
    <glyph glyph-name="tau" unicode="&#x3c4;" horiz-adv-x="479" 
d="M385 -7q-90 0 -139.5 66.5t-32.5 159.5l47 254h-139l13 74h353l-13 -74h-140l-47 -254q-11 -62 20.5 -107t90.5 -45z" />
    <glyph glyph-name="upsilon" unicode="&#x3c5;" horiz-adv-x="541" 
d="M494 250q-19 -106 -96.5 -184.5t-172.5 -78.5q-80 0 -126.5 57.5t-31.5 137.5l67 365h74l-67 -365q-10 -50 19 -85.5t79 -35.5q65 0 116 56.5t65 132.5q27 144 29 297h75q-2 -147 -30 -297z" />
    <glyph glyph-name="phi" unicode="&#x3c6;" horiz-adv-x="704" 
d="M662 274q-20 -109 -107.5 -190t-197.5 -95l-30 -160h-74l30 160q-105 14 -162.5 94.5t-37.5 190.5q15 82 66 156t127 123l33 -60q-60 -38 -100 -96t-52 -123q-15 -79 25.5 -138t114.5 -72l34 186q11 61 28.5 112.5t43.5 98t64.5 73t84.5 26.5q57 0 88 -43.5t32 -107
t-10 -135.5zM588 274q4 23 6.5 38t5.5 36.5t3 36t-1 32t-5.5 28.5t-12 21.5t-19 15t-27.5 4.5q-21 0 -38.5 -8.5t-31 -29.5t-22.5 -38t-17.5 -51.5t-12 -52t-11.5 -56.5l-34 -186q79 13 140.5 72t76.5 138z" />
    <glyph glyph-name="chi" unicode="&#x3c7;" horiz-adv-x="561" 
d="M437 -171h-83l-84 275l-186 -275h-83l243 359l-110 359h83l84 -275l186 275h83l-243 -359z" />
    <glyph glyph-name="psi" unicode="&#x3c8;" horiz-adv-x="704" 
d="M645 182q-16 -84 -98 -134.5t-190 -59.5l-29 -159h-74l29 159q-104 9 -167.5 59.5t-47.5 134.5l67 365h74l-67 -365q-10 -56 34.5 -85t120.5 -35l125 677h74l-125 -677q78 6 134 35t66 85l67 365h74z" />
    <glyph glyph-name="omega" unicode="&#x3c9;" horiz-adv-x="719" 
d="M679 286q-11 -58 -29 -109t-45 -95t-65 -69.5t-83 -25.5q-91 0 -113 95q-61 -95 -147 -95q-45 0 -73.5 25.5t-39 69.5t-10 95t11.5 109q21 112 76 261h68q-44 -117 -70 -261q-6 -32 -9.5 -53.5t-6 -51t0 -48t9 -36.5t21 -27t36.5 -9q54 0 83.5 50t47.5 136q4 41 18 118
h74q-31 -172 -24 -233q9 -71 61 -71q22 0 39.5 8.5t31 27t22.5 36.5t17.5 48.5t12.5 50.5t11 54q27 147 27 261h68q0 -147 -21 -261z" />
    <glyph glyph-name="uni03D1" unicode="&#x3d1;" horiz-adv-x="578" 
d="M560 404h-37l-34 -185q-18 -95 -90.5 -163.5t-160.5 -68.5t-135 68.5t-29 163.5l27 146h74l-27 -146q-12 -64 17 -111t87 -47q57 0 104 47t59 111l34 187q-55 2 -97.5 7.5t-84 18t-67 32t-37.5 51t-4 73.5q14 77 80 130.5t145 53.5q87 0 134.5 -66.5t30.5 -158.5l-14 -76
h37zM461 472l14 75q12 64 -17 111.5t-87 47.5q-51 0 -93.5 -34.5t-52.5 -83.5q-6 -33 10 -56t52.5 -35t77.5 -17.5t96 -7.5z" />
    <glyph glyph-name="uni03D5" unicode="&#x3d5;" horiz-adv-x="655" 
d="M639 332q0 -131 -91.5 -231t-214.5 -112l-30 -160h-75l30 161q-91 13 -146 74t-55 151q0 129 90 227.5t216 114.5l34 182h75l-34 -181q91 -11 146 -72t55 -154zM562 325q0 64 -37.5 108.5t-98.5 55.5l-80 -432q93 13 154.5 88.5t61.5 179.5zM351 488q-92 -16 -154.5 -90
t-62.5 -170q0 -66 37 -111.5t100 -57.5z" />
    <glyph glyph-name="uni03D6" unicode="&#x3d6;" horiz-adv-x="719" 
d="M679 286q-11 -58 -29 -109t-45 -95t-65 -69.5t-83 -25.5q-91 0 -113 95q-61 -95 -147 -95q-45 0 -73.5 25.5t-39 69.5t-10 95t11.5 109q21 112 76 261h68q-44 -117 -70 -261q-6 -32 -9.5 -53.5t-6 -51t0 -48t9 -36.5t21 -27t36.5 -9q54 0 83.5 50t47.5 136q4 41 18 118
h74q-31 -172 -24 -233q9 -71 61 -71q22 0 39.5 8.5t31 27t22.5 36.5t17.5 48.5t12.5 50.5t11 54q13 70 14.5 130.5t-9 114.5t-44 85t-87.5 31q-112 0 -223 -36l-10 64q125 38 245 38q67 0 113.5 -37t65 -97.5t22.5 -137t-13 -155.5z" />
    <glyph glyph-name="epsilon.alt" unicode="&#x3f5;" horiz-adv-x="647" 
d="M590 137q-65 -82 -132.5 -116t-148.5 -34q-112 0 -181.5 65t-69.5 170q0 133 106 235.5t244 102.5q85 0 146.5 -39.5t86.5 -110.5h-89q-50 82 -156 82q-83 0 -153 -53t-96 -132h311l-12 -67h-311v-7q0 -78 51.5 -128t131.5 -50q55 0 93.5 17t89.5 65h89z" />
    <glyph glyph-name="uni0400" unicode="&#x400;" horiz-adv-x="536" 
d="M530 890l-39 -51l-182 116l40 52zM575 672h-330l-50 -265h319l-12 -67h-319l-51 -273h330l-12 -67h-404l137 739h404z" />
    <glyph glyph-name="afii10023" unicode="&#x401;" horiz-adv-x="536" 
d="M575 672h-330l-50 -265h319l-12 -67h-319l-51 -273h330l-12 -67h-404l137 739h404zM358 805h-74l23 126h74zM505 805h-74l23 126h74z" />
    <glyph glyph-name="afii10051" unicode="&#x402;" horiz-adv-x="426" 
d="M628 0q-17 -90 -63 -137t-136 -47h-25l11 58q58 0 93.5 34.5t45.5 91.5l54 294q7 42 7 72q0 55 -39 90.5t-100 35.5q-40 0 -80.5 -18.5t-66.5 -49.5q-22 -25 -33 -50.5t-20 -73.5l-56 -300h-74l125 672h-169l12 67h412l-12 -67h-169l-37 -196q76 84 185 84
q94 0 146.5 -48.5t52.5 -135.5q0 -26 -10 -82z" />
    <glyph glyph-name="afii10052" unicode="&#x403;" horiz-adv-x="485" 
d="M570 894l-214 -114l-24 56l214 116zM546 672h-301l-125 -672h-74l137 739h375z" />
    <glyph glyph-name="afii10053" unicode="&#x404;" horiz-adv-x="813" 
d="M776 194q-67 -98 -165 -152.5t-210 -54.5q-145 0 -235.5 84.5t-90.5 218.5q0 123 63 229.5t170 169.5t230 63q114 0 197.5 -57t102.5 -148h-82q-26 58 -64 88q-66 49 -164 49q-87 0 -163.5 -39t-132.5 -111q-44 -57 -63 -120h410l-13 -67h-411q-3 -18 -3 -37
q0 -111 74 -183t187 -72q154 0 281 139h82z" />
    <glyph glyph-name="afii10054" unicode="&#x405;" horiz-adv-x="498" 
d="M488 246q0 -91 -68 -168q-82 -91 -201 -91q-85 0 -139 49.5t-54 128.5q0 10 2 42h79q0 -65 18 -97q31 -55 109 -55q72 0 124.5 52.5t52.5 124.5q0 46 -30 72.5t-109 51.5q-97 30 -126 66q-31 38 -31 98q0 79 62 151q70 81 184 81q78 0 125.5 -44.5t47.5 -117.5
q0 -11 -3 -38h-77q0 62 -18 88q-30 44 -88 44q-76 0 -120 -57q-36 -48 -36 -96q0 -15 6.5 -34t15.5 -28q11 -11 29 -19.5t72 -26.5q64 -22 94.5 -38.5t46.5 -37.5q32 -40 32 -101z" />
    <glyph glyph-name="afii10055" unicode="&#x406;" horiz-adv-x="226" 
d="M257 739l-137 -739h-74l137 739h74z" />
    <glyph glyph-name="afii10056" unicode="&#x407;" horiz-adv-x="226" 
d="M257 739l-137 -739h-74l137 739h74zM196 805h-74l23 126h74zM343 805h-74l23 126h74z" />
    <glyph glyph-name="afii10057" unicode="&#x408;" horiz-adv-x="482" 
d="M513 739l-95 -508q-22 -121 -83.5 -183t-157.5 -62q-86 0 -133 53q-33 39 -33 107q0 18 2 29h73q3 -34 6 -46q15 -75 96 -75q82 0 124 78q19 34 32 99l95 508h74z" />
    <glyph glyph-name="afii10058" unicode="&#x409;" horiz-adv-x="1139" 
d="M1123 260q0 -57 -23 -109.5t-62 -86.5q-40 -35 -95.5 -49.5t-148.5 -14.5h-143l-140 647l-381 -647h-80l443 739h72l73 -318h219q132 0 199 -35.5t67 -125.5zM1046 242q0 65 -50 92q-37 20 -157 20h-187l64 -287h82q145 0 197 49q51 49 51 126z" />
    <glyph glyph-name="afii10059" unicode="&#x40a;" horiz-adv-x="1031" 
d="M1015 260q0 -57 -23 -109.5t-62 -86.5q-40 -35 -95.5 -49.5t-148.5 -14.5h-183l65 352h-383l-65 -352h-74l137 739h74l-59 -320h383l59 320h74l-59 -318h94q135 0 200.5 -35.5t65.5 -125.5zM938 242q0 65 -50 92q-37 20 -157 20h-88l-54 -287h101q145 0 197 49
q51 49 51 126z" />
    <glyph glyph-name="afii10060" unicode="&#x40b;" horiz-adv-x="426" 
d="M628 0h-74l54 294q7 33 7 72q0 55 -39 90.5t-100 35.5q-40 0 -80.5 -18.5t-66.5 -49.5q-22 -25 -33 -50.5t-20 -73.5l-56 -300h-74l125 672h-169l12 67h412l-12 -67h-169l-37 -196q76 84 185 84q94 0 146.5 -48.5t52.5 -135.5q0 -26 -10 -82z" />
    <glyph glyph-name="afii10061" unicode="&#x40c;" horiz-adv-x="552" 
d="M570 894l-214 -114l-24 56l214 116zM257 739l-137 -739h-74l137 739h74zM525 0h-102l-218 379l355 360h93l-350 -360z" />
    <glyph glyph-name="uni040D" unicode="&#x40d;" horiz-adv-x="740" 
d="M622 890l-39 -51l-182 116l40 52zM771 739l-137 -739h-74l120 650l-560 -650h-74l137 739h77l-116 -613l527 613h100z" />
    <glyph glyph-name="afii10062" unicode="&#x40e;" horiz-adv-x="592" 
d="M595 864q-17 -59 -64 -89q-44 -28 -108 -28q-68 0 -103 34q-26 26 -29 83h64q4 -34 19 -46q18 -16 62 -16t74 21q23 14 32 41h53zM697 739l-524 -739h-81l175 252l-158 487h82l133 -414l292 414h81z" />
    <glyph glyph-name="afii10145" unicode="&#x40f;" 
d="M714 739l-137 -739h-219l-28 -154h-73l29 154h-240l137 739h74l-124 -672h383l124 672h74z" />
    <glyph glyph-name="afii10017" unicode="&#x410;" horiz-adv-x="740" 
d="M699 0h-81l-61 249h-344l-154 -249h-78l454 739h83zM541 316l-80 339l-207 -339h287z" />
    <glyph glyph-name="afii10018" unicode="&#x411;" horiz-adv-x="574" 
d="M600 298q0 -141 -97.5 -219.5t-273.5 -78.5h-183l144 739h464l-13 -67h-390l-39 -198h109q142 0 210.5 -42t68.5 -134zM523 280q0 70 -55 98.5t-165 28.5h-104l-66 -340h104q135 0 210.5 53t75.5 160z" />
    <glyph glyph-name="afii10019" unicode="&#x412;" horiz-adv-x="574" 
d="M590 261q0 -123 -88.5 -192t-245.5 -69h-210l144 739h203q126 0 178 -43q42 -36 42 -106q0 -67 -33.5 -121t-85.5 -75q96 -34 96 -133zM514 246q0 61 -50 84.5t-157 23.5h-118l-56 -287h131q115 0 182.5 43t67.5 136zM537 581q0 54 -43.5 72.5t-134.5 18.5h-108l-49 -253
h120q215 0 215 162z" />
    <glyph glyph-name="afii10020" unicode="&#x413;" horiz-adv-x="485" 
d="M586 672h-341l-125 -672h-74l137 739h415z" />
    <glyph glyph-name="afii10021" unicode="&#x414;" horiz-adv-x="896" 
d="M885 -154h-73l29 154h-738l-29 -154h-72l42 227h131l399 666h72l150 -666h131zM716 73l-124 574l-338 -574h462z" />
    <glyph glyph-name="afii10022" unicode="&#x415;" horiz-adv-x="536" 
d="M575 672h-330l-50 -265h319l-12 -67h-319l-51 -273h330l-12 -67h-404l137 739h404z" />
    <glyph glyph-name="afii10024" unicode="&#x416;" horiz-adv-x="927" 
d="M479 360l-360 -360h-89l360 360l-222 379h93zM636 739l-137 -739h-74l137 739h74zM1028 739l-359 -360l222 -379h-93l-218 379l360 360h88z" />
    <glyph glyph-name="afii10025" unicode="&#x417;" horiz-adv-x="578" 
d="M591 248q0 -119 -98 -190t-243 -71q-60 0 -109 18.5t-77 44.5t-48 57t-27.5 52.5t-8.5 34.5h79q14 -44 69.5 -91.5t140.5 -47.5q104 0 174.5 47t70.5 135q0 54 -37 87t-94 33h-124l13 67h126q65 0 113.5 43t48.5 104q0 53 -48.5 83t-114.5 30q-48 0 -90 -14t-68.5 -34
t-46 -39.5t-27.5 -33.5l-8 -14h-75l11 22t35.5 49t63 61.5t94.5 48.5t128 22q91 0 157.5 -46.5t66.5 -122.5q0 -63 -39 -116t-93 -80q35 -11 60 -49t25 -90z" />
    <glyph glyph-name="afii10026" unicode="&#x418;" horiz-adv-x="740" 
d="M771 739l-137 -739h-74l120 650l-560 -650h-74l137 739h77l-116 -613l527 613h100z" />
    <glyph glyph-name="afii10027" unicode="&#x419;" horiz-adv-x="740" 
d="M637 860q-17 -59 -64 -89q-44 -28 -108 -28q-68 0 -103 34q-26 26 -29 83h64q4 -34 19 -46q18 -16 62 -16t74 21q23 14 32 41h53zM771 739l-137 -739h-74l120 650l-560 -650h-74l137 739h77l-116 -613l527 613h100z" />
    <glyph glyph-name="afii10028" unicode="&#x41a;" horiz-adv-x="552" 
d="M257 739l-137 -739h-74l137 739h74zM525 0h-102l-218 379l355 360h93l-350 -360z" />
    <glyph glyph-name="afii10029" unicode="&#x41b;" horiz-adv-x="702" 
d="M732 0h-81l-140 647l-381 -647h-80l443 739h72z" />
    <glyph glyph-name="afii10030" unicode="&#x41c;" horiz-adv-x="919" 
d="M950 739l-137 -739h-74l122 658l-400 -658h-64l-155 658l-122 -658h-74l137 739h115l152 -629l385 629h115z" />
    <glyph glyph-name="afii10031" unicode="&#x41d;" 
d="M714 739l-137 -739h-74l64 347h-383l-64 -347h-74l137 739h74l-60 -325h383l60 325h74z" />
    <glyph glyph-name="afii10032" unicode="&#x41e;" horiz-adv-x="869" 
d="M870 436q0 -114 -66.5 -218.5t-176 -167.5t-229.5 -63q-77 0 -148 34t-114 92q-60 81 -60 189q0 115 66.5 219.5t176 167.5t229.5 63q77 0 146.5 -33.5t114.5 -92.5q61 -82 61 -190zM793 422q0 114 -74 188t-189 74q-143 0 -260 -114t-117 -254q0 -110 74.5 -185.5
t182.5 -75.5q149 0 266 112.5t117 254.5z" />
    <glyph glyph-name="afii10033" unicode="&#x41f;" 
d="M714 739l-137 -739h-74l124 672h-383l-124 -672h-74l137 739h531z" />
    <glyph glyph-name="afii10034" unicode="&#x420;" horiz-adv-x="592" 
d="M635 572q0 -57 -20.5 -110.5t-57.5 -90.5q-39 -39 -94 -55.5t-146 -16.5h-142l-55 -299h-74l137 739h205q131 0 189 -39.5t58 -127.5zM558 558q0 64 -47 92q-36 22 -161 22h-105l-57 -306h137q72 0 113.5 12t68.5 41q23 25 37 63t14 76z" />
    <glyph glyph-name="afii10035" unicode="&#x421;" horiz-adv-x="813" 
d="M777 194q-67 -98 -165 -152.5t-210 -54.5q-145 0 -235.5 84.5t-90.5 218.5q0 123 63 229.5t170 169.5t230 63q114 0 197.5 -57t102.5 -148h-82q-26 58 -64 88q-66 49 -164 49q-87 0 -163.5 -39t-132.5 -111q-80 -104 -80 -224q0 -111 74 -183t187 -72q154 0 281 139h82z
" />
    <glyph glyph-name="afii10036" unicode="&#x422;" horiz-adv-x="486" 
d="M514 672h-169l-125 -672h-74l125 672h-169l12 67h412z" />
    <glyph glyph-name="afii10037" unicode="&#x423;" horiz-adv-x="592" 
d="M697 739l-524 -739h-81l175 252l-158 487h82l133 -414l292 414h81z" />
    <glyph glyph-name="afii10038" unicode="&#x424;" horiz-adv-x="908" 
d="M939 466q0 -114 -65 -218.5t-173.5 -168t-227.5 -63.5l-15 -76h-74l15 76q-77 1 -147 34.5t-115 91.5q-61 82 -61 190q0 114 66 218t175 167.5t229 63.5l8 41h74l-9 -41q77 -1 147 -35t113 -91q60 -81 60 -189zM534 713q-72 0 -142 -31.5t-122.5 -81.5t-84.5 -117.5
t-32 -136.5q0 -113 73.5 -187t187.5 -75zM862 452q0 109 -74 184.5t-181 76.5l-120 -629q143 1 259 115t116 253z" />
    <glyph glyph-name="afii10039" unicode="&#x425;" horiz-adv-x="609" 
d="M571 0h-88l-149 316l-269 -316h-87l321 378l-170 361h87l141 -296l250 296h86l-304 -361z" />
    <glyph glyph-name="afii10040" unicode="&#x426;" 
d="M666 -154h-73l29 154h-576l137 739h74l-125 -666h381l127 666h74l-123 -666h117z" />
    <glyph glyph-name="afii10041" unicode="&#x427;" horiz-adv-x="591" 
d="M579 739l-137 -739h-74l49 263q-76 -84 -185 -84q-94 0 -146.5 48.5t-52.5 135.5q0 26 10 82l54 294h74l-54 -294q-7 -33 -7 -72q0 -55 39 -90.5t100 -35.5q40 0 80.5 18.5t66.5 49.5q22 25 33 50.5t20 73.5l56 300h74z" />
    <glyph glyph-name="afii10042" unicode="&#x428;" horiz-adv-x="992" 
d="M1023 739l-138 -739h-839l137 739h74l-125 -666h316l127 666h74l-123 -666h296l127 666h74z" />
    <glyph glyph-name="afii10043" unicode="&#x429;" horiz-adv-x="992" 
d="M974 -154h-73l29 154h-884l137 739h74l-125 -666h316l127 666h74l-123 -666h296l127 666h74l-124 -666h117z" />
    <glyph glyph-name="afii10044" unicode="&#x42a;" horiz-adv-x="614" 
d="M598 298q0 -141 -97.5 -219.5t-273.5 -78.5h-183l126 666h-165l11 73h246l-52 -265h109q142 0 210.5 -42t68.5 -134zM521 280q0 70 -55 98.5t-165 28.5h-104l-66 -340h104q135 0 210.5 53t75.5 160z" />
    <glyph glyph-name="afii10045" unicode="&#x42b;" horiz-adv-x="764" 
d="M597 298q0 -141 -97.5 -219.5t-273.5 -78.5h-183l144 739h74l-52 -265h109q142 0 210.5 -42t68.5 -134zM520 280q0 70 -55 98.5t-165 28.5h-104l-66 -340h104q135 0 210.5 53t75.5 160zM825 739l-137 -739h-74l137 739h74z" />
    <glyph glyph-name="afii10046" unicode="&#x42c;" horiz-adv-x="574" 
d="M597 298q0 -141 -97.5 -219.5t-273.5 -78.5h-183l144 739h74l-52 -265h109q142 0 210.5 -42t68.5 -134zM520 280q0 70 -55 98.5t-165 28.5h-104l-66 -340h104q135 0 210.5 53t75.5 160z" />
    <glyph glyph-name="afii10047" unicode="&#x42d;" horiz-adv-x="869" 
d="M870 436q0 -114 -66.5 -218.5t-176 -167.5t-229.5 -63q-77 0 -148 34t-114 92q-27 36 -42 81h88q33 -63 93.5 -101t134.5 -38q127 0 235 85.5t138 206.5h-408l13 67h405v8q0 114 -74 188t-189 74q-77 0 -151 -37.5t-130 -99.5h-88q68 92 171.5 148.5t215.5 56.5
q77 0 146.5 -33.5t114.5 -92.5q61 -82 61 -190z" />
    <glyph glyph-name="afii10048" unicode="&#x42e;" horiz-adv-x="1080" 
d="M1086 440q0 -94 -43.5 -179.5t-111.5 -144.5t-152 -94t-164 -35q-141 0 -230.5 89t-89.5 222q0 24 3 49h-110l-68 -347h-74l144 739h74l-63 -325h110q44 141 174.5 239.5t277.5 98.5q141 0 232 -89t91 -223zM1010 427q0 110 -73.5 183.5t-186.5 73.5q-91 0 -179 -49.5
t-146 -137t-58 -186.5q0 -111 72.5 -183.5t188.5 -72.5q91 0 179 49.5t145.5 136.5t57.5 186z" />
    <glyph glyph-name="afii10049" unicode="&#x42f;" horiz-adv-x="614" 
d="M648 739l-144 -739h-74l131 672h-104q-114 0 -175 -27q-49 -21 -79.5 -71.5t-30.5 -112.5q0 -89 86 -113q26 -7 203 -7l-355 -341h-92l294 279q-104 0 -158 45.5t-54 124.5q0 83 44 152t111 102q73 36 214 36h183z" />
    <glyph glyph-name="afii10065" unicode="&#x430;" 
d="M590 0h-74l18 96q-61 -62 -111 -85.5t-120 -23.5q-110 0 -177.5 63t-67.5 166q0 139 103 241.5t243 102.5q80 0 134 -36q35 -23 61 -74l18 97h74zM571 319q0 75 -49.5 124t-124.5 49q-104 0 -183 -77.5t-79 -179.5q0 -80 50.5 -130t132.5 -50q100 0 176.5 80t76.5 184z
" />
    <glyph glyph-name="afii10066" unicode="&#x431;" horiz-adv-x="655" 
d="M718 732q-3 -1 -17 -7t-17.5 -7t-19.5 -5.5t-23 -3t-30 0.5q-14 -1 -71 -4.5t-79.5 -6t-64.5 -13t-77 -27.5q-34 -22 -60 -48.5t-39.5 -49t-22 -42t-10.5 -30.5l-2 -11q100 82 223 82q104 0 169 -63t65 -165q0 -136 -96 -237q-102 -108 -240 -108q-108 0 -177 65.5
t-69 162.5q0 60 14 133t41 148t74.5 139t107.5 93q34 13 64.5 21t68.5 12.5t51.5 6t63.5 3t54 1.5q68 4 118 26zM565 325q0 73 -48 120t-122 47q-105 0 -181.5 -78.5t-76.5 -185.5q0 -77 49.5 -125t129.5 -48q104 0 176.5 78.5t72.5 191.5z" />
    <glyph glyph-name="afii10067" unicode="&#x432;" horiz-adv-x="490" 
d="M391 428q0 50 -80 51h-115l-27 -141h112q58 0 84 27.5t26 62.5zM418 190q0 40 -32 60.5t-88 20.5h-142l-40 -203h145q68 1 112.5 33t44.5 89zM494 203q0 -92 -72.5 -147.5t-172.5 -55.5h-220l106 547h190q73 0 106.5 -33t33.5 -80q0 -63 -54 -112q83 -36 83 -119z" />
    <glyph glyph-name="afii10068" unicode="&#x433;" horiz-adv-x="442" 
d="M470 475h-277l-86 -475h-74l101 547h349z" />
    <glyph glyph-name="afii10069" unicode="&#x434;" horiz-adv-x="585" 
d="M680 -140h-74l27 140h-545l-27 -140h-64l39 212h98l287 475h78l112 -475h108zM536 72l-90 388l-237 -388h327z" />
    <glyph glyph-name="afii10070" unicode="&#x435;" horiz-adv-x="650" 
d="M626 249h-495q-2 -24 -2 -28q0 -70 52 -118t127 -48q61 0 121.5 35t92.5 90h77q-48 -88 -130.5 -140.5t-173.5 -52.5q-102 0 -169.5 66.5t-67.5 166.5q0 135 102.5 237.5t237.5 102.5q104 0 170.5 -64t66.5 -164q0 -32 -9 -83zM565 316q-4 81 -52.5 128.5t-127.5 47.5
q-78 0 -145 -49.5t-94 -126.5h419z" />
    <glyph glyph-name="afii10072" unicode="&#x436;" horiz-adv-x="735" 
d="M336 273l-260 -273h-91l264 275l-177 272h92zM474 547l-102 -547h-74l102 547h74zM699 0h-92l-172 274l260 273h91l-264 -275z" />
    <glyph glyph-name="afii10073" unicode="&#x437;" horiz-adv-x="540" 
d="M472 179q0 -93 -68 -142.5t-184 -49.5q-49 0 -86 17t-55.5 41t-29.5 48t-13 41l-3 17h67q1 -4 3.5 -10.5t12.5 -23t23.5 -29t38.5 -23t56 -10.5q68 0 117.5 32t49.5 85q0 40 -33 61.5t-86 21.5h-72l15 73h72q42 0 78 28.5t36 70.5q0 29 -28.5 47t-64.5 18
q-38 0 -69.5 -19t-44.5 -37l-12 -19h-67q3 6 8 15.5t23.5 34t40.5 43.5t58.5 34.5t76.5 15.5q71 0 109.5 -31t38.5 -83q0 -112 -94 -149q38 -6 62 -40.5t24 -77.5z" />
    <glyph glyph-name="afii10074" unicode="&#x438;" horiz-adv-x="610" 
d="M515 0h-74l86 458l-420 -458h-74l101 547h74l-78 -421l386 421h100z" />
    <glyph glyph-name="afii10075" unicode="&#x439;" horiz-adv-x="610" 
d="M558 691q-17 -59 -64 -89q-44 -28 -108 -28q-68 0 -103 34q-26 26 -29 83h64q4 -34 19 -46q18 -16 62 -16t74 21q23 14 32 41h53zM515 0h-74l86 458l-420 -458h-74l101 547h74l-78 -421l386 421h100z" />
    <glyph glyph-name="afii10076" unicode="&#x43a;" horiz-adv-x="471" 
d="M209 547l-102 -547h-74l102 547h74zM434 0h-92q-12 19 -76.5 118.5t-95.5 155.5l260 273h91l-264 -275z" />
    <glyph glyph-name="afii10077" unicode="&#x43b;" horiz-adv-x="564" 
d="M585 0h-75l-107 460l-281 -460h-75l331 547h78z" />
    <glyph glyph-name="afii10078" unicode="&#x43c;" horiz-adv-x="663" 
d="M568 0h-74l71 371l-224 -371h-78l-88 371l-68 -371h-74l101 547h75l107 -460l281 460h72z" />
    <glyph glyph-name="afii10079" unicode="&#x43d;" horiz-adv-x="588" 
d="M515 0h-74l49 263h-333l-50 -263h-74l101 547h74l-40 -225h332l42 225h74z" />
    <glyph glyph-name="afii10080" unicode="&#x43e;" horiz-adv-x="655" 
d="M639 332q0 -136 -96 -237q-102 -108 -240 -108q-109 0 -177.5 63.5t-68.5 164.5q0 62 24.5 123.5t68.5 108.5q105 113 255 113q104 0 169 -63t65 -165zM562 325q0 73 -48 120t-122 47q-105 0 -181.5 -78.5t-76.5 -185.5q0 -77 49.5 -125t129.5 -48q104 0 176.5 78.5
t72.5 191.5z" />
    <glyph glyph-name="afii10081" unicode="&#x43f;" horiz-adv-x="585" 
d="M515 0h-74l89 475h-335l-88 -475h-74l101 547h482z" />
    <glyph glyph-name="afii10082" unicode="&#x440;" horiz-adv-x="682" 
d="M665 325q0 -133 -104.5 -235.5t-240.5 -102.5q-140 0 -196 107l-53 -286h-74l137 739h74l-17 -94q37 49 100 78t134 29q108 0 174 -65t66 -170zM588 317q0 76 -50.5 125.5t-128.5 49.5q-57 0 -112 -28t-95 -77q-55 -68 -55 -160q0 -74 51 -123t127 -49q117 0 200 95
q28 31 45.5 78t17.5 89z" />
    <glyph glyph-name="afii10083" unicode="&#x441;" horiz-adv-x="647" 
d="M609 161q-56 -77 -106 -112q-91 -62 -194 -62q-56 0 -109 20.5t-84 54.5q-58 63 -58 160q0 133 106 235.5t244 102.5q94 0 158.5 -48t82.5 -131h-83q-20 53 -64.5 82t-105.5 29q-104 0 -182.5 -78t-78.5 -181q0 -78 51.5 -128t131.5 -50q75 0 137 42q21 14 71 64h83z" />
    <glyph glyph-name="afii10084" unicode="&#x442;" horiz-adv-x="441" 
d="M386 480h-129l-89 -480h-74l89 480h-112l12 67h315z" />
    <glyph glyph-name="afii10085" unicode="&#x443;" horiz-adv-x="536" 
d="M598 547l-453 -739h-78l127 210l-114 529h81l92 -436l266 436h79z" />
    <glyph glyph-name="afii10086" unicode="&#x444;" horiz-adv-x="725" 
d="M709 332q0 -136 -96 -237q-102 -106 -242 -108l-24 -127h-74l27 127q-108 1 -175.5 64t-67.5 164q0 62 24.5 123.5t68.5 108.5q105 113 255 113l5 39h74l-7 -39q104 -1 168 -64t64 -164zM632 325q0 72 -47.5 119t-120.5 48l-81 -437q104 1 176.5 79.5t72.5 190.5zM311 55
l80 437q-105 0 -181 -78.5t-76 -185.5q0 -77 49 -124.5t128 -48.5z" />
    <glyph glyph-name="afii10087" unicode="&#x445;" horiz-adv-x="480" 
d="M442 0h-85l-106 219l-189 -219h-84l242 279l-141 268h84l109 -211l186 211h85l-240 -268z" />
    <glyph glyph-name="afii10088" unicode="&#x446;" horiz-adv-x="584" 
d="M540 -140h-74l27 140h-460l101 547h74l-89 -475h286l88 475h74l-88 -475h100z" />
    <glyph glyph-name="afii10089" unicode="&#x447;" horiz-adv-x="427" 
d="M366 0h-74l40 226q-28 -21 -69 -34.5t-71 -13.5q-70 0 -121 44.5t-51 115.5q0 18 3 36l32 173h74l-30 -171q-3 -20 -3 -36q0 -50 28 -77t80 -27q36 0 76.5 15t61.5 34l51 262h74z" />
    <glyph glyph-name="afii10090" unicode="&#x448;" horiz-adv-x="878" 
d="M805 0h-772l101 547h74l-89 -475h281l88 475h74l-88 -475h270l88 475h74z" />
    <glyph glyph-name="afii10091" unicode="&#x449;" horiz-adv-x="878" 
d="M852 -140h-74l27 140h-772l101 547h74l-89 -475h281l88 475h74l-88 -475h270l88 475h74l-88 -475h73z" />
    <glyph glyph-name="afii10092" unicode="&#x44a;" horiz-adv-x="570" 
d="M605 220q0 -94 -75.5 -157t-172.5 -63h-220l87 473h-167l14 74h246l-34 -178h142q82 0 131 -40.5t49 -108.5zM529 206q0 43 -32 69t-86 26h-142l-45 -234h145q66 1 113 40t47 99z" />
    <glyph glyph-name="afii10093" unicode="&#x44b;" horiz-adv-x="691" 
d="M498 220q0 -94 -75.5 -157t-172.5 -63h-220l106 547h74l-34 -178h142q82 0 131 -40.5t49 -108.5zM422 206q0 43 -32 69t-86 26h-142l-45 -234h145q66 1 113 40t47 99zM616 0h-74l101 547h74z" />
    <glyph glyph-name="afii10094" unicode="&#x44c;" horiz-adv-x="466" 
d="M498 220q0 -94 -75.5 -157t-172.5 -63h-220l106 547h74l-34 -178h142q82 0 131 -40.5t49 -108.5zM422 206q0 43 -32 69t-86 26h-142l-45 -234h145q66 1 113 40t47 99z" />
    <glyph glyph-name="afii10095" unicode="&#x44d;" horiz-adv-x="638" 
d="M639 332q0 -148 -94.5 -246.5t-241.5 -98.5q-92 0 -157 47.5t-83 126.5h83q19 -49 63 -77.5t104 -28.5q88 0 155.5 58.5t87.5 149.5h-305l11 59h300q1 75 -47.5 122.5t-122.5 47.5q-63 0 -117.5 -30t-90.5 -81h-81q19 35 47 66q105 113 255 113q104 0 169 -63t65 -165z
" />
    <glyph glyph-name="afii10096" unicode="&#x44e;" horiz-adv-x="845" 
d="M840 334q0 -144 -104.5 -245.5t-235.5 -101.5q-111 0 -177 63.5t-66 166.5q0 15 1 23h-106l-46 -240h-73l106 547h73l-46 -240h105q32 109 127 181t208 72q106 0 170 -62.5t64 -163.5zM764 319q0 77 -47 125t-125 48q-101 0 -180 -78.5t-79 -187.5q0 -77 49 -124t130 -47
q99 0 175.5 78t76.5 186z" />
    <glyph glyph-name="afii10097" unicode="&#x44f;" horiz-adv-x="526" 
d="M515 547l-106 -547h-74l93 480h-145q-66 -1 -113 -40t-47 -99q0 -43 32 -69t86 -26h78l-252 -246h-92l190 185q-55 14 -86.5 51.5t-31.5 90.5q0 95 75.5 157.5t172.5 62.5h220z" />
    <glyph glyph-name="uni0450" unicode="&#x450;" horiz-adv-x="650" 
d="M545 698l-39 -51l-182 116l40 52zM626 249h-495q-2 -24 -2 -28q0 -70 52 -118t127 -48q61 0 121.5 35t92.5 90h77q-48 -88 -130.5 -140.5t-173.5 -52.5q-102 0 -169.5 66.5t-67.5 166.5q0 135 102.5 237.5t237.5 102.5q104 0 170.5 -64t66.5 -164q0 -32 -9 -83zM565 316
q-4 81 -52.5 128.5t-127.5 47.5q-78 0 -145 -49.5t-94 -126.5h419z" />
    <glyph glyph-name="afii10071" unicode="&#x451;" horiz-adv-x="650" 
d="M626 249h-495q-2 -24 -2 -28q0 -70 52 -118t127 -48q61 0 121.5 35t92.5 90h77q-48 -88 -130.5 -140.5t-173.5 -52.5q-102 0 -169.5 66.5t-67.5 166.5q0 135 102.5 237.5t237.5 102.5q104 0 170.5 -64t66.5 -164q0 -32 -9 -83zM565 316q-4 81 -52.5 128.5t-127.5 47.5
q-78 0 -145 -49.5t-94 -126.5h419zM382 623h-74l23 126h74zM529 623h-74l23 126h74z" />
    <glyph glyph-name="afii10099" unicode="&#x452;" horiz-adv-x="339" 
d="M491 246l-46 -246q-17 -90 -63 -137t-136 -47h-24l10 58q58 0 93.5 34.5t45.5 91.5l44 244q3 20 3 36q0 50 -28 77t-80 27q-36 0 -76.5 -15t-61.5 -34l-65 -335h-74l111 602h-66l12 62h66l14 75h74l-14 -75h189l-12 -62h-189l-36 -208q28 21 69 34.5t71 13.5
q70 0 121 -44.5t51 -115.5q0 -18 -3 -36z" />
    <glyph glyph-name="afii10100" unicode="&#x453;" horiz-adv-x="442" 
d="M488 722l-214 -114l-24 56l214 116zM470 475h-277l-86 -475h-74l101 547h349z" />
    <glyph glyph-name="afii10101" unicode="&#x454;" horiz-adv-x="647" 
d="M609 161q-56 -77 -106 -112q-91 -62 -194 -62q-56 0 -109 20.5t-84 54.5q-58 63 -58 160q0 133 106 235.5t244 102.5q94 0 158.5 -48t82.5 -131h-83q-20 53 -64.5 82t-105.5 29q-79 0 -146.5 -48t-97.5 -122h319l-10 -59h-323q-3 -15 -3 -30q0 -78 51.5 -128t131.5 -50
q75 0 137 42q21 14 71 64h83z" />
    <glyph glyph-name="afii10102" unicode="&#x455;" horiz-adv-x="388" 
d="M362 189q0 -77 -54 -136q-62 -66 -149 -66q-76 0 -115 47q-31 38 -31 83q0 4 2 26q0 10 1 18h73q0 -52 11 -70q22 -36 72 -36q46 0 79.5 33.5t33.5 78.5q0 31 -16 47.5t-72 40.5q-45 19 -62 29t-29 24q-26 31 -26 72q0 28 14 62t35 57q56 61 139 61q55 0 91 -33.5
t36 -84.5q0 -19 -1 -30h-75q0 80 -65 80q-37 0 -67 -28.5t-30 -63.5q0 -40 38 -59q18 -9 95 -44q72 -34 72 -108z" />
    <glyph glyph-name="afii10103" unicode="&#x456;" horiz-adv-x="200" 
d="M107 0h-74l101 547h74zM221 613h-74l23 126h74z" />
    <glyph glyph-name="afii10104" unicode="&#x457;" horiz-adv-x="200" 
d="M106 0h-73l101 547h73zM148 623h-74l23 126h74zM295 623h-74l23 126h74z" />
    <glyph glyph-name="afii10105" unicode="&#x458;" horiz-adv-x="203" 
d="M118 38q-35 -220 -229 -230l13 71q64 4 94.5 38.5t47.5 120.5l94 509h74zM247 739l-24 -126h-74l24 126h74z" />
    <glyph glyph-name="afii10106" unicode="&#x459;" horiz-adv-x="913" 
d="M919 189q0 -107 -64.5 -148t-189.5 -41h-155l-107 460l-281 -460h-75l331 547h78l53 -227h184q226 0 226 -131zM839 181q0 72 -160 72h-154l42 -181h101q75 0 123 27.5t48 81.5z" />
    <glyph glyph-name="afii10107" unicode="&#x45a;" horiz-adv-x="874" 
d="M880 182q0 -44 -14.5 -76.5t-38.5 -52.5t-60.5 -32t-74.5 -16.5t-86 -4.5h-165l49 263h-333l-50 -263h-74l101 547h74l-40 -225h332l42 225h74l-42 -225h80q42 0 77.5 -6t71.5 -20t56.5 -43t20.5 -71zM800 181q0 40 -44 61t-114 21h-80l-34 -191h81q80 0 135.5 26
t55.5 83z" />
    <glyph glyph-name="afii10108" unicode="&#x45b;" horiz-adv-x="339" 
d="M491 246l-46 -246h-74l44 244q3 20 3 36q0 50 -28 77t-80 27q-36 0 -76.5 -15t-61.5 -34l-65 -335h-74l111 602h-66l12 62h66l14 75h74l-14 -75h189l-12 -62h-189l-36 -208q28 21 69 34.5t71 13.5q70 0 121 -44.5t51 -115.5q0 -18 -3 -36z" />
    <glyph glyph-name="afii10109" unicode="&#x45c;" horiz-adv-x="471" 
d="M488 722l-214 -114l-24 56l214 116zM209 547l-102 -547h-74l102 547h74zM434 0h-92q-12 19 -76.5 118.5t-95.5 155.5l260 273h91l-264 -275z" />
    <glyph glyph-name="uni045D" unicode="&#x45d;" horiz-adv-x="610" 
d="M520 698l-39 -51l-182 116l40 52zM515 0h-74l86 458l-420 -458h-74l101 547h74l-78 -421l386 421h100z" />
    <glyph glyph-name="afii10110" unicode="&#x45e;" horiz-adv-x="536" 
d="M535 691q-17 -59 -64 -89q-44 -28 -108 -28q-68 0 -103 34q-26 26 -29 83h64q4 -34 19 -46q18 -16 62 -16t74 21q23 14 32 41h53zM598 547l-453 -739h-78l127 210l-114 529h81l92 -436l266 436h79z" />
    <glyph glyph-name="afii10193" unicode="&#x45f;" horiz-adv-x="610" 
d="M515 0h-200l-26 -140h-74l27 140h-209l101 547h74l-89 -475h335l88 475h74z" />
    <glyph glyph-name="uni048C" unicode="&#x48c;" horiz-adv-x="574" 
d="M481 242q0 65 -50 92q-37 20 -157 20h-88l-54 -287h101q145 0 197 49q51 49 51 126zM558 260q0 -57 -23 -109.5t-62 -86.5q-40 -35 -95.5 -49.5t-148.5 -14.5h-183l105 564h-83l12 62h82l21 113h74l-21 -113h181l-12 -62h-180l-27 -143h94q133 0 199.5 -35.5t66.5 -125.5
z" />
    <glyph glyph-name="uni048D" unicode="&#x48d;" horiz-adv-x="466" 
d="M391 168q5 22 -6 40.5t-31 29.5q-26 15 -122 15h-80l-32 -181h81q84 0 152 36q10 5 21.5 21.5t16.5 38.5zM472 192q2 -37 -10.5 -69t-23 -44.5t-29.5 -31.5q-47 -47 -211 -47h-165l75 405h-91l12 62h90l15 80h74l-15 -80h96l-12 -62h-96l-15 -84l80 -1q100 -2 151 -28
q1 -1 12 -6t16.5 -8t15 -11.5t15 -17.5t10.5 -24t6 -33z" />
    <glyph glyph-name="uni048E" unicode="&#x48e;" horiz-adv-x="592" 
d="M635 572q0 -57 -20.5 -110.5t-57.5 -90.5q-39 -39 -94 -55.5t-146 -16.5h-142l-55 -299h-74l137 739h205q131 0 189 -39.5t58 -127.5zM558 558q0 64 -47 92q-36 22 -161 22h-105l-57 -306h137q72 0 113.5 12t68.5 41q23 25 37 63t14 76z" />
    <glyph glyph-name="uni048F" unicode="&#x48f;" horiz-adv-x="682" 
d="M588 317q0 76 -50.5 125.5t-128.5 49.5q-57 0 -112 -28t-95 -77q-55 -68 -55 -160q0 -74 51 -123t127 -49q85 0 155 53l-83 120l58 25l70 -103q28 31 45.5 78t17.5 89zM646 -24l-58 -25l-71 102q-92 -66 -197 -66q-140 0 -196 107l-53 -286h-74l137 739h74l-17 -94
q37 49 100 78t134 29q108 0 174 -65t66 -170q0 -129 -100 -231z" />
    <glyph glyph-name="afii10050" unicode="&#x490;" horiz-adv-x="549" 
d="M546 672h-301l-125 -672h-74l137 739h301l12 67h74z" />
    <glyph glyph-name="afii10098" unicode="&#x491;" horiz-adv-x="472" 
d="M498 620l-28 -145h-277l-86 -475h-74l101 547h276l14 73h74z" />
    <glyph glyph-name="uni0492" unicode="&#x492;" horiz-adv-x="485" 
d="M546 672h-301l-20 -106h180l-12 -62h-179l-94 -504h-74l93 504h-83l12 62h83l32 173h375z" />
    <glyph glyph-name="uni0493" unicode="&#x493;" horiz-adv-x="442" 
d="M470 475h-277l-23 -128h180l-12 -62h-179l-52 -285h-74l53 285h-85l12 62h84l37 200h349z" />
    <glyph glyph-name="uni0494" unicode="&#x494;" horiz-adv-x="485" 
d="M528 0q-17 -90 -63 -137t-136 -47h-25l11 58q58 0 93.5 34.5t45.5 91.5l54 294q7 42 7 72q0 55 -39 90.5t-100 35.5q-40 0 -80.5 -18.5t-66.5 -49.5q-22 -25 -33 -50.5t-20 -73.5l-56 -300h-74l137 739h375l-12 -67h-301l-37 -196q76 84 185 84q94 0 146.5 -48.5
t52.5 -135.5q0 -26 -10 -82z" />
    <glyph glyph-name="uni0495" unicode="&#x495;" horiz-adv-x="442" 
d="M515 0q-17 -90 -63 -137t-136 -47h-24l10 58q58 0 93.5 34.5t45.5 91.5l28 154q7 33 7 72q0 55 -39 90.5t-100 35.5q-40 0 -80.5 -18.5t-66.5 -49.5q-22 -25 -33 -50.5t-20 -73.5l-30 -160h-74l101 547h349l-13 -72h-277l-24 -139q76 84 185 84q94 0 146.5 -48.5
t52.5 -135.5q0 -26 -10 -82z" />
    <glyph glyph-name="uni0496" unicode="&#x496;" horiz-adv-x="927" 
d="M479 360l-360 -360h-89l360 360l-222 379h93zM636 739l-137 -739h-74l137 739h74zM1028 739l-359 -360l222 -379h-93l-218 379l360 360h88z" />
    <glyph glyph-name="uni0497" unicode="&#x497;" horiz-adv-x="735" 
d="M336 273l-260 -273h-91l264 275l-177 272h92zM474 547l-102 -547h-74l102 547h74zM699 0h-92l-172 274l260 273h91l-264 -275z" />
    <glyph glyph-name="uni0498" unicode="&#x498;" horiz-adv-x="548" 
d="M591 248q0 -119 -98 -190t-243 -71q-60 0 -109 18.5t-77 44.5t-48 57t-27.5 52.5t-8.5 34.5h79q14 -44 69.5 -91.5t140.5 -47.5q104 0 174.5 47t70.5 135q0 54 -37 87t-94 33h-124l13 67h126q65 0 113.5 43t48.5 104q0 53 -48.5 83t-114.5 30q-48 0 -90 -14t-68.5 -34
t-46 -39.5t-27.5 -33.5l-8 -14h-75l11 22t35.5 49t63 61.5t94.5 48.5t128 22q91 0 157.5 -46.5t66.5 -122.5q0 -63 -39 -116t-93 -80q35 -11 60 -49t25 -90z" />
    <glyph glyph-name="uni0499" unicode="&#x499;" horiz-adv-x="490" 
d="M472 179q0 -93 -68 -142.5t-184 -49.5q-49 0 -86 17t-55.5 41t-29.5 48t-13 41l-3 17h67q1 -4 3.5 -10.5t12.5 -23t23.5 -29t38.5 -23t56 -10.5q68 0 117.5 32t49.5 85q0 40 -33 61.5t-86 21.5h-72l15 73h72q42 0 78 28.5t36 70.5q0 29 -28.5 47t-64.5 18
q-38 0 -69.5 -19t-44.5 -37l-12 -19h-67q3 6 8 15.5t23.5 34t40.5 43.5t58.5 34.5t76.5 15.5q71 0 109.5 -31t38.5 -83q0 -112 -94 -149q38 -6 62 -40.5t24 -77.5z" />
    <glyph glyph-name="uni049A" unicode="&#x49a;" horiz-adv-x="552" 
d="M257 739l-137 -739h-74l137 739h74zM525 0h-102l-218 379l355 360h93l-350 -360z" />
    <glyph glyph-name="uni049B" unicode="&#x49b;" horiz-adv-x="471" 
d="M209 547l-102 -547h-74l102 547h74zM434 0h-92q-12 19 -76.5 118.5t-95.5 155.5l260 273h91l-264 -275z" />
    <glyph glyph-name="uni049C" unicode="&#x49c;" horiz-adv-x="552" 
d="M257 739l-137 -739h-74l137 739h74zM525 0h-102l-218 379l355 360h93l-350 -360z" />
    <glyph glyph-name="uni049D" unicode="&#x49d;" horiz-adv-x="471" 
d="M209 547l-102 -547h-74l102 547h74zM434 0h-92l-111 172l-13 -68h-63l27 148l-12 22l20 21l26 140h64l-11 -57l161 169h91l-264 -275z" />
    <glyph glyph-name="uni049E" unicode="&#x49e;" horiz-adv-x="552" 
d="M525 0h-102l-218 379l355 360h93l-350 -360zM359 668l-12 -62h-115l-112 -606h-74l112 606h-88l12 62h88l13 71h74l-13 -71h115z" />
    <glyph glyph-name="uni049F" unicode="&#x49f;" horiz-adv-x="471" 
d="M434 0h-92q-12 19 -76.5 118.5t-95.5 155.5l260 273h91l-264 -275zM298 495l-12 -62h-98l-81 -433h-74l81 433h-97l12 62h96l10 52h74l-10 -52h99z" />
    <glyph glyph-name="uni04A0" unicode="&#x4a0;" horiz-adv-x="552" 
d="M257 739l-137 -739h-74l137 739h74zM525 0h-102l-218 379l355 360h93l-350 -360z" />
    <glyph glyph-name="uni04A1" unicode="&#x4a1;" horiz-adv-x="471" 
d="M209 547l-102 -547h-74l102 547h74zM434 0h-92q-12 19 -76.5 118.5t-95.5 155.5l260 273h91l-264 -275z" />
    <glyph glyph-name="uni04A2" unicode="&#x4a2;" 
d="M714 739l-137 -739h-74l64 347h-383l-64 -347h-74l137 739h74l-60 -325h383l60 325h74z" />
    <glyph glyph-name="uni04A3" unicode="&#x4a3;" horiz-adv-x="588" 
d="M515 0h-74l49 263h-333l-50 -263h-74l101 547h74l-40 -225h332l42 225h74z" />
    <glyph glyph-name="uni04A4" unicode="&#x4a4;" 
d="M714 739l-137 -739h-74l64 347h-383l-64 -347h-74l137 739h74l-60 -325h383l60 325h74z" />
    <glyph glyph-name="uni04A5" unicode="&#x4a5;" horiz-adv-x="588" 
d="M515 0h-74l49 263h-333l-50 -263h-74l101 547h74l-40 -225h332l42 225h74z" />
    <glyph glyph-name="uni04A6" unicode="&#x4a6;" 
d="M985 0q-17 -90 -63 -137t-136 -47h-24l10 58q58 0 93.5 34.5t45.5 91.5l54 294q7 42 7 72q0 55 -39 90.5t-100 35.5q-40 0 -80.5 -18.5t-66.5 -49.5q-22 -25 -33 -50.5t-20 -73.5l-56 -300h-74l124 672h-383l-124 -672h-74l137 739h531l-49 -263q76 84 185 84
q94 0 146.5 -48.5t52.5 -135.5q0 -26 -10 -82z" />
    <glyph glyph-name="uni04A7" unicode="&#x4a7;" horiz-adv-x="610" 
d="M515 0h-74l89 475h-335l-88 -475h-74l101 547h482z" />
    <glyph glyph-name="uni04A8" unicode="&#x4a8;" horiz-adv-x="813" 
d="M777 194q-67 -98 -165 -152.5t-210 -54.5q-145 0 -235.5 84.5t-90.5 218.5q0 123 63 229.5t170 169.5t230 63q114 0 197.5 -57t102.5 -148h-82q-26 58 -64 88q-66 49 -164 49q-87 0 -163.5 -39t-132.5 -111q-80 -104 -80 -224q0 -111 74 -183t187 -72q154 0 281 139h82z
" />
    <glyph glyph-name="uni04A9" unicode="&#x4a9;" horiz-adv-x="647" 
d="M609 161q-56 -77 -106 -112q-91 -62 -194 -62q-56 0 -109 20.5t-84 54.5q-58 63 -58 160q0 133 106 235.5t244 102.5q94 0 158.5 -48t82.5 -131h-83q-20 53 -64.5 82t-105.5 29q-104 0 -182.5 -78t-78.5 -181q0 -78 51.5 -128t131.5 -50q75 0 137 42q21 14 71 64h83z" />
    <glyph glyph-name="uni04AA" unicode="&#x4aa;" horiz-adv-x="813" 
d="M777 194q-67 -98 -165 -152.5t-210 -54.5q-145 0 -235.5 84.5t-90.5 218.5q0 123 63 229.5t170 169.5t230 63q114 0 197.5 -57t102.5 -148h-82q-26 58 -64 88q-66 49 -164 49q-87 0 -163.5 -39t-132.5 -111q-80 -104 -80 -224q0 -111 74 -183t187 -72q154 0 281 139h82z
" />
    <glyph glyph-name="uni04AB" unicode="&#x4ab;" horiz-adv-x="647" 
d="M609 161q-56 -77 -106 -112q-91 -62 -194 -62q-56 0 -109 20.5t-84 54.5q-58 63 -58 160q0 133 106 235.5t244 102.5q94 0 158.5 -48t82.5 -131h-83q-20 53 -64.5 82t-105.5 29q-104 0 -182.5 -78t-78.5 -181q0 -78 51.5 -128t131.5 -50q75 0 137 42q21 14 71 64h83z" />
    <glyph glyph-name="uni04AC" unicode="&#x4ac;" horiz-adv-x="426" 
d="M514 672h-169l-125 -672h-74l125 672h-169l12 67h412z" />
    <glyph glyph-name="uni04AD" unicode="&#x4ad;" horiz-adv-x="339" 
d="M386 480h-129l-89 -480h-74l89 480h-112l12 67h315z" />
    <glyph glyph-name="uni04AE" unicode="&#x4ae;" horiz-adv-x="592" 
d="M697 739l-349 -492l-46 -247h-74l46 247l-165 492h82l133 -414l292 414h81z" />
    <glyph glyph-name="uni04AF" unicode="&#x4af;" horiz-adv-x="554" 
d="M617 547l-331 -547l-38 -192h-77l37 192l-129 547h75l107 -460l281 460h75z" />
    <glyph glyph-name="uni04B0" unicode="&#x4b0;" horiz-adv-x="592" 
d="M697 739l-349 -492l-46 -247h-74l46 247l-165 492h82l133 -414l292 414h81z" />
    <glyph glyph-name="uni04B1" unicode="&#x4b1;" horiz-adv-x="554" 
d="M617 547l-331 -547l-38 -192h-77l37 192l-129 547h75l107 -460l281 460h75z" />
    <glyph glyph-name="uni04B2" unicode="&#x4b2;" horiz-adv-x="609" 
d="M571 0h-88l-149 316l-269 -316h-87l321 378l-170 361h87l141 -296l250 296h86l-304 -361z" />
    <glyph glyph-name="uni04B3" unicode="&#x4b3;" horiz-adv-x="480" 
d="M442 0h-85l-106 219l-189 -219h-84l242 279l-141 268h84l109 -211l186 211h85l-240 -268z" />
    <glyph glyph-name="uni04B4" unicode="&#x4b4;" 
d="M666 -154h-73l29 154h-576l137 739h74l-125 -666h381l127 666h74l-123 -666h117z" />
    <glyph glyph-name="uni04B5" unicode="&#x4b5;" horiz-adv-x="584" 
d="M540 -140h-74l27 140h-460l101 547h74l-89 -475h286l88 475h74l-88 -475h100z" />
    <glyph glyph-name="uni04B6" unicode="&#x4b6;" horiz-adv-x="610" 
d="M579 739l-137 -739h-74l49 263q-76 -84 -185 -84q-94 0 -146.5 48.5t-52.5 135.5q0 26 10 82l54 294h74l-54 -294q-7 -33 -7 -72q0 -55 39 -90.5t100 -35.5q40 0 80.5 18.5t66.5 49.5q22 25 33 50.5t20 73.5l56 300h74z" />
    <glyph glyph-name="uni04B7" unicode="&#x4b7;" horiz-adv-x="427" 
d="M366 0h-74l40 226q-28 -21 -69 -34.5t-71 -13.5q-79 0 -131.5 55t-37.5 141l32 173h74l-30 -171q-11 -68 16.5 -104t88.5 -36q36 0 76.5 15t61.5 34l51 262h74z" />
    <glyph glyph-name="uni04B8" unicode="&#x4b8;" horiz-adv-x="610" 
d="M579 739l-137 -739h-74l49 263q-76 -84 -185 -84q-94 0 -146.5 48.5t-52.5 135.5q0 26 10 82l54 294h74l-54 -294q-7 -33 -7 -72q0 -55 39 -90.5t100 -35.5q40 0 80.5 18.5t66.5 49.5q22 25 33 50.5t20 73.5l56 300h74z" />
    <glyph glyph-name="uni04B9" unicode="&#x4b9;" horiz-adv-x="427" 
d="M366 0h-74l40 226q-28 -21 -69 -34.5t-71 -13.5q-79 0 -131.5 55t-37.5 141l32 173h74l-30 -171q-11 -68 16.5 -104t88.5 -36q36 0 76.5 15t61.5 34l51 262h74z" />
    <glyph glyph-name="uni04BA" unicode="&#x4ba;" horiz-adv-x="610" 
d="M515 0h-74l54 294q7 33 7 72q0 55 -39 90.5t-100 35.5q-40 0 -80.5 -18.5t-66.5 -49.5q-22 -25 -33 -50.5t-20 -73.5l-56 -300h-74l137 739h74l-49 -263q76 84 185 84q94 0 146.5 -48.5t52.5 -135.5q0 -26 -10 -82z" />
    <glyph glyph-name="uni04BB" unicode="&#x4bb;" horiz-adv-x="427" 
d="M432 0h-74l30 171q11 68 -16.5 104t-88.5 36q-36 -1 -76.5 -15.5t-61.5 -33.5l-51 -262h-74l101 547h74l-40 -226q28 21 69 34.5t71 13.5q79 0 131.5 -55t37.5 -141z" />
    <glyph glyph-name="uni04BC" unicode="&#x4bc;" horiz-adv-x="813" 
d="M777 194q-67 -98 -165 -152.5t-210 -54.5q-145 0 -235.5 84.5t-90.5 218.5q0 123 63 229.5t170 169.5t230 63q114 0 197.5 -57t102.5 -148h-82q-26 58 -64 88q-66 49 -164 49q-87 0 -163.5 -39t-132.5 -111q-80 -104 -80 -224q0 -111 74 -183t187 -72q154 0 281 139h82z
" />
    <glyph glyph-name="uni04BD" unicode="&#x4bd;" horiz-adv-x="647" 
d="M609 161q-56 -77 -106 -112q-91 -62 -194 -62q-56 0 -109 20.5t-84 54.5q-58 63 -58 160q0 133 106 235.5t244 102.5q94 0 158.5 -48t82.5 -131h-83q-20 53 -64.5 82t-105.5 29q-104 0 -182.5 -78t-78.5 -181q0 -78 51.5 -128t131.5 -50q75 0 137 42q21 14 71 64h83z" />
    <glyph glyph-name="uni04BE" unicode="&#x4be;" horiz-adv-x="813" 
d="M777 194q-67 -98 -165 -152.5t-210 -54.5q-145 0 -235.5 84.5t-90.5 218.5q0 123 63 229.5t170 169.5t230 63q114 0 197.5 -57t102.5 -148h-82q-26 58 -64 88q-66 49 -164 49q-87 0 -163.5 -39t-132.5 -111q-80 -104 -80 -224q0 -111 74 -183t187 -72q154 0 281 139h82z
" />
    <glyph glyph-name="uni04BF" unicode="&#x4bf;" horiz-adv-x="647" 
d="M609 161q-56 -77 -106 -112q-91 -62 -194 -62q-56 0 -109 20.5t-84 54.5q-58 63 -58 160q0 133 106 235.5t244 102.5q94 0 158.5 -48t82.5 -131h-83q-20 53 -64.5 82t-105.5 29q-104 0 -182.5 -78t-78.5 -181q0 -78 51.5 -128t131.5 -50q75 0 137 42q21 14 71 64h83z" />
    <glyph glyph-name="uni04C0" unicode="&#x4c0;" horiz-adv-x="226" 
d="M257 739l-137 -739h-74l137 739h74z" />
    <glyph glyph-name="uni04C1" unicode="&#x4c1;" horiz-adv-x="927" 
d="M785 929q-17 -59 -64 -89q-44 -28 -108 -28q-68 0 -103 34q-26 26 -29 83h64q4 -34 19 -46q18 -16 62 -16t74 21q23 14 32 41h53zM479 360l-360 -360h-89l360 360l-222 379h93zM636 739l-137 -739h-74l137 739h74zM1028 739l-359 -360l222 -379h-93l-218 379l360 360h88z
" />
    <glyph glyph-name="uni04C2" unicode="&#x4c2;" horiz-adv-x="735" 
d="M616 737q-17 -59 -64 -89q-44 -28 -108 -28q-68 0 -103 34q-26 26 -29 83h64q4 -34 19 -46q18 -16 62 -16t74 21q23 14 32 41h53zM336 273l-260 -273h-91l264 275l-177 272h92zM474 547l-102 -547h-74l102 547h74zM699 0h-92l-172 274l260 273h91l-264 -275z" />
    <glyph glyph-name="uni04C3" unicode="&#x4c3;" horiz-adv-x="552" 
d="M257 739l-137 -739h-74l137 739h74zM525 0h-102l-218 379l355 360h93l-350 -360z" />
    <glyph glyph-name="uni04C4" unicode="&#x4c4;" horiz-adv-x="471" 
d="M209 547l-102 -547h-74l102 547h74zM434 0h-92q-12 19 -76.5 118.5t-95.5 155.5l260 273h91l-264 -275z" />
    <glyph glyph-name="uni04C7" unicode="&#x4c7;" 
d="M714 739l-137 -739h-74l64 347h-383l-64 -347h-74l137 739h74l-60 -325h383l60 325h74z" />
    <glyph glyph-name="uni04C8" unicode="&#x4c8;" horiz-adv-x="588" 
d="M515 0h-74l49 263h-333l-50 -263h-74l101 547h74l-40 -225h332l42 225h74z" />
    <glyph glyph-name="uni04CB" unicode="&#x4cb;" horiz-adv-x="610" 
d="M579 739l-137 -739h-74l49 263q-76 -84 -185 -84q-94 0 -146.5 48.5t-52.5 135.5q0 26 10 82l54 294h74l-54 -294q-7 -33 -7 -72q0 -55 39 -90.5t100 -35.5q40 0 80.5 18.5t66.5 49.5q22 25 33 50.5t20 73.5l56 300h74z" />
    <glyph glyph-name="uni04CC" unicode="&#x4cc;" horiz-adv-x="427" 
d="M366 0h-74l40 226q-28 -21 -69 -34.5t-71 -13.5q-79 0 -131.5 55t-37.5 141l32 173h74l-30 -171q-11 -68 16.5 -104t88.5 -36q36 0 76.5 15t61.5 34l51 262h74z" />
    <glyph glyph-name="uni04D0" unicode="&#x4d0;" horiz-adv-x="740" 
d="M664 929q-17 -59 -64 -89q-44 -28 -108 -28q-68 0 -103 34q-26 26 -29 83h64q4 -34 19 -46q18 -16 62 -16t74 21q23 14 32 41h53zM699 0h-81l-61 249h-344l-154 -249h-78l454 739h83zM541 316l-80 339l-207 -339h287z" />
    <glyph glyph-name="uni04D1" unicode="&#x4d1;" 
d="M589 737q-17 -59 -64 -89q-44 -28 -108 -28q-68 0 -103 34q-26 26 -29 83h64q4 -34 19 -46q18 -16 62 -16t74 21q23 14 32 41h53zM590 0h-74l18 96q-61 -62 -111 -85.5t-120 -23.5q-110 0 -177.5 63t-67.5 166q0 139 103 241.5t243 102.5q80 0 134 -36q35 -23 61 -74
l18 97h74zM571 319q0 75 -49.5 124t-124.5 49q-104 0 -183 -77.5t-79 -179.5q0 -80 50.5 -130t132.5 -50q100 0 176.5 80t76.5 184z" />
    <glyph glyph-name="uni04D2" unicode="&#x4d2;" horiz-adv-x="740" 
d="M454 812h-74l23 126h74zM601 812h-74l23 126h74zM699 0h-81l-61 249h-344l-154 -249h-78l454 739h83zM541 316l-80 339l-207 -339h287z" />
    <glyph glyph-name="uni04D3" unicode="&#x4d3;" 
d="M379 620h-74l23 126h74zM526 620h-74l23 126h74zM590 0h-74l18 96q-61 -62 -111 -85.5t-120 -23.5q-110 0 -177.5 63t-67.5 166q0 139 103 241.5t243 102.5q80 0 134 -36q35 -23 61 -74l18 97h74zM571 319q0 75 -49.5 124t-124.5 49q-104 0 -183 -77.5t-79 -179.5
q0 -80 50.5 -130t132.5 -50q100 0 176.5 80t76.5 184z" />
    <glyph glyph-name="uni04D4" unicode="&#x4d4;" horiz-adv-x="992" 
d="M1031 672h-319l-50 -265h308l-12 -67h-308l-51 -273h319l-12 -67h-393l46 250h-271l-219 -250h-88l648 739h414zM572 317l60 327l-284 -327h224z" />
    <glyph glyph-name="uni04D5" unicode="&#x4d5;" horiz-adv-x="1157" 
d="M1132 247h-495q-1 -10 -1 -22q0 -72 52.5 -121t129.5 -49q62 0 121 34t90 89h77q-30 -65 -101 -119q-94 -72 -201 -72q-128 0 -200 105l-17 -92h-71l17 92q-102 -105 -233 -105q-109 0 -175.5 64t-66.5 168q0 117 87 220q102 121 257 121q144 0 198 -108l18 95h71
l-18 -95q105 108 235 108q104 0 170 -63.5t66 -163.5q0 -40 -10 -86zM1073 314q-1 82 -49 130t-128 48q-81 0 -150 -50.5t-93 -127.5h420zM574 319q0 77 -49.5 125t-128.5 48q-128 0 -204 -101q-57 -76 -57 -160q0 -77 50 -126.5t127 -49.5q104 0 183 79.5t79 184.5z" />
    <glyph glyph-name="uni04D6" unicode="&#x4d6;" horiz-adv-x="536" 
d="M572 929q-17 -59 -64 -89q-44 -28 -108 -28q-68 0 -103 34q-26 26 -29 83h64q4 -34 19 -46q18 -16 62 -16t74 21q23 14 32 41h53zM575 672h-330l-50 -265h319l-12 -67h-319l-51 -273h330l-12 -67h-404l137 739h404z" />
    <glyph glyph-name="uni04D7" unicode="&#x4d7;" horiz-adv-x="650" 
d="M583 737q-17 -59 -64 -89q-44 -28 -108 -28q-68 0 -103 34q-26 26 -29 83h64q4 -34 19 -46q18 -16 62 -16t74 21q23 14 32 41h53zM626 249h-495q-2 -24 -2 -28q0 -70 52 -118t127 -48q61 0 121.5 35t92.5 90h77q-48 -88 -130.5 -140.5t-173.5 -52.5q-102 0 -169.5 66.5
t-67.5 166.5q0 135 102.5 237.5t237.5 102.5q104 0 170.5 -64t66.5 -164q0 -32 -9 -83zM565 316q-4 81 -52.5 128.5t-127.5 47.5q-78 0 -145 -49.5t-94 -126.5h419z" />
    <glyph glyph-name="uni04D8" unicode="&#x4d8;" horiz-adv-x="869" 
d="M783 347h-628q-2 -20 -2 -31q1 -110 75 -185.5t182 -75.5q128 0 235.5 85.5t137.5 206.5zM870 436q0 -86 -39.5 -168.5t-104 -144t-151.5 -99t-177 -37.5q-132 0 -226.5 89t-95.5 226q0 56 17 112h700v8q0 114 -74 188t-189 74q-77 0 -151 -37.5t-130 -99.5h-88
q68 92 171.5 148.5t215.5 56.5q133 0 227.5 -88t94.5 -228z" />
    <glyph glyph-name="afii10846" unicode="&#x4d9;" horiz-adv-x="638" 
d="M635 327q0 -135 -102.5 -237.5t-237.5 -102.5q-104 0 -170.5 64t-66.5 164q0 32 9 83h495q2 24 2 28q0 70 -52 118t-127 48q-61 0 -121.5 -35t-92.5 -90h-77q48 88 130.5 140.5t173.5 52.5q102 0 169.5 -66.5t67.5 -166.5zM547 231h-419q4 -81 52.5 -128.5t127.5 -47.5
q78 0 145 49.5t94 126.5z" />
    <glyph glyph-name="uni04DA" unicode="&#x4da;" horiz-adv-x="869" 
d="M523 812h-74l23 126h74zM670 812h-74l23 126h74zM783 347h-628q-2 -20 -2 -31q1 -110 75 -185.5t182 -75.5q128 0 235.5 85.5t137.5 206.5zM870 436q0 -86 -39.5 -168.5t-104 -144t-151.5 -99t-177 -37.5q-132 0 -226.5 89t-95.5 226q0 56 17 112h700v8q0 114 -74 188
t-189 74q-77 0 -151 -37.5t-130 -99.5h-88q68 92 171.5 148.5t215.5 56.5q133 0 227.5 -88t94.5 -228z" />
    <glyph glyph-name="uni04DB" unicode="&#x4db;" horiz-adv-x="638" 
d="M373 620h-74l23 126h74zM520 620h-74l23 126h74zM635 327q0 -135 -102.5 -237.5t-237.5 -102.5q-104 0 -170.5 64t-66.5 164q0 32 9 83h495q2 24 2 28q0 70 -52 118t-127 48q-61 0 -121.5 -35t-92.5 -90h-77q48 88 130.5 140.5t173.5 52.5q102 0 169.5 -66.5t67.5 -166.5
zM547 231h-419q4 -81 52.5 -128.5t127.5 -47.5q78 0 145 49.5t94 126.5z" />
    <glyph glyph-name="uni04DC" unicode="&#x4dc;" horiz-adv-x="927" 
d="M575 812h-74l23 126h74zM722 812h-74l23 126h74zM479 360l-360 -360h-89l360 360l-222 379h93zM636 739l-137 -739h-74l137 739h74zM1028 739l-359 -360l222 -379h-93l-218 379l360 360h88z" />
    <glyph glyph-name="uni04DD" unicode="&#x4dd;" horiz-adv-x="735" 
d="M406 620h-74l23 126h74zM553 620h-74l23 126h74zM336 273l-260 -273h-91l264 275l-177 272h92zM474 547l-102 -547h-74l102 547h74zM699 0h-92l-172 274l260 273h91l-264 -275z" />
    <glyph glyph-name="uni04DE" unicode="&#x4de;" horiz-adv-x="548" 
d="M389 812h-74l23 126h74zM536 812h-74l23 126h74zM591 248q0 -119 -98 -190t-243 -71q-60 0 -109 18.5t-77 44.5t-48 57t-27.5 52.5t-8.5 34.5h79q14 -44 69.5 -91.5t140.5 -47.5q104 0 174.5 47t70.5 135q0 54 -37 87t-94 33h-124l13 67h126q65 0 113.5 43t48.5 104
q0 53 -48.5 83t-114.5 30q-48 0 -90 -14t-68.5 -34t-46 -39.5t-27.5 -33.5l-8 -14h-75l11 22t35.5 49t63 61.5t94.5 48.5t128 22q91 0 157.5 -46.5t66.5 -122.5q0 -63 -39 -116t-93 -80q35 -11 60 -49t25 -90z" />
    <glyph glyph-name="uni04DF" unicode="&#x4df;" horiz-adv-x="490" 
d="M307 620h-74l23 126h74zM454 620h-74l23 126h74zM472 179q0 -93 -68 -142.5t-184 -49.5q-49 0 -86 17t-55.5 41t-29.5 48t-13 41l-3 17h67q1 -4 3.5 -10.5t12.5 -23t23.5 -29t38.5 -23t56 -10.5q68 0 117.5 32t49.5 85q0 40 -33 61.5t-86 21.5h-72l15 73h72q42 0 78 28.5
t36 70.5q0 29 -28.5 47t-64.5 18q-38 0 -69.5 -19t-44.5 -37l-12 -19h-67q3 6 8 15.5t23.5 34t40.5 43.5t58.5 34.5t76.5 15.5q71 0 109.5 -31t38.5 -83q0 -112 -94 -149q38 -6 62 -40.5t24 -77.5z" />
    <glyph glyph-name="uni04E0" unicode="&#x4e0;" horiz-adv-x="548" 
d="M591 248q0 -119 -98 -190t-243 -71q-60 0 -109 18.5t-77 44.5t-48 57t-27.5 52.5t-8.5 34.5h79q14 -44 69.5 -91.5t140.5 -47.5q104 0 174.5 47t70.5 135q0 54 -37 87t-94 33h-124l13 67h126q65 0 113.5 43t48.5 104q0 53 -48.5 83t-114.5 30q-48 0 -90 -14t-68.5 -34
t-46 -39.5t-27.5 -33.5l-8 -14h-75l11 22t35.5 49t63 61.5t94.5 48.5t128 22q91 0 157.5 -46.5t66.5 -122.5q0 -63 -39 -116t-93 -80q35 -11 60 -49t25 -90z" />
    <glyph glyph-name="uni04E1" unicode="&#x4e1;" horiz-adv-x="490" 
d="M472 179q0 -93 -68 -142.5t-184 -49.5q-49 0 -86 17t-55.5 41t-29.5 48t-13 41l-3 17h67q1 -4 3.5 -10.5t12.5 -23t23.5 -29t38.5 -23t56 -10.5q68 0 117.5 32t49.5 85q0 40 -33 61.5t-86 21.5h-72l15 73h72q42 0 78 28.5t36 70.5q0 29 -28.5 47t-64.5 18
q-38 0 -69.5 -19t-44.5 -37l-12 -19h-67q3 6 8 15.5t23.5 34t40.5 43.5t58.5 34.5t76.5 15.5q71 0 109.5 -31t38.5 -83q0 -112 -94 -149q38 -6 62 -40.5t24 -77.5z" />
    <glyph glyph-name="uni04E2" unicode="&#x4e2;" horiz-adv-x="740" 
d="M671 874l-12 -62h-337l12 62h337zM771 739l-137 -739h-74l120 650l-560 -650h-74l137 739h77l-116 -613l527 613h100z" />
    <glyph glyph-name="uni04E3" unicode="&#x4e3;" horiz-adv-x="610" 
d="M569 682l-12 -62h-337l12 62h337zM515 0h-74l86 458l-420 -458h-74l101 547h74l-78 -421l386 421h100z" />
    <glyph glyph-name="uni04E4" unicode="&#x4e4;" horiz-adv-x="740" 
d="M454 812h-74l23 126h74zM601 812h-74l23 126h74zM771 739l-137 -739h-74l120 650l-560 -650h-74l137 739h77l-116 -613l527 613h100z" />
    <glyph glyph-name="uni04E5" unicode="&#x4e5;" horiz-adv-x="610" 
d="M352 620h-74l23 126h74zM499 620h-74l23 126h74zM515 0h-74l86 458l-420 -458h-74l101 547h74l-78 -421l386 421h100z" />
    <glyph glyph-name="uni04E6" unicode="&#x4e6;" horiz-adv-x="869" 
d="M523 812h-74l23 126h74zM670 812h-74l23 126h74zM870 436q0 -114 -66.5 -218.5t-176 -167.5t-229.5 -63q-77 0 -148 34t-114 92q-60 81 -60 189q0 115 66.5 219.5t176 167.5t229.5 63q77 0 146.5 -33.5t114.5 -92.5q61 -82 61 -190zM793 422q0 114 -74 188t-189 74
q-143 0 -260 -114t-117 -254q0 -110 74.5 -185.5t182.5 -75.5q149 0 266 112.5t117 254.5z" />
    <glyph glyph-name="uni04E7" unicode="&#x4e7;" horiz-adv-x="655" 
d="M380 620h-74l23 126h74zM527 620h-74l23 126h74zM639 332q0 -136 -96 -237q-102 -108 -240 -108q-109 0 -177.5 63.5t-68.5 164.5q0 62 24.5 123.5t68.5 108.5q105 113 255 113q104 0 169 -63t65 -165zM562 325q0 73 -48 120t-122 47q-105 0 -181.5 -78.5t-76.5 -185.5
q0 -77 49.5 -125t129.5 -48q104 0 176.5 78.5t72.5 191.5z" />
    <glyph glyph-name="uni04E8" unicode="&#x4e8;" horiz-adv-x="869" 
d="M870 436q0 -114 -66.5 -218.5t-176 -167.5t-229.5 -63q-77 0 -148 34t-114 92q-60 81 -60 189q0 115 66.5 219.5t176 167.5t229.5 63q77 0 146.5 -33.5t114.5 -92.5q61 -82 61 -190zM793 414v8q0 114 -74 188t-189 74q-116 0 -219.5 -78.5t-140.5 -191.5h623zM784 347
h-629q-2 -20 -2 -31q0 -110 74.5 -185.5t182.5 -75.5q127 0 235 85.5t139 206.5z" />
    <glyph glyph-name="uni04E9" unicode="&#x4e9;" horiz-adv-x="655" 
d="M639 332q0 -136 -96 -237q-102 -108 -240 -108q-109 0 -177.5 63.5t-68.5 164.5q0 62 24.5 123.5t68.5 108.5q105 113 255 113q104 0 169 -63t65 -165zM562 322v3q0 73 -48 120t-122 47q-80 0 -146 -47.5t-94 -122.5h410zM556 263h-420q-2 -22 -2 -35q0 -77 49.5 -125
t129.5 -48q88 0 155.5 58.5t87.5 149.5z" />
    <glyph glyph-name="uni04EA" unicode="&#x4ea;" horiz-adv-x="869" 
d="M523 812h-74l23 126h74zM670 812h-74l23 126h74zM870 436q0 -114 -66.5 -218.5t-176 -167.5t-229.5 -63q-77 0 -148 34t-114 92q-60 81 -60 189q0 115 66.5 219.5t176 167.5t229.5 63q77 0 146.5 -33.5t114.5 -92.5q61 -82 61 -190zM793 414v8q0 114 -74 188t-189 74
q-116 0 -219.5 -78.5t-140.5 -191.5h623zM784 347h-629q-2 -20 -2 -31q0 -110 74.5 -185.5t182.5 -75.5q127 0 235 85.5t139 206.5z" />
    <glyph glyph-name="uni04EB" unicode="&#x4eb;" horiz-adv-x="655" 
d="M380 620h-74l23 126h74zM527 620h-74l23 126h74zM639 332q0 -136 -96 -237q-102 -108 -240 -108q-109 0 -177.5 63.5t-68.5 164.5q0 62 24.5 123.5t68.5 108.5q105 113 255 113q104 0 169 -63t65 -165zM562 322v3q0 73 -48 120t-122 47q-80 0 -146 -47.5t-94 -122.5h410z
M556 263h-420q-2 -22 -2 -35q0 -77 49.5 -125t129.5 -48q88 0 155.5 58.5t87.5 149.5z" />
    <glyph glyph-name="uni04EC" unicode="&#x4ec;" horiz-adv-x="869" 
d="M523 812h-74l23 126h74zM670 812h-74l23 126h74zM870 436q0 -114 -66.5 -218.5t-176 -167.5t-229.5 -63q-77 0 -148 34t-114 92q-27 36 -42 81h88q33 -63 93.5 -101t134.5 -38q127 0 235 85.5t138 206.5h-408l13 67h405v8q0 114 -74 188t-189 74q-77 0 -151 -37.5
t-130 -99.5h-88q68 92 171.5 148.5t215.5 56.5q77 0 146.5 -33.5t114.5 -92.5q61 -82 61 -190z" />
    <glyph glyph-name="uni04ED" unicode="&#x4ed;" horiz-adv-x="638" 
d="M380 620h-74l23 126h74zM527 620h-74l23 126h74zM639 332q0 -148 -94.5 -246.5t-241.5 -98.5q-92 0 -157 47.5t-83 126.5h83q19 -49 63 -77.5t104 -28.5q88 0 155.5 58.5t87.5 149.5h-305l11 59h300q1 75 -47.5 122.5t-122.5 47.5q-63 0 -117.5 -30t-90.5 -81h-81
q19 35 47 66q105 113 255 113q104 0 169 -63t65 -165z" />
    <glyph glyph-name="uni04EE" unicode="&#x4ee;" horiz-adv-x="592" 
d="M597 874l-12 -62h-337l12 62h337zM697 739l-524 -739h-81l175 252l-158 487h82l133 -414l292 414h81z" />
    <glyph glyph-name="uni04EF" unicode="&#x4ef;" horiz-adv-x="536" 
d="M533 682l-12 -62h-337l12 62h337zM598 547l-453 -739h-78l127 210l-114 529h81l92 -436l266 436h79z" />
    <glyph glyph-name="uni04F0" unicode="&#x4f0;" horiz-adv-x="592" 
d="M380 812h-74l23 126h74zM527 812h-74l23 126h74zM697 739l-524 -739h-81l175 252l-158 487h82l133 -414l292 414h81z" />
    <glyph glyph-name="uni04F1" unicode="&#x4f1;" horiz-adv-x="536" 
d="M316 620h-74l23 126h74zM463 620h-74l23 126h74zM598 547l-453 -739h-78l127 210l-114 529h81l92 -436l266 436h79z" />
    <glyph glyph-name="uni04F2" unicode="&#x4f2;" horiz-adv-x="592" 
d="M513 934l-194 -122l-29 50l192 122zM708 934l-194 -122l-29 50l193 122zM697 739l-524 -739h-81l175 252l-158 487h82l133 -414l292 414h81z" />
    <glyph glyph-name="uni04F3" unicode="&#x4f3;" horiz-adv-x="536" 
d="M449 742l-194 -122l-29 50l192 122zM644 742l-194 -122l-29 50l193 122zM598 547l-453 -739h-78l127 210l-114 529h81l92 -436l266 436h79z" />
    <glyph glyph-name="uni04F4" unicode="&#x4f4;" horiz-adv-x="591" 
d="M315 812h-74l23 126h74zM462 812h-74l23 126h74zM579 739l-137 -739h-74l49 263q-76 -84 -185 -84q-94 0 -146.5 48.5t-52.5 135.5q0 26 10 82l54 294h74l-54 -294q-7 -33 -7 -72q0 -55 39 -90.5t100 -35.5q40 0 80.5 18.5t66.5 49.5q22 25 33 50.5t20 73.5l56 300h74z
" />
    <glyph glyph-name="uni04F5" unicode="&#x4f5;" horiz-adv-x="427" 
d="M238 620h-74l23 126h74zM385 620h-74l23 126h74zM366 0h-74l40 226q-28 -21 -69 -34.5t-71 -13.5q-70 0 -121 44.5t-51 115.5q0 18 3 36l32 173h74l-30 -171q-3 -20 -3 -36q0 -50 28 -77t80 -27q36 0 76.5 15t61.5 34l51 262h74z" />
    <glyph glyph-name="uni04F8" unicode="&#x4f8;" horiz-adv-x="764" 
d="M466 812h-74l23 126h74zM613 812h-74l23 126h74zM597 298q0 -141 -97.5 -219.5t-273.5 -78.5h-183l144 739h74l-52 -265h109q142 0 210.5 -42t68.5 -134zM520 280q0 70 -55 98.5t-165 28.5h-104l-66 -340h104q135 0 210.5 53t75.5 160zM825 739l-137 -739h-74l137 739h74
z" />
    <glyph glyph-name="uni04F9" unicode="&#x4f9;" horiz-adv-x="691" 
d="M393 620h-74l23 126h74zM540 620h-74l23 126h74zM498 220q0 -94 -75.5 -157t-172.5 -63h-220l106 547h74l-34 -178h142q82 0 131 -40.5t49 -108.5zM422 206q0 43 -32 69t-86 26h-142l-45 -234h145q66 1 113 40t47 99zM616 0h-74l101 547h74z" />
    <glyph glyph-name="baht" unicode="&#xe3f;" horiz-adv-x="574" 
d="M558 260q0 -57 -23 -109.5t-62 -86.5q-65 -56 -188 -63l-15 -84h-55l16 83h-2h-183l137 739h173h12l15 83h55l-17 -86q156 -19 156 -141q0 -67 -29.5 -121.5t-90.5 -79.5q56 -27 78.5 -57t22.5 -77zM481 242q0 65 -50 92q-37 20 -157 20h-91l-51 -287h101q138 0 193 46
t55 129zM500 578q0 53 -35.5 73.5t-129.5 20.5h-90l-47 -251h90q68 0 105 9t62 32q45 42 45 116z" />
    <glyph glyph-name="Ddotbelow" unicode="&#x1e0c;" horiz-adv-x="744" 
d="M744 448q0 -102 -43 -192t-122 -154q-68 -54 -146 -78t-188 -24h-199l137 739h174q186 0 269 -58q118 -81 118 -233zM667 435q0 116 -73.5 176.5t-245.5 60.5h-103l-113 -605h103q116 0 188 22.5t129 75.5q53 49 84 122t31 148zM276 -186h-74l23 126h74z" />
    <glyph glyph-name="ddotbelow" unicode="&#x1e0d;" horiz-adv-x="685" 
d="M729 739l-137 -739h-74l18 99q-53 -60 -106.5 -86t-124.5 -26q-107 0 -177 65t-70 165q0 137 105 240t245 103q127 0 195 -100l52 279h74zM576 318q0 75 -52.5 124.5t-131.5 49.5q-101 0 -179 -78t-78 -178q0 -81 51 -131t134 -50q99 0 177.5 80.5t78.5 182.5zM316 -186
h-74l23 126h74z" />
    <glyph glyph-name="Dlinebelow" unicode="&#x1e0e;" horiz-adv-x="744" 
d="M744 448q0 -102 -43 -192t-122 -154q-68 -54 -146 -78t-188 -24h-199l137 739h174q186 0 269 -58q118 -81 118 -233zM667 435q0 116 -73.5 176.5t-245.5 60.5h-103l-113 -605h103q116 0 188 22.5t129 75.5q53 49 84 122t31 148zM424 -92l-12 -62h-337l12 62h337z" />
    <glyph glyph-name="dlinebelow" unicode="&#x1e0f;" horiz-adv-x="685" 
d="M729 739l-137 -739h-74l18 99q-53 -60 -106.5 -86t-124.5 -26q-107 0 -177 65t-70 165q0 137 105 240t245 103q127 0 195 -100l52 279h74zM576 318q0 75 -52.5 124.5t-131.5 49.5q-101 0 -179 -78t-78 -178q0 -81 51 -131t134 -50q99 0 177.5 80.5t78.5 182.5zM464 -92
l-12 -62h-337l12 62h337z" />
    <glyph glyph-name="Hdotbelow" unicode="&#x1e24;" 
d="M714 739l-137 -739h-74l64 347h-383l-64 -347h-74l137 739h74l-60 -325h383l60 325h74zM315 -186h-74l23 126h74z" />
    <glyph glyph-name="hdotbelow" unicode="&#x1e25;" horiz-adv-x="610" 
d="M515 0h-74l54 294q7 44 7 72q0 55 -39 90.5t-100 35.5q-76 0 -129 -49.5t-71 -142.5l-56 -300h-74l137 739h74l-49 -263q76 84 185 84q94 0 146.5 -48.5t52.5 -135.5q0 -26 -10 -82zM277 -186h-74l23 126h74z" />
    <glyph glyph-name="Hdieresis" unicode="&#x1e26;" 
d="M714 739l-137 -739h-74l64 347h-383l-64 -347h-74l137 739h74l-60 -325h383l60 325h74zM420 789h-74l23 126h74zM567 789h-74l23 126h74z" />
    <glyph glyph-name="hdieresis" unicode="&#x1e27;" horiz-adv-x="610" 
d="M515 0h-74l54 294q7 44 7 72q0 55 -39 90.5t-100 35.5q-76 0 -129 -49.5t-71 -142.5l-56 -300h-74l137 739h74l-49 -263q76 84 185 84q94 0 146.5 -48.5t52.5 -135.5q0 -26 -10 -82zM383 789h-74l23 126h74zM530 789h-74l23 126h74z" />
    <glyph glyph-name="Hbrevebelow" unicode="&#x1e2a;" 
d="M714 739l-137 -739h-74l64 347h-383l-64 -347h-74l137 739h74l-60 -325h383l60 325h74zM452 -64q-35 -117 -172 -117q-62 0 -95.5 26.5t-36.5 90.5h64q4 -36 22.5 -49t58.5 -13q38 0 67 16.5t39 45.5h53z" />
    <glyph glyph-name="hbrevebelow" unicode="&#x1e2b;" horiz-adv-x="610" 
d="M515 0h-74l54 294q7 44 7 72q0 55 -39 90.5t-100 35.5q-76 0 -129 -49.5t-71 -142.5l-56 -300h-74l137 739h74l-49 -263q76 84 185 84q94 0 146.5 -48.5t52.5 -135.5q0 -26 -10 -82zM414 -64q-35 -117 -172 -117q-62 0 -95.5 26.5t-36.5 90.5h64q4 -36 22.5 -49t58.5 -13
q38 0 67 16.5t39 45.5h53z" />
    <glyph glyph-name="Ldotbelow" unicode="&#x1e36;" horiz-adv-x="462" 
d="M426 0h-380l137 739h74l-125 -672h306zM239 -186h-74l23 126h74z" />
    <glyph glyph-name="ldotbelow" unicode="&#x1e37;" horiz-adv-x="200" 
d="M244 739l-137 -739h-74l137 739h74zM73 -186h-74l23 126h74z" />
    <glyph glyph-name="Ldotbelowmacron" unicode="&#x1e38;" horiz-adv-x="462" 
d="M426 0h-380l137 739h74l-125 -672h306zM239 -186h-74l23 126h74zM415 883l-12 -62h-337l12 62h337z" />
    <glyph glyph-name="ldotbelowmacron" unicode="&#x1e39;" horiz-adv-x="200" 
d="M244 739l-137 -739h-74l137 739h74zM73 -186h-74l23 126h74zM402 883l-12 -62h-337l12 62h337z" />
    <glyph glyph-name="Mdotbelow" unicode="&#x1e42;" horiz-adv-x="919" 
d="M950 739l-137 -739h-74l122 658l-400 -658h-64l-155 658l-122 -658h-74l137 739h115l152 -629l385 629h115zM433 -186h-74l23 126h74z" />
    <glyph glyph-name="mdotbelow" unicode="&#x1e43;" horiz-adv-x="938" 
d="M843 0h-74l59 317q6 36 6 62q0 52 -31.5 82.5t-86.5 30.5q-69 0 -117 -43.5t-65 -131.5l-59 -317h-74l59 319q6 31 6 53q0 59 -34 89.5t-87 30.5q-68 0 -116 -46.5t-63 -126.5l-59 -319h-74l101 547h74l-11 -63q47 47 81 61.5t85 14.5q128 0 159 -105q49 56 97 80.5
t112 24.5q81 0 130.5 -43.5t49.5 -114.5q0 -31 -8 -77zM442 -186h-74l23 126h74z" />
    <glyph glyph-name="Ndotaccent" unicode="&#x1e44;" horiz-adv-x="740" 
d="M771 739l-137 -739h-74l-320 650l-120 -650h-74l137 739h100l300 -613l114 613h74zM524 789h-74l23 126h74z" />
    <glyph glyph-name="ndotaccent" unicode="&#x1e45;" horiz-adv-x="610" 
d="M515 0h-74l53 287q8 45 8 74q0 60 -37.5 95.5t-101.5 35.5q-76 0 -129 -47t-71 -144l-56 -301h-74l101 547h74l-13 -71q87 84 188 84q90 0 143 -49t53 -132q0 -35 -11 -92zM424 607h-74l23 126h74z" />
    <glyph glyph-name="Ndotbelow" unicode="&#x1e46;" horiz-adv-x="740" 
d="M771 739l-137 -739h-74l-320 650l-120 -650h-74l137 739h100l300 -613l114 613h74zM343 -186h-74l23 126h74z" />
    <glyph glyph-name="ndotbelow" unicode="&#x1e47;" horiz-adv-x="610" 
d="M515 0h-74l53 287q8 45 8 74q0 60 -37.5 95.5t-101.5 35.5q-76 0 -129 -47t-71 -144l-56 -301h-74l101 547h74l-13 -71q87 84 188 84q90 0 143 -49t53 -132q0 -35 -11 -92zM277 -186h-74l23 126h74z" />
    <glyph glyph-name="Rdotaccent" unicode="&#x1e58;" horiz-adv-x="607" 
d="M643 553q0 -114 -73 -190.5t-190 -86.5l156 -276h-92l-187 335q141 0 200 24q48 20 78.5 71t30.5 111q0 71 -50 101t-167 30h-104l-125 -672h-74l137 739h183q150 0 213.5 -44.5t63.5 -141.5zM466 789h-74l23 126h74z" />
    <glyph glyph-name="rdotaccent" unicode="&#x1e59;" horiz-adv-x="301" 
d="M366 560l-14 -73q-158 -17 -186 -168l-59 -319h-74l101 547h74l-14 -78q30 45 69.5 66t102.5 25zM257 607h-74l23 126h74z" />
    <glyph glyph-name="Rdotbelow" unicode="&#x1e5a;" horiz-adv-x="607" 
d="M643 553q0 -114 -73 -190.5t-190 -86.5l156 -276h-92l-187 335q141 0 200 24q48 20 78.5 71t30.5 111q0 71 -50 101t-167 30h-104l-125 -672h-74l137 739h183q150 0 213.5 -44.5t63.5 -141.5zM285 -186h-74l23 126h74z" />
    <glyph glyph-name="rdotbelow" unicode="&#x1e5b;" horiz-adv-x="301" 
d="M366 560l-14 -73q-158 -17 -186 -168l-59 -319h-74l101 547h74l-14 -78q30 45 69.5 66t102.5 25zM73 -186h-74l23 126h74z" />
    <glyph glyph-name="Rdotbelowmacron" unicode="&#x1e5c;" horiz-adv-x="607" 
d="M643 553q0 -114 -73 -190.5t-190 -86.5l156 -276h-92l-187 335q141 0 200 24q48 20 78.5 71t30.5 111q0 71 -50 101t-167 30h-104l-125 -672h-74l137 739h183q150 0 213.5 -44.5t63.5 -141.5zM285 -186h-74l23 126h74zM614 883l-12 -62h-337l12 62h337z" />
    <glyph glyph-name="rdotbelowmacron" unicode="&#x1e5d;" horiz-adv-x="301" 
d="M366 560l-14 -73q-158 -17 -186 -168l-59 -319h-74l101 547h74l-14 -78q30 45 69.5 66t102.5 25zM73 -186h-74l23 126h74zM407 714l-12 -62h-337l12 62h337z" />
    <glyph glyph-name="Sdotbelow" unicode="&#x1e62;" horiz-adv-x="498" 
d="M488 246q0 -102 -81 -180.5t-188 -78.5q-85 0 -139 49.5t-54 128.5q0 10 2 42h79q0 -80 31.5 -116t95.5 -36q72 0 124.5 52.5t52.5 124.5q0 46 -30 72.5t-109 51.5q-97 30 -127 65.5t-30 98.5q0 89 72.5 160.5t173.5 71.5q78 0 125.5 -44.5t47.5 -117.5q0 -11 -3 -38h-77
q0 132 -106 132q-65 0 -110.5 -47.5t-45.5 -105.5q0 -15 6.5 -34t15.5 -28q11 -11 29 -19.5t72 -26.5q110 -37 141 -76q32 -41 32 -101zM225 -186h-74l23 126h74z" />
    <glyph glyph-name="sdotbelow" unicode="&#x1e63;" horiz-adv-x="388" 
d="M362 189q0 -83 -61 -142.5t-142 -59.5q-66 0 -106 38t-40 92q0 20 3 44h73q0 -62 20.5 -84t62.5 -22q46 0 79.5 33.5t33.5 78.5q0 31 -16 47.5t-72 40.5q-45 20 -62.5 30t-28.5 23q-26 29 -26 72q0 72 57.5 126t130.5 54q55 0 91 -33.5t36 -84.5q0 -19 -1 -30h-75
q0 80 -65 80q-37 0 -67 -28.5t-30 -63.5q0 -38 38 -59q18 -9 95 -44q72 -32 72 -108zM167 -186h-74l23 126h74z" />
    <glyph glyph-name="Tdotbelow" unicode="&#x1e6c;" horiz-adv-x="426" 
d="M514 672h-169l-125 -672h-74l125 672h-169l12 67h412zM186 -186h-74l23 126h74z" />
    <glyph glyph-name="tdotbelow" unicode="&#x1e6d;" horiz-adv-x="339" 
d="M386 480h-129l-89 -480h-74l89 480h-112l12 67h112l36 192h74l-36 -192h129zM143 -186h-74l23 126h74z" />
    <glyph glyph-name="Tlinebelow" unicode="&#x1e6e;" horiz-adv-x="426" 
d="M514 672h-169l-125 -672h-74l125 672h-169l12 67h412zM335 -92l-12 -62h-337l12 62h337z" />
    <glyph glyph-name="tlinebelow" unicode="&#x1e6f;" horiz-adv-x="339" 
d="M386 480h-129l-89 -480h-74l89 480h-112l12 67h112l36 192h74l-36 -192h129zM291 -92l-12 -62h-337l12 62h337z" />
    <glyph glyph-name="Wgrave" unicode="&#x1e80;" horiz-adv-x="960" 
d="M1057 739l-349 -739h-95l-52 606l-274 -606h-96l-74 739h76l63 -643l296 643h70l58 -643l301 643h76zM680 832l-45 -56l-172 114l46 58z" />
    <glyph glyph-name="wgrave" unicode="&#x1e81;" horiz-adv-x="831" 
d="M895 547l-313 -547h-79l-52 363l-185 -363h-80l-108 547h74l89 -458l202 391h61l56 -391l263 458h72zM581 650l-45 -56l-172 114l46 58z" />
    <glyph glyph-name="Wacute" unicode="&#x1e82;" horiz-adv-x="960" 
d="M1057 739l-349 -739h-95l-52 606l-274 -606h-96l-74 739h76l63 -643l296 643h70l58 -643l301 643h76zM766 890l-214 -114l-24 56l214 116z" />
    <glyph glyph-name="wacute" unicode="&#x1e83;" horiz-adv-x="831" 
d="M895 547l-313 -547h-79l-52 363l-185 -363h-80l-108 547h74l89 -458l202 391h61l56 -391l263 458h72zM667 708l-214 -114l-24 56l214 116z" />
    <glyph glyph-name="Wdieresis" unicode="&#x1e84;" horiz-adv-x="960" 
d="M1057 739l-349 -739h-95l-52 606l-274 -606h-96l-74 739h76l63 -643l296 643h70l58 -643l301 643h76zM558 789h-74l23 126h74zM705 789h-74l23 126h74z" />
    <glyph glyph-name="wdieresis" unicode="&#x1e85;" horiz-adv-x="831" 
d="M895 547l-313 -547h-79l-52 363l-185 -363h-80l-108 547h74l89 -458l202 391h61l56 -391l263 458h72zM459 607h-74l23 126h74zM606 607h-74l23 126h74z" />
    <glyph glyph-name="Zdotbelow" unicode="&#x1e92;" horiz-adv-x="480" 
d="M444 0h-457l12 67l476 605h-352l12 67h435l-12 -67l-475 -605h373zM219 -186h-74l23 126h74z" />
    <glyph glyph-name="zdotbelow" unicode="&#x1e93;" horiz-adv-x="425" 
d="M385 0h-405l12 67l379 413h-292l12 67h376l-11 -63l-377 -417h318zM181 -186h-74l23 126h74z" />
    <glyph glyph-name="tdieresis" unicode="&#x1e97;" horiz-adv-x="339" 
d="M386 480h-129l-89 -480h-74l89 480h-112l12 67h112l36 192h74l-36 -192h129zM239 789h-74l23 126h74zM386 789h-74l23 126h74z" />
    <glyph glyph-name="Adotbelow" unicode="&#x1ea0;" horiz-adv-x="740" 
d="M699 0h-81l-61 249h-344l-154 -249h-78l454 739h83zM541 316l-80 339l-207 -339h287zM343 -186h-74l23 126h74z" />
    <glyph glyph-name="adotbelow" unicode="&#x1ea1;" 
d="M590 0h-74l18 96q-61 -62 -111 -85.5t-120 -23.5q-110 0 -177.5 63t-67.5 166q0 139 103 241.5t243 102.5q139 0 195 -110l18 97h74zM571 319q0 75 -49.5 124t-124.5 49q-104 0 -183 -77.5t-79 -179.5q0 -80 50.5 -130t132.5 -50q100 0 176.5 80t76.5 184zM303 -186h-74
l23 126h74z" />
    <glyph glyph-name="Ahookabove" unicode="&#x1ea2;" horiz-adv-x="740" 
d="M699 0h-81l-61 249h-344l-154 -249h-78l454 739h83zM541 316l-80 339l-207 -339h287zM611 914q0 -28 -19 -50q-10 -10 -35 -27h-1q-41 -26 -46 -56h-54q5 53 61 90q38 25 38 40q0 22 -35 22q-48 0 -67 -55h-55q17 57 48.5 81t78.5 24q40 0 63 -18.5t23 -50.5z" />
    <glyph glyph-name="ahookabove" unicode="&#x1ea3;" 
d="M590 0h-74l18 96q-61 -62 -111 -85.5t-120 -23.5q-110 0 -177.5 63t-67.5 166q0 139 103 241.5t243 102.5q139 0 195 -110l18 97h74zM571 319q0 75 -49.5 124t-124.5 49q-104 0 -183 -77.5t-79 -179.5q0 -80 50.5 -130t132.5 -50q100 0 176.5 80t76.5 184zM536 722
q0 -28 -19 -50q-10 -10 -35 -27h-1q-41 -26 -46 -56h-54q5 53 61 90q38 25 38 40q0 22 -35 22q-48 0 -67 -55h-55q31 105 127 105q40 0 63 -18.5t23 -50.5z" />
    <glyph glyph-name="Acircumflexacute" unicode="&#x1ea4;" horiz-adv-x="740" 
d="M699 0h-81l-61 249h-344l-154 -249h-78l454 739h83zM541 316l-80 339l-207 -339h287zM685 1049l-214 -114l-24 56l214 116zM663 789h-89l-72 74l-102 -74h-91l168 126h66z" />
    <glyph glyph-name="acircumflexacute" unicode="&#x1ea5;" 
d="M590 0h-74l18 96q-61 -62 -111 -85.5t-120 -23.5q-110 0 -177.5 63t-67.5 166q0 139 103 241.5t243 102.5q139 0 195 -110l18 97h74zM571 319q0 75 -49.5 124t-124.5 49q-104 0 -183 -77.5t-79 -179.5q0 -80 50.5 -130t132.5 -50q100 0 176.5 80t76.5 184zM610 857
l-214 -114l-24 56l214 116zM588 597h-89l-72 74l-102 -74h-91l168 126h66z" />
    <glyph glyph-name="Acircumflexgrave" unicode="&#x1ea6;" horiz-adv-x="740" 
d="M699 0h-81l-61 249h-344l-154 -249h-78l454 739h83zM541 316l-80 339l-207 -339h287zM599 991l-45 -56l-172 114l46 58zM663 789h-89l-72 74l-102 -74h-91l168 126h66z" />
    <glyph glyph-name="acircumflexgrave" unicode="&#x1ea7;" 
d="M590 0h-74l18 96q-61 -62 -111 -85.5t-120 -23.5q-110 0 -177.5 63t-67.5 166q0 139 103 241.5t243 102.5q139 0 195 -110l18 97h74zM571 319q0 75 -49.5 124t-124.5 49q-104 0 -183 -77.5t-79 -179.5q0 -80 50.5 -130t132.5 -50q100 0 176.5 80t76.5 184zM524 799
l-45 -56l-172 114l46 58zM588 597h-89l-72 74l-102 -74h-91l168 126h66z" />
    <glyph glyph-name="Acircumflexhookabove" unicode="&#x1ea8;" horiz-adv-x="740" 
d="M699 0h-81l-61 249h-344l-154 -249h-78l454 739h83zM541 316l-80 339l-207 -339h287zM715 1080q0 -28 -19 -50q-10 -10 -35 -27h-1q-41 -26 -46 -56h-54q5 53 61 90q38 25 38 40q0 22 -35 22q-48 0 -67 -55h-55q17 57 48.5 81t78.5 24q40 0 63 -18.5t23 -50.5zM663 789
h-89l-72 74l-102 -74h-91l168 126h66z" />
    <glyph glyph-name="acircumflexhookabove" unicode="&#x1ea9;" 
d="M590 0h-74l18 96q-61 -62 -111 -85.5t-120 -23.5q-110 0 -177.5 63t-67.5 166q0 139 103 241.5t243 102.5q139 0 195 -110l18 97h74zM571 319q0 75 -49.5 124t-124.5 49q-104 0 -183 -77.5t-79 -179.5q0 -80 50.5 -130t132.5 -50q100 0 176.5 80t76.5 184zM640 888
q0 -28 -19 -50q-10 -10 -35 -27h-1q-41 -26 -46 -56h-54q5 53 61 90q38 25 38 40q0 22 -35 22q-48 0 -67 -55h-55q31 105 127 105q40 0 63 -18.5t23 -50.5zM588 597h-89l-72 74l-102 -74h-91l168 126h66z" />
    <glyph glyph-name="Acircumflextilde" unicode="&#x1eaa;" horiz-adv-x="740" 
d="M699 0h-81l-61 249h-344l-154 -249h-78l454 739h83zM541 316l-80 339l-207 -339h287zM664 1000q-40 -55 -92 -55q-27 0 -96 33q-7 4 -17 4q-9 0 -18 -5.5t-40 -27.5l-23 45q49 51 89 51q14 0 55 -18.5t50 -18.5q36 0 71 38zM663 789h-89l-72 74l-102 -74h-91l168 126h66z
" />
    <glyph glyph-name="acircumflextilde" unicode="&#x1eab;" 
d="M590 0h-74l18 96q-61 -62 -111 -85.5t-120 -23.5q-110 0 -177.5 63t-67.5 166q0 139 103 241.5t243 102.5q139 0 195 -110l18 97h74zM571 319q0 75 -49.5 124t-124.5 49q-104 0 -183 -77.5t-79 -179.5q0 -80 50.5 -130t132.5 -50q100 0 176.5 80t76.5 184zM589 808
q-40 -55 -92 -55q-27 0 -96 33q-7 4 -17 4q-9 0 -18 -5.5t-40 -27.5l-23 45q49 51 89 51q14 0 55 -18.5t50 -18.5q36 0 71 38zM588 597h-89l-72 74l-102 -74h-91l168 126h66z" />
    <glyph glyph-name="Acircumflexdotbelow" unicode="&#x1eac;" horiz-adv-x="740" 
d="M699 0h-81l-61 249h-344l-154 -249h-78l454 739h83zM541 316l-80 339l-207 -339h287zM663 789h-89l-72 74l-102 -74h-91l168 126h66zM343 -186h-74l23 126h74z" />
    <glyph glyph-name="acircumflexdotbelow" unicode="&#x1ead;" 
d="M590 0h-74l18 96q-61 -62 -111 -85.5t-120 -23.5q-110 0 -177.5 63t-67.5 166q0 139 103 241.5t243 102.5q139 0 195 -110l18 97h74zM571 319q0 75 -49.5 124t-124.5 49q-104 0 -183 -77.5t-79 -179.5q0 -80 50.5 -130t132.5 -50q100 0 176.5 80t76.5 184zM589 607h-89
l-72 74l-102 -74h-91l168 126h66zM303 -186h-74l23 126h74z" />
    <glyph glyph-name="Abreveacute" unicode="&#x1eae;" horiz-adv-x="740" 
d="M699 0h-81l-61 249h-344l-154 -249h-78l454 739h83zM541 316l-80 339l-207 -339h287zM707 1056l-214 -114l-24 56l214 116zM661 911q-35 -117 -172 -117q-62 0 -95.5 26.5t-36.5 90.5h64q4 -36 22.5 -49t58.5 -13q38 0 67 16.5t39 45.5h53z" />
    <glyph glyph-name="abreveacute" unicode="&#x1eaf;" 
d="M590 0h-74l18 96q-61 -62 -111 -85.5t-120 -23.5q-110 0 -177.5 63t-67.5 166q0 139 103 241.5t243 102.5q139 0 195 -110l18 97h74zM571 319q0 75 -49.5 124t-124.5 49q-104 0 -183 -77.5t-79 -179.5q0 -80 50.5 -130t132.5 -50q100 0 176.5 80t76.5 184zM632 864
l-214 -114l-24 56l214 116zM586 719q-35 -117 -172 -117q-62 0 -95.5 26.5t-36.5 90.5h64q4 -36 22.5 -49t58.5 -13q38 0 67 16.5t39 45.5h53z" />
    <glyph glyph-name="Abrevegrave" unicode="&#x1eb0;" horiz-adv-x="740" 
d="M699 0h-81l-61 249h-344l-154 -249h-78l454 739h83zM541 316l-80 339l-207 -339h287zM581 998l-45 -56l-172 114l46 58zM661 911q-35 -117 -172 -117q-62 0 -95.5 26.5t-36.5 90.5h64q4 -36 22.5 -49t58.5 -13q38 0 67 16.5t39 45.5h53z" />
    <glyph glyph-name="abrevegrave" unicode="&#x1eb1;" 
d="M590 0h-74l18 96q-61 -62 -111 -85.5t-120 -23.5q-110 0 -177.5 63t-67.5 166q0 139 103 241.5t243 102.5q139 0 195 -110l18 97h74zM571 319q0 75 -49.5 124t-124.5 49q-104 0 -183 -77.5t-79 -179.5q0 -80 50.5 -130t132.5 -50q100 0 176.5 80t76.5 184zM506 806
l-45 -56l-172 114l46 58zM586 719q-35 -117 -172 -117q-62 0 -95.5 26.5t-36.5 90.5h64q4 -36 22.5 -49t58.5 -13q38 0 67 16.5t39 45.5h53z" />
    <glyph glyph-name="Abrevehookabove" unicode="&#x1eb2;" horiz-adv-x="740" 
d="M699 0h-81l-61 249h-344l-154 -249h-78l454 739h83zM541 316l-80 339l-207 -339h287zM633 1031q0 -28 -19 -50q-10 -10 -35 -27h-1q-41 -26 -46 -56h-54q5 53 61 90q38 25 38 40q0 22 -35 22q-48 0 -67 -55h-55q17 57 48.5 81t78.5 24q40 0 63 -18.5t23 -50.5zM661 911
q-35 -117 -172 -117q-62 0 -95.5 26.5t-36.5 90.5h64q4 -36 22.5 -49t58.5 -13q38 0 67 16.5t39 45.5h53z" />
    <glyph glyph-name="abrevehookabove" unicode="&#x1eb3;" 
d="M590 0h-74l18 96q-61 -62 -111 -85.5t-120 -23.5q-110 0 -177.5 63t-67.5 166q0 139 103 241.5t243 102.5q139 0 195 -110l18 97h74zM571 319q0 75 -49.5 124t-124.5 49q-104 0 -183 -77.5t-79 -179.5q0 -80 50.5 -130t132.5 -50q100 0 176.5 80t76.5 184zM558 839
q0 -28 -19 -50q-10 -10 -35 -27h-1q-41 -26 -46 -56h-54q5 53 61 90q38 25 38 40q0 22 -35 22q-48 0 -67 -55h-55q31 105 127 105q40 0 63 -18.5t23 -50.5zM586 719q-35 -117 -172 -117q-62 0 -95.5 26.5t-36.5 90.5h64q4 -36 22.5 -49t58.5 -13q38 0 67 16.5t39 45.5h53z
" />
    <glyph glyph-name="Abrevetilde" unicode="&#x1eb4;" horiz-adv-x="740" 
d="M699 0h-81l-61 249h-344l-154 -249h-78l454 739h83zM541 316l-80 339l-207 -339h287zM666 1008q-40 -55 -92 -55q-27 0 -96 33q-7 4 -17 4q-9 0 -18 -5.5t-40 -27.5l-23 45q49 51 89 51q14 0 55 -18.5t50 -18.5q36 0 71 38zM661 911q-35 -117 -172 -117q-62 0 -95.5 26.5
t-36.5 90.5h64q4 -36 22.5 -49t58.5 -13q38 0 67 16.5t39 45.5h53z" />
    <glyph glyph-name="abrevetilde" unicode="&#x1eb5;" 
d="M590 0h-74l18 96q-61 -62 -111 -85.5t-120 -23.5q-110 0 -177.5 63t-67.5 166q0 139 103 241.5t243 102.5q139 0 195 -110l18 97h74zM571 319q0 75 -49.5 124t-124.5 49q-104 0 -183 -77.5t-79 -179.5q0 -80 50.5 -130t132.5 -50q100 0 176.5 80t76.5 184zM591 816
q-40 -55 -92 -55q-27 0 -96 33q-7 4 -17 4q-9 0 -18 -5.5t-40 -27.5l-23 45q49 51 89 51q14 0 55 -18.5t50 -18.5q36 0 71 38zM586 719q-35 -117 -172 -117q-62 0 -95.5 26.5t-36.5 90.5h64q4 -36 22.5 -49t58.5 -13q38 0 67 16.5t39 45.5h53z" />
    <glyph glyph-name="Abrevedotbelow" unicode="&#x1eb6;" horiz-adv-x="740" 
d="M699 0h-81l-61 249h-344l-154 -249h-78l454 739h83zM541 316l-80 339l-207 -339h287zM660 911q-35 -117 -172 -117q-62 0 -95.5 26.5t-36.5 90.5h64q4 -36 22.5 -49t58.5 -13q38 0 67 16.5t39 45.5h53zM343 -186h-74l23 126h74z" />
    <glyph glyph-name="abrevedotbelow" unicode="&#x1eb7;" 
d="M590 0h-74l18 96q-61 -62 -111 -85.5t-120 -23.5q-110 0 -177.5 63t-67.5 166q0 139 103 241.5t243 102.5q139 0 195 -110l18 97h74zM571 319q0 75 -49.5 124t-124.5 49q-104 0 -183 -77.5t-79 -179.5q0 -80 50.5 -130t132.5 -50q100 0 176.5 80t76.5 184zM581 729
q-35 -117 -172 -117q-62 0 -95.5 26.5t-36.5 90.5h64q4 -36 22.5 -49t58.5 -13q38 0 67 16.5t39 45.5h53zM303 -186h-74l23 126h74z" />
    <glyph glyph-name="Edotbelow" unicode="&#x1eb8;" horiz-adv-x="536" 
d="M575 672h-330l-50 -265h319l-12 -67h-319l-51 -273h330l-12 -67h-404l137 739h404zM241 -186h-74l23 126h74z" />
    <glyph glyph-name="edotbelow" unicode="&#x1eb9;" horiz-adv-x="650" 
d="M626 249h-495q-2 -24 -2 -28q0 -70 52 -118t127 -48q61 0 121.5 35t92.5 90h77q-48 -88 -130.5 -140.5t-173.5 -52.5q-102 0 -169.5 66.5t-67.5 166.5q0 135 102.5 237.5t237.5 102.5q104 0 170.5 -64t66.5 -164q0 -32 -9 -83zM565 316q-4 81 -52.5 128.5t-127.5 47.5
q-78 0 -145 -49.5t-94 -126.5h419zM297 -186h-74l23 126h74z" />
    <glyph glyph-name="Ehookabove" unicode="&#x1eba;" horiz-adv-x="536" 
d="M575 672h-330l-50 -265h319l-12 -67h-319l-51 -273h330l-12 -67h-404l137 739h404zM520 914q0 -28 -19 -50q-10 -10 -35 -27h-1q-41 -26 -46 -56h-54q5 53 61 90q38 25 38 40q0 22 -35 22q-48 0 -67 -55h-55q17 57 48.5 81t78.5 24q40 0 63 -18.5t23 -50.5z" />
    <glyph glyph-name="ehookabove" unicode="&#x1ebb;" horiz-adv-x="650" 
d="M626 249h-495q-2 -24 -2 -28q0 -70 52 -118t127 -48q61 0 121.5 35t92.5 90h77q-48 -88 -130.5 -140.5t-173.5 -52.5q-102 0 -169.5 66.5t-67.5 166.5q0 135 102.5 237.5t237.5 102.5q104 0 170.5 -64t66.5 -164q0 -32 -9 -83zM565 316q-4 81 -52.5 128.5t-127.5 47.5
q-78 0 -145 -49.5t-94 -126.5h419zM530 722q0 -28 -19 -50q-10 -10 -35 -27h-1q-41 -26 -46 -56h-54q5 53 61 90q38 25 38 40q0 22 -35 22q-48 0 -67 -55h-55q31 105 127 105q40 0 63 -18.5t23 -50.5z" />
    <glyph glyph-name="Etilde" unicode="&#x1ebc;" horiz-adv-x="536" 
d="M575 672h-330l-50 -265h319l-12 -67h-319l-51 -273h330l-12 -67h-404l137 739h404zM546 857q-40 -55 -92 -55q-27 0 -96 33q-7 4 -17 4q-9 0 -18 -5.5t-40 -27.5l-23 45q49 51 89 51q14 0 55 -18.5t50 -18.5q36 0 71 38z" />
    <glyph glyph-name="etilde" unicode="&#x1ebd;" horiz-adv-x="650" 
d="M626 249h-495q-2 -24 -2 -28q0 -70 52 -118t127 -48q61 0 121.5 35t92.5 90h77q-48 -88 -130.5 -140.5t-173.5 -52.5q-102 0 -169.5 66.5t-67.5 166.5q0 135 102.5 237.5t237.5 102.5q104 0 170.5 -64t66.5 -164q0 -32 -9 -83zM565 316q-4 81 -52.5 128.5t-127.5 47.5
q-78 0 -145 -49.5t-94 -126.5h419zM557 675q-40 -55 -92 -55q-27 0 -96 33q-7 4 -17 4q-9 0 -18 -5.5t-40 -27.5l-23 45q49 51 89 51q14 0 55 -18.5t50 -18.5q36 0 71 38z" />
    <glyph glyph-name="Ecircumflexacute" unicode="&#x1ebe;" horiz-adv-x="536" 
d="M575 672h-330l-50 -265h319l-12 -67h-319l-51 -273h330l-12 -67h-404l137 739h404zM594 1049l-214 -114l-24 56l214 116zM572 789h-89l-72 74l-102 -74h-91l168 126h66z" />
    <glyph glyph-name="ecircumflexacute" unicode="&#x1ebf;" horiz-adv-x="650" 
d="M626 249h-495q-2 -24 -2 -28q0 -70 52 -118t127 -48q61 0 121.5 35t92.5 90h77q-48 -88 -130.5 -140.5t-173.5 -52.5q-102 0 -169.5 66.5t-67.5 166.5q0 135 102.5 237.5t237.5 102.5q104 0 170.5 -64t66.5 -164q0 -32 -9 -83zM565 316q-4 81 -52.5 128.5t-127.5 47.5
q-78 0 -145 -49.5t-94 -126.5h419zM604 857l-214 -114l-24 56l214 116zM582 597h-89l-72 74l-102 -74h-91l168 126h66z" />
    <glyph glyph-name="Ecircumflexgrave" unicode="&#x1ec0;" horiz-adv-x="536" 
d="M575 672h-330l-50 -265h319l-12 -67h-319l-51 -273h330l-12 -67h-404l137 739h404zM508 991l-45 -56l-172 114l46 58zM572 789h-89l-72 74l-102 -74h-91l168 126h66z" />
    <glyph glyph-name="ecircumflexgrave" unicode="&#x1ec1;" horiz-adv-x="650" 
d="M626 249h-495q-2 -24 -2 -28q0 -70 52 -118t127 -48q61 0 121.5 35t92.5 90h77q-48 -88 -130.5 -140.5t-173.5 -52.5q-102 0 -169.5 66.5t-67.5 166.5q0 135 102.5 237.5t237.5 102.5q104 0 170.5 -64t66.5 -164q0 -32 -9 -83zM565 316q-4 81 -52.5 128.5t-127.5 47.5
q-78 0 -145 -49.5t-94 -126.5h419zM518 799l-45 -56l-172 114l46 58zM582 597h-89l-72 74l-102 -74h-91l168 126h66z" />
    <glyph glyph-name="Ecircumflexhookabove" unicode="&#x1ec2;" horiz-adv-x="536" 
d="M575 672h-330l-50 -265h319l-12 -67h-319l-51 -273h330l-12 -67h-404l137 739h404zM624 1080q0 -28 -19 -50q-10 -10 -35 -27h-1q-41 -26 -46 -56h-54q5 53 61 90q38 25 38 40q0 22 -35 22q-48 0 -67 -55h-55q31 105 127 105q40 0 63 -18.5t23 -50.5zM572 789h-89l-72 74
l-102 -74h-91l168 126h66z" />
    <glyph glyph-name="ecircumflexhookabove" unicode="&#x1ec3;" horiz-adv-x="650" 
d="M626 249h-495q-2 -24 -2 -28q0 -70 52 -118t127 -48q61 0 121.5 35t92.5 90h77q-48 -88 -130.5 -140.5t-173.5 -52.5q-102 0 -169.5 66.5t-67.5 166.5q0 135 102.5 237.5t237.5 102.5q104 0 170.5 -64t66.5 -164q0 -32 -9 -83zM565 316q-4 81 -52.5 128.5t-127.5 47.5
q-78 0 -145 -49.5t-94 -126.5h419zM634 888q0 -28 -19 -50q-10 -10 -35 -27h-1q-41 -26 -46 -56h-54q5 53 61 90q38 25 38 40q0 22 -35 22q-48 0 -67 -55h-55q31 105 127 105q40 0 63 -18.5t23 -50.5zM582 597h-89l-72 74l-102 -74h-91l168 126h66z" />
    <glyph glyph-name="Ecircumflextilde" unicode="&#x1ec4;" horiz-adv-x="536" 
d="M575 672h-330l-50 -265h319l-12 -67h-319l-51 -273h330l-12 -67h-404l137 739h404zM573 1000q-40 -55 -92 -55q-27 0 -96 33q-7 4 -17 4q-9 0 -18 -5.5t-40 -27.5l-23 45q49 51 89 51q14 0 55 -18.5t50 -18.5q36 0 71 38zM572 789h-89l-72 74l-102 -74h-91l168 126h66z
" />
    <glyph glyph-name="ecircumflextilde" unicode="&#x1ec5;" horiz-adv-x="650" 
d="M626 249h-495q-2 -24 -2 -28q0 -70 52 -118t127 -48q61 0 121.5 35t92.5 90h77q-48 -88 -130.5 -140.5t-173.5 -52.5q-102 0 -169.5 66.5t-67.5 166.5q0 135 102.5 237.5t237.5 102.5q104 0 170.5 -64t66.5 -164q0 -32 -9 -83zM565 316q-4 81 -52.5 128.5t-127.5 47.5
q-78 0 -145 -49.5t-94 -126.5h419zM583 808q-40 -55 -92 -55q-27 0 -96 33q-7 4 -17 4q-9 0 -18 -5.5t-40 -27.5l-23 45q49 51 89 51q14 0 55 -18.5t50 -18.5q36 0 71 38zM582 597h-89l-72 74l-102 -74h-91l168 126h66z" />
    <glyph glyph-name="Ecircumflexdotbelow" unicode="&#x1ec6;" horiz-adv-x="536" 
d="M575 672h-330l-50 -265h319l-12 -67h-319l-51 -273h330l-12 -67h-404l137 739h404zM572 789h-89l-72 74l-102 -74h-91l168 126h66zM241 -186h-74l23 126h74z" />
    <glyph glyph-name="ecircumflexdotbelow" unicode="&#x1ec7;" horiz-adv-x="650" 
d="M626 249h-495q-2 -24 -2 -28q0 -70 52 -118t127 -48q61 0 121.5 35t92.5 90h77q-48 -88 -130.5 -140.5t-173.5 -52.5q-102 0 -169.5 66.5t-67.5 166.5q0 135 102.5 237.5t237.5 102.5q104 0 170.5 -64t66.5 -164q0 -32 -9 -83zM565 316q-4 81 -52.5 128.5t-127.5 47.5
q-78 0 -145 -49.5t-94 -126.5h419zM583 607h-89l-72 74l-102 -74h-91l168 126h66zM297 -186h-74l23 126h74z" />
    <glyph glyph-name="Ihookabove" unicode="&#x1ec8;" horiz-adv-x="226" 
d="M257 739l-137 -739h-74l137 739h74zM355 914q0 -28 -19 -50q-10 -10 -35 -27h-1q-41 -26 -46 -56h-54q5 53 61 90q38 25 38 40q0 22 -35 22q-48 0 -67 -55h-55q17 57 48.5 81t78.5 24q40 0 63 -18.5t23 -50.5z" />
    <glyph glyph-name="ihookabove" unicode="&#x1ec9;" horiz-adv-x="200" 
d="M107 0h-74l101 547h74zM306 722q0 -28 -19 -50q-10 -10 -35 -27h-1q-41 -26 -46 -56h-54q5 53 61 90q38 25 38 40q0 22 -35 22q-48 0 -67 -55h-55q31 105 127 105q40 0 63 -18.5t23 -50.5z" />
    <glyph glyph-name="Idotbelow" unicode="&#x1eca;" horiz-adv-x="226" 
d="M257 739l-137 -739h-74l137 739h74zM86 -186h-74l23 126h74z" />
    <glyph glyph-name="idotbelow" unicode="&#x1ecb;" horiz-adv-x="200" 
d="M107 0h-74l101 547h74zM220 607h-74l23 126h74zM73 -186h-74l23 126h74z" />
    <glyph glyph-name="Odotbelow" unicode="&#x1ecc;" horiz-adv-x="869" 
d="M870 436q0 -114 -66.5 -218.5t-176 -167.5t-229.5 -63q-135 0 -228.5 90t-93.5 225q0 115 66.5 219.5t176 167.5t229.5 63q133 0 227.5 -89.5t94.5 -226.5zM793 422q0 114 -74 188t-189 74q-143 0 -260 -114t-117 -254q0 -110 74.5 -185.5t182.5 -75.5q149 0 266 112.5
t117 254.5zM412 -186h-74l23 126h74z" />
    <glyph glyph-name="odotbelow" unicode="&#x1ecd;" horiz-adv-x="655" 
d="M639 332q0 -140 -102 -242.5t-234 -102.5q-109 0 -177.5 63.5t-68.5 164.5q0 141 105 243t243 102q104 0 169 -63t65 -165zM562 325q0 73 -48 120t-122 47q-105 0 -181.5 -78.5t-76.5 -185.5q0 -77 49.5 -125t129.5 -48q104 0 176.5 78.5t72.5 191.5zM304 -186h-74
l23 126h74z" />
    <glyph glyph-name="Ohookabove" unicode="&#x1ece;" horiz-adv-x="869" 
d="M870 436q0 -114 -66.5 -218.5t-176 -167.5t-229.5 -63q-135 0 -228.5 90t-93.5 225q0 115 66.5 219.5t176 167.5t229.5 63q133 0 227.5 -89.5t94.5 -226.5zM793 422q0 114 -74 188t-189 74q-143 0 -260 -114t-117 -254q0 -110 74.5 -185.5t182.5 -75.5q149 0 266 112.5
t117 254.5zM680 914q0 -28 -19 -50q-10 -10 -35 -27h-1q-41 -26 -46 -56h-54q5 53 61 90q38 25 38 40q0 22 -35 22q-48 0 -67 -55h-55q31 105 127 105q40 0 63 -18.5t23 -50.5z" />
    <glyph glyph-name="ohookabove" unicode="&#x1ecf;" horiz-adv-x="655" 
d="M639 332q0 -140 -102 -242.5t-234 -102.5q-109 0 -177.5 63.5t-68.5 164.5q0 141 105 243t243 102q104 0 169 -63t65 -165zM562 325q0 73 -48 120t-122 47q-105 0 -181.5 -78.5t-76.5 -185.5q0 -77 49.5 -125t129.5 -48q104 0 176.5 78.5t72.5 191.5zM537 722
q0 -28 -19 -50q-10 -10 -35 -27h-1q-41 -26 -46 -56h-54q5 53 61 90q38 25 38 40q0 22 -35 22q-48 0 -67 -55h-55q17 57 48.5 81t78.5 24q40 0 63 -18.5t23 -50.5z" />
    </font>
</defs>
</svg>
