<svg id="Layer_1" data-name="Layer 1" xmlns="http://www.w3.org/2000/svg" viewBox="0 0 21.97 27.33"><defs><style>.cls-1{fill:#8dbc49;}</style></defs><title>Icono</title><path class="cls-1" d="M11,14.54c4,0,5.47-4,5.85-7.33C17.31,3.14,15.39.07,11,.07S4.69,3.14,5.16,7.21C5.54,10.52,7,14.54,11,14.54Z"/><path class="cls-1" d="M21.88,24.13a28.91,28.91,0,0,0-.42-3.84c-.27-1.53-.62-3.77-1.95-4.77a11.51,11.51,0,0,0-2.66-1.11,11.88,11.88,0,0,1-1.18-.53,6.11,6.11,0,0,1-4.67,2,6.14,6.14,0,0,1-4.67-2,11.67,11.67,0,0,1-1.17.53A11.16,11.16,0,0,0,2.5,15.52c-1.34,1-1.68,3.24-1.95,4.77a25.92,25.92,0,0,0-.42,3.84c0,1,.46,1.13,1.29,1.43a24.79,24.79,0,0,0,3.2.88,32.57,32.57,0,0,0,6.38.8,32.67,32.67,0,0,0,6.39-.8,25.24,25.24,0,0,0,3.2-.88C21.42,25.26,21.91,25.12,21.88,24.13Z"/></svg>