<svg id="Layer_1" data-name="Layer 1" xmlns="http://www.w3.org/2000/svg" viewBox="0 0 27.47 27.41"><defs><style>.cls-1{fill:#232323;}</style></defs><title>Icono</title><path class="cls-1" d="M8.32,21.86A2.72,2.72,0,1,0,11,24.57,2.7,2.7,0,0,0,8.32,21.86ZM.17.12V2.84H2.89L7.78,13.15,5.94,16.48a2.6,2.6,0,0,0-.34,1.3A2.73,2.73,0,0,0,8.32,20.5h16.3V17.78H8.89a.34.34,0,0,1-.34-.34l0-.16,1.22-2.22H19.93a2.7,2.7,0,0,0,2.38-1.39l4.86-8.82a1.31,1.31,0,0,0,.16-.65A1.36,1.36,0,0,0,26,2.84H5.89L4.61.12ZM21.9,21.86a2.72,2.72,0,1,0,2.72,2.71A2.71,2.71,0,0,0,21.9,21.86Z"/></svg>