<svg id="Layer_1" data-name="Layer 1" xmlns="http://www.w3.org/2000/svg" viewBox="0 0 19.63 37.71"><defs><style>.cls-1{fill:#8dbc49;}</style></defs><title>Icono</title><path class="cls-1" d="M18.9.23H14.25C9,.22,5.65,3.83,5.65,9.41v4.23H1a.74.74,0,0,0-.73.76v6.14A.74.74,0,0,0,1,21.3H5.65V36.78a.74.74,0,0,0,.73.76h6.1a.75.75,0,0,0,.73-.76V21.3h5.47a.75.75,0,0,0,.73-.76V14.4a.74.74,0,0,0-.21-.53.7.7,0,0,0-.52-.23H13.21V10.05c0-1.72.4-2.6,2.56-2.6H18.9a.75.75,0,0,0,.73-.76V1A.75.75,0,0,0,18.9.23Z"/></svg>