<svg id="Layer_1" data-name="Layer 1" xmlns="http://www.w3.org/2000/svg" viewBox="0 0 9.97 18.66"><defs><style>.cls-1{opacity:0.3;}.cls-2{fill:#232323;}</style></defs><title>Icono</title><g class="cls-1"><path class="cls-2" d="M9.41.17H7.12C4.54.16,2.87,1.94,2.87,4.69V6.78H.56a.37.37,0,0,0-.36.38v3a.37.37,0,0,0,.36.37H2.87V18.2a.37.37,0,0,0,.36.38h3a.37.37,0,0,0,.36-.38V10.56H9.3a.37.37,0,0,0,.36-.37v-3a.39.39,0,0,0-.11-.27.36.36,0,0,0-.26-.11H6.6V5c0-.85.2-1.28,1.27-1.28H9.41a.37.37,0,0,0,.36-.38V.54A.36.36,0,0,0,9.41.17Z"/></g></svg>