<svg id="Layer_1" data-name="Layer 1" xmlns="http://www.w3.org/2000/svg" viewBox="0 0 21.47 33.08"><defs><style>.cls-1{fill:#fff;}</style></defs><title>Icono</title><path class="cls-1" d="M10.71.13A10.63,10.63,0,0,0,.09,10.75c0,5.23,3.63,12.1,6.68,16.93A.67.67,0,1,0,7.9,27C2.55,18.48,1.43,13.46,1.43,10.75a9.28,9.28,0,0,1,18.56,0c0,8.31-9.71,21-9.81,21.11a.67.67,0,0,0,.12.93.64.64,0,0,0,.41.14.67.67,0,0,0,.53-.26c.41-.53,10.09-13.15,10.09-21.92A10.65,10.65,0,0,0,10.71.13Z"/><path class="cls-1" d="M10.71,7.36a.66.66,0,0,0,.67-.66A.67.67,0,0,0,10.71,6a4.72,4.72,0,1,0,4.72,4.72,4.64,4.64,0,0,0-1-2.85.67.67,0,1,0-1.06.81,3.32,3.32,0,0,1,.68,2,3.39,3.39,0,1,1-3.38-3.39Z"/></svg>