<svg id="Layer_1" data-name="Layer 1" xmlns="http://www.w3.org/2000/svg" viewBox="0 0 45.92 37.38"><defs><style>.cls-1{fill:#8dbc49;}</style></defs><title>Icono</title><path class="cls-1" d="M45.94,4.56A18.64,18.64,0,0,1,40.56,6,9.4,9.4,0,0,0,44.68.86a19,19,0,0,1-6,2.27,9.36,9.36,0,0,0-15.95,8.54A26.6,26.6,0,0,1,3.48,1.89a9.38,9.38,0,0,0,2.9,12.49,9.36,9.36,0,0,1-4.24-1.17v.12a9.38,9.38,0,0,0,7.51,9.18,9.56,9.56,0,0,1-2.47.32,9.29,9.29,0,0,1-1.76-.17,9.36,9.36,0,0,0,8.74,6.5,18.77,18.77,0,0,1-11.62,4A18.46,18.46,0,0,1,.3,33a26.51,26.51,0,0,0,14.35,4.22c17.22,0,26.64-14.27,26.64-26.64l0-1.21A18.73,18.73,0,0,0,45.94,4.56Z"/></svg>